<?xml version="1.0" standalone="no"?>
<!DOCTYPE svg PUBLIC "-//W3C//DTD SVG 20010904//EN"
 "http://www.w3.org/TR/2001/REC-SVG-20010904/DTD/svg10.dtd">
<svg version="1.0" xmlns="http://www.w3.org/2000/svg"
 width="949.000000pt" height="893.000000pt" viewBox="0 0 949.000000 893.000000"
 preserveAspectRatio="xMidYMid meet">

<g transform="translate(0.000000,893.000000) scale(0.100000,-0.100000)"
fill="#000000" stroke="none">
<path d="M4833 8524 c-224 -49 -420 -216 -474 -404 -17 -62 -44 -88 -109 -107
-91 -26 -130 -50 -130 -79 0 -30 34 -47 142 -69 92 -20 115 -35 128 -86 23
-85 -20 -184 -98 -223 -27 -13 -61 -41 -76 -60 -24 -31 -32 -36 -70 -36 -31 0
-55 8 -87 30 -77 53 -156 71 -329 77 l-155 5 -40 46 c-175 201 -278 262 -439
262 -158 0 -232 -68 -558 -510 -95 -129 -451 -639 -536 -767 -60 -91 -83 -135
-88 -169 -30 -205 93 -383 354 -510 61 -31 112 -59 112 -63 0 -5 -11 -33 -24
-62 -13 -30 -31 -96 -40 -147 -16 -95 -29 -132 -47 -132 -6 0 -52 5 -103 11
-124 15 -160 4 -220 -62 -25 -27 -72 -103 -104 -167 -111 -218 -173 -421 -175
-567 -1 -128 29 -164 187 -232 120 -50 123 -55 108 -198 -17 -156 -15 -184 10
-235 19 -36 36 -51 97 -84 48 -26 81 -52 93 -72 20 -35 32 -133 48 -414 6
-102 18 -243 26 -313 19 -177 20 -170 -31 -220 -31 -31 -45 -53 -45 -71 0 -31
21 -76 44 -95 9 -8 16 -17 16 -21 0 -9 -56 -30 -126 -49 -41 -11 -62 -30 -141
-128 -18 -24 -60 -55 -102 -77 -91 -48 -149 -102 -401 -376 -114 -124 -237
-252 -274 -285 -119 -106 -250 -186 -407 -248 -187 -74 -229 -99 -333 -198
-88 -84 -116 -121 -116 -159 0 -36 58 -137 122 -211 52 -61 73 -77 142 -109
45 -21 91 -48 103 -61 12 -13 53 -90 91 -170 100 -211 160 -268 319 -305 89
-20 500 -17 526 5 41 34 4 168 -62 223 -16 14 -71 42 -123 63 -51 20 -99 42
-107 48 -21 18 -32 56 -41 145 -5 46 -16 106 -26 134 -20 61 -15 111 20 182
97 199 427 398 1041 629 39 15 94 46 124 72 41 32 83 54 160 81 213 75 319
148 396 274 41 68 69 151 134 395 53 203 65 241 143 490 54 171 81 234 101
236 34 4 -3 21 487 -228 162 -82 324 -161 358 -174 114 -43 162 -103 162 -205
1 -65 17 -114 56 -171 35 -52 37 -55 25 -91 -19 -54 -25 -303 -12 -434 6 -62
27 -207 46 -323 71 -437 72 -602 5 -776 -31 -81 -58 -196 -65 -274 -3 -38 -8
-85 -11 -103 -10 -63 6 -142 36 -176 l28 -31 205 0 c203 0 206 0 231 24 24 22
30 23 108 18 46 -4 130 -13 188 -22 222 -31 532 -16 705 36 92 28 98 33 93 89
-9 87 -64 165 -143 200 -24 11 -89 23 -165 29 -189 17 -229 31 -314 111 -28
26 -82 70 -119 98 -37 28 -77 62 -89 77 -74 95 -74 351 2 735 41 207 55 323
65 534 6 110 10 133 28 158 18 25 21 43 23 141 0 61 8 148 17 192 21 102 21
244 2 320 -32 121 -102 211 -303 390 -68 61 -164 153 -214 205 l-91 95 124 7
c86 5 151 14 214 32 215 62 525 256 815 512 328 289 660 709 660 836 0 50 29
71 145 106 135 41 557 152 578 152 10 0 22 -11 27 -24 15 -41 38 -46 88 -20
25 13 52 24 61 24 9 0 88 20 176 45 88 25 167 45 176 45 11 0 19 -12 23 -34 8
-41 28 -60 56 -51 20 6 50 52 50 78 0 32 33 49 190 96 528 157 951 297 1065
353 64 31 115 73 115 95 0 17 -67 17 -195 -2 -149 -21 -295 -55 -650 -151
-339 -92 -550 -143 -556 -137 -4 5 -16 33 -26 63 -11 34 -24 56 -35 58 -10 2
-55 -15 -100 -37 -69 -34 -114 -47 -268 -77 -338 -64 -817 -176 -1078 -251
-68 -19 -133 -32 -146 -29 -12 3 -37 24 -55 46 -60 75 -134 89 -190 36 -24
-23 -260 -126 -289 -126 -7 0 -21 5 -32 12 -21 13 -41 10 -213 -35 -185 -49
-352 -54 -409 -13 -13 9 -38 28 -57 41 -19 14 -44 25 -56 25 -13 0 -33 9 -46
19 -23 19 -24 25 -29 198 -5 162 -7 181 -27 214 -29 45 -29 73 -1 135 16 38
23 82 31 199 10 163 17 188 82 279 47 65 46 100 -6 207 -23 46 -45 97 -50 113
-12 42 6 103 42 139 44 44 101 36 191 -26 82 -56 123 -65 183 -42 57 21 88 59
115 140 12 36 37 89 56 116 19 28 34 55 34 60 0 5 25 22 56 37 75 36 87 55 67
107 -41 108 -37 222 9 246 12 6 78 15 147 19 69 4 134 11 144 15 32 13 16 48
-35 75 -91 49 -111 81 -152 235 -33 123 -79 206 -163 296 -189 200 -496 299
-750 243z m1573 -3347 c30 -79 -350 -542 -641 -781 -339 -279 -640 -442 -883
-476 -202 -30 -272 9 -614 339 l-87 84 24 19 c14 11 37 40 52 65 16 28 46 58
77 78 28 18 78 58 111 90 33 31 79 68 102 82 46 27 202 63 274 63 26 0 138 13
250 30 112 16 245 30 294 31 112 0 153 14 182 59 63 100 64 100 196 75 103
-20 241 -19 299 0 59 21 98 55 156 139 40 59 55 72 102 91 64 27 99 31 106 12z
m-2186 -111 c0 -7 11 -30 26 -51 32 -48 29 -79 -10 -83 -41 -5 -78 14 -102 53
l-22 33 22 6 c11 3 32 16 46 30 29 28 40 32 40 12z"/>
</g>
</svg>
