<?xml version="1.0" encoding="utf-8"?>
<!-- Generator: Adobe Illustrator 24.1.1, SVG Export Plug-In . SVG Version: 6.00 Build 0)  -->
<svg version="1.1" id="Vrstva_1" xmlns="http://www.w3.org/2000/svg" xmlns:xlink="http://www.w3.org/1999/xlink" x="0px" y="0px"
	 viewBox="0 0 419.2 276.9" style="enable-background:new 0 0 419.2 276.9;" xml:space="preserve">
<g>
	<path d="M405.5,111.9c-3-1.4-6.1-2.2-9.2-3.3c-0.8-0.3-1.6-0.7-2.5-1c-1.4-0.4-2.9-1.1-4.3-1.2c-1.7-0.1-3.5,0.5-5.2,0.4
		c-2.2-0.1-4.4-0.8-6.6-0.8c-19.3-0.2-38.6-0.3-58-0.4c-0.7,0-1.5,0.2-2.2,0.3c2.9,1.9,6.7-0.9,9,2.5c0.4-0.5,0.8-1.4,1.3-1.4
		c3.2-0.1,6.3-0.1,9.3-0.1v11.7h49.8c-0.2,4.2-0.4,8.9,6.3,9.9c0,9.2,0.2,18.3,0,27.3c-0.7,26.7-1.6,53.5-2.3,80.2
		c-0.1,1.8-0.8,2.2-2.5,2.2c-5,0.1-10.1,0.3-15.1,0.4c0,0.4,0,0.7,0,1.1c1.1,0,2.1,0.1,3.4,0.1c0.1,0.4,0.2,0.9,0.3,1.6
		c3.8-0.3,7.6-0.5,11.4-0.8c1.1-0.1,2.4-0.4,2.2,1.4c-0.2,1.4,0.7,3.5-2.1,3.3c-2.9-0.2-5.9-0.3-8.8-0.4c-10-0.4-20.1-0.8-30.1-1.2
		c-0.4,0-0.8-0.2-1.2-0.4c-5-0.3-10.3,0.4-15.3-0.4c-0.5,0.2-1.2,0.3-2.1,0.3c-6.7,0.1-13.3,0.1-20,0.2c-0.7,0-1.4-0.1-2.2-0.2
		c1.6-2.7,1.6-2.7,0.7-4c-7,7.3-14.9,13.3-24.1,17.3c-9,4-18.2,7.4-27.4,11.1c-3.4,1.4-6.7,2.1-10.7,1.3c-5.3-1-10.9-0.8-16.4-1.3
		c-4.9-0.5-10.1,0.4-14.4-3.2c0.2,0.5,0.3,0.9,0.6,1.7c-2.1-0.6-4-1.1-5.8-1.7c-12.3-4.2-21.4-13.6-32.1-20.3
		c-2.2-1.4-4.3-3.3-5.9-5.4c-3.2-4.1-6.3-8.3-8.9-12.8c-5.7-9.9-10.8-20.3-11.9-31.8c-0.9-8.6,0.1-17.5,0.6-26.2
		c0.4-7.4,2.1-14.5,4.3-21.6c2.2-7,4.7-13.7,9.2-19.5c6.9-8.9,15.1-16.4,24.4-22.5c9.9-6.6,20.4-12,32.5-13c9.7-0.8,19.3-1.7,29-2
		c5-0.1,10.1,0.8,15.1,1.6c17.5,2.9,29.1,15.1,41.3,26.4c17.1,22.9,25,48.4,21.5,76.9c-0.8,6.4-2.3,13.1-4.9,19
		c-3.3,7.4-8.1,14.2-12.2,21.2c-0.2,0.4-0.4,0.8-0.9,2c1.5-0.6,2.6-0.7,3.1-1.3c5.2-5.7,10-11.6,12.4-19.1c1.3-4.1,2.6-8.2,3.5-12.4
		c1.6-7.9,4.2-15.7,3.3-23.9c-0.4-3.4-0.5-6.7-1-10.1c-2.3-14.4-5.2-28.7-13.1-41.4c-0.2-0.4-0.4-0.9-0.4-1.4c0-1.7,0.3-3.4,0.1-5
		c-2.1-13.5-4.4-26.9-6.5-40.4c-0.5-3-0.5-6-0.8-9.2c6-0.4,11.6-1,17.2-1.2c17.9-0.3,35.8-0.4,53.6-0.7c1.8,0,2.9,0.4,4.2,1.7
		c1.3,1.4,2.9,2.3,4.2,3.3c0.2,10,1,19.9,2.1,29.8l0.9-0.1c-0.4-11-0.8-22-1.2-33.4c-1.1,0.7-1.6,1-2.1,1.3v-2.4
		c-1.1-0.4-2.4-0.7-3.6-1.2c-0.5-0.2-1.4-0.4-1.5-0.8c-0.5-2.1-1.3-4.3-1.1-6.4c0.5-4.1-2.3-8.1-6.4-8.6c-2.8-0.3-5.5-0.5-8.2-0.8
		c-1.2-4.8-1.1-9.1,0.4-11.7c-1.6-0.7-3.1-1.7-4.6-1.8c-9.3-0.5-18.5-1.2-27.8-1c-4.8,0.1-9.6,1.8-14.3,2.9
		c-0.7,0.2-1.8,1.1-1.8,1.7c0.2,3.6,0.6,7.1,0.9,10.6c-4.1,0.6-8,1.1-12.1,1.7c-0.2-2.6-0.2-5.3-0.8-7.9c-0.4-1.9-1.2-3.9-2.4-5.4
		c-3.5-4.3-7.2-8.4-10.9-12.5c-5.8-6.4-11.7-12.8-17.6-19.2c-0.5-0.6-1.4-1.1-2.1-1.1c-3-0.2-6.1-0.3-9.1-0.3
		c-20.4,0.3-40.8,0.6-61.2,1c-1.4,0-3.2,1.1-4.2,2.2c-8,9.9-15.9,19.9-23.8,29.9c-1.7,2.2-3.4,3.5-6.8,3c-14-2.1-27.9-1.6-41.8,1.3
		c-1.2,0.3-2.5,0.2-4.2,0.4c0.3,3,0.7,6.2,1,9.6c-1,0.4-2.1,0.7-3.2,1.1c-0.2-1.1-0.6-2-0.6-2.9c-0.1-3-1.7-4-4.6-4.4
		c-9.9-1.2-19.7-0.6-29.5,1.2c-2.5,0.5-4.9,0.8-4.9,4.1c-1.1-0.5-1.9-1.1-2.8-1.1c-10-0.1-20,0-30.1,0c-0.9,4.4-1.6,8.4-2.5,12.6
		c-6,0.6-12.4,1.1-18.7,1.7c-2.1,0.2-3.6,1.2-3.8,3.4c-0.2,1.8,0.1,3.6,0.1,5.4c0,9.7,0,19.4,0,29.5c-0.1,0-0.9,0.2-1.7,0.4
		c-2.6,0.7-5.3,1.2-7.8,2.3c-5,2-6.6,7.6-3,11.6c1.9,2.1,4.9,3.3,7.6,4.7c1.2,0.6,2.7,0.6,4.1,0.9c0,0.7,0.1,1.2,0.1,1.7
		c-0.1,8.6-0.5,17.2-0.4,25.8c0.2,9.6-0.6,19.3,1.5,28.9c0.6,2.7,0.1,5.7,0.1,8.6c-0.2,17.1-0.4,34.2-0.5,51.3c0,0.3-0.1,0.7,0,1
		c0,0.6,0.1,1.2,0.1,1.2c-0.2,1.3-0.5,2.1-0.4,2.8c0.2,1.4,1.7,2.7,0.2,4.2c-0.1,0.1,0,0.9,0.3,1.1c2.5,2,3.1,6.6,8.2,5
		c2.9-0.9,6.3-0.2,9.4-0.1c8.1,0.1,16.2,0.5,24.3,0.4c31-0.5,62.1-1.1,93.1-1.8c7.8-0.2,15.6-0.7,23.5-0.9c1,0,2,0.1,2.9,0.6
		c5.7,2.9,11.3,5.8,17,8.7c1.5,0.8,3.1,1.4,4.7,1.8c4.2,1,8.4,1.9,12.6,2.7c5.8,1.1,11.6,2.6,17.5,3c4.3,0.3,8.8-0.7,13.2-1.6
		c11.7-2.3,22.6-6.8,33.3-11.8c0.7-0.3,1.6-0.5,2.4-0.4c15.9,0.4,31.9,0.9,47.8,1.1c14.6,0.2,29.2,0,43.8-0.1c3.5,0,6.9-1,9.7-3.2
		c0.8-0.6,1.4-1.6,2.1-2.4c-0.2-0.3-0.4-0.6-0.6-0.9c-2.4,3-5.3,3.5-8.6,2.6c1.5-0.3,3-0.6,4.6-0.9c0-0.1-0.1-0.3-0.1-0.4h-19.5
		c0-0.6-0.1-1.2-0.2-2c-5.5,2.9-6.1,3-9.3,2.5c0.1-1,0.1-1.9,0.2-3.3c-1.5,1.5-2.3,3.1-3.6,3.6c-1.3,0.6-3,0.1-4.7,0.1
		c0.9-1.4,1.5-2.4,2.2-3.5c-0.3-0.2-0.5-0.4-0.8-0.6c-1.1,1.2-2,2.6-3.2,3.4c-1.2,0.7-2.9,0.7-4.4,1c-0.1-0.2-0.1-0.5-0.2-0.7
		c0.8-1.2,1.6-2.4,2.5-3.6c-0.3-0.2-0.5-0.4-0.8-0.7c-0.9,0.9-2,1.7-2.6,2.7c-1.4,2.5-3.4,2.3-6,1.8c1.3-1.5,2.4-2.8,3.5-4.1
		c-0.3-0.2-0.5-0.5-0.8-0.7c-1.3,1.2-2.8,2.2-3.9,3.6c-1.5,1.9-3.3,1.8-5.6,1.3c1.7-1.6,3.2-3,4.7-4.4c-0.2-0.3-0.5-0.5-0.7-0.8
		c-1.5,1.1-3.1,2.1-4.5,3.3c-2.8,2.4-2.7,2.4-5.3,1.7c1.1-1.1,2.2-2,3.2-3c0.9-0.9,1.7-1.8,2.5-2.7c-0.2-0.1-0.4-0.3-0.5-0.4
		c-4,1.9-5.9,7.5-11.4,6.7c-0.2-0.2-0.4-0.5-0.5-0.7c2.1-1.8,4.2-3.6,6.3-5.4c-0.2-0.2-0.4-0.4-0.6-0.6c-2.7,1.2-5.2,2.6-6.8,5.2
		c-1.1,1.9-2.4,1.9-4.6,1.3c2.4-2.3,4.6-4.3,6.8-6.4c-0.3-0.3-0.6-0.6-0.8-0.9c-2.4,2.1-4.8,4.3-7.3,6.4c-0.8,0.7-2,1-3,1.5
		c-0.1-0.3-0.3-0.6-0.4-0.9c2.4-2.2,4.9-4.4,7.3-6.6c-0.2-0.3-0.4-0.6-0.7-0.8c-3.4,2.8-6.7,5.5-10.1,8.3c-0.2-0.2-0.4-0.5-0.5-0.7
		c3-2.7,6-5.4,9-8.2c-0.2-0.2-0.4-0.4-0.5-0.7c-0.6,0.3-1.3,0.6-1.8,1.1c-2.7,2.4-5.4,4.8-8.2,7.1c-0.8,0.7-2,1-2.9,1.6
		c-0.1-0.2-0.3-0.5-0.4-0.7c2.9-2.9,5.9-5.8,8.8-8.7c-0.2-0.2-0.5-0.4-0.7-0.6c-3,2.7-6.1,5.3-8.8,8.2c-1.7,1.9-3.5,1.7-5.8,1.4
		c4.2-3.4,8.2-6.6,12.3-9.6c1-0.8,2.5-1.4,3.8-1.4c8.7,0.2,17.3,0.7,26.4,1.1c-2.6,0.3-4.7,0.6-6.8,0.9c0,0.3,0,0.6-0.1,0.8
		c0.5,0.2,1.1,0.7,1.6,0.7c3.6,0.3,7.2,0.7,10.8,0.7c3.3,0,6.5-0.5,9.8-0.6c12-0.2,24-0.4,35.9-0.6c2.2,0,4.2-0.2,3.8,3
		c0,0.3,0.6,0.7,0.9,1c0.3-0.3,0.8-0.6,0.9-1c0.3-1.6,0.5-3.2,0.6-4.8c0.6-14,1.2-28,1.6-42c0.5-20.1,1-40.2,0.2-60.3
		c-0.2-4.2-0.2-8.5-0.7-12.6c-0.4-2.9,0.9-4.2,3.3-5c2.5-0.8,5-1.5,7.5-2.3c2.6-0.9,4-3,4.3-5.7C409,115.1,407.7,113,405.5,111.9z
		 M386.5,116c-16,0.5-31.8,1.1-47.8,1.6v-10.3c16.2,0.6,32.2,1.2,48.4,1.8C386.9,111.2,386.7,113.6,386.5,116z M164.2,124.9
		c1-5.5,1.9-10.3,2.8-15.1c0.8-4.5,0.8-4.5,5.3-4.4c2.9,0.1,5.8,0,9.2,0C175.6,112.1,170.1,118.3,164.2,124.9z M177.4,112.2
		c-0.2-0.2-0.3-0.4-0.5-0.6l9.6-8.1c0.2,0.2,0.4,0.4,0.6,0.6C183.8,106.8,180.6,109.5,177.4,112.2z M234.5,88.8
		c0.1-0.2,0.1-0.4,0.2-0.6c3.7-0.3,7.3-0.6,11-0.9l0,0.6L234.5,88.8z M319.9,130.5c1.9,3.8,3.7,7.6,5.6,11.4
		c-0.2,0.1-0.3,0.2-0.5,0.3c-1.9-3.8-3.8-7.6-5.6-11.4C319.5,130.7,319.7,130.6,319.9,130.5z M316.8,121.8
		c-4.7-5.6-9.3-11.1-13.9-16.5H314C315,110.9,315.9,116.3,316.8,121.8z M362.5,69.1c-0.5-2.6-0.9-4.6-1.3-6.7
		C363.4,62.1,364,64.8,362.5,69.1z M368.1,68.3c-0.6-1.9-1.1-3.8-1.7-5.7c-0.4,0.1-0.8,0.2-1.2,0.2c0.2,1.8,0.4,3.5,0.6,5.3
		l-0.6,0.1c-0.1-2-0.2-3.9-0.4-6c1,0,1.9-0.1,2.9-0.1c0.2,2.1,0.4,4.1,0.6,6.2L368.1,68.3z M372.8,68.7c-0.4-2.1-0.9-4.1-1.3-6.2
		c0.3-0.1,0.5-0.1,0.8-0.2l1.4,6.1C373.5,68.5,373.1,68.6,372.8,68.7z M383.4,64c-0.7,0.1-1.5,0.2-2.3,0.3c-0.3-0.9-0.5-1.7-0.9-2.8
		c1.1-0.2,2-0.3,3.2-0.6V64z M352.8,41.3c4.6,0.3,9.2,0.6,13.8,0.9c0,0.2,0,0.4,0,0.6c-4.6-0.4-9.2-0.7-13.8-1.1
		C352.7,41.5,352.7,41.4,352.8,41.3z M324.9,44.5c14.3-2.3,28.5-1.5,43.2-0.2c-0.2,2.9-0.5,5.4-0.7,7.9c-14.3,0.3-28.4,0.6-42.6,0.9
		V44.5z M316.4,55.9c8.2-0.5,16.3-1.1,24.5-1.3c11.9-0.3,23.8-0.3,35.7-0.3c3.3,0,5,1.5,6.4,5.5h-70
		C312.6,57.1,313.4,56.1,316.4,55.9z M314.6,61.5V68c0.3,0,0.7,0,1,0.1c0-1.6,0.1-3.3,0-4.9c-0.1-1.8,0.6-2.3,2.4-1.8
		c0.1,1.9,0.2,3.9,0.3,5.9l0.9,0c0.1-1.4,0.3-2.9,0.3-4.3c0-1.4,0.5-2,2-1.9c1.3,0,2.7-0.1,4-0.2c2.2-0.1,4.3-0.1,5,1.7
		c1.6-0.3,2.8-0.6,4-0.6c5.6,0,11.3,0,16.9,0c1,0,2,0,3,0c0.3,1.9,0.6,3.7,0.9,5.5c0.3,0,0.5,0,0.8,0v-5.2c0.3,0,0.5,0,0.8-0.1
		c0.4,2.1,0.7,4.2,1.2,6.9H314l-0.1,0.7c1.3,0.2,2.5,0.5,4.2,0.8c-2,0.2-3.7,0.3-5.6,0.5c-0.2-3.3-0.5-6.3-0.7-9.6H314.6z
		 M183.7,42.5c6.6-9.6,13.4-19.1,20-28.6c1-1.4,2-2,3.7-2c22.4-0.3,44.9-0.8,67.3-1.1c1.2,0,2.7,0.7,3.6,1.6
		c9.4,9.9,18.7,19.9,28.1,29.8c0.5,0.6,1.1,1.3,1.2,2.1c0.8,9.4,1.5,18.8,2.3,28.4h-14.8c0.1-1.3,0.3-2.6,0.3-3.9
		c0-0.6-0.4-1.1-0.6-1.7c-0.4,0.5-1.2,0.9-1.3,1.5c-0.2,1.3-0.2,2.7-0.3,4.1h-10.6v-7.4h4.1c0.5,2.4-0.8,5,0.8,7c0.3,0,0.7,0,1,0
		c0.2-2.2,0.4-4.4,0.6-6.9h7.3c0.1-0.3,0.2-0.6,0.3-0.8c-0.9-0.4-1.7-1-2.6-1c-6.5-0.6-13.1-1.3-19.6-1.4
		c-26.3-0.3-52.6-0.5-78.9-0.6c-2.4,0-4.8,0.3-7.1,0.5c0,0.3,0,0.7,0,1h16.8c0,0.2,0,0.5,0,0.7c-6.4,0.6-12.9,1.2-19.7,1.8
		c-0.1-0.8-0.1-1.7-0.2-2.5c-0.7-6.1-1.3-12.2-2-18.3C183.2,44,183.3,43.1,183.7,42.5z M280.6,72.8h-4.1V65h3.5
		C280.2,67.6,280.4,70.1,280.6,72.8z M270,69.5c-0.2-1.1-0.6-2.1-0.9-3.1c-0.4,1-0.9,1.9-1,2.9c-0.2,1,0,2,0,3.2h-2.6
		c-0.7-2.4,0.3-5.1-1.2-7.1c-0.3,0-0.6,0.1-0.9,0.1v7.1c-1,0-1.8,0.1-2.7,0.1v-8.2h13.8v8.1h-4.3C270.1,71.6,270.2,70.6,270,69.5z
		 M258.2,64.4v8.2h-2.7v-8.2H258.2z M253.5,64.3v8.3h-3.2v-8.3H253.5z M247.9,64.3v8.3h-4v-8.3H247.9z M241.9,70.8
		c0.1,1.8-0.7,2.2-2.5,1.7c-0.2-2.7-0.4-5.3-0.5-7.9c1.9-0.7,3-0.6,3,1.7C241.8,67.8,241.8,69.3,241.9,70.8z M237.1,72.6h-2.5
		c0-2.3-0.1-4.4,0.1-6.6c0-0.5,0.7-1,1.1-1.5c0.5,0.5,1.3,1,1.3,1.6C237.2,68.1,237.1,70.2,237.1,72.6z M232.5,64.8v7.8h-2.7v-7.8
		H232.5z M228.1,72.3c-2.6,0.7-3.2-0.8-2.7-7.2c0.7-0.1,1.4-0.1,2.2-0.2C227.8,67.5,227.9,69.9,228.1,72.3z M223.4,72.5
		c-0.7,0-1.4,0.1-2.3,0.2v-7.2C223.6,65.1,223.9,66,223.4,72.5z M217.9,65.4c0.3,0,0.6,0,0.9,0.1c0.3,2.3,0.6,4.6,0.9,7.2
		c-0.9,0-1.5-0.1-2.4-0.1C217.8,70.1,216.8,67.6,217.9,65.4z M216.2,69c-0.5,1.4-0.9,2.5-1.3,3.6c-0.3-1.2-0.8-2.5-0.8-3.7
		c0-1.1,0.5-2.2,0.8-3.3C215.3,66.7,215.8,67.8,216.2,69z M211.9,65.8v6.6c-1.2,0.4-2.3,0.7-2.3-1.4c0-1.6-0.1-3.2-0.2-4.9
		C210.2,65.9,210.9,65.9,211.9,65.8z M207.8,72.2c-0.3,0.2-0.5,0.4-0.8,0.7c-0.5-0.6-1.4-1.2-1.5-1.9c-0.3-1.1-0.2-2.4,0-3.5
		c0.1-0.5,0.7-0.9,1.1-1.3c0.3,0.4,0.8,0.8,0.9,1.3C207.7,69,207.7,70.6,207.8,72.2z M203.6,66.2v6.5
		C201.8,70.8,201.8,67.7,203.6,66.2z M200.2,66.7v5.8l-0.5,0v-5.8C199.9,66.6,200,66.7,200.2,66.7z M198.1,72.2
		c-0.2,0.1-0.5,0.2-0.7,0.2c-0.4,0-0.8-0.1-1.6-0.2c0.2-1.8,0.4-3.6,0.5-5.3c0.4,0.3,1.2,0.5,1.3,0.9
		C197.9,69.2,197.9,70.7,198.1,72.2z M194.1,71c0,0.4-0.5,0.8-0.8,1.3c-0.3-0.3-0.8-0.6-0.8-1c-0.2-1.1-0.3-2.2-0.2-3.3
		c0.1-0.5,0.8-0.8,1.2-1.3c0.2,0.2,0.4,0.3,0.6,0.5C194.1,68.5,194.2,69.7,194.1,71z M190.6,72.8c-0.9-0.8-1.8-1.2-1.8-1.5
		c0-1.4,0.3-2.7,0.5-4.1c0.4,0.2,1.2,0.5,1.2,0.7C190.6,69.3,190.6,70.7,190.6,72.8z M187.5,69.8c-0.5,0.8-0.9,1.5-1.3,2.2
		c-0.3-0.6-1-1.2-1-1.8c0.1-1.1,0.7-2.1,1.1-3.1C186.7,68,187,68.8,187.5,69.8z M180.7,45.3l1.2,0.3v26.2H175c0,0.2-0.1,0.4-0.1,0.6
		c2,0.4,4,1.1,6.1,1.1c6.1,0.2,12.1,0.2,18.2,0.3c1,0,1.9,0.5,2.9,0.8c0.6-0.2,1.5-0.6,2.4-0.6c25,0.3,50.1,0.7,75.1,1
		c10.1,0.1,20.2,0,30.7,0c1.1,9.1,2.3,18.4,3.5,28.1c-2.1,0-4,0-5.9,0c-2.5,0-5.1,0.1-7.6-0.1c-0.9-0.1-1.9-0.6-2.7-1.1
		c-13-8.3-26.7-14.8-42.3-16.2c-14.6-1.3-28.9,0.2-43,4.5c-9.7,3-18.6,7.5-27.1,12.9c-0.5,0.3-1.2,0.7-1.8,0.7
		c-5-0.2-9.9-0.5-15.3-0.9c1.3-7.7,2.6-14.9,3.9-22.1c1.8-10.1,3.5-20.3,5.5-30.3C177.9,48.6,179.6,47,180.7,45.3z M169.4,54
		c-8-0.2-16-0.4-24-0.3c-5.3,0.1-10.6,0.9-16.1,1.4c-0.3-2.5-0.6-5-0.9-7.6c13.5-3,36.2-1,47.8-0.3c-0.4,2.1-0.8,4.1-1.3,6.1
		c-0.8,3.9-1.6,7.8-2.6,11.6c-0.2,0.7-1.2,1.7-1.8,1.8c-4,0.2-8.1,0.1-12.2,0.1c-0.5-2.1-0.9-4.1-1.3-6.1c-0.3,0-0.7,0.1-1,0.1
		c0.1,2,0.2,3.9,0.3,6.1h-3.9c-0.4-2.3-0.8-4.5-1.3-6.8c-0.3,0-0.6,0.1-0.9,0.1V67h-3.4c-0.2-3-0.5-6-0.7-8.9c-0.3,0-0.7,0-1,0
		c-1,2.8-0.1,5.7-0.1,8.8h-7.8c0.3-3.2,0.6-6.2,1-9.3c-0.4-0.1-0.8-0.1-1.2-0.2c-0.4,2.9-0.7,5.8-1.1,8.6c-0.1,0-0.2,0-0.3,0
		c-0.5-3-1-6.1-1.5-9.1c-0.4,0-0.8,0.1-1.2,0.1c0.2,3.2,0.3,6.5,0.5,9.7c-0.3,0.1-0.6,0.1-1,0.2c-0.6-3-1.1-6.1-1.7-9.1
		c-0.3,0-0.6,0.1-0.9,0.1v8.7c-0.2,0.1-0.4,0.1-0.7,0.2c-0.3-0.5-0.8-0.9-0.8-1.4c-0.2-1.7-0.4-3.4-0.5-5c-0.1-3.2,0.3-3.6,3.5-3.9
		c11.6-1.1,23.2-1.1,34.8-0.3c2.1,0.1,4.2-0.1,6.3-0.1c0-0.4,0.1-0.8,0.1-1.2C171.6,54.6,170.5,54.1,169.4,54z M86.9,52.5
		c0.7-0.1,1.4-0.2,2.3-0.3c0.3,1.6,0.6,3,0.9,4.4c0.3,0,0.5,0,0.8,0c0.1-1.4,0.1-2.8,0.2-4.5h30.7c0.2,1.6,0.4,3.2,0.6,5.2
		c-11.9,0.3-23.5,0.6-35.5,0.9V52.5z M122.1,66.4H87.8v-6.2h33.6C121.6,62.2,121.8,64.3,122.1,66.4z M98.4,67.5c0,0.1,0,0.2,0,0.2
		H58.6c0-0.1,0-0.2,0-0.2H98.4z M67.5,64.3c1.4,0.1,3.1-1,3.5,1.8C69.4,65.8,67.6,66.9,67.5,64.3z M77.2,63.9c1-0.1,1.9-0.2,3-0.4
		c0.2,0.9,0.3,1.7,0.5,2.5C77.9,66.2,77.9,66.2,77.2,63.9z M61.1,57.6h-6.2C57,55.5,59.4,55.5,61.1,57.6z M54.4,59.6
		c9.5-0.1,19-0.1,28.5,0c1.4,0,2.3,0.4,1.9,2.1c-9.7,0.5-19.4,1-29,1.4c-1.3,0.1-3.2,0.7-3-1.7C52.8,60.7,53.8,59.6,54.4,59.6z
		 M32,69.6c5.4-0.2,10.8-0.6,16.2-0.6c33.2,0.1,66.3,0.4,99.5,0.5c7.8,0,15.6-0.6,23.6-1c0,0.5,0.1,1.2,0,1.8
		c-1.9,9.8-3.9,19.7-5.8,29.5c-0.3,1.4-0.7,1.9-2.3,1.9c-20.4,0.3-40.8,0.7-61.2,1c-8.1,0.1-16.3,0-24.4,0c-11,0-22,0.1-33.1,0.1
		c-4.9,0-9.7-0.4-14.7-0.6v-3.4c0.4,0.3,0.7,0.6,1.4,1.1c0.1-0.8,0.2-1.4,0.1-2c-0.6-7.2-1.2-14.5-1.9-21.7
		c-0.1-1.1-0.2-2.2-0.2-3.3C29.1,71,29.8,69.7,32,69.6z M120.4,104.9v11.1l-0.4,0c-0.5-3.4-1-6.8-1.4-10.3c0-0.4,0.8-0.9,1.2-1.3
		C119.9,104.7,120.1,104.8,120.4,104.9z M117.8,116c-0.1,0-0.2,0-0.3,0c-0.6-3.6-1.3-7.2-2-11.2c0.6,0.3,1.4,0.6,1.4,0.9
		C117.2,109.1,117.5,112.5,117.8,116z M114.8,115.1c0,0.3-1.1,0.8-1.6,1.2c-0.3-4.2-0.6-7.7-0.8-11.5c0.4,0.2,0.9,0.2,0.9,0.4
		C113.9,108.5,114.4,111.8,114.8,115.1z M111.3,115.7c-0.3,0.2-0.5,0.4-0.8,0.6c-0.5-0.5-1.2-0.9-1.3-1.4c-0.4-2.7-0.8-5.5-1-8.2
		c0-0.6,0.7-1.2,1-1.8c0.5,0.5,1.3,1,1.4,1.6C111,109.6,111.1,112.6,111.3,115.7z M107.2,115.7c-0.2,0.2-0.4,0.4-0.6,0.6
		c-0.4-0.5-1.2-1-1.3-1.5c-0.3-2.7-0.5-5.5-0.6-8.3c0-0.5,0.4-1,0.7-1.5c0.3,0.5,0.9,0.9,1,1.4C106.8,109.5,107,112.6,107.2,115.7z
		 M103.8,115.2c0,0.2-0.5,0.5-0.7,0.8c-0.3-0.3-0.7-0.5-0.7-0.8c0-3.3,0-6.6,0-9.9c0.2,0,0.3,0,0.5,0
		C103.2,108.6,103.5,111.9,103.8,115.2z M99.7,115.8c-0.2-3.5-0.5-7-0.7-10.9C100.6,106.3,101,111.8,99.7,115.8z M97.7,115.6
		c-0.2,0.1-0.3,0.3-0.5,0.4c-0.4-0.4-1.2-0.8-1.2-1.3c-0.4-3-0.7-6.1-1-9.3c1.5-0.7,2.3-0.4,2.4,1.4
		C97.4,109.8,97.5,112.7,97.7,115.6z M93.9,116.1c-0.8-0.5-1.7-0.8-1.7-1.3c-0.4-3-0.6-6.1-0.9-9.2l0.5-0.7c0.5,0.6,1.3,1.2,1.4,1.9
		C93.5,109.7,93.6,112.6,93.9,116.1z M89.2,115.9c-0.3-3.5-0.5-6.9-0.8-11C90.4,108.1,90.7,114.2,89.2,115.9z M86.7,105.6v10.1
		c-0.2,0-0.4,0-0.7,0c-0.5-3.3-1.1-6.6-1.7-10.1H86.7z M83.9,115.9c-0.7-0.1-1.2-0.1-1.2-0.2c-0.5-3.1-1-6.2-1.5-9.3
		c0-0.2,0.6-0.7,0.7-0.7c0.4,0.2,0.9,0.5,0.9,0.9C83.2,109.5,83.5,112.6,83.9,115.9z M80.6,115.7c-0.4,0-0.7,0.1-1.1,0.1
		c-0.3-3.3-0.6-6.6-0.9-9.9l1.1-0.1C79.9,109.1,80.2,112.4,80.6,115.7z M77.5,116c-0.8-0.5-1.7-0.7-1.7-1.1c-0.4-3-0.6-6-0.8-8.9
		c0.2-0.2,0.4-0.3,0.6-0.5c0.4,0.5,1.2,1,1.3,1.6C77.1,109.9,77.3,112.6,77.5,116z M74,115.9c-0.5-0.2-1.3-0.4-1.3-0.7
		c-0.5-3.1-0.9-6.2-1.3-9.3c0.4-0.1,0.8-0.1,1.2-0.2C74.3,108.7,73.1,112.3,74,115.9z M70.4,116.1c-0.7-0.5-1.6-0.8-1.7-1.2
		c-0.4-2.9-0.6-5.8-1-8.9c1.5-0.5,2.2-0.2,2.2,1.5C70,110.1,70.3,112.8,70.4,116.1z M65.1,115.8V106
		C67.3,109.3,67.1,115.4,65.1,115.8z M63.5,115.8c-0.3,0-0.5,0.1-0.8,0.1c-0.3-3-0.7-6-1-9.1c0-0.3,0.4-0.6,0.6-1
		c0.3,0.3,0.9,0.5,1,0.9c0.2,1.2,0.2,2.3,0.2,3.5C63.6,112.1,63.5,113.9,63.5,115.8z M60.7,115.6c-0.3,0-0.5,0.1-0.8,0.1
		c-0.4-3.2-0.8-6.4-1.2-9.7c0.5,0,0.9-0.1,1.4-0.1C60.3,109.1,60.5,112.4,60.7,115.6z M58.3,116c-0.3,0-1.1-0.1-1.2-0.2
		c-0.3-3.2-0.6-6.4-0.8-9.7c0.2,0,0.4-0.1,0.7-0.1C57.4,109.3,57.9,112.5,58.3,116z M54.1,116c-0.2-3.4-0.5-6.8-0.7-10.4
		C54.7,106.6,55.4,113.2,54.1,116z M51.2,116.2c-0.4-3.4-0.8-6.9-1.3-11C51.7,106.6,52.5,113.6,51.2,116.2z M48.9,116.1
		c-0.2,0-0.5,0-0.7,0c-0.2-3.4-0.5-6.9-0.7-10.3c0.2,0,0.5,0,0.7-0.1C48.4,109.2,48.6,112.7,48.9,116.1z M45.7,106V116
		c-0.2,0-0.3,0-0.5,0.1V106C45.3,106,45.5,106,45.7,106z M42.9,105.7v10.6c-0.3,0-0.6,0-0.8,0c-0.4-3.4-0.8-6.8-1.2-10.5
		C41.7,105.8,42.3,105.7,42.9,105.7z M40,116c-0.2,0-0.5,0.1-0.7,0.1c-0.3-3.3-0.6-6.6-0.9-9.9c0.3,0,0.6,0,0.9-0.1
		C39.6,109.4,39.8,112.7,40,116z M35,116.5c-0.3,0-0.5,0.1-0.8,0.1c-0.5-3.3-0.9-6.5-1.4-9.8c0.3-0.1,0.6-0.1,0.9-0.2
		C34.2,109.9,34.6,113.2,35,116.5z M123.6,239.2c3.2,0,3.3,0,3.2-3.1c-32.3,0.4-64.7,0.7-96.3,1.1c0.1-0.1,0.7-0.8,0.5-1.1
		c-0.2-0.5-1-0.7-1.7-1.2c0.3-0.6-1.2-2.3,1.3-2.3c0.2,0,0.4-0.5,0.5-0.7c-0.6-0.4-1.1-0.7-1.6-1.1c0-9.6,0-19.4,0-29.2
		c-0.1-20.8-0.2-41.7-0.4-62.5c0-3.8-0.8-7.5-1.1-11.3c-0.1-0.9,0.7-1.8,1.2-3.1c-1.4-0.3-2.9-0.7-4.4-1.1c-1.9-0.5-4-0.9-5.8-1.7
		c-2.6-1.1-3.9-3.2-4-6c-0.1-2.6,1.6-4.1,3.7-4.9c3.3-1.2,6.7-2.1,10.3-3.3c0.2,3.6,0.3,6.7,0.4,9.7c-0.2,0-0.5,0.1-0.7,0.1
		c0-0.5-0.1-1.1-0.1-1.6c-0.1-2.2-1-4-3.2-4.7c-2.1-0.7-3.7,0.2-5,2c-1.3,1.8-2,3.6-0.6,5.6c1.4,1.9,3.3,2,5.5,1.4
		c1.2-0.3,2.5-0.5,4.3-0.8c0,1.7-0.1,3,0,4.2c0.1,0.5,0.6,1,0.9,1.5c0.3-0.4,0.9-0.8,1-1.3c0.3-1.2,0.3-2.5,0.4-3.7
		c31.2-0.5,62.3-1,92.9-1.4v-12.7c-0.4-0.1-0.8-0.1-1.1-0.2c-0.4,1.6-0.8,3.3-1.4,5.5c-0.2-2.4-0.4-4.3-0.6-6.4h42.5
		c-0.6,3.7-1.2,7.2-1.7,10.8c-0.3,2.2-0.5,4.4-1,6.5c-0.8,3.6,0.2,7.7-3,10.5c-4.3,12.6-10,24.8-10.2,38.4c-0.1,3.1,0,6.2,0,9.1
		c-0.8,0.6-1.4,1.1-2,1.5c0.5,0.5,1.1,1.1,1.7,1.6c2.5,21.2,8.4,41.2,22.6,58.2c-47,0.9-93.9,1.8-141.1,2.6v-5.9c2.6,0,5.1,0,7.6,0
		C65.9,238.6,94.8,238.9,123.6,239.2z M118.4,237.8c0-0.1,0-0.2,0-0.4h6.8c0,0.3,0,0.6,0,0.8C122.9,238.1,120.6,238,118.4,237.8z
		 M26.6,115.8c0,0.7-0.8,1.5-1.3,2.2c-0.3-0.1-0.5-0.2-0.8-0.3V113c0.4-0.1,0.7-0.1,1.1-0.2C26,113.8,26.6,114.8,26.6,115.8z
		 M180.4,252.2c-1.2-1.7-2.8-3.2-4.3-4.7c-0.3-0.3-0.9-0.5-1.3-0.7c-0.2,0.2-0.4,0.4-0.6,0.6c1.7,1.9,3.5,3.8,5.2,5.8
		c-0.1,0.2-0.2,0.4-0.3,0.7c-0.6-0.4-1.4-0.7-1.9-1.2c-2.2-2.2-4.4-4.5-6.6-6.8l-0.9,0.8c2,2.3,4,4.5,6.4,7.3
		c-5.3,0.1-5.7-5.1-8.8-6.9c-0.2,0.2-0.4,0.3-0.7,0.5c1.3,2,2.6,4,3.9,6c-3.5-1.4-5-5.3-8-7.2c-0.2,0.2-0.5,0.4-0.7,0.5
		c1.7,2.2,3.4,4.3,5,6.5c-0.1,0.2-0.3,0.3-0.4,0.5c-4-1.2-5.2-6.1-8.7-8c-0.2,0.2-0.4,0.3-0.6,0.5c1.8,2.3,3.6,4.5,5.8,7.3
		c-5.3,0.1-6-5.1-9.9-6.3c1.5,1.9,3,3.8,4.5,5.7c-0.2,0.2-0.3,0.5-0.5,0.7c-0.9-0.5-2-0.9-2.8-1.7c-2.1-2.1-4.1-4.4-6.2-6.6
		c-0.2,0.2-0.5,0.4-0.7,0.6c1.9,2.3,3.8,4.6,6,7.2c-5.5,0.9-6.3-4.6-9.6-6.3c-0.2,0.2-0.4,0.3-0.6,0.5c1.5,1.8,2.9,3.7,4.8,6
		c-2.5,0-4.7,0.5-6.5-0.1c-1.5-0.5-2.6-2.3-4.3-3.4c0.2,1.1,0.5,2.2,0.7,3.4c-0.3,0.1-0.6,0.2-0.9,0.2c-2.9,0-5.9,0-8.8,0
		c-0.7-1.3-1.3-2.6-2-3.9c-0.3,0.1-0.5,0.2-0.8,0.4c0.4,1.1,0.8,2.2,1.3,3.6h-6.1c-0.5-0.9-1.1-1.8-1.6-2.7
		c-0.2,0.1-0.4,0.2-0.6,0.3c0.1,0.8,0.2,1.6,0.3,2.6c-0.5,0.1-1.1,0.2-1.6,0.2c-16.5,0.3-33.1,0.5-49.6,0.8c-1.5,0-2.1-0.5-2.4-1.9
		c-0.3-1.3-0.8-2.4-1.2-3.7c-0.3,0.1-0.7,0.1-1,0.2c0.3,1.7,0.5,3.4,0.8,5.1c-4.7,2-5.8-1.3-6.5-5.1c-0.3,0.2-0.6,0.4-0.9,0.6
		c0.4,1.6,0.7,3.1,1.1,4.7c-2.4,0.9-4,0.5-4.7-2.3c-0.3-1.1-1.1-2.1-1.7-3.1c-0.2,0.1-0.5,0.2-0.7,0.3c0.7,1.7,1.3,3.4,2,5.2
		c-2.4,0.9-4,0.6-4.8-2c-0.4-1.1-1.2-2.1-1.7-3.1c-0.2,0.1-0.5,0.2-0.7,0.3c0.6,1.7,1.2,3.3,1.7,5c-2.3,0.9-3.6,0.3-4.3-2
		c-0.5-1.5-1.3-2.9-2-4.4c-0.2,0.1-0.4,0.2-0.7,0.3c0.7,2.1,1.4,4.2,2.1,6.3c-0.2,0.1-0.4,0.3-0.7,0.4c-2.6-1.9-2.3-5.7-5-7.6
		c1,2.5,1.9,5,2.9,7.4c-0.3,0.1-0.6,0.3-0.9,0.4l-4.6-10.1c-0.3,0.1-0.6,0.3-0.9,0.4c1.2,3.1,2.4,6.2,3.6,9.2
		c-0.2,0.1-0.4,0.3-0.5,0.4c-0.4-0.5-1.1-1-1.3-1.6c-0.9-2.2-1.7-4.4-2.5-6.6c-0.2-0.6-0.6-1.1-0.8-1.6c-0.2,0.1-0.4,0.2-0.6,0.3
		c1,3,2,6.1,3,9.2c-2.7-1.3-4-5.4-3.4-10.9c1.7,0.1,3.4,0.3,5.1,0.3c36.2-0.1,72.4-0.2,108.6-0.5c9.4-0.1,18.7-0.7,28.1-1.1
		c0.7,0,1.6,0,2.1,0.4c3.6,2.8,7.2,5.8,11.1,9C182.6,254,181.5,253.8,180.4,252.2z M367.6,256.5c5.8-0.1,11.5,0,17.3,0.3
		c-6.3,2.1-12.7,1.1-19.1,1.3c-0.1-0.2-0.1-0.4-0.2-0.6C366.3,257.1,366.9,256.5,367.6,256.5z M342.3,256.9c4-0.2,8-0.9,11.8-0.3
		c3.4,0.6,7.2-1.7,10.3,0.6c0,0.3-0.1,0.5-0.1,0.8h-33.2c0-0.2,0-0.4,0-0.6C334.8,257.2,338.6,257,342.3,256.9z M404.1,121.7
		c-1.6,1-3.6,1.4-5.4,2.1c-2.1,0.9-4.1,1.8-6.5,2.9c-0.8-0.5-2.1-1.3-2.8-1.7c-0.3-3.4-0.6-6.3-0.8-9.2c-0.1-1.7-0.1-3.4,0.2-5
		c0.2-1.7,1.3-2.7,2.9-2.1c0.9,0.5,1.9,1.1,2.8,1.5c2.5,1,5.1,1.7,7.5,2.9c3.1,1.5,3.2,2.4,0.9,5.5c1.4-0.3,2.4-0.5,3.3-0.6
		c0.2,0.1,0.4,0.3,0.5,0.4C406,119.5,405.3,121,404.1,121.7z"/>
	<path d="M241.5,138.3c17.2-0.1,28.7,8.9,36.2,23.6c5.1,9.9,4.7,19.8-1.5,29.3c-4.1,6.4-8.2,12.7-15,16.8
		c-10.4,6.2-21.2,6.8-32.3,2.8c-14.8-5.3-23.9-15.6-26.7-31.1c-1.1-6,0.1-11.9,2.2-17.6c0.7-1.9,1.3-3.8,2.1-5.7
		c0.3-0.7,1.1-1.1,1.6-1.6c0.4-0.4,1.1-0.9,1.1-1.3c-0.4-2.6,1.8-3.3,3.2-4.5c6.1-5.3,12.7-9.9,21.1-10.6
		C236.1,138.1,238.8,138.3,241.5,138.3z M222.1,175.8c-1.4-10.1,4.1-16.2,11.3-21.9c-6.1,1.4-10.4,6.2-11.4,11.9
		c-0.1,0.7-0.2,1.5-0.6,2.1C219.9,170,219.9,173.1,222.1,175.8z M245.7,168.5c-2-0.9-4.2-1-6.1,0.4c-1.8,1.3-1,3.1-0.4,4.6
		c0.5,1.2,1.2,2.4,2.1,3.4c2.3,2.3,5.9,1.5,7.4-1.8c-2.3,1.5-4.6,2.1-6.5,0.1c-0.8-0.8-1.1-2.4-1-3.6
		C241.6,169.2,243.6,168.9,245.7,168.5z M230.9,173.3c1.7,3.3,0.9,7.6,5.6,9.1c-4.1-5.1-5.5-10.2-2-16c-2.6,2.6-5.8,4.8-4.7,9.4
		C230.2,174.9,230.5,174.3,230.9,173.3z M249.2,140.7c4.8,2.4,9.6,4.8,14.4,7.3C259.5,144,254.7,141.4,249.2,140.7z M251.6,149.1
		c-5.8-3-11.8-3.3-17.9-1.2C239.9,146.3,245.7,147.8,251.6,149.1z M240.1,206.1c5.2,1.1,9.7-0.9,14-3.6
		C249.4,203.7,244.8,204.9,240.1,206.1z M265.3,191.2c2.7-1.8,5.5-9.6,5.1-12.1C268.7,183,267,187.1,265.3,191.2z M255,146.9
		c-3.3-2.9-7.3-3.7-12.2-3.1C247.2,144.9,251.1,145.9,255,146.9z M226.5,206.9c-3.1-1.7-6.1-3.4-9.2-5.2
		C219.2,205.6,222.7,206.7,226.5,206.9z M243.7,191.8c-3.2-0.4-5.9-0.8-8.9-1.2C238.2,193.3,239.7,194,243.7,191.8z M266.6,151.6
		c-0.3,0.3-0.6,0.5-0.8,0.8c1.3,1.4,2.6,2.8,3.9,4.2c1.3,1.4,2.6,2.8,3.8,4.2c0.2-0.2,0.4-0.3,0.6-0.5
		C271.5,157.4,269,154.5,266.6,151.6z M239.7,200c0,0.2-0.1,0.3-0.1,0.5c3,0,6.1,0,9.1,0c-0.1,0.1-0.1,0.3-0.2,0.4
		c-1.2-0.6-2.4-1.2-3.8-1.9C243.3,199.3,241.5,199.7,239.7,200z M253.5,207.4c2.3,1.1,7.7-1.1,9.3-3.6
		C260,204.9,256.8,206.2,253.5,207.4z M212.3,186.9c-0.3,0.2-0.5,0.3-0.8,0.5c2,2.6,4.1,5.2,6.1,7.7c0.2-0.2,0.4-0.4,0.7-0.5
		C216.3,192.1,214.3,189.5,212.3,186.9z M228.5,203.9c-3.6-2.1-6.6-3.8-9.7-5.6C221.4,200.9,223.9,203.5,228.5,203.9z M246.1,208.6
		c0-0.1,0-0.1,0-0.2c-5-0.6-9.9-1.3-14.9-1.9c0,0.3-0.1,0.5-0.1,0.8C236.2,207.7,241.1,208.1,246.1,208.6z M238.9,203.2
		c-3.6-0.9-6.7-1.7-9.8-2.5C231.8,203.1,234.9,203.8,238.9,203.2z M251.4,193.2c-2.9,1.1-5.1,2-8,3.1
		C247.3,197.8,249.1,195.8,251.4,193.2z M228.7,179.1c-0.2,0.3-0.5,0.5-0.7,0.8c1.8,1.9,3.6,3.9,5.4,5.8c0.2-0.2,0.5-0.5,0.7-0.7
		C232.3,183.1,230.5,181.1,228.7,179.1z M258.2,177.8c-0.2-0.1-0.5-0.2-0.7-0.3c-1,2.1-2,4.2-3,6.3c0.3,0.1,0.6,0.3,0.9,0.4
		C256.4,182,257.3,179.9,258.2,177.8z M216.4,163.7c-0.2-0.1-0.5-0.1-0.7-0.2c-0.4,1.4-0.8,2.8-1,4.2c-0.1,0.3,0.4,0.8,0.6,1.1
		c0.4-0.3,1-0.6,1-0.9C216.5,166.5,216.4,165.1,216.4,163.7z M234.2,195.8c0,0.3,0,0.5,0.1,0.8c2.3,0.2,4.6,0.4,6.9,0.5
		c0-0.3,0-0.6,0.1-0.9C238.9,196.1,236.6,195.9,234.2,195.8z M241.8,155.8c-0.2,0.4-0.3,0.8-0.5,1.2c1.6,0.7,3.2,1.5,4.8,2.2
		c0.2-0.4,0.3-0.7,0.5-1.1C245,157.4,243.4,156.6,241.8,155.8z M238.8,141.6c-0.1-0.4-0.2-0.8-0.3-1.2c-2,0.5-4,1-6,1.6
		c0.1,0.3,0.1,0.6,0.2,0.8C234.8,142.4,236.8,142,238.8,141.6z M211.4,176.5c-1.6,0.8-1.2,3.3,0.9,6.4
		C212,180.7,211.7,178.7,211.4,176.5z M266.2,163.2c0.2-0.2,0.5-0.4,0.7-0.5c-1.2-1.9-2.3-3.8-3.5-5.7c-0.3,0.2-0.6,0.3-0.9,0.5
		C263.8,159.4,265,161.3,266.2,163.2z M273.8,170c-0.3-0.1-0.5-0.1-0.8-0.2c-1.7,1.7,0.1,3.7,0.1,5.5
		C273.4,173.5,273.6,171.7,273.8,170z M216.3,149.3c-0.3-0.3-0.6-0.5-0.9-0.8c-1,1.3-2,2.6-3,3.8c0.2,0.2,0.4,0.3,0.6,0.5
		C214.1,151.7,215.2,150.5,216.3,149.3z M230.3,166.8c0.2,0.2,0.3,0.3,0.5,0.5c1.6-1.4,3.1-2.8,4.7-4.1c-0.2-0.2-0.4-0.4-0.6-0.6
		C233.4,164,231.8,165.4,230.3,166.8z M221.7,152c-0.1-0.1-0.3-0.2-0.4-0.4c-1.9,2.2-3.7,4.3-5.6,6.5c0.2,0.1,0.3,0.3,0.5,0.4
		C218,156.4,219.9,154.2,221.7,152z"/>
	<path d="M300.5,240.6c-0.3,0.7-0.3,1.7-0.8,2.2c-8,7.2-17,13-27.2,16.8c-5.3,2-10.6,4.6-16.2,5.5c-25.4,4-48.1-2.7-68.2-18.6
		c-7.5-5.9-13.8-12.9-19.4-20.5c-6.6-8.9-9.9-19.1-11.7-29.9c-2.5-14.8-2.4-29.6,1.8-44.1c6.7-22.9,21.4-39.3,42.5-49.9
		c27.2-13.7,54.7-13.1,81.8,0.2c18.8,9.2,30.3,25.1,37.5,44.3c5.7,15.2,7.4,31.1,6.8,47.3c-0.1,3-1.6,5.9-2.4,8.8
		c-0.4-0.1-0.7-0.1-1.1-0.2c0-0.7-0.2-1.4-0.1-2c3-12.7,1.1-25.4-1.3-37.9c-1.3-6.9-3.3-13.8-5.7-20.4
		c-4.2-11.2-11.7-20.2-20.3-28.3c-11.8-11.1-26.5-15.5-41.8-18.1c-11.6-2-23.4-2.3-34.9,1.2c-12.4,3.7-24.5,8.5-34.6,17
		c-7.2,6.1-13.9,12.6-17.8,21.4c-4.7,10.6-7.9,21.5-9,33c-1.6,16.2,0.1,32,7.2,46.9c2.2,4.7,5.1,9.1,8,13.5
		c12.8,19,31.3,29.1,53.3,33.3c6.2,1.2,12.7,2.1,18.9,1.5c16.9-1.6,33.1-6,46.4-17.5c2.3-2,4.8-3.9,7.2-5.8c0.1-0.1,0.5,0,0.7,0
		C300.3,240.3,300.4,240.4,300.5,240.6z"/>
	<path d="M295,222.9c-1.4-1.4-1.7-2.3-0.5-3.7c8.3-9.7,12.9-21.4,12.9-33.9c-0.1-22.3-6.1-42.9-22.7-59.1c-9-8.8-20.3-13-32.6-13.9
		c-22.6-1.7-42.4,4.6-58.2,21.4c-14,14.8-20.1,32.6-16.7,52.7c2.2,13.3,9.1,24.8,18,34.9c16.4,18.4,37,23.6,60.6,18.3
		c2-0.4,3.9-1,5.9-1.6c1.9-0.5,3.7-1.1,5.7-1.7c0.2,1.4,0.3,2.6,0.5,4.4c-4.7,1.1-9.4,2.6-14.1,3.3c-16.6,2.7-32.3,0.4-46.5-9.1
		c-15.6-10.5-27.3-24-31.8-42.8c-3.9-16.6-2-32.3,7.6-46.8c6.9-10.5,14.8-20,25.9-26.2c12.4-6.9,26.1-9.3,40.2-9
		c24.6,0.5,41.2,12.9,51.4,34.7c3.6,7.8,6.2,15.8,7.7,24.3c2.6,15.1,0.8,29.7-5.9,43.5C300.4,216.2,297.5,219.4,295,222.9z"/>
	<path d="M246.3,97.2c-42.1,3-68.7,25.5-82.6,64.7c0-0.5-0.1-1-0.1-1.5c2.3-14.1,9.1-26,18.6-36.4c13.8-15.1,30.7-24.3,51.1-26.6
		c3.5-0.4,7-0.7,10.5-1c0.8-0.1,1.6,0.1,2.4,0.1C246.3,96.8,246.3,97,246.3,97.2z"/>
	<path d="M291.9,239.8c0.5,0.5,0.9,1,1.3,1.5c0.2-0.6,0.5-1.1,0.7-1.7c0.2-0.9,0.4-1.7,0.8-2.5c1.1,3.2,1.1,3.6-1.7,5.7
		c-15.7,11.9-33.6,17.2-53.2,16.7c-5.3-0.2-10.5-1.4-15.7-2.2c-0.8-0.1-1.5-0.5-2.3-0.7c0-0.2,0.1-0.5,0.1-0.7c0.9,0,1.9,0,2.8,0
		c8.8,0.1,17.5,0.7,26.3,0.1c13.5-0.8,25.8-5.5,36.8-13.4c0.7-0.5,1.7-0.7,2.4-1.2C290.9,240.9,291.4,240.3,291.9,239.8z"/>
	<path d="M300.5,240.6c-0.1-0.1-0.2-0.3-0.4-0.4c0.4-0.7,0.6-1.6,1.1-2.2c2.4-2.7,4.9-5.4,7.4-8c0.9-0.9,2.1-1.6,3.2-2.5
		c0.1-0.5,0-1.4,0.4-2.1c3.5-6.7,7-13.4,10.6-20.1c0.4-0.8,0.8-1.6,1.2-2.4c0.3,0,0.6,0.1,0.9,0.1c-0.1,0.9,0,1.9-0.2,2.8
		c-1.9,8.7-6.2,16.2-11.8,23c-2.1,2.6-4.9,4.7-7.2,7.1c-1.1,1.2-1.8,2.7-2.9,3.9C302.4,240.3,301.3,240.3,300.5,240.6z"/>
	<path d="M378.7,171c-0.2-1.5-0.6-2.5-0.3-2.9c3.3-4,6.8-7.8,10.3-11.7c0.2-0.3,1,0,1.5,0c-0.2,0.5-0.3,1.1-0.6,1.5
		c-2.1,2.4-4.4,4.6-6.5,7c-0.5,0.6-0.9,1.4-1.2,2.2c2.3-1.8,4.6-3.6,6.9-5.3c0.3,0.2,0.5,0.4,0.8,0.7c-0.4,0.6-0.7,1.3-1.2,1.9
		c-3.1,3.4-6.2,6.8-9.4,10.1c-0.5,0.5-1.3,0.7-1.9,1c0.1-0.7,0-1.5,0.2-2.1C377.7,172.3,378.4,171.4,378.7,171z"/>
	<path d="M274,236.4c-0.3-1-0.5-1.6-0.7-2.1c4.5-2.4,8.9-4.8,13.5-7.4c0.4,0.3,1,0.7,2.1,1.4c-4.4,2.8-7.7,6.8-13.1,7.4
		c-0.4,0-0.7,0.6-1,0.8c-1.5,0.9-2.9,1.8-4.4,2.6c-0.2,0.1-1.2-0.9-1.1-1.1c0.4-0.8,0.9-1.9,1.7-2.3
		C271.5,235.5,272.6,236.1,274,236.4z"/>
	<path d="M384.8,75.2c2.1,5.1,2.3,26.5,0.2,29.7C384.2,95,384.4,85.1,384.8,75.2z"/>
	<path d="M381.8,105.5c0-10.7,0-21.4,0-32c0.3,0,0.6,0,0.9,0c0.4,10.7,0.8,21.4,0.3,32C382.6,105.5,382.2,105.5,381.8,105.5z"/>
	<path d="M378.4,227c0.2-0.8,0.3-1.8,0.8-2.4c2.8-4,5.7-7.9,8.7-11.7c0.3-0.4,1.2-0.5,1.9-0.7c-0.1,0.6,0,1.3-0.4,1.7
		c-2.8,4-5.6,8-8.5,11.9c-0.5,0.6-1.2,1.1-1.8,1.6C378.8,227.3,378.6,227.1,378.4,227z"/>
	<path d="M379.8,73.4c0,9,0,17.9,0,26.9c-0.2,0-0.5,0-0.7,0c0-8.9,0-17.9,0-26.8C379.3,73.4,379.5,73.4,379.8,73.4z"/>
	<path d="M388.6,101.6c-0.4-8.2-0.8-16.4-1.2-25.3c2.2,3.2,3.2,20,1.9,25.2C389.1,101.5,388.9,101.5,388.6,101.6z"/>
	<path d="M390.1,178.6c-0.5,0.9-0.7,1.3-0.9,1.6c-3.1,3.8-6.1,7.5-9.3,11.3c-0.5,0.6-1.3,0.8-1.9,1.2c0-0.8-0.1-1.6,0.2-2.2
		c2.3-4.7,6-8.3,10-11.5C388.4,178.7,389,178.8,390.1,178.6z"/>
	<path d="M378.9,220.9c1.5-5.6,4.9-10,9.1-14.1C388.8,208.6,382.3,219,378.9,220.9z"/>
	<path d="M381.9,143.2c2.1-1.9,4.2-3.8,6.4-5.6c0.5-0.4,1.3-0.4,1.9-0.6c-0.3,0.7-0.4,1.5-0.8,2c-2.9,3.2-5.8,6.3-8.8,9.4
		c-0.6,0.6-1.3,1.1-1.9,1.7c-0.3-0.2-0.5-0.4-0.8-0.6C379.3,147.3,380.7,145.2,381.9,143.2C382,143.1,381.9,143.2,381.9,143.2z"/>
	<path d="M296.7,238.4c0.6-0.8,1.1-1.5,1.8-2.4c-0.3-0.1-0.8-0.4-1.8-0.8c3.1-2.7,5.9-5.3,8.8-7.9c0.2,0.2,0.3,0.4,0.5,0.5
		c0.1-0.8,0.3-1.6,0.4-2.4c0.3,0,0.5,0,0.8,0c0,0.7,0.2,1.6-0.2,2c-2.2,2.8-4.6,5.5-6.9,8.2c-0.9,1.1-1.7,2.2-2.6,3.2
		C297.3,238.7,297,238.6,296.7,238.4z"/>
	<path d="M383.5,230.2c-0.9,0.9-1.9,1.7-2.8,2.6c-0.2-0.1-0.5-0.2-0.7-0.3c0.2-0.9,0.1-1.9,0.6-2.6c2.3-3.4,4.7-6.7,7.1-10
		c0.3-0.4,1.1-0.4,1.6-0.6c-0.1,0.6,0,1.3-0.3,1.8C387.2,224.2,385.3,227.2,383.5,230.2L383.5,230.2z"/>
	<path d="M376.6,75.7c0,7.6,0,15.1,0,22.9C375.1,97.4,374.9,80.2,376.6,75.7z"/>
	<path d="M379.3,196.7c0.2-0.9,0.2-1.7,0.6-2.2c2.8-3.6,5.6-7.1,8.5-10.6c0.3-0.3,1-0.2,1.5-0.3c0,0.5,0.2,1.1,0,1.3
		c-3.1,3.9-6.2,7.7-9.4,11.5C380.3,196.6,380,196.5,379.3,196.7z"/>
	<path d="M389.4,173.1c-0.5,0.7-1,1.4-1.5,2c-2.2,2.3-4.5,4.6-6.6,7c-0.8,0.9-1.4,2.1-2.1,3.1c-0.3,0.4-0.7,0.7-1.1,1
		c-0.3-0.5-0.6-1.1-0.8-1.6c-0.1-0.3,0.1-0.7,0.3-0.9c3.3-4.1,6.6-8.2,11.1-11.1C389,172.7,389.2,172.9,389.4,173.1z"/>
	<path d="M377.2,180.5c3.1-5.6,7-9.5,11.4-13.1C388.8,169.3,379.7,180,377.2,180.5z"/>
	<path d="M383,137.7c2.6-1.9,4.8-4.6,8.7-5.4c-3.6,3.9-6.7,7.4-9.8,10.8c0,0,0.1-0.1,0.1-0.1c-0.6,0.3-1.3,0.5-1.9,0.8
		c-0.2-0.1-0.5-0.3-0.7-0.4c0.9-1.6,1.8-3.3,2.7-4.9C382.4,138.3,382.7,138,383,137.7z"/>
	<path d="M382,157.8c-0.8,0.5-1.6,1-2.5,1.5c-0.2-0.2-0.5-0.5-0.7-0.7c2.5-4.6,6.9-7.5,10.2-11.5c0.2,3.7-3.5,5.2-4.6,8.2
		C383.6,156.1,382.8,157,382,157.8z"/>
	<path d="M382,157.8c0.8-0.8,1.6-1.7,2.5-2.5c1.6-1.4,3.2-2.9,4.9-4.3c0.3,0.3,0.5,0.5,0.8,0.8c-3.6,4.3-7.3,8.6-10.9,12.9
		c-0.4-0.3-0.7-0.5-1.1-0.8C379.4,161.9,380.7,159.8,382,157.8z"/>
	<path d="M378.2,203.3c0.2-0.8,0.2-1.8,0.7-2.4c2.2-2.9,4.5-5.8,6.9-8.6c0.3-0.3,1-0.3,1.5-0.4c0,0.5,0.1,1.2-0.1,1.5
		c-2.3,3.2-4.7,6.3-7.2,9.4c-0.3,0.4-0.9,0.6-1.3,0.9C378.5,203.5,378.3,203.4,378.2,203.3z"/>
	<path d="M378.8,208.5c0.5-1.3,0.7-2.3,1.2-3c2-2.8,4.2-5.5,6.3-8.2c0.3-0.4,1-0.4,1.5-0.6c0.1,0.5,0.3,1.1,0.1,1.3
		c-2.5,3.4-5.1,6.7-7.7,10C380.1,208.3,379.7,208.2,378.8,208.5z"/>
	<path d="M388.6,144.2c-3.2,3.9-6.5,7.8-9.7,11.6C378.4,153,385.5,144.4,388.6,144.2z"/>
	<path d="M383,137.7c-0.3,0.3-0.6,0.5-1,0.8c-0.7,0.4-1.4,0.8-2.2,1.2c-0.2-2.7,5.5-8.7,9.5-9.4C387.3,132.8,385.2,135.3,383,137.7z
		"/>
	<path d="M379.6,214.4c0-2.8,5.2-10.4,7.6-11.2C387.1,205.6,381.4,213.9,379.6,214.4z"/>
	<path d="M371,95c0-5.3,0-10.5,0-15.6c1.4,1.4,2,12.5,0.8,15.6C371.5,95,371.3,95,371,95z"/>
	<path d="M388,128.1c-3.2,2.9-6,5.5-9.2,8.6C379.1,133.2,384.7,128.1,388,128.1z"/>
	<path d="M366.4,92.3c0-4,0-8,0-12c0.3,0,0.5,0,0.8,0c0,4,0,8,0,12C367,92.3,366.7,92.3,366.4,92.3z"/>
	<path d="M382.3,126.8c1-0.5,1.9-1.1,2.9-1.6c0.2,0.3,0.4,0.6,0.7,0.9c-2.1,1.9-4.1,3.8-6.2,5.6c-0.2-0.2-0.4-0.4-0.7-0.6
		C379,129,381.1,128.2,382.3,126.8C382.3,126.8,382.3,126.8,382.3,126.8z"/>
	<path d="M382.3,126.8C382.3,126.8,382.3,126.8,382.3,126.8c-0.8,0.2-1.5,0.5-3,1c1.3-3.4,3.7-4.6,5.7-6.2c0.2,0.2,0.4,0.3,0.7,0.5
		C384.6,123.7,383.4,125.2,382.3,126.8z"/>
	<path d="M383.4,230.3c0.7-0.2,1.5-0.4,2.2-0.5c-0.2,0.7-0.2,1.6-0.6,2.2c-0.5,0.9-1.2,1.7-1.8,2.5c-0.3-0.2-0.6-0.4-0.9-0.7
		C382.8,232.6,383.1,231.4,383.4,230.3C383.5,230.2,383.4,230.3,383.4,230.3z"/>
	<path d="M292.3,223c-0.2,0.8-0.3,1.9-0.8,2.4c-0.5,0.5-1.6,0.4-2.4,0.6c-0.2-0.3-0.3-0.6-0.5-0.9c0.9-0.8,1.8-1.6,2.8-2.5
		C291.7,222.7,292,222.8,292.3,223z"/>
	<path d="M128.5,150.8c0.3,0.7,0.8,1.3,0.9,2c0.7,6.6,1.4,13.2,2.1,19.9c0.1,0.9,0.2,1.8,0.2,2c1.9,0.9,3.4,1.5,4.8,2.2
		c1.5,0.8,3,1.8,4.5,2.8c0.2-0.2,0.3-0.4,0.5-0.6c-0.1,0.9-0.6,1.9-0.3,2.6c1.1,2.2,2.4,4.2,3.7,6.4c0.1,1.5,0.3,3.2,0.4,4.4
		c1.2,0.7,1.9,1.2,2.7,1.6c-0.7,0.4-1.4,0.8-2.2,1.3c-1.1,11-6.5,17.9-16.8,21.1c-10.1,3.1-21.5,0.2-27.5-7.2
		c-5.7-6.9-5.9-17.1-0.2-25.5c1.7-2.5,4.2-4.6,6.2-7c0.7-0.8,1.4-1.9,1.5-2.9c0.6-7.1,1.1-14.1,1.4-21.2c0.1-2.1,0.9-3.1,3-3.1
		c4.3,0,8.6-0.2,12.9-0.1C126.9,149.6,127.7,150.4,128.5,150.8c-5.5,0.1-11.1,0.1-16.2,0.1c-0.2,4-0.3,7.7-0.5,11.5
		c-0.2,3.9-0.6,7.7-1,11.7c0.8-2.3,1.5-4.5,2.2-6.6c0.3,0.1,0.6,0.2,0.9,0.2c-0.4,3.8-0.8,7.6-1.2,11.4c0.3,0,0.6,0,0.8,0.1
		c0.8-3.4,0-7.1,2.2-10.3c0,3.4,0,6.7,0,10.1c0.3,0,0.6,0.1,0.8,0.1c0.3-4,0.6-7.9,1-11.9c0.3,0,0.6,0.1,0.9,0.1c0,3.8,0,7.6,0,11.5
		c0.8-0.1,1.3-0.1,1.8-0.2c0-3.9,0-7.6,0-11.3c0.3,0,0.6,0,0.8-0.1c0.4,3.8,0.8,7.6,1.2,11.3c0.3,0,0.5,0,0.8-0.1
		c-0.2-3.6-0.5-7.1-0.7-10.7c0.2,0,0.5-0.1,0.7-0.1c0.2,0.5,0.4,1,0.5,1.5c0.4,2.5,0.8,5,1,7.5c0.1,1.7,0.8,2,2.3,1.4
		c-0.4-2.9-1.7-5.6-0.5-8.5c0.8,2.1,1.1,4.2,1.7,6.3c0.2,0.8,0.9,1.5,1.3,2.3c0.1-0.8,0.4-1.7,0.3-2.5
		C128.6,167.4,127.7,159.1,128.5,150.8z M131.9,176.6c0.1,1.8,0.3,3.1,0.3,4.4c0.3,4.7,1,9.3,0,14.1c-1.3,6.4-7.5,11.3-14,10.3
		c-4.3-0.7-7.1-3.1-9-7.6c-0.4,1.7-0.6,2.8-0.8,3.9c-0.2,0-0.5-0.1-0.7-0.1c0.3-7.8,0.7-15.5,1-23.8c-9.4,10.2-9.4,23.3-0.4,31.1
		c9,7.9,21.8,6.9,29.5-2.3C145.5,197.5,143.3,185.6,131.9,176.6z M120.6,203.5c4.6,0,8.7-4,8.6-8.5c-0.1-5.2-4.1-8.8-9.9-8.8
		c-4.9,0-7.4,2.8-7.5,8.1C111.7,199.4,115.6,203.5,120.6,203.5z M131.5,189.7c-0.5-3.5-1-6.6-1.4-9.6c-6.8,0.4-13.3,0.7-19.9,1.1
		c-0.3,3.6-0.5,7-0.8,10.9C116,180.9,123.2,181.9,131.5,189.7z M111.3,213.2c-8-5.6-11.6-13.2-10.7-23.5
		C96.1,199,101.5,210.4,111.3,213.2z"/>
	<path d="M301.5,72.5c-4.7-2.8-3.4-6.9-3.5-10.6c-0.1-5,0.1-9.9,0.3-14.9c0-0.8,0.2-1.6,0.2-2.4c0.3,0,0.5,0,0.8-0.1
		c0.2,1.9,0.5,3.9,0.7,5.8c0.3,0,0.5,0,0.8,0c0-3.6,0-7.2,0-10.9c0.4,0,0.8,0,1.2,0.1C301.8,50.5,302.6,61.3,301.5,72.5z"/>
	<path d="M140.2,57.2c1.7,2.2,1.7,7.1,0,9.7C140.2,63.4,140.2,60.5,140.2,57.2z"/>
	<path d="M167.1,66.1c0-1.9,0-3.3,0-4.7c0-0.3,0.4-0.8,0.7-0.8c0.3,0,0.9,0.3,0.9,0.6C169.1,62.9,169.1,64.5,167.1,66.1z"/>
	<path d="M163.2,65.2c-0.3-1.6-0.7-3.3-1-4.9c0.4-0.1,0.8-0.2,1.1-0.2c0.4,1.6,0.8,3.3,1.1,4.9C164,65,163.6,65.1,163.2,65.2z"/>
	<path d="M357.1,45.5c0.2,1.8,0.3,3.5,0.5,5.3c-0.4,0-0.9,0.1-1.3,0.1c-0.2-1.8-0.4-3.5-0.6-5.3C356.1,45.6,356.6,45.5,357.1,45.5z"
		/>
	<path d="M354.3,50.8c-1-1.5-1.4-3.2-0.7-4.9c0.3,0,0.7-0.1,1-0.1c0.2,1.6,0.4,3.2,0.5,4.8C354.8,50.7,354.6,50.8,354.3,50.8z"/>
	<path d="M360.9,46.5c2.6,1.7,2.8,2.9,1.1,5.4C361.6,50,361.3,48.6,360.9,46.5z"/>
	<path d="M402,118.2c-0.1,2.3-1.1,4-3.4,4.5c-2.3,0.6-3.6-0.7-4.5-2.7c-0.1-0.2-0.2-0.5-0.3-0.7c-0.8-2.2-1-4.4,0.9-6
		c0.8-0.6,2.4-0.9,3.4-0.6C400.5,113.7,401.7,115.7,402,118.2z M399.7,116.9c0-0.3,0-0.6,0.1-0.9c-0.9-0.3-2.3-1.2-2.7-0.9
		c-0.8,0.7-1.3,2-1.6,3.1c-0.1,0.3,1,1,1.5,1.5c0.2-0.1,0.4-0.1,0.7-0.2C396.8,117.2,397.5,116.4,399.7,116.9z"/>
	<path d="M113.5,165.2c-0.1-1.5-0.2-3.1-0.3-4.6c0.4,0,0.7-0.1,1.1-0.1c0.1,1.5,0.2,3.1,0.4,4.6
		C114.2,165.2,113.8,165.2,113.5,165.2z"/>
</g>
</svg>
