<?xml version="1.0" encoding="utf-8"?>
<!-- Generator: Adobe Illustrator 24.1.1, SVG Export Plug-In . SVG Version: 6.00 Build 0)  -->
<svg version="1.1" id="Vrstva_1" xmlns="http://www.w3.org/2000/svg" xmlns:xlink="http://www.w3.org/1999/xlink" x="0px" y="0px"
	 viewBox="0 0 223.8 240.2" style="enable-background:new 0 0 223.8 240.2;" xml:space="preserve">
<path d="M64.8,120.9c6.3,6.4,12.2,12.6,18.8,19.3c-12.1,1.9-28-9.5-29.5-31.3c10.6,0.8,20.8,2.6,29.2,9.5c2.6,2.1,4.8,5.2,6.2,8.2
	c1.7,4.1,4,4.8,7.7,3.2c7.3-3.2,14.7-4.4,22.8-3.6c9.2,0.9,14.9,6.7,20.6,12.8c1.2,1.3,1.5,3.7,1.5,5.6c0,5.2,2.4,8.8,6.2,11.9
	c5.7,4.8,11.4,9.8,17,14.7c1.2,1,2.2,2.2,3.2,3.3c-0.2,0.5-0.3,0.9-0.5,1.4c-3.9,0-7.7,0-11.9,0c0.8,5.9,3.7,8.5,8.7,8.9
	c-2.5,4.5-6.1,6.2-10.5,4.6c-4.2-1.6-8.2-3.7-12.3-5.4c-6.8-2.9-13.6-4.9-21.3-3.9c-19.9,2.5-28.1-11-28.3-25.9c0-5-0.2-10-1.2-14.9
	C89,127.7,76.8,119.3,64.8,120.9z M104.8,144.4c2.2,3.1,4.3,6.5,6.7,9.6c0.8,1.1,2.3,2,3.7,2.3c4.6,1.3,9.3,2.2,13.8,3.3
	C124.8,142.7,116.7,140.8,104.8,144.4z"/>
<path d="M170,91.7c17.7-1.8,31.2-10.2,39.9-26c-3,16-13.1,25.7-28.1,30.4c-8.1,2.6-16.5,3.8-24.6,6.2c-10.7,3.2-20.7,7.6-26,18.4
	c-6.4-1.9-8.8-4.8-9-10.9c-0.5-15.1,6.4-27.5,14.3-39.5c-3.2,12.2-8.1,24-6.9,37.1c2.2-7.8,7.5-13.1,13.2-18.2
	c10.9-9.7,12.8-21.2,7.1-34.3c-1.3-3-2.7-6.1-4-9.1c7.2,3.5,12.2,15.4,11.4,27.6c-0.8,11.3-8.3,18.7-15.2,26.6
	c13.8-6.4,27-13.3,31.9-29.1c6-19.6-1.7-34.6-16.5-47.1c8.8,3.9,15.7,9.8,20.6,17.9c5.1,8.4,4.6,17.8,3.8,27.2
	c10.5-3.1,14.5-20.8,10.2-43.5c8,7.6,10,24.1,4.3,37.3C190.9,75.4,180.8,83.7,170,91.7z"/>
<path d="M18.8,64.8c8.5,16.5,22.3,25,39.9,27.8c0.4-0.5,0.7-1,1.1-1.5c-1.4-0.9-2.8-1.9-4.2-2.8c-12.8-8.9-23.3-19.5-25.7-35.8
	c-1.5-10.3,0.8-19.7,7.6-28.6C33,48,36.5,64.7,47.8,69.3c-4.1-22.5,5.9-37.1,25.5-46.1c-0.6,0.5-1.2,1.1-1.8,1.6
	c-0.6,0.5-1.3,1-2,1.6C46.9,44.7,47.7,75,71.5,91.7c4.8,3.4,10.1,6.2,15.7,8.7c-7-7.9-14.4-15.5-15.5-26.4
	c-1.1-10.9,2.5-20.4,11.1-27.9c-1.6,4.2-3.4,8.4-4.9,12.7c-3.7,10.5-1.9,19.9,6.1,28c6,6.1,13,11.5,15.6,20.4
	c0.7-13.2-3.7-25.3-7.4-37.5c8.1,11.6,14.5,23.9,14.9,38.4c0.2,6.9-2.1,10-8.9,12.7c-8.3-14.9-23.3-18.1-38.1-21.7
	C55.1,98,50,97,45.2,95.3C30.6,90.3,21.8,80.1,18.8,64.8z"/>
<path d="M83.9,154.2c0.4,29.6,13.2,52,37.9,69.8c-12.2,0.9-21-3.2-27.8-10.4c-10.6-11.2-14.2-25.3-12.8-40.5
	C81.7,166.7,82.9,160.5,83.9,154.2z"/>
<path d="M146.3,209.3c-5.6,4-10.8,8-16.3,11.7c-0.9,0.6-3,0.5-4-0.1c-5.8-3.7-10.7-18.2-8.5-24.7c1.5-4.7,5.2-6.7,9.6-7.7
	c1-0.2,2.8,0.7,3.5,1.6c2.2,3.3,3.7,7,6.2,10.1C139.2,203.4,142.5,205.8,146.3,209.3z"/>
<path d="M147.8,140c1.2-2.3,1.8-4.4,3.1-5.8c4.5-4.5,9.3-8.8,14.9-14.1c-10.1-0.1-17.3,2.7-23.4,9c-3.3-2.1-3.6-4.1-1-7.2
	c8.5-9.9,20.2-11.8,32.1-13.4C175,122.5,161.5,140.4,147.8,140z"/>
</svg>
