<?xml version="1.0" encoding="utf-8"?>
<!-- Generator: Adobe Illustrator 24.1.1, SVG Export Plug-In . SVG Version: 6.00 Build 0)  -->
<svg version="1.1" xmlns="http://www.w3.org/2000/svg" xmlns:xlink="http://www.w3.org/1999/xlink" x="0px" y="0px"
	 viewBox="0 0 419.5 277.8" style="enable-background:new 0 0 419.5 277.8;" xml:space="preserve">
<style type="text/css">
	.st0{display:none;}
	.st1{display:inline;fill:#E30613;stroke:#FFFFFF;stroke-width:0.8504;stroke-miterlimit:10;}
	.st2{display:none;stroke:#FFFFFF;stroke-width:0.8504;stroke-miterlimit:10;}
	.st3{display:none;fill:#F9B233;stroke:#FFFFFF;stroke-width:0.8504;stroke-miterlimit:10;}
</style>
<g id="Vrstva_2" class="st0">
	<rect x="-19.2" y="-24.6" class="st1" width="564.6" height="343.1"/>
</g>
<g id="Vrstva_1">
	<path class="st2" d="M172.5,65.1"/>
	<path class="st3" d="M172.5,212"/>
	<path d="M355.4,107.3c0.5,2.1,1,4.2,1.6,6.2c0.3,1-0.1,1.3-0.9,1.7c-10.7,5.3-21.2,11-32.1,16c-21.8,10-43,20.9-63.7,33
		c-11.6,6.8-22.6,14.5-32,24.2c-0.5,0.5-0.9,1-1.2,1.7c1-1,2.1-1.9,3.1-2.9c8.5-8.2,18-14.8,28.1-20.8
		c20.6-12.2,41.4-24.2,63.6-33.4c0.5-0.2,1-0.4,1.6-0.6c0.1,0.1,0.1,0.2,0.2,0.4c-0.9,0.5-1.7,0.9-2.6,1.4c-8.7,4.2-17.5,8-26,12.6
		c-14.1,7.6-28.5,14.7-41.8,23.9c-0.3,0.2-0.5,0.5-0.8,0.7c0,0,0.1,0,0.1,0c-0.1,0-0.2-0.1-0.3,0c-6.8,3.9-12.9,8.6-18.6,14
		l-0.1,0.1c-5.9,5.4-12.3,10.2-16.8,17c-2,3-2.8,6.1-1.5,9.8c2-2.7,3.9-5.4,5.8-8.1c0.1,0.1,0.2,0.1,0.2,0.2
		c-2.1,3.4-4.3,6.9-6.6,10.7c3.8,0,1.4,2.3,2.2,3.9c0.4-0.8,0.8-1.2,0.9-1.7c0.1-0.5-0.2-1.1-0.1-1.6c0.1-0.5,0.6-1.3,1-1.3
		c0.8-0.1,1.2,0.5,1,1.4c-0.2,0.7-0.1,1.5-0.2,2.2c0.2,0.1,0.4,0.1,0.6,0.2c0.3-0.6,0.7-1.1,1-1.7c0.2-0.5,0.1-1.1,0.4-1.5
		c0.2-0.4,0.8-0.5,1.2-0.8c0.2,0.4,0.4,0.9,0.4,1.3c0,0.5-0.3,1-0.4,1.5c0.1,0.1,0.3,0.1,0.4,0.2c0.3-0.7,1-1.5,1-2.2
		c-0.1-1.2,0.6-1.4,1.4-1.8c4.1-2.3,8.8-2.9,13.2-4c12.6-3.1,25.3-2.9,38.1-1.5c17.3,2,34.6,4,52,4.7c9.3,0.4,18.6,0.9,27.9,1.6
		c8.6,0.7,17.1,1.8,25.6,2.6c6.3,0.6,12.7,1.1,19.2,1.6c-4.2,0-8.3,0.3-12.4-0.1c-7.1-0.6-14.2-1.7-21.4-2.3
		c-8.5-0.7-17.1-1.2-25.6-1.7c-19.9-1.1-39.8-2.1-59.6-4.7c-10.3-1.4-20.7-2.1-31.1-1.4c-6.7,0.4-13.3,1.4-19.7,3.5
		c-0.3,0.1-0.6,0.2-0.9,0.3c-0.1,0.1-0.2,0.2-0.6,0.4c3-0.5,5.7-0.9,8.5-1.3c10-1.4,20-1.6,30-0.4c11,1.3,22,3.1,33,4.4
		c10.9,1.3,21.8,2.2,32.7,3.1c5.5,0.5,11,0.5,16.5,0.7c14.9,0.5,29.8,1,44.7,1.6c1.9,0.1,3.8-0.2,5.7,0.9c0.8,0.5,2.1,0.1,3.4,0.1
		c-1-3.5-2-6.6-2.8-9.7c-2-7.8-3.9-15.7-5.8-23.5c-3.3-13.3-6.7-26.5-10-39.8c-3-11.9-5.9-23.7-8.8-35.6c-0.4-1.7-1.1-2.6-2.9-2.4
		c-0.4,0-0.8-0.1-1.5-0.2c2.9,11.1,5.9,22.1,8.5,33.2c2.6,11,6.1,21.9,7.9,33.5c-2.4-0.2-4.4-0.3-6.4-0.5c0,0.1,0,0.2-0.1,0.4
		c1,0.2,2,0.3,3,0.5c0,0.1,0,0.1,0,0.2c-1.2-0.1-2.4-0.2-3.7-0.3c0,0.2,0,0.3-0.1,0.5c2.8,0.4,5.6,0.7,8.3,1.1c0,0.2,0,0.4,0,0.6
		c-0.7,0.1-1.4,0.5-2.1,0.4c-3.5-0.2-7.2,0.2-10.4-0.8c-4.6-1.4-9.2-1.4-13.8-2.2c-4.7-0.7-9.5-1-14.3-1.4c-0.9-0.1-1.8,0-2.8,0.1
		c14.6,1.9,29.2,3.9,43.4,5.8c0.5,1.1,0.9,1.9,1.2,2.7c-3.4,1.7-26.9,0.7-29.5-1.4c5.9,0,11.7,2,17.5,0.4c-1.6,0-3.3,0-4.9,0
		c0-0.2,0-0.3,0-0.5c2.7,0,5.4,0,8,0c0-0.2,0-0.3,0-0.5c-2.3-0.3-4.6-0.5-6.8-0.8c0-0.1,0-0.2,0-0.3c0.7,0,1.3-0.1,2-0.1
		c0-0.1,0-0.2,0-0.3c-1.2-0.1-2.3-0.3-3.5-0.4c-3.4-0.4-6.8-0.9-10.3-1.2c-2.9-0.3-5.9-0.2-8.8-0.5c-5.5-0.6-11-1.5-16.5-2.2
		c-2.2-0.2-4.5,0-6.7,0.2c10.4,0.8,20.7,1.9,30.8,4.6c-5.4-0.7-10.8-1.4-16.2-2.2c0,0.1,0,0.2-0.1,0.3c0.2,0.1,0.5,0.2,1,0.5
		c-7.6-0.8-14.8-1.5-22.1-2.2c0,0.2-0.1,0.5-0.1,0.7c9.6,1.1,19.1,2.1,28.7,3.2c0,0.2,0,0.4,0,0.6c-6.8-1-13.5-0.9-20.3-0.9
		c1.8,0.4,3.5,0.8,5.3,1.3c0,0.1,0,0.2,0,0.4c-1.8-0.2-3.5-0.4-5.3-0.5c-2.2-0.2-4.4-0.5-6.6-0.5c-6.6,0.1-13.1,0.3-19.7,0.5
		c-0.5,0-0.9,0.1-1.4,0.3c8.6,0.3,17.1,0.7,25.7,1c0,0.2,0,0.3,0,0.5c-3.3-0.2-6.6-0.3-9.8-0.5c-1,0-2-0.3-2.9-0.1
		c-6.4,1.5-13,0.6-19.4,1.3c-6.6,0.7-13.2,1.4-19.8,2.1c-0.2,0-0.5,0.1-0.7,0.4c0.7,0,1.4,0,2,0c8.3,0,16.5-0.1,24.8-0.2
		c10-0.1,19.9,1.4,29.7,3.5c9.8,2.1,19.6,4,29.5,5.9c4.3,0.8,8.7,1.2,13,1.8c5.4,0.8,10.8,1.3,16.2,1c1.3-0.1,1.7,0.7,1.6,3
		c-0.2,0-0.5,0.1-0.6,0c-1.4-1.5-3.3-1-5-1.3c-6.2-0.8-12.5-1.3-18.7-2.4c-14.9-2.7-29.8-5.7-44.7-8.6c-8.6-1.7-17.2-2-25.9-2
		c-7.9,0-15.8,0.6-23.7,0.9c-0.7,0-1.4,0.2-2,0.5c2.6,0,5.2,0,7.7,0c0,0.1,0,0.2,0,0.2c-2.3,0.2-4.5,0.3-6.8,0.5
		c-14.1,1.1-27.7,4.4-40.5,10.3c-4.2,1.9-8,4.6-11.9,7.1c-1,0.6-1.6,1.8-2.5,2.7c-0.6,0.7-1.3,1.4-1.9,2.1c-0.1-0.1-0.2-0.2-0.4-0.3
		c0.2-0.5,0.5-1,0.7-1.5c4.4-8.3,11.1-14.3,18.7-19.5c0.4-0.3,0.8-0.6,1.2-1l-0.1,0.1c2.1-1.2,4.3-2.4,6.4-3.7
		c6-3.9,12.7-6.3,19.1-9.4c22.4-10.9,46.1-18.4,70-25.1c7.8-2.2,15.6-4.3,23.3-6.5c0.5-0.1,1-0.3,1.4-0.8c-3.2,0.8-6.4,1.6-9.7,2.3
		c0-0.2-0.1-0.3-0.1-0.5c3-0.8,6-1.7,9-2.4c5-1.1,9.7-2.7,13.8-6c0.3-0.3,0.8-0.3,1.3-0.3c-0.9,2.2-3.3,2.4-4.8,3.7
		c0.1,0.1,0.1,0.3,0.2,0.4c1.8-0.9,3.6-1.8,5.3-2.9c0.2-0.1,0.1-1.1,0-1.6c-2.3-7.8-4.7-15.5-6.9-23.2c-5.1-18-10-36-15.1-54
		c-2.2-8-4.5-16.1-7-24.1c0.1,0.6,0.2,1.2,0.2,1.9c-0.1,0-0.1,0-0.2,0.1c-0.7-2-1.4-4-2.1-6c-0.1,0-0.2,0.1-0.3,0.1
		c0.1,0.6,0.2,1.1,0.3,1.7c-0.1,0-0.2,0.1-0.2,0.1c-0.8-3-1.7-5.9-2.5-8.9c-1,7.7,3.1,14.1,4.8,21c2.1,8.4,4.2,16.8,6.3,25.2
		c0.1,0.2,0,0.5-0.2,0.8c-0.9-3.7-1.9-7.3-2.7-11c-2.4-10.5-5.8-20.7-9.3-30.9c-1.2-3.6-2-7.4-2.8-11.2c1.3,1.3,3.3,2,2.8,4.2
		c1.1-0.1,1.9-0.1,2.9-0.2c-0.2,0.9-0.3,1.4-0.3,1.5c1.6,2.1,3.4,3.7,4.1,6c1.9,6.7,3.8,13.4,5.7,20.1c0.2,0.8,0.4,1.5,0.6,2.3
		c3-0.1,4.6,1.2,5.4,4.4c4.2,15.4,8.4,30.8,12.6,46.1c0.4,1.5,0.9,3,1.3,4.4c1.6,0.1,3.2,0.1,4.7,0.3c0.9,0.1,1.5,0.4,1.4,1.7
		c0,1.1,0.5,2.3,0.9,3.4c6,19.1,10.9,38.6,15.7,58c1.1,4.5,2.4,8.9,3.9,13.3c3.8,11.8,6,23.9,8.7,35.9c0.7,2.9,1.6,5.8,2.3,8.7
		c0.5,2.1,0.1,2.9-2,3.4c-1.6,0.4-3.3,0.7-4.9,0.6c-7.1-0.1-14.2-0.1-21.3-0.6c-9.9-0.7-19.9-1.7-29.8-2.6c-3.8-0.3-7.6-0.8-11.4-1
		c-18.5-0.9-37-1.7-55.5-2.5c-13.7-0.6-27.4-1.1-41.1-1.7c-4.1-0.2-8.2-0.6-12.3-0.7c-0.6,0-1.5,0.4-1.8,0.8
		c-2.7,3.8-6,6.7-10.6,8.1c-0.4,0.1-0.8,0.9-0.8,1.4c0.5,3.1,1.2,6.1,1.8,9.2c0.1,0.6,0.1,1.3-0.1,1.9c-1.2,3.6-2.5,7.1-3.8,10.6
		c-0.1,0.4-0.7,0.8-1.1,0.8c-0.5,0-1.3-0.2-1.6-0.6c-0.7-1.1-1.4-2.2-1.8-3.4c-1.6-5-3-10-4.5-15c-0.2-0.7-0.3-1.5-0.5-2.3
		c-0.8,0.1-1.5,0.1-2.3,0.2c-5.1,0.4-10.3,0.3-15.2-1.4c-1.6-0.5-3-1.4-4.4-2.3c-1-0.6-1.7-1.4-1.4-2.8c0.3-1.1-0.7-1.1-1.4-1.1
		c-5.9,0-11.8-0.2-17.6-0.1c-14.2,0.3-28.4,0.7-42.5,1.2c-8,0.3-16,1-24.1,1.4c-4.7,0.2-9.4,0.2-14.1,0.4
		c-5.1,0.2-10.1,0.7-15.2,0.8c-14.6,0.2-29.1,0.2-43.7,0.3c-2.2,0-4.3,0.1-6.5,0c-4.1-0.1-7.1-3.8-6.1-7.8c3.8-15,7.5-30,11.7-44.9
		c5.5-19.6,11.5-39.1,17.3-58.6c0.9-3,1.3-6.1,2.1-9.1c0.4-1.7,1-3.4,1.5-5.1c1.9,0.6,3.4,1.1,5.4,1.8c-0.5-1-0.7-1.5-1-2.3
		c2.7,0.8,2.6-1.2,3-3.1c0.2,0.7,0.3,1,0.3,1.2c0.1,0,0.3,0.1,0.4,0.1c1-3.9,2.1-7.8,3-11.8c3.1-13.5,6.1-27.1,9.1-40.7
		c0.2-0.9,0.6-1.3,1.5-1.2c1.9,0.3,3.1-0.8,3.6-2.4c0.7-2.2,1.1-4.5,1.6-6.7c1-4.2,1.9-8.5,2.9-12.8C78.7,29.6,82,31,85.4,32
		c8,2.3,16.1,4.3,24.2,6.6c11.8,3.3,23.7,6.4,35.3,10.1c10.2,3.2,19.6,8.4,28.4,14.5c6.1,4.2,11.6,9.1,16.9,14.2
		c3.7,3.6,6.9,7.8,10.3,11.8c1.3,1.5,2.6,3,3.6,4.2c2.7-2,5.1-3.8,7.6-5.5c0.7-0.5,1.5-1.2,2.4-1.3c2.6-0.5,4.1-2.4,5.8-4.2
		c2.8-2.9,5.6-5.9,8.4-8.8c0,0,0.1-0.1,0.1-0.1c8.7-7.3,17-15.1,26.1-21.9c12.1-9,25-16.8,38.4-23.9c11.5-6.1,22.6-13.2,33.8-19.9
		c0.4-0.2,0.8-0.5,1.2-0.7c0.8,1.1,1.6,2.1,2.4,3.2c0,0.7-0.2,1.7,0,2.5c6.7,23.3,13.5,46.6,20.1,69.9c2.3,8.2,4.5,16.4,6.6,24.7
		c0.5,2,0.7,4.1,0.7,6.2c-0.5-1.6-0.9-3.1-1.5-4.7C356.1,108.2,355.7,107.8,355.4,107.3c-0.7-3.7-1.4-7.5-2.1-11.2
		c-0.2,0-0.4,0.1-0.6,0.1C353.6,99.9,354.5,103.6,355.4,107.3z M150.4,178.3c0.4,0.2,0.8,0.5,1.3,0.6c7.5,3.3,15,6.6,22.4,9.9
		c0.8,0.4,1.6,0.8,2.4,1.2c0.1-0.2,0.2-0.4,0.3-0.6c-6.1-2.8-12.2-5.7-18.3-8.4C155.9,180,153.2,179.2,150.4,178.3
		c-0.4-0.3-0.9-0.6-1.4-0.7c-14.6-5-29.6-8.5-44.7-11.6c-5.9-1.2-11.9-2.4-17.9-3.6c0,0.1-0.1,0.1-0.1,0.2c0.3,0.2,0.7,0.4,1.1,0.7
		c-14.2-2.1-28.2-4.5-42.4-4.3c0.5,0.2,1,0.3,1.5,0.4c3.4,0.3,6.9,0.4,10.3,0.8c9.3,1.1,18.6,1.9,27.7,3.6
		c14.2,2.6,28.3,5.8,42.4,8.9C134.9,174.4,142.6,176.4,150.4,178.3z M369.5,143.6L369.5,143.6c0.5,0.2,1.1,0.5,1.7,0.6
		c0.9,0.2,1.7,0.1,2.6,0.2c0,0.2,0,0.4,0,0.7c-2.4,0-4.9,0-7.3,0c0,0.1,0,0.3,0,0.4c2.7,0.4,5.6-0.2,8.1,1c0,0.2-0.1,0.4-0.1,0.6
		c-2.1-0.2-4.1-0.4-6.2-0.6c0,0.1,0,0.2,0,0.3c0.6,0.2,1.1,0.4,2.2,0.7c-4.8,0.1-9.3-1.1-13.6,0.4c0,0.2,0,0.4,0,0.6
		c6.1,0,12.1,0,18.2,0c0,0.2,0,0.5,0.1,0.7c-0.6,0.2-1.3,0.4-1.9,0.4c-2.8,0.3-5.6,0.6-8.3,0.7c-4.8,0.2-9.7,0.2-14.5,0.3
		c-2.4,0.1-4.8,0.3-7.2,0.5c0,0.2,0,0.3,0,0.5c0.3,0,0.7,0,1,0c5.8-0.1,11.6-0.2,17.5-0.4c4.2-0.1,8.4-0.4,12.6-0.5
		c0.6,0,1.2,0.3,1.9,0.4c0,0.3-0.1,0.5-0.1,0.8c-8,0-15.9,0-23.9,0c0,0.2,0,0.5,0,0.7c1.3,0,2.5,0,3.8,0c0,0.2,0,0.3,0,0.5
		c-5,0.3-10,0.6-14.9,0.9c0.5,0.3,0.9,0.3,1.4,0.3c6.8-0.1,13.7-0.9,20.5-0.5c3.8,0.2,7.5,0,11.3,0c0.9,0,1.8,0.3,2.7,0.5
		c0,0.2-0.1,0.4-0.1,0.6c-0.6,0-1.1,0-1.7,0c-2-0.1-4.1-0.3-6.1-0.3c-10.3,0.2-20.6,0.4-30.7,2.4c-1.6,0.3-3.2,0.4-4.8,0.6
		c2,0.3,4,0.2,6,0c11.8-0.9,23.7-1.9,35.5-1.4c0.8,0,1.7,0.3,2.5,0.4c0,0.2,0,0.4,0,0.6c-18.8-0.8-37.4,1.2-55.9,4.3
		c18.7-1.9,37.5-2.2,56.3-2.3c0,0.3,0,0.5,0.1,0.8c-1.1,0.1-2.2,0.3-3.3,0.4c-9.4,0.3-18.7,0.5-28.1,0.8c-1.5,0-3,0.3-4.5,0.4
		c0,0.2,0,0.3,0,0.5c3.3-0.2,6.7-0.5,10-0.7c0,0.1,0,0.2,0,0.3c-0.6,0.1-1.2,0.2-1.9,0.3c0.1,0.3,0.1,0.6,0.3,1.2
		c-22.1,0.9-43.8,3.9-64.9,10.2c0.5,0,1-0.1,1.5-0.2c6.3-1.3,12.6-2.8,19-3.9c17.6-3.2,35.4-5.1,53.3-5.7c5.7-0.2,11.4,0,17.1,0.1
		c1.1,0,2.3,0.4,3.4,0.6c0,0.3,0,0.5,0,0.8c-21.4-1.6-42.6,0.7-63.8,3.8c-21.2,3.1-41.9,8.2-61.9,16.2c0.5-0.1,1-0.1,1.9-0.3
		c-2.6,1.2-4.7,2.2-6.9,3.3c0,0.1,0.1,0.2,0.1,0.3c2.3-1,4.7-1.9,7-2.9c0,0.1,0.1,0.2,0.1,0.4c-3.9,1.7-7.7,3.5-11.6,5.2
		c0.6,0.2,1,0,1.5-0.1c3.5-1.2,7-2.4,10.6-3.5c14.9-4.5,30.1-7.6,45.5-9.8c19.9-2.9,39.9-4.4,60-4.9c5.4-0.1,10.9-0.3,16.3-0.3
		c2.5,0,5.1,0.3,7.4,0.5c-0.5-3-0.9-6.5-1.6-9.8c-1-4.8-2.2-9.5-3.4-14.2c-4.2-16.3-8.2-32.7-12.9-48.9c-2.9-10.2-6-20.4-8.5-30.7
		c-0.6-2.2-1.6-4.5-1.6-6.7c0-1.9-0.5-3.5-1.1-5.1c-0.6-1.4-1.1-3-3.2-2.1c-0.1,0-0.3,0-0.4,0.1c0.1,0.3,0.1,0.5,0.1,0.7
		c7.5,26.7,15,53.4,22.5,80.1c0.9,3.1,0.3,4.4-2.7,5.5c-0.6,0.2-1.1,0.4-1.7,0.6c-1.2,0.5-2.5,0.9-3.7,1.4c0,0.1,0.1,0.2,0.1,0.3
		C368.5,143.8,369,143.7,369.5,143.6z M50,198.6c-4.4,0.6-8.8,1.3-13.1,1.9c0-0.1-0.1-0.3-0.1-0.4c3.4-0.9,6.7-1.8,10.1-2.8
		c0-0.1-0.1-0.3-0.1-0.4c-3.4,0.6-6.9,1.3-10.3,1.9c0-0.2-0.1-0.5-0.1-0.7c9.5-2.4,19.1-4.2,28.7-5.8c-5.3,0.5-10.5,1.2-15.7,2
		c-3.7,0.6-7.4,1.2-11.1,1.8c0-0.2-0.1-0.4-0.1-0.6c5.5-2.3,11.6-2.5,17.3-4.1c0-0.2-0.1-0.3-0.1-0.5c-5.2,0.9-10.4,1.8-15.6,2.7
		c0-0.2-0.1-0.4-0.1-0.7c-0.9,0.2-1.6,0.3-2.4,0.5c0-0.2-0.1-0.4-0.1-0.5c1.3-0.3,2.6-0.6,3.9-0.9c0-0.1-0.1-0.3-0.1-0.4
		c-2.8,0.4-5.7,0.9-8.5,1.2c-1.1,0.1-1.2,0.6-1.4,1.5c-0.4,2.2-0.8,4.5-1.4,6.6c-0.9,3.2-2,6.4-2.9,9.6c-0.3,1.1-0.4,2.2-0.7,3.4
		c0.1,0.1,0.3,0.2,0.4,0.4c0.7-2.9,3.2-2.7,5.1-3.3c8.2-2.3,16.4-4.7,24.7-6.6c16.7-3.8,33.6-6,50.8-6.6c7.8-0.3,15.7-0.1,23.6,0
		c4.7,0.1,9.4,0.4,14,0.6c2.6,0.2,5.3,0.5,7.9,0.8c-14.3-3.6-28.8-5.2-43.5-3.9c0.9-0.3,1.8-0.4,2.7-0.5c8.7-1.3,17.3-0.4,25.9,0.9
		c7.3,1.1,14.5,2.8,21.6,4.6c8.8,2.2,17.3,5.3,25.4,9.4c3.8,1.9,7.4,4,11.1,6.1c-0.1,0.1-0.1,0.2-0.2,0.3c-2.3-1-4.7-2.1-7-3.1
		c-14.6-6-29.8-9.8-45.5-10.9c-8.1-0.6-16.2-0.4-24.4-0.3c-3.7,0-7.3,0.6-10.9,0.8c-9.6,0.6-19.3,1.1-28.7,3.2
		c-12.8,2.8-25.5,5.9-38.2,8.9c-0.4,0.1-0.7,0.3-1,0.4c3.5,0,7-0.1,10.4-0.7c10.7-1.7,21.4-3.6,32.2-5.5c13.3-2.3,26.7-4,40.3-4.7
		c6-0.3,12-0.4,17.9-0.3c12.1,0.2,24.1,1.8,35.6,5.9c3.8,1.3,7.4,3,11.1,4.5c-0.1,0.1-0.1,0.3-0.2,0.4c-2.2-0.8-4.5-1.5-6.6-2.4
		c-9.1-3.6-18.6-5.8-28.4-6.7c-10.7-1-21.5-1.3-32.3-0.6c-6.7,0.4-13.4,0.9-20.1,1.9c-13.1,2.1-26.1,4.6-39.1,7
		c-2,0.4-3.9,0.7-5.9,1.1c0,0.1,0,0.2,0.1,0.4c2.9-0.2,5.7-0.4,8.6-0.6c0,0.1,0,0.2,0,0.3c-5.8,0.5-11.6,1.1-17.4,1.6
		c5.2,0.8,10.4,0.3,15.4-0.7c15.6-3.1,31.2-6.4,47.2-7.6c5-0.4,10-1,15.1-1.4c10.1-0.7,20.2-0.3,30.2,0.7c8.5,0.8,17,2,25.2,4.9
		c5.5,1.9,11.2,3.9,14.7,9.1c0.1,0.1,0.1,0.3,0.3,0.5c-0.4-0.1-0.6-0.1-1-0.2c0.7,1.3,1.4,2.5,2.2,4c-0.2-1.4-0.3-2.5-0.5-3.4
		c0.8-0.2,1.4-0.3,1.9-0.4c0.4-0.1,0.8-0.5,1-0.4c0.3,0.1,0.5,0.6,0.6,1c0.2,0.6,0.3,1.2,0.4,1.8c0.2,0,0.4,0,0.6-0.1
		c0-0.4,0.1-0.8,0.1-1.2c-0.1-0.4-0.4-0.8-0.4-1.2c0-0.4,0.4-0.9,0.6-1.3c0.3,0.3,0.8,0.6,1,1c0.2,0.3-0.1,0.8,0.1,1.1
		c0.2,0.4,0.5,0.6,0.8,0.9c0.1-0.4,0.4-0.8,0.4-1.2c0-0.5-0.5-0.9-0.5-1.4c0-0.5,0.3-1.1,0.5-1.6c0.4,0.4,1.1,0.8,1.2,1.2
		c0.2,0.7,0,1.5-0.1,2.6c0.8-0.3,1.6-0.4,2.1-0.8c0.7-0.6,0.7-1.3-0.3-1.8c-0.3-0.2-0.8-0.6-0.8-0.9c0-0.4,0.3-0.9,0.7-1.1
		c0.5-0.3,1.4-0.3,1.8-0.7c0.5-0.5,1-1.3,1-2.1c0.1-0.5-0.5-1.2-0.9-1.7c-0.2-0.3-0.6-0.6-0.9-0.8c-3.9-3.7-7.4-7.9-11.7-11.1
		c-16.3-12.2-34.3-20.9-54.2-25.7c-26.2-6.3-52.5-12.2-79.4-14.9c-6.2-0.6-12.4-1-18.5-1.5c-0.6,0-1.5,0.3-1.7,0.7
		c-0.8,2.2-1.4,4.4-2.1,6.8c1.3,0.1,2.3,0.2,3.4,0.2c3.2-0.1,6.4-0.3,9.5-0.5c20.2-1,40.2,1.7,60,5.1c8.5,1.4,16.8,3.7,25.2,5.7
		c9.8,2.3,19.6,4.8,28.7,9.3c1.9,0.9,3.7,2,5.5,2.9c-1.1-0.1-2.1-0.6-3.1-1c-12.8-5.2-25.9-9-39.5-11.3c-10.9-1.9-21.7-4.4-32.8-5.4
		c-9.7-0.9-19.3-1.8-29.1-1.2c-6.4,0.4-12.9,0.6-19.3,1c0-0.2,0-0.3,0-0.5c5.4-0.4,10.8-0.8,16.2-1.3c-3.5-0.1-7-0.2-10.5,0
		c-4.2,0.1-8.4,0.5-12.6,0.7c-1.9,0.1-3.5,1.7-3.6,3.8c0.1,0,0.2,0.1,0.3,0.1c0.6,0,1.3,0,1.9-0.1c24.5-1.3,49-1.5,73.4,1.9
		c10.6,1.5,21.2,3.1,31.5,6c9.8,2.8,19.4,6.3,28.6,10.7c3.4,1.6,6.6,3.4,10,5.1c-1.4-0.1-2.8-0.4-4.1-0.8c-1.2-0.4-2.4-0.9-3.6-1.4
		c-11.8-4.7-23.7-9-36.3-10.9c-11-1.6-22.1-3.3-33.2-4.4c-22.7-2.3-45.3-1.8-68,0.3c-1.9,0.2-3.8,0.2-4,2.8c0,0.2-0.2,0.3-0.4,0.5
		c-0.1,0-0.3-0.1-0.4-0.1c0.4-1.8,0.8-3.6,1.3-5.4c0.1-0.3,0.6-0.6,0.9-0.6c8.2-0.6,16.4-1.2,24.7-1.8c0.6,0,1.3,0,1.9,0
		c-9-1.2-17.9,0.2-26.9,0.9c0.6-2.7,1.1-5.3,1.7-7.8c1.1-4.4,2.2-8.9,3.4-13.3c0.8-2.7,1.8-5.4,2.5-8.2c1-3.9,1.9-7.8,2.9-11.8
		c0.2-0.8,0.5-1.6,0.7-2.4c-0.1,0-0.2-0.1-0.3-0.1c-0.2,0.3-0.4,0.5-0.6,0.8c0.3-2,0.8-3.8,1.4-5.7c0.5-1.8,1-3.6,1.5-5.4
		c0.5-1.9,1-3.7,1.5-5.6c0.4-1.8,0.7-3.7,1.1-5.5c-0.2,0-0.5-0.1-0.7-0.1c-8.9,35.4-18.2,70.8-26.9,106.4c1.4,0,2.3,0,2.8,0
		c-0.2-1.4-0.4-2.8-0.4-4.2c0-1,0.4-2,0.6-3c1.9-7.2,3.9-14.5,5.9-21.7c0.1-0.3,0.3-0.6,0.4-1c1.1,2,1.6,2.1,3.7,1.4
		c0.2-0.1,0.4-0.2,0.6-0.2c2.6-0.6,5.1-1.5,7.7-1.7c21.8-0.9,43.5-1.8,65.3-2.4c11.1-0.3,22,1.5,32.8,3.5c14,2.6,27.6,6.5,40.5,12.6
		c6.3,3,12.3,6.7,18.3,10.3c1.4,0.8,2.5,2.1,3.7,3.2c-0.1,0.1-0.2,0.2-0.3,0.3c-10.7-6.8-22-12.2-34.3-15.6
		c-17.7-5-35.7-8.2-54.1-8.8c-20.9-0.7-41.7,0.4-62.4,3.5c-1.5,0.2-3.1,0.5-4.6,0.8c0,0.1,0,0.3,0.1,0.4c0.5,0,0.9,0,1.8-0.1
		c-1.1,0.4-1.8,0.7-2.5,1c0,0.1,0.1,0.3,0.1,0.4c6-0.9,12-1.8,18-2.7c-1.1,0.4-2.2,0.7-3.4,0.9C57.9,197.1,53.9,197.9,50,198.6
		L50,198.6z M77.3,31.6c-0.4,1.1-0.9,2.3-1.1,3.5c-2.1,9.2-4,18.4-6.3,27.6c-3.1,12.6-6.4,25.2-9.8,37.7
		c-2.9,10.7-6.2,21.3-9.4,31.9c-0.4,1.3-0.3,2,1.1,2.4c2,0.6,3.9,1.6,5.9,2.2c8.9,2.5,17.9,4.8,26.8,7.4
		c14.3,4.2,28.5,8.5,42.6,13.1c16.6,5.4,32.8,12,47.8,21.1c12.2,7.4,23.3,16.2,31.7,27.9c0.2,0.2,0.4,0.3,0.6,0.5
		c0.4-9.6,0.8-19.1,1.2-28.7c0.6-15.4-1-30.6-2.7-45.8c-1.2-10.5-2.1-20.9-1.7-31.5c0.1-2.2,0.1-4.2-1.6-6.1c-2.4-2.8-4.2-6.2-6.5-9
		c-7.8-9.5-17.4-16.9-27.7-23.4c-13.6-8.7-28.4-14.4-44-18.3C108.7,40,92.8,37,77.3,31.6z M355.8,114.3c-0.1-0.4-0.1-0.7-0.2-1
		c-4.5-17.5-8.9-35.1-13.5-52.6c-3.8-14.4-7.8-28.7-11.8-43c-0.8-2.8-1.9-5.5-2.9-8.2c-12.6,8.6-25.7,15.7-38.9,22.8
		c-13.5,7.2-26.5,15.3-38.4,24.9c-10.7,8.7-21.7,16.9-30.4,27.7c-2.9,3.6-4.5,7.4-5,11.8c-1,9.3,0.7,18.5,0.6,27.7
		c0,5.8,0.2,11.6-0.2,17.4c-0.4,5.5-1.3,10.9-1.1,16.4c0.4,14.2,0.5,28.5,0.7,42.7c0,0.8,0,1.5,0,2.8c1.6-2.5,2.9-4.6,4.3-6.6
		c5.9-8.3,13.4-15,21.4-21.2c18-13.6,37.7-24.3,57.8-34.2C317.3,132.3,336.6,123.5,355.8,114.3z M173.6,182.1
		c-0.2-0.2-0.5-0.4-0.7-0.5c-3.2-1.8-6.4-3.9-9.7-5.5c-16.9-8-34.5-13.7-52.7-17.9c-10.5-2.4-21-4.6-31.8-5.6c-5-0.5-10-1.4-15-2.1
		c0-0.1,0-0.3,0.1-0.4c10.1,0.5,20.3,1.6,30.2,3.5c9.9,1.9,19.8,4.3,29,6.4c-14.5-5.4-30.5-7.2-46.3-9.7c12,0.9,23.8,3.2,35.6,5.6
		c-15.8-4.6-31.9-7.3-48.3-8.7c7.4-0.8,14.6,0.9,21.8,1.7c0-0.2,0.1-0.4,0.1-0.6c-7.1-1.1-14.1-2.3-21.2-3.4c0-0.2,0.1-0.4,0.1-0.7
		c3,0.5,6.1,1,9.1,1.5c-0.4-0.4-0.8-0.6-1.3-0.7c-6.8-1.8-13.6-3.7-20.4-5.5c-0.8-0.2-1.8-0.4-2.2-0.9c-1.2-1.9-2.1-4-1.3-6.4
		c0.9-2.6,1.7-5.1,2.4-7.7c3.6-13.9,7.3-27.8,10.8-41.8c2.4-9.8,4.6-19.6,6.9-29.4c0-0.2,0-0.4,0-0.7c-0.4-0.2-0.8-0.3-1.5-0.6
		c-0.9,3.7-1.9,7.3-2.6,10.9C62.2,75,59.8,87.1,56.3,99c-4.3,14.7-8.5,29.4-11.1,44.5c-0.5,3.1-1.3,6.1-2.1,9.2
		c0.9,0.1,1.6,0.2,2.3,0.3c8.5,1.3,17.2,1.3,25.6,3.4c5.7,1.5,11.6,2.3,17.5,3.3c19.6,3.5,39,7.5,57.9,14.1
		c18.2,6.4,34.9,15.3,49.9,27.4c0.8,0.6,1.5,1.2,2.3,1.8c-3.8-5.1-8.5-9.1-13.7-12.5c-14.1-9.1-29.2-16.2-45.2-21.3
		c-22.1-7-44.6-12.5-67.6-15.5c-3.3-0.4-6.6-1.3-9.9-1.9c0-0.2,0.1-0.4,0.1-0.5C100.9,156.4,138.5,164.7,173.6,182.1z M40.8,131.7
		c-0.1,0-0.2-0.1-0.3-0.1c-0.3,0.9-0.6,1.7-0.9,2.6c-3.1,11.2-6.3,22.4-9.3,33.6c-4.9,18.5-9.9,36.9-15.9,55.1c-0.3,0.9,0,2.1,0,3.2
		c1.6-0.1,2.7-0.2,3.9-0.2c3.9,0,7.8-0.1,11.6,0c3,0.1,5.9,0.6,8.9,0.5c6.3-0.3,12.6-0.9,18.9-1.3c9.5-0.5,19-0.9,28.4-1.3
		c3.3-0.1,6.7-0.2,10-0.3c3.2,0,6.5,0.4,9.6,0c11.9-1.5,23.9-1.2,35.9-1.1c10.7,0,21.5,0.4,32.2,0.6c2.5,0,5,0,7.4,0
		c0-0.2,0-0.3,0-0.5c-0.6-0.1-1.2-0.2-1.8-0.2c0-0.1,0-0.2,0-0.2c1.8-0.1,3.7-0.2,5.5-0.3c0-0.2,0-0.3,0-0.5
		c-18.8,0.3-37.7,1.6-56.5,0.4c17.5-1.2,35-0.3,52.4-2.4c-4.1-0.2-8.2-0.3-12.3-0.2c-11.8,0.3-23.6,0.7-35.4,1
		c-11.8,0.3-23.6,0.6-35.4,1c-6,0.2-12,0.5-18.1,0.7c-8.2,0.2-16.4,0.4-24.6,0.5c-10.4,0.1-20.8,0.1-31.2,0.1
		c-0.8,0-1.7-0.1-2.5-0.2c5.2-0.5,10.4-0.9,15.5-0.9c16.2-0.2,32.4-0.8,48.6-2.2c4.2-0.4,8.5-0.4,12.7-0.5c3.3-0.1,6.6,0,9.8-0.2
		c5.2-0.3,10.4-1.1,15.6-1.2c13.6-0.2,27.3-0.2,40.9-0.2c5.4,0,10.8,0.5,15.9,0.7c-0.2-0.1-0.6-0.2-1.1-0.3
		c-13.5-2.5-27.1-2.9-40.8-2.1c-9,0.5-18.1,1.3-27.1,1.8c-3.8,0.2-7.6,0.1-11.3,0.3c-6.2,0.4-12.5,1.2-18.7,1.5
		c-12,0.6-23.9,1-35.9,1.4c-0.9,0-1.8,0.1-2.7,0.2c-4.8,0.2-9.6,0.6-14.4,0.6c-3.1,0-6.2-0.3-9.7-0.6c0.3-1.8,0.4-4,1-6
		c1-3.6,2.4-7,3.3-10.6c4.2-15.7,8.3-31.5,12.4-47.2c2.4-9,4.9-18.1,7.3-27.1c1.7-6.2,3.2-12.5,4.8-18.8c0.1-0.4,0-0.8,0-1.2
		c-0.2-0.1-0.3-0.2-0.5-0.3c-0.4,0.6-0.9,1.1-1.1,1.7c-1.3,5.6-2.6,11.2-3.9,16.8c-0.6,2.5-1.5,5-2.2,7.5c-0.1,0-0.2-0.1-0.3-0.1
		C40.2,134.2,40.5,133,40.8,131.7z M401.5,222.5c-36.5-0.5-73-2-109.8-4.1c0.5,0.3,0.7,0.4,1.2,0.7c-19.7-0.9-38.9-2.6-58.2-2.1
		c0,0.2,0,0.3,0,0.5c4.7,0,9.3,0,14,0c0,0.2,0,0.3,0,0.5c-4.9,0-9.8,0-14.7,0c14.5,1.5,29.1,0.8,43.5,2.6c0,0.2,0,0.4,0,0.6
		c-8.3-0.2-16.6-0.4-24.9-0.5c0,0.2,0,0.3,0,0.5c26.4,1,52.8,2.1,79.1,3.1c-8.5-0.8-17-1.8-25.5-2.3c-8.5-0.5-17-0.5-25.5-0.7
		c0.7-0.4,1.4-0.6,2-0.6c4.3-0.1,8.5-0.5,12.8-0.3c14.8,0.9,29.6,2,44.4,2.9c6.6,0.4,13.1,1.3,19.8,0.9c3.7-0.3,7.4,0.4,11.1,0.6
		c7.3,0.4,14.5,0.8,21.8,1.2c4.6,0.2,9.1,0.5,13.6,0.8c0.1-0.6,0.2-1.1,0.2-1.4c-7.4-0.6-14.8-1.3-22.2-1.9c0,0.1,0,0.1,0,0.2
		c1,0.1,2,0.3,2.9,0.4c0,0.1,0,0.2,0,0.3c-20.3-1.1-40.5-2.1-60.8-3.2c0-0.2,0-0.4,0-0.6c8.1,0.4,16.2,0.8,24.3,1.3
		c2.8,0.2,5.6,0.4,8.3,0.6c5.2,0.4,10.4-0.4,15.6,0.8c0.8,0.2,1.7,0,2.6,0c0-0.1,0-0.2,0-0.3c-1.2-0.1-2.4-0.3-3.7-0.4
		c2.7,0.1,5.5,0.1,8.2,0.1C388.3,222.9,394.9,224.9,401.5,222.5z M211.3,147.2c0.1,0,0.2,0.1,0.2,0.1c0.1-0.5,0.3-1,0.3-1.5
		c1.2-7.9,0.7-15.8,0.4-23.7c-0.2-4.2-0.8-8.5-1-12.7c-0.2-3.2,0-6.3,0-9.5c-0.2,0-0.4,0-0.6,0c0,6.2,0,12.4,0,18.6
		c-1.4-7.1-1.6-14.3-1.7-21.6c-0.6,2.8-1,5.6-1.1,8.4c-0.1,2.9,0,5.8,0.1,8.7c0,2.8,0,5.6,0,8.4c-0.7-4-1.1-8-1.3-12
		c-0.2-4,0-8,0-12.1c-2.7,14.6,0.8,28.9,1.8,43.3c0.1,0,0.3,0,0.4,0c-0.1-1.4-0.2-2.8-0.3-4.1c0.1,0,0.3,0,0.4,0
		c0.3,3.7,0.7,7.3,1,11c0.1,0,0.2,0,0.3,0c0-2.1,0-4.1,0-6.2c0.1,0,0.3,0,0.4,0c0,0.9,0,1.8,0,2.7c0.1,0,0.2,0,0.4,0
		c0.1-1.2,0.3-2.4,0.4-3.6c0.2,1,0.2,2,0.2,2.9C211.5,145.3,211.4,146.2,211.3,147.2z M221,219.3c1.5,2.7,1.3,4.1-0.9,5.8
		c-0.5,0.4-1.1,0.7-1.6,1.1c-0.7,0.4-1.8,0.6-1.1,1.7c0.3,0.4,1.3,0.3,2,0.3c0.2,0,0.5-0.1,0.7-0.3c2.5-2,5.1-4,7.5-6.1
		c0.9-0.8,1.2-1.9,0-3c-0.4,0.2-0.8,0.4-1.3,0.7c-0.1-0.6-0.2-1.1-0.3-1.4c0.7-0.2,1.4-0.3,1.7-0.6c2.1-2.7,5-3.5,8.1-3.8
		c9.6-0.9,19.3-1.3,28.9-0.5c11.3,1,22.5,2.4,33.8,3.5c4.4,0.4,8.8,0.6,13.2,0.9c-0.1-0.3-0.3-0.3-0.5-0.4
		c-8.1-1.1-16.2-2.2-24.4-3.1c-9.3-1.1-18.6-2.3-28-3c-10.2-0.8-20.2,0.9-30.2,2.6c-0.6,0.1-1.3-0.1-2.2-0.1
		c-0.7,0.9-1.4,3.9-1.1,5.1c0.5,2.1-0.2,4-2.1,5.3c0.2-0.7,0.4-1.3,0.5-1.8c0.2-0.9,0.2-1.9,0.3-2.8
		C223.3,219.3,222.3,219.3,221,219.3z M217.6,245.3c0.2-0.6,0.5-0.9,0.4-1.2c-4-18.2-5.1-36.6-5-55.2c-0.5,4.8-1.1,9.5-1.6,14.3
		c-0.1,0-0.2,0-0.3,0c0-2.5,0-5.1,0-7.6c-0.5,2.1-0.7,4.2-0.8,6.3c-0.3,5.8-0.4,11.6-0.7,17.4c-0.4,8,0.2,15.8,1.6,23.7
		c0.2,1.2,0.8,2.3,1.1,3.5c0-2.3-0.4-4.4-0.6-6.6c-0.2-2.2-0.3-4.4-0.4-6.6c-0.2-2.2-0.4-4.3-0.5-6.4c-0.1-2.2-0.3-4.4-0.3-6.6
		c0-2.1,0.2-4.2,0.4-6.3c1.1,11.9,1.6,23.7,5.2,35.2c0.4-1,0.6-2.1,0.4-3c-1-5-2.1-10-3-15c-1.1-6-1.2-12.1-0.6-18.2
		C213.6,223.7,214.3,234.5,217.6,245.3z M149.3,209.4c-2.1-0.1-4.6-0.3-7.1-0.4c-12.7-0.1-25.2,0.9-37.8,2.7
		c-11,1.5-22.1,3.1-33.1,4.7c-2.4,0.3-4.7,0.8-7.1,1.2c0.8,0.4,1.6,0.4,2.4,0.4c16.9,0.1,33.5-2.8,50-5.8c4.8-0.9,9.5-1.7,14.3-2.1
		C137.2,209.6,143.5,209.6,149.3,209.4z M62.6,226.6c0,0.2,0,0.3,0,0.5c26.4-1,52.9-1.9,79.3-2.9c-1.1-0.2-2.3-0.4-3.4-0.4
		c-4.4-0.2-8.8-0.5-13.2-0.4c-5.1,0.2-10.1,1-15.1,1.2c-6.1,0.3-12.3,0-18.4,0.3C82.1,225.3,72.4,226,62.6,226.6z M29.5,213.9
		c0,0.1,0.1,0.3,0.1,0.4c18.7-3.9,37.4-7.8,56.1-11.7C66.7,204.9,47.9,208.4,29.5,213.9z M190.6,229.1c0.6,0.1,0.9,0.1,1.2,0.2
		c4.5,0.8,9,1,13.5,0.3c0.5-0.1,0.9-0.5,1.4-0.8c-0.5-0.2-1.1-0.4-1.6-0.6c-0.1,0-0.3,0.1-0.5,0.1c-2.3,0.2-4.7,0.7-7,0.7
		c-3.7-0.1-7.1-1-9.1-4.5c-0.1-0.2-0.4-0.2-0.6-0.4c-1.2,3.5,0.7,7.5,4.1,7.8c3.9,0.4,7.9,0.3,11.9,0.4c0.9,0,1.9-0.5,2.8-0.7
		c0-0.2,0-0.4-0.1-0.6c-0.5-0.1-1-0.2-1.5-0.2c-2.6,0.1-5.2,0.5-7.7,0.4C195.1,231.3,192.8,230.8,190.6,229.1z M71.6,191.9
		c9.1-0.4,18.6-1.1,28-1.2c9.4-0.1,18.8,0.3,27.7,0.5C121.7,189,76.7,189.6,71.6,191.9z M213.2,146.2c-2.1,16.3-4.1,32.5-3.8,48.9
		C210.7,178.8,211.9,162.5,213.2,146.2z M214,128.9c-0.4-13.2-1.8-26.5-0.7-39.8c-0.2-0.1-0.3-0.2-0.5-0.3c-1,0.8-1.9,1.5-2.9,2.3
		c0.1,0.1,0.2,0.3,0.3,0.4c0.7-0.3,1.4-0.6,2.2-0.9C211.2,103.6,213,116.2,214,128.9z M285.5,169.7c0,0.3,0.1,0.5,0.1,0.8
		c16.1-4.2,32.5-7,48.9-9.3C317.9,162.4,301.7,165.9,285.5,169.7z M42.5,157c-0.1,0.2-0.1,0.5-0.2,0.7c0.7,0.1,1.5,0.4,2.2,0.4
		c1,0,2-0.3,3-0.2c4.6,0.3,9.2,0.5,13.9,0.9c3,0.3,6.1,0.7,9.1,1C61.4,157.5,52,156.9,42.5,157z M121.9,158.4c0,0.1-0.1,0.2-0.1,0.3
		c1.7,1,3.3,2,5,2.8c1.7,0.8,3.6,1.4,5.4,2c3.7,1.2,7.4,2.3,11,3.5c1.1,0.4,2.2,0.9,3.4,1.3c0.1-0.2,0.1-0.4,0.2-0.5
		C138.5,164.6,130.2,161.5,121.9,158.4z M287.7,183.2c8.1,0,16.6,0,25.2,0C305.5,182.2,290.7,182.4,287.7,183.2z M64.8,156.9
		c0-0.1,0.1-0.2,0.1-0.4c-7-0.9-14.1-1.8-21.1-2.8c-0.1,1.5,0.6,1.7,1.5,1.7c2.6,0.1,5.3,0.2,7.9,0.4
		C57,156.2,60.9,156.6,64.8,156.9z M174.1,179.8c7,5.3,14.4,10.8,21.4,16.1C193,192.5,176.9,180.5,174.1,179.8z M106.6,152.4
		c0.1-0.2,0.1-0.3,0.2-0.5c-9-2.5-18.1-5-27.1-7.5c-0.1,0.2-0.1,0.4-0.2,0.6C88.5,147.5,97.5,150,106.6,152.4z M301.5,163.8
		c0,0.1,0.1,0.3,0.1,0.4c7.1-1.4,14.2-2.8,21.4-4.2C315.7,160.5,308.5,161.7,301.5,163.8z M250.7,191.1c-7.9,1.5-21.3,8.8-24,13.1
		C233.5,197.7,242.1,194.4,250.7,191.1z M31.7,227.6c-4.2-1.1-8.5-0.7-12.8-0.3C23.2,229.1,27.5,227.4,31.7,227.6z M362.2,225.1
		c0,0.2,0,0.4-0.1,0.6c5.8,1.1,11.7,0.7,17.5,1.2c0-0.2,0-0.3,0-0.5C373.9,226,368,225.5,362.2,225.1z M303,167.2
		c0,0.2,0.1,0.4,0.1,0.6c6.1-1,12.2-2.1,18.2-3.1c0-0.1,0-0.3-0.1-0.4C315.2,165.3,309.1,166.2,303,167.2z M342.3,155.3
		c0-0.1,0-0.3,0-0.4c-5.7,0.5-11.4,1.1-17.1,1.6c0,0.2,0,0.4,0.1,0.6C330.9,156.5,336.6,155.9,342.3,155.3z M279.8,217.5
		c0-0.1,0-0.3,0-0.4c-5.5-0.5-11-1-16.4-1.6c0,0.2,0,0.4,0,0.5C268.9,216.6,274.4,217.1,279.8,217.5z M159,195.9
		c-0.1,0.2-0.1,0.4-0.2,0.6c4.5,1.5,9.1,3,13.6,4.4c0.1-0.1,0.1-0.3,0.2-0.4C168,199,163.5,197.5,159,195.9z M154.5,218.2
		c0-0.2,0-0.4,0-0.6c-3.5,0.3-7,0.5-10.5,0.8c0,0.2,0,0.4,0,0.6C147.5,218.7,151,218.4,154.5,218.2z M308,179.5c0,0.2,0,0.4-0.1,0.6
		c3.3,0.2,6.7,0.3,10,0.5c0-0.1,0-0.3,0-0.4C314.7,179.9,311.4,179.7,308,179.5z M175.5,207.1c0-0.2,0.1-0.3,0.1-0.5
		c-3.9-1.1-7.8-2.2-11.7-3.3c0,0.1-0.1,0.3-0.1,0.4C167.7,204.9,171.6,206,175.5,207.1z M248,188.9c-0.1-0.1-0.1-0.3-0.2-0.4
		c-2.7,1.7-6.3,1.4-8.6,4.1C242.1,191.4,245,190.2,248,188.9z M368.3,175.5c0,0.2-0.1,0.4-0.1,0.6c3.5,0.6,7,1.1,10.5,1.7
		c0-0.1,0-0.3,0.1-0.4C375.3,176.7,371.8,176.1,368.3,175.5z M115.3,189.6c0-0.2,0-0.3,0-0.5c-3.6-0.2-7.1-0.4-10.7-0.6
		c0,0.1,0,0.3,0,0.4C108.1,189.2,111.7,189.4,115.3,189.6z M326.1,178.4c0-0.1,0.1-0.1,0.1-0.2c-3.1-0.2-6.1-0.3-9.2-0.5
		c0,0.2,0,0.4,0,0.6C320,178.4,323,178.4,326.1,178.4z M241.1,196.4c0.1,0.2,0.1,0.3,0.2,0.5c2.8-1,5.5-2.1,8.3-3.1
		c-0.1-0.2-0.1-0.3-0.2-0.5C246.6,194.3,243.9,195.3,241.1,196.4z M342,163.2c0-0.2,0-0.4-0.1-0.5c-2.9,0.2-5.8,0.5-8.7,0.7
		c0,0.1,0,0.2,0,0.3C336.2,163.5,339.1,163.3,342,163.2z M176.3,224.1c0,0.1,0,0.1,0,0.2c2.3,0,4.7,0,7,0c0-0.1,0-0.1,0-0.2
		C180.9,224.1,178.6,224.1,176.3,224.1z M268,187.4c0,0.2,0.1,0.3,0.1,0.5c2.2-0.5,4.4-1.1,6.6-1.6c0-0.2-0.1-0.4-0.1-0.6
		C272.4,186.2,270.2,186.8,268,187.4z M400.9,229c2.8,1.4,4.4,1.4,5.4,0C404.6,229,403,229,400.9,229z M201.5,208.4
		c0.1-0.1,0.2-0.2,0.3-0.4c-1.5-1.3-3-2.7-4.5-4c-0.1,0.1-0.2,0.2-0.3,0.3C198.5,205.7,200,207,201.5,208.4z M31.5,215.4
		c0,0-0.1-0.1-0.1-0.1c-1.9,0.2-3.7,0.3-5.8,0.5c0-0.1,0,0.2-0.1,0.8C27.7,216.1,29.6,215.8,31.5,215.4z M160.2,190.1
		c-0.1,0.2-0.1,0.3-0.2,0.5c1.9,0.7,3.8,1.4,5.7,2.1c0.1-0.2,0.1-0.3,0.2-0.5C163.9,191.5,162.1,190.8,160.2,190.1z M63.9,179
		c0-0.2,0-0.3,0-0.5c-1.7,0.1-3.4,0.2-5.2,0.3c0,0.2,0,0.3,0,0.5C60.5,179.2,62.2,179.1,63.9,179z M128.9,181.6c0-0.1,0-0.3,0.1-0.4
		c-1.9-0.3-3.8-0.6-5.8-1c0,0.1,0,0.2-0.1,0.4C125,180.9,126.9,181.3,128.9,181.6z M133.5,226.7c0,0.1,0,0.3,0,0.4
		c1.8-0.2,3.6-0.3,5.4-0.5c0-0.1,0-0.3,0-0.4C137.1,226.4,135.3,226.6,133.5,226.7z M101.1,228.4c0-0.1,0-0.3,0-0.4
		c-1.7,0.1-3.5,0.2-5.2,0.3c0,0.2,0,0.4,0,0.5C97.6,228.7,99.4,228.6,101.1,228.4z"/>
	<path d="M397.8,208.5c-3.2-0.2-6.2-0.3-9.3-0.5c-4-0.2-8.1-0.3-12.1-0.7c-14.5-1.3-29-2.6-43.4-4c-14.4-1.4-28.7-3.3-43.1-4.4
		c-16.5-1.2-32.9-0.5-49,3.7c-4.4,1.2-8.7,2.8-12.6,5.3c17.8-6.4,36.1-8,54.8-6c-1.4,0-2.8,0-4.2,0c-17.3-0.6-34.3,1.4-50.9,6.6
		c-2.3,0.7-4.5,2.3-6.6,3.6c-0.6,0.4-0.9,1.1-1.4,1.8c-0.4-1.2,0.1-2.2,1-2.9c3.2-2.4,6.4-5,9.9-6.9c8.4-4.8,17.4-8.2,26.9-9.7
		c8.4-1.3,16.9-2.2,25.3-3.1c20.3-2.1,40.4,0.7,60.3,4.4c9.5,1.8,18.8,4.2,28.3,5.9c7.6,1.3,15.4,2.1,23,2.9
		C397.3,204.8,398.1,205.6,397.8,208.5z M366.9,204.9c0.1-0.3,0.2-0.6,0.2-0.9c-6.9-1.4-13.9-2.8-20.8-4.1c0,0.2-0.1,0.4-0.1,0.6
		C353.1,201.9,360,203.4,366.9,204.9z M317.1,196.7c6.5,1.5,13.1,3,19.6,4.6C330.5,198.6,323.9,197.3,317.1,196.7z M350.3,202.9
		c0-0.1,0.1-0.3,0.1-0.4c-4.4-1-8.8-1.9-13.2-2.9C341.1,202.4,345.7,202.5,350.3,202.9z M303.6,196.6c0,0.2,0,0.4-0.1,0.5
		c4.8,0.7,9.5,1.4,14.3,2.1c0-0.2,0.1-0.5,0.1-0.7C313.2,197.8,308.4,197.2,303.6,196.6z M247.6,199.2c0,0.2,0.1,0.4,0.1,0.5
		c4.4-0.7,8.7-1.4,13.1-2.1c0-0.1,0-0.3-0.1-0.4C256.3,197.8,252,198.5,247.6,199.2z M302.6,195.7c0-0.2,0.1-0.4,0.1-0.7
		c-2.1-0.3-4.2-0.7-6.3-1c0,0.2-0.1,0.4-0.1,0.6C298.4,194.9,300.5,195.3,302.6,195.7z M376.5,206c0-0.2,0-0.4,0.1-0.6
		c-1.6-0.3-3.2-0.6-4.8-0.9c0,0.2-0.1,0.5-0.1,0.7C373.3,205.5,374.9,205.7,376.5,206z M306,194.9c0,0.2-0.1,0.3-0.1,0.5
		c1.5,0.3,3.1,0.6,4.6,0.9c0-0.2,0.1-0.3,0.1-0.5C309.1,195.5,307.6,195.2,306,194.9z"/>
	<path d="M239.8,189.6c-0.8,0.4-1.7,0.8-2.5,1.3c-3.4,2.3-6.7,4.6-10.1,6.9c0.6-0.7,1.2-1.5,1.8-2.3c4.2-4.5,9.3-7.8,14.3-11.3
		c11.9-8.2,25-14.4,38-20.6c16-7.7,32.7-13.2,49.5-18.9c9.5-3.2,18.8-7,28.1-10.6c2.5-1,4.8-2.3,7.2-3.4c0.4-0.2,0.8-0.2,1.2-0.3
		c0.1,0.2,0.2,0.3,0.3,0.5c-1.9,1.1-3.8,2.2-5.7,3.3c2.5-0.5,4.4-2.7,7.5-2.2c-0.5,0.6-0.8,0.9-0.9,1c0.8,0.3,1.7,0.7,2.5,1
		c0,0.3,0,0.6,0,0.8c-2.8,1.3-5.6,2.9-8.6,4c-17.4,6.4-35,12.1-52.7,17.7c-24.4,7.6-47.5,18-69,32
		C240.4,188.9,240.1,189.3,239.8,189.6C239.7,189.7,239.8,189.6,239.8,189.6z M347.2,142.4c-1.3,0.2-2.6,0.2-3.8,0.6
		c-4.3,1.5-8.6,3.1-12.9,4.7c-1.8,0.7-3.5,1.3-5.3,1.9c0.4,0.2,0.7,0.2,1,0.1c6.7-2.2,13.5-4.5,20.2-6.7
		C346.7,142.9,346.9,142.6,347.2,142.4c3.3-1.3,6.6-2.6,9.9-3.8c-0.1-0.2-0.2-0.4-0.3-0.6C353.7,139.4,350.4,140.9,347.2,142.4z
		 M316,151.5c-0.1-0.2-0.1-0.3-0.2-0.5c-5.2,1.8-10.4,3.6-15.6,5.5c0.1,0.2,0.1,0.4,0.2,0.5C305.6,155.2,310.8,153.4,316,151.5z"/>
	<path d="M233.7,185.5C233.7,185.5,233.8,185.4,233.7,185.5c0.4-0.2,0.8-0.3,1.1-0.5c3.6-2.8,7.2-5.6,10.9-8.3
		c2.3-1.8,4.7-3.5,7.1-5.2c0,0-0.1,0-0.1,0c2.1-1.2,4.3-2.2,6.3-3.6c12.5-8.1,26-14.1,39.7-19.7c13.2-5.5,26.4-10.9,39.5-16.5
		c5.9-2.5,11.5-5.6,17.3-8.4c1.2-0.6,2.5-1,3.8-1.4c0.1,0.2,0.2,0.3,0.2,0.5c-0.5,0.4-1,0.9-1.6,1.2c-11.1,5.1-22.2,10.3-33.4,15.1
		c-12.6,5.4-25.4,10.3-38,15.5c-12.8,5.2-24.2,12.7-35.6,20.4c-4.8,3.2-9.3,6.9-13.9,10.3c-0.6,0.5-1.2,1-1.7,1.8
		c0.2-0.1,0.4-0.2,0.5-0.3c13.6-10.7,28.5-19.1,44-26.7c11.1-5.5,22.8-9.4,34.5-13.3c6.7-2.2,13.2-5.4,19.8-8
		c5.7-2.3,11.6-4.4,17.3-6.8c3.3-1.4,6.3-3.5,9.4-5.3c0.9-0.5,1.9-1.1,3.3,0.2c-6.7,3.2-13.1,6.7-19.7,9.4
		c-11.3,4.6-22.5,9.3-34.1,12.9c-23.1,7.2-44.3,18.1-64.6,31.1c-6.6,4.2-12.4,9.4-18.3,14.6c-4.4,3.8-6.8,8.9-9.8,13.6
		c-0.5,0.7-0.9,1.5-1.5,2.4c-0.6-1.9-0.3-3.5,0.7-4.8c3.4-4.3,6.9-8.7,10.5-12.9C229.3,190.1,231.6,187.8,233.7,185.5z"/>
	<path d="M400.5,213.7c-1.1,0.1-2.2,0.5-3.4,0.4c-7.2-0.5-14.3-1.1-21.4-1.7c-3.9-0.3-7.8-0.6-11.7-0.9c-11-0.8-21.9-1.6-32.9-2.4
		c-21.7-1.5-43.4-4-65.2-3.6c-12.7,0.2-25.3,1.1-37.6,4.7c-1.1,0.3-2.2,0.7-3.5,0.7c1.1-0.4,2.1-0.9,3.3-1.3
		c9.6-2.8,19.3-4.3,29.3-4.9c13.5-0.9,27.1-0.1,40.6,0.9c13.7,1,27.4,2,41.1,3.1c8.6,0.6,17.2,1.3,25.8,2c5.3,0.4,10.7,0.8,16,1.2
		c4.7,0.3,9.3,0.6,14,0.9c1,0.1,1.9-0.1,2.9-0.1c0.9,0,1.8,0.1,2.6,0.2C400.5,213.1,400.5,213.4,400.5,213.7z"/>
	<path d="M394.4,196.8c-4.6,0.8-9.1,0.1-13.5-0.3c0-0.2,0-0.3,0-0.5c0.7,0,1.4,0,2.2,0c0.8,0,1.6,0,2.4,0c0-0.1,0-0.2,0.1-0.3
		c-0.3-0.1-0.6-0.3-0.9-0.3c-2.7-0.1-5.5,0-8.2-0.3c-2.1-0.2-4.2-1-6.3-1.4c-15.7-3.3-31.3-6.8-47.2-8.5c-0.9-0.1-1.8-0.1-2.7-0.2
		c0-0.1,0-0.3,0-0.4c3.8,0.2,7.7,0.2,11.5,0.7c8.8,1.2,17.5,2.8,26.2,3.8c6.3,0.7,12.3,3,18.6,3.3c4.8,0.2,9.7,0.7,14.5,0.9
		C394.1,193.4,394.1,193.4,394.4,196.8z"/>
	<path d="M386.6,187.4c1.8,0.3,3.6,0.7,5.4,0.8c1.5,0.1,1.5,1.2,1.5,2.2c0,0.4-0.9,1.1-1.3,1.1c-5,0-10-0.2-15.1-0.3
		c0-0.2,0-0.3,0-0.5c1.9-0.1,3.8-0.2,5.6-0.3c0-0.1,0-0.3,0-0.4c-9.5-0.9-19-1.9-28.3-4.3c1.3,0.1,2.6,0.3,3.9,0.4
		c0-0.1,0.1-0.2,0.1-0.3c-1.6-0.5-3.2-0.9-4.8-1.4c0-0.1,0-0.1,0.1-0.2c3.6,0.8,7.3,1.6,11,2.3c6.8,1.3,13.7,1.8,20.6,1.5
		C385.7,187.9,386.2,187.6,386.6,187.4L386.6,187.4z"/>
	<path d="M335.1,15.1c0.6,1.1,1,1.9,1.5,3c-0.6,3.3,1.8,6.5,1.7,10.6c-0.9-2.7-1.6-4.9-2.4-7.2c-0.1,0-0.3,0.1-0.4,0.1
		c2.7,8.9,5.3,17.8,8,26.7c-0.1,0-0.3,0.1-0.4,0.1c-1.2-3.9-2.5-7.8-3.7-11.8c-1.6-5.2-3.1-10.5-4.9-15.7c-0.8-2.5-1.9-4.9-3.1-7.2
		c-0.5-0.9-0.2-1.3,0.5-1.9C333.5,12.7,332.2,16.2,335.1,15.1z"/>
	<path d="M386.6,187.4c-5.5-0.4-11.1-0.8-16.6-1.2c0-0.2,0-0.3,0-0.5c7.2,0.3,14.4-0.9,21.5,0.2c0,0.2,0,0.5,0,0.7
		c-1.1,0.1-2.2,0.2-3.2,0.4C387.8,187.1,387.2,187.3,386.6,187.4C386.6,187.4,386.6,187.4,386.6,187.4z"/>
	<path d="M355,118.2c-8.3,6.1-18.3,8.9-27.3,13.9c-0.1-0.2-0.2-0.3-0.2-0.5C336.7,127.2,345.9,122.7,355,118.2z"/>
	<path d="M401.3,216c-6.3,0.8-12.5,0.2-18.6-1C388.9,215.3,395.1,215,401.3,216z"/>
	<path d="M365.8,128.7c-2.7,3.3-6.7,3.5-10.6,4c3.4-1.6,6.8-3.2,10.2-4.9C365.5,128.1,365.7,128.4,365.8,128.7z"/>
	<path d="M342.4,127c4.9-2.7,9.9-5.4,14.8-8.1c0.1,0.1,0.2,0.3,0.2,0.4C352.9,122.8,347.8,125.2,342.4,127z"/>
	<path d="M379.5,201.1c2-0.6,13.2,0,14.6,1C389,202.3,384.2,202.2,379.5,201.1z"/>
	<path d="M319.4,203.4c-8.6-0.6-17.3-1.2-26-1.8C302.2,201.2,310.8,202,319.4,203.4z"/>
	<path d="M385,210.1c4.5,0,9,0,13.5,0c0,0.2,0,0.4,0,0.7C393.9,211.3,389.4,211.2,385,210.1z"/>
	<path d="M361.5,123.6c-1,1.8-9.8,5.8-14.6,6.8C351.9,128.1,356.6,125.9,361.5,123.6z"/>
	<path d="M371.2,137.6c-3.3,3.1-7.7,3.8-12,4.6C363.2,140.7,367.2,139.2,371.2,137.6z"/>
	<path d="M348.2,67.7c-1-3.9-2-7.8-3-11.7c0.1,0,0.3-0.1,0.4-0.1c1,3.9,2,7.8,3,11.7C348.5,67.7,348.3,67.7,348.2,67.7z"/>
	<path d="M355.3,96.3c-0.5-1.8-0.9-3.5-1.4-5.3c0.1,0,0.3-0.1,0.4-0.1c0.4,1.8,0.9,3.6,1.3,5.3C355.6,96.2,355.4,96.2,355.3,96.3z"
		/>
	<path d="M352.1,83.8c-0.5-1.7-1-3.4-1.4-5.1c0.1,0,0.3-0.1,0.4-0.1c0.5,1.7,1,3.4,1.4,5.1C352.4,83.7,352.2,83.7,352.1,83.8z"/>
	<path d="M198.3,184.5c-15.3-17.1-35.2-27.7-55-38.3c0.7,0.3,1.4,0.6,2.1,1c11.7,5.5,23.4,11.4,33.8,19.2
		c6.1,4.6,11.8,9.8,17.6,14.9c0.9,0.7,1.3,1.9,2,2.9C198.6,184.2,198.4,184.4,198.3,184.5z"/>
	<path d="M199.2,175.9c-14-12-29.5-21.7-45.7-30.2C170,153.8,185.9,162.8,199.2,175.9z"/>
	<path d="M71,116c7.5,3.9,15.4,6.8,23.5,9.3c8.1,2.5,16.2,4.9,24.2,7.6C102.4,128.3,85.6,125.2,71,116z"/>
	<path d="M122.7,141c-7.9-2.5-16-4.7-23.8-7.6c-8.8-3.3-17.4-7.2-26-10.8c-0.8-0.3-1.5-0.7-2.2-1.2c17.4,6.5,34.4,13.9,52.3,19
		C122.8,140.7,122.7,140.8,122.7,141z"/>
	<path d="M133.4,120.7c-2.1-0.6-4.1-1.4-6.2-1.9c-11-2.9-22-5.5-33-8.5c-6.1-1.7-12.1-3.8-18.1-5.8c-0.5-0.2-0.9-0.5-1.2-1.1
		c1.8,0.7,3.6,1.6,5.5,2.1c8.7,2.5,17.4,4.8,26.1,7.3c8.4,2.3,16.8,4.7,25.2,7.1c0.6,0.2,1.2,0.5,1.8,0.7
		C133.4,120.5,133.4,120.6,133.4,120.7z"/>
	<path d="M158.1,141.3c1.1,0.6,2.2,1.1,3.4,1.7c11.5,6,22.4,12.8,32.8,20.6c2,1.5,3.7,3.4,5.3,5.3c-12.6-11.1-27.4-18.8-41.7-27.2
		C158,141.5,158,141.4,158.1,141.3z"/>
	<path d="M73,109.8c17.2,7.7,35.7,11,53.1,18c-1.4-0.4-2.7-0.8-4.1-1.3c-14.2-4.4-28.5-8.8-42.7-13.3c-1.9-0.6-3.6-1.6-5.5-2.4
		c-0.4-0.2-0.7-0.4-1.1-0.6C72.8,110,72.9,109.9,73,109.8z"/>
	<path d="M199.2,161c-11-9.7-24.1-16.2-37-23.3C167.7,138,196.2,155.9,199.2,161z"/>
	<path d="M119.5,97.1c16,3.5,31.3,8.8,45.9,16.4C150.6,106.6,135.2,101.6,119.5,97.1z"/>
	<path d="M77.8,98.6c13.9,3.8,27.8,7.6,41.6,11.5c0,0.1-0.1,0.3-0.1,0.4c-5.4-1.4-10.9-2.9-16.3-4.3c-7-1.8-14-3.5-21-5.3
		c-1.6-0.4-3-1.3-4.5-2C77.6,98.8,77.7,98.7,77.8,98.6z"/>
	<path d="M127.6,94c6.8,0.9,28.5,8.7,36,12.9C151.7,102.7,139.4,98.3,127.6,94z"/>
	<path d="M176.7,123.7c4.6,1.2,20.8,11.4,21.9,14C191.2,132.9,183.9,128.3,176.7,123.7z"/>
	<path d="M172.7,129.8c9.4,4.4,18.1,9.8,26.5,15.8c-0.1,0.1-0.2,0.3-0.2,0.4C190.2,140.6,181.5,135.2,172.7,129.8z"/>
	<path d="M199,153.6c-8-5.3-16.4-10.8-24.4-16.2C178.1,138,198.2,151.4,199,153.6z"/>
	<path d="M111,100.3c-10.3-1.9-20.7-3.8-30.5-7.7C90.6,95.2,100.8,97.7,111,100.3z"/>
	<path d="M117.6,64.5c-9.8-3.7-19.7-7.4-29.5-11.1c0.1-0.2,0.2-0.4,0.2-0.7c9.9,3.7,19.7,7.5,29.6,11.2
		C117.8,64.2,117.7,64.4,117.6,64.5z"/>
	<path d="M158.4,70.3c8.5,4.1,16.6,9,23.9,14.9C174.3,80.2,166.3,75.2,158.4,70.3z"/>
	<path d="M81,83.8c8.5,3,17,6.1,25.4,9.1C97.8,90.6,88.9,88.7,81,83.8z"/>
	<path d="M161.3,116.9c-8.4-3.2-16.7-6.3-25.1-9.5c0.1-0.2,0.2-0.4,0.2-0.6c8.4,3.2,16.7,6.3,25.1,9.5
		C161.5,116.5,161.4,116.7,161.3,116.9z"/>
	<path d="M198.4,130.1c-6.6-4.8-12.8-9.6-20.5-12.7C181.7,117.4,197.7,127.2,198.4,130.1z"/>
	<path d="M122.4,55.1c9.2,3.6,18.5,7.2,27.7,10.7c-0.1,0.2-0.1,0.3-0.2,0.5c-9.2-3.5-18.5-7.1-27.7-10.6
		C122.2,55.5,122.3,55.3,122.4,55.1z"/>
	<path d="M178.6,109.9c7,2.9,13.7,6.8,19.9,11.6c-0.1,0.2-0.2,0.3-0.3,0.5C191.5,117.9,184.9,113.8,178.6,109.9z"/>
	<path d="M101.5,86.1c-7.7-1.7-19-5.9-20.1-7.4C88.3,81.2,94.9,83.7,101.5,86.1z"/>
	<path d="M160.7,101.9c-7.7-3.2-15.3-6.5-23-9.7c0.1-0.2,0.1-0.4,0.2-0.5c7.6,3.2,15.3,6.4,22.9,9.7
		C160.8,101.5,160.8,101.7,160.7,101.9z"/>
	<path d="M84.2,74.5c6.7,2.3,13.4,4.5,20.1,6.8c0,0.2-0.1,0.3-0.1,0.5c-6.7-2.1-13.5-4.3-20.2-6.4C84,75,84.1,74.8,84.2,74.5z"/>
	<path d="M105.8,66.4c-6.8-2.2-13.5-4.9-19.5-9C92.9,60.5,99.4,63.4,105.8,66.4z"/>
	<path d="M109.3,52.4c-7.6-1.7-14.5-4.7-21.1-8.4C95.2,46.8,102.2,49.6,109.3,52.4z"/>
	<path d="M182.2,113.8c3.6,1.4,15.2,10.1,15.8,11.9C192.7,121.8,187.7,117.9,182.2,113.8z"/>
	<path d="M197.5,116.2c-0.4-0.6-0.7-1.3-1.2-1.7c-3.8-2.7-7.6-5.3-11.4-7.9c-0.3-0.2-0.6-0.4-0.7-0.9c1.8,1,3.6,1.9,5.3,2.9
		c2.3,1.4,4.5,2.9,6.7,4.4c0.8,0.5,1.4,1.4,1.9,2.1C198.3,115.6,198.4,116.3,197.5,116.2L197.5,116.2z"/>
	<path d="M107.4,57.1c-6.4-2.5-12.9-5-19.3-7.5c0.1-0.2,0.2-0.4,0.2-0.6c6.4,2.5,12.9,5.1,19.3,7.6C107.5,56.8,107.4,57,107.4,57.1z
		"/>
	<path d="M178.7,86.9c6.3,3.9,12.9,7.3,18.4,12.5C191,95.2,184.9,91,178.7,86.9z"/>
	<path d="M199.4,179.9c-4.1-3.6-8.2-7.2-12.3-10.8c0.1-0.1,0.2-0.2,0.3-0.3c4.1,3.6,8.9,6.3,12.4,10.7
		C199.6,179.7,199.5,179.8,199.4,179.9z"/>
	<path d="M184.5,99.3c5.3,2.2,12.9,7.5,13.5,9.5C193.5,105.7,189.1,102.6,184.5,99.3z"/>
	<path d="M174.4,87.9c6.3,3,12.1,6.3,17.1,10.9C185.9,95.2,180.2,91.6,174.4,87.9z"/>
	<path d="M70.3,124.8c5.7,2.3,11.4,4.6,17.1,6.9c-0.1,0.2-0.1,0.3-0.2,0.5c-5.7-2.3-11.4-4.6-17.1-6.9
		C70.2,125.2,70.3,125,70.3,124.8z"/>
	<path d="M73.1,113.4c5.9,2.3,11.8,4.6,17.6,6.9c-0.1,0.1-0.1,0.3-0.2,0.4c-5.9-2.2-11.8-4.5-17.7-6.7
		C72.9,113.9,73,113.7,73.1,113.4z"/>
	<path d="M73.8,106.5c5.1,1.8,10.2,3.6,15.3,5.4c-0.1,0.1-0.1,0.3-0.2,0.4c-5.1-1.7-10.3-3.5-15.4-5.2
		C73.6,106.9,73.7,106.7,73.8,106.5z"/>
	<path d="M116.8,58.8c5.6,1.9,11.2,3.8,16.8,5.7c-0.1,0.2-0.1,0.3-0.2,0.5c-5.6-1.9-11.2-3.8-16.8-5.8
		C116.7,59.1,116.8,59,116.8,58.8z"/>
	<path d="M101.1,72.8c-5-1.8-9.9-3.6-14.9-5.4c0.1-0.2,0.2-0.4,0.2-0.6c4.9,1.9,9.9,3.8,14.8,5.7C101.2,72.6,101.2,72.7,101.1,72.8z
		"/>
	<path d="M197.4,116.1c0,0.2,0,0.4,0,1c-4.2-3.1-8.2-6-12.2-8.9c0.1-0.1,0.2-0.2,0.2-0.3c2.6,1.8,5.3,3.7,7.9,5.5
		C194.7,114.3,196.1,115.2,197.4,116.1C197.5,116.2,197.4,116.1,197.4,116.1z"/>
	<path d="M88.5,126.3c-5.3-1.8-10.6-3.7-15.9-5.5c0-0.1,0.1-0.2,0.1-0.3c2.6,0.8,5.3,1.6,7.9,2.5c2.7,0.9,5.3,1.9,8,2.9
		C88.6,126,88.5,126.1,88.5,126.3z"/>
	<path d="M159,76.4c-4.7-2.3-9.3-4.5-14-6.8c0.1-0.2,0.2-0.3,0.2-0.5c4.7,2.3,9.3,4.6,14,6.9C159.1,76.1,159,76.3,159,76.4z"/>
	<path d="M190,163.2c3.3,2.6,6.6,5.2,9.8,7.8c-0.1,0.2-0.3,0.3-0.4,0.5c-3.3-2.6-6.5-5.3-9.8-7.9C189.8,163.5,189.9,163.4,190,163.2
		z"/>
	<path d="M149.5,133.6c-4.1-1.2-8.2-2.5-12.3-3.7c0-0.1,0.1-0.3,0.1-0.4c4.1,1.2,8.2,2.4,12.3,3.5
		C149.6,133.2,149.6,133.4,149.5,133.6z"/>
	<path d="M196.8,110c-3-2-6-3.9-9.1-5.9c0.1-0.1,0.2-0.3,0.3-0.4c3.1,1.9,6.1,3.9,9.2,5.8C197.1,109.7,197,109.8,196.8,110z"/>
	<path d="M191.9,157.7c2.6,2.2,5.2,4.4,7.7,6.6c-0.1,0.1-0.2,0.3-0.4,0.4c-2.6-2.2-5.2-4.4-7.8-6.6
		C191.6,158,191.8,157.8,191.9,157.7z"/>
	<path d="M86.7,105.5c-3.6-1.1-7.2-2.3-10.7-3.4c0.1-0.2,0.1-0.4,0.2-0.6c3.6,1.2,7.1,2.4,10.7,3.5
		C86.8,105.2,86.7,105.4,86.7,105.5z"/>
	<path d="M197.4,133c-2.9-2.1-5.8-4.1-8.7-6.2c0.1-0.1,0.2-0.3,0.3-0.4c2.9,2,5.8,4.1,8.7,6.1C197.7,132.6,197.6,132.8,197.4,133z"
		/>
	<path d="M89,99.1c-3.6-1.3-7.3-2.6-10.9-3.9c0.1-0.2,0.1-0.4,0.2-0.6c3.6,1.4,7.3,2.8,10.9,4.2C89.1,98.9,89.1,99,89,99.1z"/>
	<path d="M153,78.2c-3.7-1.6-7.3-3.2-11-4.8c0.1-0.1,0.1-0.3,0.2-0.4c3.6,1.6,7.3,3.3,10.9,4.9C153.1,77.9,153.1,78,153,78.2z"/>
	<path d="M192,151.7c2.7,1.6,5.5,3,7.4,5.6c-0.1,0.1-0.2,0.2-0.3,0.4C196.7,155.7,194.4,153.7,192,151.7z"/>
	<path d="M132.8,137.5c3,1.2,5.9,2.4,8.9,3.6c-0.1,0.2-0.1,0.3-0.2,0.5c-3-1.2-5.9-2.4-8.9-3.6C132.7,137.9,132.8,137.7,132.8,137.5
		z"/>
	<path d="M160,132.3c-2.6-1.4-5.3-2.7-7.9-4.1c0.1-0.1,0.2-0.3,0.2-0.4c2.7,1.3,5.3,2.6,8,3.9C160.2,131.9,160.1,132.1,160,132.3z"
		/>
	<path d="M80,87.3c2.6,1.1,5.3,2.3,7.9,3.4c0,0.1-0.1,0.2-0.1,0.3c-2.7-1-5.4-2.1-8.1-3.1C79.8,87.7,79.9,87.5,80,87.3z"/>
	<path d="M199,150.2c-2.3-1.9-4.5-3.7-6.8-5.6c0.1-0.1,0.2-0.2,0.3-0.3c2.3,1.8,4.6,3.6,6.9,5.5C199.2,149.9,199.1,150,199,150.2z"
		/>
	<path d="M145.3,90.6c2.7,1.2,5.4,2.5,8,3.7c-0.1,0.2-0.2,0.4-0.3,0.5c-2.6-1.3-5.3-2.6-7.9-3.9C145.1,90.8,145.2,90.7,145.3,90.6z"
		/>
	<path d="M86.2,61.3c2.4,1,4.8,2,7.1,3c-0.1,0.2-0.1,0.3-0.2,0.5c-2.4-1-4.8-1.9-7.2-2.9C86,61.7,86.1,61.5,86.2,61.3z"/>
	<path d="M196.7,104.4c-2.6-1.8-5.1-3.7-7.7-5.5c0.1-0.1,0.2-0.2,0.2-0.4c2.6,1.8,5.2,3.6,7.8,5.4
		C196.9,104.1,196.8,104.3,196.7,104.4z"/>
	<path d="M191.3,135.8c2.4,1.6,4.7,3.2,7.1,4.8c-0.1,0.1-0.2,0.3-0.3,0.4c-2.4-1.6-4.7-3.2-7.1-4.8
		C191,136.1,191.1,135.9,191.3,135.8z"/>
	<path d="M169,80.9c-2.5-1.3-5-2.6-7.4-4c0.1-0.1,0.1-0.2,0.2-0.4c2.5,1.3,5,2.6,7.5,3.9C169.1,80.6,169.1,80.8,169,80.9z"/>
	<path d="M148.2,81c-1.6-0.6-3.3-1.3-4.9-1.9c0.1-0.1,0.1-0.3,0.2-0.4c1.7,0.6,3.3,1.3,5,1.9C148.3,80.7,148.3,80.8,148.2,81z"/>
	<path d="M137,133.9c1.6,0.7,3.3,1.4,4.9,2.1c-0.1,0.2-0.1,0.3-0.2,0.5c-1.6-0.7-3.2-1.5-4.9-2.2C136.9,134.2,137,134.1,137,133.9z"
		/>
	<path d="M268.2,128.4c4.7-2.5,9.4-5.3,14.2-7.6c16.4-8,32.9-15.8,49.4-23.6c0.8-0.4,1.6-0.8,2.4-1.2c0.1,0.1,0.1,0.3,0.2,0.4
		c-1.7,0.9-3.3,1.9-5,2.8c-12.1,5.7-24.3,11.3-36.4,17.1c-8.1,3.9-16,8.1-24,12.2c-0.2,0.1-0.4,0.1-0.6,0.2
		C268.3,128.5,268.2,128.4,268.2,128.4z"/>
	<path d="M276.7,113.8c18.3-9,36.5-18,54.8-27c0.1,0.1,0.1,0.2,0.2,0.3c-2.9,1.6-5.8,3.4-8.8,4.8c-10.7,5.2-21.5,10.3-32.2,15.5
		c-4.3,2.1-8.6,4.3-12.9,6.4c-0.3,0.2-0.6,0.3-1,0.4C276.8,114.1,276.8,113.9,276.7,113.8z"/>
	<path d="M224.7,94.7c6.8-10.1,15.7-17.9,26.2-24C241.2,77.7,232.8,86,224.7,94.7z"/>
	<path d="M259.6,139.8c16.7-10.9,34.9-19,53.1-27c-0.2,0.2-0.5,0.4-0.7,0.5c-0.3,0.2-0.6,0.4-1,0.6c-6.7,3.1-13.5,5.9-20.1,9.2
		c-9,4.5-18.3,8.7-26.7,14.3c-1.2,0.8-2.4,1.4-3.7,2C260.2,139.5,259.9,139.6,259.6,139.8z"/>
	<path d="M222.4,104.4c7.2-10.1,15.1-19.7,26-26.2c-0.6,0.5-1.2,1-1.8,1.5c-0.7,0.5-1.3,1.1-2,1.6c-7.4,6-13.9,12.7-19.2,20.6
		c-0.7,1.1-1.7,1.9-2.6,2.9C222.6,104.7,222.5,104.5,222.4,104.4z"/>
	<path d="M219.8,172.2c7.2-9.7,16.6-17,26.6-23.6C237,155.9,227.5,163,219.8,172.2z"/>
	<path d="M289.3,113.3c-3.4,1.9-6.9,3.8-10.3,5.6c-5.8,3.1-11.6,6.1-17.5,9.2c-0.3,0.1-0.6,0.2-1,0.1c2.5-1.4,4.9-3,7.5-4.3
		c6.7-3.5,13.5-6.9,20.3-10.3c0.3-0.1,0.6-0.2,0.9-0.3C289.3,113.2,289.3,113.3,289.3,113.3z"/>
	<path d="M220.6,180.6c1.8-4.6,14.9-17.1,23.2-21.7c-4.2,3.5-8.4,6.7-12.3,10.4C227.6,173,224,177,220.6,180.6z"/>
	<path d="M296.2,75.5c-12.2,5.8-23.4,12.6-34.3,20C264.4,92.1,291.7,76.1,296.2,75.5z"/>
	<path d="M240.9,148c-6.7,6-13.3,11.9-20,17.9C226.7,159,233.4,153,240.9,148z"/>
	<path d="M220.4,150.5c1.1-3.2,11.7-13.3,16-15.2C231.3,140.2,225.7,145.5,220.4,150.5z"/>
	<path d="M238.5,140c-6.4,5.6-12.8,11.3-18.8,16.6C220.4,154.4,234.4,141.7,238.5,140z"/>
	<path d="M241.4,143.6c-7.3,5.8-15.4,10.7-21.3,18.2C225.5,153.6,233.6,148.8,241.4,143.6z"/>
	<path d="M221.7,129.6c3.4-6.2,8.9-10.8,14.9-15.3C231.4,119.6,226.5,124.6,221.7,129.6z"/>
	<path d="M220.7,140.1c4.6-6.8,11.5-11.4,17.6-16.8C232.4,128.9,226.6,134.5,220.7,140.1z"/>
	<path d="M289.2,113.2c5.1-2.6,10.3-5.1,15.4-7.7c2.6-1.3,5.3-2.7,7.9-4c0.5-0.2,1-0.4,1.6-0.2c-2,1.1-4,2.2-6,3.2
		c-6.2,3-12.5,5.9-18.8,8.9C289.3,113.3,289.3,113.2,289.2,113.2z"/>
	<path d="M288.5,90c-8,4.5-15.9,9.1-23.9,13.6C272,98.2,280.1,93.9,288.5,90z"/>
	<path d="M321.1,31.4c-5.7,5.3-12.2,9.6-19,13.3C308.4,40.3,314.8,35.9,321.1,31.4z"/>
	<path d="M325.3,44.6c-0.9,0.7-1.7,1.6-2.6,2.2c-4.7,2.7-9.4,5.4-14.1,8.1c-0.1,0-0.2,0-0.8-0.1c6.1-3.6,11.8-6.9,17.5-10.3
		C325.2,44.5,325.2,44.6,325.3,44.6z"/>
	<path d="M232.1,101.9c-3.1,3.8-6.3,7.6-9.5,11.4C223.1,110.9,229.3,103.1,232.1,101.9z"/>
	<path d="M271.9,77.4c0.3-0.3,0.4-0.8,0.8-0.9c6.5-3.5,13.1-7,19.6-10.4c0.3-0.1,0.6-0.2,0.9-0.2c-4.2,2.2-8.4,4.5-12.6,6.8
		c-2.4,1.3-4.8,2.9-7.2,4.3C272.9,77.1,272.3,77.2,271.9,77.4L271.9,77.4z"/>
	<path d="M295.5,98.2c5.9-2.8,11.9-5.7,17.8-8.5c0.1,0.2,0.2,0.4,0.3,0.5c-5.9,2.8-11.9,5.6-17.8,8.4
		C295.7,98.5,295.6,98.3,295.5,98.2z"/>
	<path d="M277.8,108.6c-5.1,3.4-10.2,6.8-15.4,10.3C263.3,117.5,274,110.1,277.8,108.6z"/>
	<path d="M268.3,128.5c-3.8,2.2-7.7,4.5-11.5,6.7c-0.8,0.4-1.5,0.9-2.3,1.2c4.2-3.3,8.9-5.8,13.7-8.1
		C268.2,128.4,268.3,128.5,268.3,128.5z"/>
	<path d="M224.8,169.8c4.5-3.9,8.9-7.8,13.4-11.7c0.1,0.1,0.2,0.3,0.3,0.4c-4.5,3.9-8.9,7.8-13.4,11.7
		C225,170,224.9,169.9,224.8,169.8z"/>
	<path d="M323.9,107.7c3.9-2,7.8-4.1,11.7-6.1c0.1,0.2,0.2,0.4,0.3,0.5c-3.9,2-7.8,4-11.7,6.1C324.1,108,324,107.8,323.9,107.7z"/>
	<path d="M316.3,61.3c3.5-2.2,6.9-4.5,10.4-6.7c0.1,0.2,0.2,0.3,0.3,0.5c-3.5,2.2-7,4.4-10.4,6.6C316.4,61.6,316.3,61.5,316.3,61.3z
		"/>
	<path d="M319.5,69.7c3-1.9,6-3.8,9-5.7c0.1,0.2,0.2,0.4,0.4,0.6c-3,1.8-6,3.7-9.1,5.5C319.6,69.9,319.5,69.8,319.5,69.7z"/>
	<path d="M333.5,81.6c-2.8,1.7-5.5,3.5-8.3,5.2c-0.1-0.1-0.2-0.3-0.2-0.4c2.7-1.8,5.4-3.6,8.1-5.5C333.2,81.2,333.3,81.4,333.5,81.6
		z"/>
	<path d="M338.8,108.9c-3.2,1.8-6.4,3.6-9.6,5.4c-0.1-0.1-0.2-0.3-0.2-0.4c3.2-1.8,6.4-3.7,9.6-5.5
		C338.6,108.6,338.7,108.7,338.8,108.9z"/>
	<path d="M267.3,71.1c3.3-1.9,6.7-3.8,10-5.6c0.1,0.1,0.2,0.3,0.2,0.4c-3.3,1.9-6.7,3.7-10,5.6C267.4,71.4,267.3,71.2,267.3,71.1z"
		/>
	<path d="M259.5,69c3-2,6.1-4,9.1-6c0.1,0.1,0.2,0.2,0.2,0.4c-3,2-6,4-9,6C259.7,69.2,259.6,69.1,259.5,69z"/>
	<path d="M334.7,92.3c-2.6,1.4-5.2,2.8-7.8,4.1c-0.1-0.1-0.2-0.3-0.2-0.4c2.6-1.4,5.1-2.8,7.7-4.3C334.5,92,334.6,92.2,334.7,92.3z"
		/>
	<path d="M256.9,78.7c2.7-2,5.5-4,8.2-6c0.1,0.1,0.2,0.3,0.3,0.4c-2.7,2-5.4,4-8.1,6C257.1,79,257,78.8,256.9,78.7z"/>
	<path d="M330.4,70c-1.7,1.1-3.5,2.3-5.2,3.4c-0.1-0.2-0.2-0.4-0.4-0.6c1.7-1.2,3.5-2.3,5.2-3.5C330.1,69.5,330.3,69.8,330.4,70z"/>
	<path d="M271.8,77.3c-2.4,1.8-4.8,3.5-7.2,5.3c-0.1-0.1-0.2-0.3-0.3-0.4C266.9,80.6,268.9,78.2,271.8,77.3
		C271.9,77.4,271.8,77.3,271.8,77.3z"/>
	<path d="M254.1,112.4c-2.4,1.6-4.8,3.1-7.1,4.7C249.2,115.2,251.2,113.1,254.1,112.4z"/>
	<path d="M230.8,111.1c-0.1,0.4,0,0.9-0.2,1.2c-1.4,1.6-2.9,3.2-4.3,4.9c-0.1-0.1-0.2-0.2-0.4-0.3
		C227.6,114.9,229.2,113,230.8,111.1L230.8,111.1z"/>
	<path d="M230.8,111.1c1.3-1.3,2.5-2.5,3.8-3.8c0.4-0.5,0.7-1,1.1-1.6c0.2,0.2,0.3,0.3,0.5,0.5c-1.4,1.6-2.8,3.2-4.3,4.8
		C231.7,111.2,231.2,111.1,230.8,111.1C230.8,111.1,230.8,111.1,230.8,111.1z"/>
	<path d="M323,78.6c2.3-1.4,4.4-2.7,6.6-4C328.7,76.1,325.5,78.2,323,78.6z"/>
	<path d="M322.8,38.2c-2.2,1.5-4.5,3.1-6.7,4.6c-0.1-0.1-0.1-0.2-0.2-0.3c2.2-1.6,4.4-3.2,6.5-4.8C322.5,37.9,322.6,38,322.8,38.2z"
		/>
	<path d="M326.4,80.4c1.7-0.9,3.3-1.8,5-2.8c0.1,0.2,0.2,0.4,0.4,0.7c-1.7,0.9-3.4,1.7-5.1,2.6C326.6,80.7,326.5,80.5,326.4,80.4z"
		/>
	<path d="M224.6,170.8c-1.7,1.8-3.3,3.6-5,5.5c-0.1-0.1-0.3-0.2-0.4-0.3c1.7-1.8,3.3-3.7,5-5.5C224.4,170.6,224.5,170.7,224.6,170.8
		z"/>
	<path d="M290.6,130.3c-2.6,1.3-5.2,2.6-7.8,3.9c-0.1-0.1-0.1-0.2-0.2-0.3c2.6-1.3,5.2-2.6,7.8-4
		C290.5,130.1,290.5,130.2,290.6,130.3z"/>
	<path d="M241.3,155.6c1.9-1.4,3.9-2.9,5.8-4.3c0.1,0.1,0.2,0.3,0.3,0.4c-1.9,1.5-3.8,2.9-5.8,4.4
		C241.5,155.9,241.4,155.7,241.3,155.6z"/>
	<path d="M277.5,137.1c-2.5,1.4-4.9,2.9-7.4,4.3c-0.1-0.1-0.1-0.2-0.2-0.4c2.5-1.4,4.9-2.9,7.4-4.3
		C277.4,136.9,277.5,137,277.5,137.1z"/>
	<path d="M308.5,121.6c-2.3,1.1-4.7,2.2-7,3.3c-0.1-0.1-0.1-0.2-0.2-0.3c2.3-1.1,4.6-2.2,7-3.3C308.3,121.4,308.4,121.5,308.5,121.6
		z"/>
	<path d="M248.5,132.3c-2.1,1.5-4.2,3.1-6.2,4.6c-0.1-0.1-0.1-0.2-0.2-0.3c2.1-1.5,4.1-3.1,6.2-4.6
		C248.3,132.1,248.4,132.2,248.5,132.3z"/>
	<path d="M251.9,152.8c1.8-1.4,3.7-2.9,5.5-4.3c0.1,0.1,0.2,0.2,0.2,0.3c-1.8,1.5-3.7,2.9-5.5,4.4C252.1,153,252,152.9,251.9,152.8z
		"/>
	<path d="M322.7,63.1c1.4-1,2.8-2,4.2-3c0.1,0.2,0.2,0.3,0.3,0.5c-1.4,1-2.9,2-4.3,2.9C322.9,63.4,322.8,63.3,322.7,63.1z"/>
	<path d="M246.3,107.3c1.4-1.3,2.8-2.7,4.3-4c0.1,0.1,0.2,0.2,0.3,0.3c-1.4,1.3-2.9,2.6-4.3,4C246.5,107.5,246.4,107.4,246.3,107.3z
		"/>
	<path d="M284.5,55.1c1.5-0.9,3.1-1.7,4.6-2.6c0.1,0.1,0.1,0.3,0.2,0.4c-1.5,0.9-3.1,1.7-4.6,2.6C284.7,55.3,284.6,55.2,284.5,55.1z
		"/>
	<path d="M312,66.5c-1.2,0.8-2.5,1.6-3.7,2.5c-0.1-0.1-0.2-0.3-0.3-0.4c1.2-0.8,2.5-1.7,3.7-2.5C311.8,66.2,311.9,66.3,312,66.5z"/>
	<path d="M91.6,184.5c-20.1,1.1-40.2-0.5-60.1,4.1c-0.1-0.3-0.1-0.6-0.2-0.8c1.2-0.5,2.4-1.2,3.7-1.4c4.3-0.6,8.6-1.1,13-1.5
		c11.7-1,23.4-1.5,35.2-1C86,184,88.8,184.3,91.6,184.5z"/>
	<path d="M49.9,198.6c0.6,0,1.2,0,1.8,0c0,0.1,0,0.1,0.1,0.2c-0.7,0.2-1.4,0.4-2.1,0.7c14.8-2,29.5-4.4,44.5-4.3
		c-18.9,0.6-37.4,4-56,7.1c0.4-0.2,0.8-0.4,1.4-0.7c-1,0.1-1.7,0.1-2.5,0.2c0-0.1,0-0.2,0-0.3c3.4-0.7,6.8-1.5,10.2-2.2
		C48.1,199.1,49,198.9,49.9,198.6C50,198.6,49.9,198.6,49.9,198.6z"/>
	<path d="M77.3,166.2c-8.5-0.3-16.9-0.7-25.1-1c0.3-0.1,1-0.4,1.8-0.4c4.9,0.1,9.8,0.2,14.6,0.4C71.5,165.3,74.4,165.8,77.3,166.2
		C77.3,166.1,77.3,166.2,77.3,166.2z"/>
	<path d="M77.7,193.2c13.9-0.2,27.7-0.4,41.6-0.6c0,0.1,0,0.3,0,0.4c-13.9,0.2-27.7,0.4-41.6,0.6C77.7,193.5,77.7,193.4,77.7,193.2z
		"/>
	<path d="M70.4,163.7c-6.1,0-12.1,0-18.2,0c0-0.2,0-0.5,0-0.7c6.1,0.2,12.2,0.4,18.2,0.5C70.4,163.5,70.4,163.6,70.4,163.7z"/>
	<path d="M36.6,204.4c4.8-1.1,9.7-2.2,14.5-3.2c0,0.1,0,0.1,0.1,0.2c-4.5,1.3-9,2.6-13.6,3.8c-0.3,0.1-0.7-0.2-1-0.3
		C36.6,204.7,36.6,204.6,36.6,204.4z"/>
	<path d="M184.5,200.1c3,1.5,5.9,3,8.9,4.5c-0.1,0.2-0.2,0.4-0.3,0.6c-2.9-1.6-5.9-3.1-8.8-4.7C184.4,200.4,184.4,200.2,184.5,200.1
		z"/>
	<path d="M195.4,220.2c-1.3-0.9-2.6-1.9-3.9-2.8c0.1-0.1,0.2-0.3,0.3-0.4c1.3,0.9,2.7,1.8,4,2.7C195.7,219.8,195.6,220,195.4,220.2z
		"/>
	<path d="M369.5,143.6c1.4-0.4,2.8-0.7,4.2-1.1c0,0.2,0.1,0.4,0.1,0.6C372.5,144,370.9,143.6,369.5,143.6
		C369.5,143.6,369.5,143.6,369.5,143.6z"/>
	<path d="M258.3,183.8c1.4-0.4,2.8-0.9,4.1-1.3c0.1,0.1,0.1,0.3,0.2,0.4c-1.4,0.5-2.7,1-4.1,1.5C258.4,184.2,258.4,184,258.3,183.8z
		"/>
	<path d="M35.8,151.9c-0.6,5.6-17.5,66.2-20,70.3C22.5,198.7,29.2,175.1,35.8,151.9z"/>
	<path d="M23.2,223.9c23-0.5,46-1,69.3-1.5C90.5,223.1,26.2,224.7,23.2,223.9z"/>
</g>
</svg>
