<?xml version="1.0" encoding="utf-8"?>
<!-- Generator: Adobe Illustrator 24.1.1, SVG Export Plug-In . SVG Version: 6.00 Build 0)  -->
<svg version="1.1" id="Vrstva_1" xmlns="http://www.w3.org/2000/svg" xmlns:xlink="http://www.w3.org/1999/xlink" x="0px" y="0px"
	 viewBox="0 0 595.3 223.7" style="enable-background:new 0 0 595.3 223.7;" xml:space="preserve">
<style type="text/css">
	.st0{clip-path:url(#SVGID_2_);fill-rule:evenodd;clip-rule:evenodd;}
</style>
<g>
	<defs>
		<rect id="SVGID_1_" x="-0.2" y="-185.6" width="595.3" height="595.3"/>
	</defs>
	<clipPath id="SVGID_2_">
		<use xlink:href="#SVGID_1_"  style="overflow:visible;"/>
	</clipPath>
	<path class="st0" d="M152,198.6c0.8-0.9,1.6-1.8,1.9-2.2c1.2-1.5,2.5-3,3.8-4.5c2.1-2.4,4.2-4.8,6.3-7.1c1.9-2.1,4-4.2,6-6.2
		c1.9-1.8,4.4-3.9,5.8-5.3c1.4-1.4,2.6-2.4,3.8-2.6c1.2-0.2,1.7,0,2.7-0.1c1-0.1,1.9-0.3,2.9-1c0.9-0.8,1.7-2.1,2.1-3.9
		c0.3-1.7-0.3-4.5,0-5.5c0.3-1,1.5-2.4,2.6-3.4c1.4-1.3,6.8-1.5,9-1.8c2.1-0.3,6.7-0.7,8.6-0.7c0.2,0-1.4,3.3-1.8,3.8
		c-0.7,0.8-2,0.8-3,0.6c-1.5-0.2-2.9-1-4.4-1.3c-2-0.3-3.5,0.5-4.9,1.9c-1.7,1.8-2.3,3.8-2.3,6.3c0,2.1,0.2,4.4,0.8,6.4
		c0.6,1.9,0.8,2.7,1.4,4.7c0.5,1.9,0.8,2.7,0.9,4.6c3.5-1.4,7.4-2.3,10.9-3.5c3.4-1.2,5.7-2.2,8-4.4c1.4-1.3,2.3-3,2.3-5.2
		c0-2.2-1.9-5.1-3.7-6.1c-1.8-1-3.2-1-3.1-3.1c0-0.9,2.2-4.3,2.9-4.9c0.8,0,2.8-0.2,4.7,0c0,1.4-0.4,2-0.4,4.1c0,2.1,0.4,7.1,1,10.7
		c0.7,3.8,2.2,9,4.3,12.3c-2.9,0.1-4.5,0.3-6.8,0.7c-2.3,0.4-7.3,1.4-10.9,2.2c-4.3,1-8.7,2.1-13,3.2c-4.3,1.2-8.5,2.4-12.8,3.7
		c-2.8,0.8-5.6,1.6-8.4,2.5c-2.7,0.8-5.5,1.6-8.2,2.4C158,196.8,155,197.6,152,198.6 M270.2,190.6c-2.6-1.1-4.3-3.3-5.5-5.8
		c-1.3-2.8-1.9-6.2-2-9.3c-0.3-6.1,0.3-12.1,1.6-18c1.6-7.1,4.1-13.8,7.5-20.3c2.8-5.3,6.5-11.1,10.8-15.4c3.4-3.3,8.1-6.2,13-6.2
		c4.9,0,8,3.3,9.3,7.8c1.7,5.7,1.3,12.3,0.3,18c-1.4,7.8-3.3,15.7-6,23.1c-2.2,5.9-5,11.8-8.7,16.9c-2.3,3.1-4.7,6-8.2,7.9
		C279,191.2,273.8,192.1,270.2,190.6z M68,170.2c5.9-8.8,11.8-17.4,18-25.9c5.4-7.4,10.9-14.7,16.9-21.7
		c6.5-7.6,12.4-15.7,18.9-23.3c7.4-8.6,14.6-17.3,22.6-25.4c8.3-8.3,16.9-16,25.5-24.2c3.7-3.5,7.5-6.8,11.6-9.9
		c2.5-1.9,5-3.6,7.6-5.3c3.8-2.5,7.7-5,11.7-7c4.5-2.4,8.4-4.1,13.4-5.2c3.5-0.8,9-1.5,12.2,0.7c3.2,2.2,2.9,6.7,1.9,10.1
		c-1,3.3-3.1,6.2-4.7,9.3c-2,3.7-4.1,7.4-5.9,11.3c-2.3,4.7-4.3,9.5-5.7,14.5c-1.4,4.9-2.2,9.7-2.3,14.7c0,1.1-0.1,4.9,0.9,5.9
		c1.6,1.6,6.3-7.1,7.3-8.3c3.9-5,7.8-10,11.8-15c4.7-6,9.3-12,14.7-17.4c2.4-2.4,4.8-5,7.3-7.3c1.9-1.7,4.1-4.3,5.4-5.3
		c1.3-1,0.6-0.5,1.8-1.5c0.4,1.2,0.7,1.9,1.3,2.1c0.6,0.2,1.7,0.3,2.2-0.4c0.5-0.6,0.8-1.3,1.4-2.1c0.7-0.9,2.3-2.2,3.5-3.2
		c1.6-1.3,3.5-2.7,5.4-3.7c0.1-0.1,1.5-0.8,1.8-0.8c-0.5,0.9-1.2,1.9-1.7,2.7c-3.1,4.9-5.9,9.7-8.6,14.7c-2.1,3.8-4.1,7.8-5.7,11.9
		c-1.3,3.3-2.4,6.7-3.2,10.1c-0.8,3.5-1.3,6.9-0.9,10.6c0.2,2.1,0.8,4.6,2.2,6.3c1.2,1.4,2.3,2.2,4.1,2.6c2,0.5,4.2,0,6.1-0.5
		c3-0.8,5.7-2.4,8.5-3.9c4.5-2.3,9.4-4.4,14.2-6.1c3.9-1.4,7.9-2.5,12-3c4.2-0.5,8.2-0.6,12.3,0.3c3.6,0.8,7.1,2.4,9.9,4.9
		c2.4,2.1,4.3,4.9,5.5,7.8c1.4,3.4,1.9,7,1.9,10.6c-0.1,3.6-0.5,7.1-1.3,10.6c-0.4,2-1,4.3-1.7,6.2c-0.3,0.9-1.3,3.8-2.1,5.4
		c-2.7-1.7-7.3-4.2-8.5-4.7c-5-2.3-10.1-4.4-15.5-5.7c-4.4-1.1-9.2-1.5-13.7-1.9c-4.3-0.4-8.6-0.6-12.8-0.3
		c-4.3,0.3-8.6,0.9-12.9,1.9c-4.8,1.2-9.4,3-13.7,5.3c-4.9,2.6-9.4,6-13.3,9.8c-3.3,3.2-6.2,6.7-8.9,10.5c-2.7,3.8-5,7.8-7.1,11.9
		c-1.4,2.6-2.3,5.6-2.8,8c-1.5,0.2-2,0.1-3.4,0c0.8-2.4,2.8-6,3.3-7.2c4-8.9,8.4-17.7,12.6-26.6c3.1-6.6,6.1-13.2,9.4-19.7
		c8.1-0.4,13.8-0.7,21-1c1.2-0.1,3.6-0.2,3.8-1.8c0.1-1.2-1.4-1.8-2.3-1.7c-6.8,0.3-14,0.8-20.8,0.9c2-5,8.9-15.8,9.1-17.8
		c0.2-2-2-1.2-3.2-1c-1.1,0.2-7.4,12.6-10.3,18.8c-0.2,0.4-23.8-0.3-25.6,2.9c-0.4,0.8-0.2,1.4,1.5,2c1.6,0.6,14.3-0.7,21.6-0.9
		c-3.1,8.6-7.7,16.2-11.6,24.3c-3.5,7.4-6.9,15-10.2,22.5c-1,2.2-1.9,4.2-2.9,6.4c-4.5,0.2-9.7,0.8-14.3,1.5
		c4.4-3,8.1-14.3,1.4-17.1c-3.1-1.3-6.5-1.6-9.8-1.8c-4.5-0.3-9.1,0.1-13.6,0.7c-6.5,0.9-13,2.1-19.5,3.4
		c-11.4,2.4-22.6,5.4-33.6,9.2c-10.3,3.6-20.2,7.9-29.8,13c-5.6,3-11.3,6.1-16.6,9.7c-2.6,1.8-5.5,4-7.2,5.5
		c-1.8,1.5-1.5,1.4-3.1,2.7C64.4,175.4,66,173.1,68,170.2z M205.2,166.9c0.3-0.6,1.4-2.5,1.6-3.1c0.4,0.6,1.3,1.3,1.9,1.7
		c1.4,1,2.6,2.2,2.4,3.6c-0.2,1.4-2.1,3.1-3.1,3.7c-1.4,0.9-3,1.5-4.7,1.9c-0.9,0.3-1.9,0.5-2.8,0.8c0.4-0.8,2.2-4.3,2.5-4.8
		C203.7,169.5,204.9,167.6,205.2,166.9z M203.5,162.7c-0.9,1.7-2.2,4-3.1,5.7c-0.1,0.2-2.4,4.3-3,5.2c-0.5-0.6-0.8-1.4-1-2.1
		c-0.2-0.8-0.6-1.7-0.7-2.6c-0.1-0.9-0.1-2,0.1-2.9c0.2-0.8,0.5-1.5,0.9-2.2c0.4-0.6,0.9-1,1.6-1.3c0.8-0.4,1.7-0.4,2.6-0.2
		C202,162.6,202.2,162.9,203.5,162.7z M180.8,167.5c-0.9-0.2-3.3-2-4.2-2.9c-0.9-0.9-2.7-3.5-4.4-4.7c0.6-0.2,2.7-0.4,4.1-0.6
		c1.4-0.2,2.5-0.4,4.7-0.7c0.5-0.1,1.8-0.3,2.7-0.5c-0.1,0.5-0.1,0.1-0.1,0.8c0,0.6,0.6,2.1,0.8,3.2c0.2,1.1,0.2,2.2,0,3.3
		c-0.2,0.9-0.6,1.5-1.5,1.8C182.2,167.6,181.5,167.5,180.8,167.5C180.8,167.5,181.8,167.7,180.8,167.5z M171.6,154.2
		c0.5-1.1,0.9-2.1,1.4-3.1c0.5-0.9,1.3-1.9,2-2.6c0.7-0.7,1.5-1.1,2.4-1.3c0.9-0.2,1.7,0,2.4,0.5c0.7,0.5,1.5,1.2,1.8,2.2
		c0.3,1,0,2.6,0,3.2c0.1,0.6,0.2,0.8,0.9,1.5c-1.7,0.6-4.3,0.8-5.7,1c-1.4,0.1-4.6,0.5-6,0.6C171.3,155,171.5,154.3,171.6,154.2z
		 M138.3,207.3c4-4.1,8.2-8.4,12-12.3c2.3-2.4,4.5-4.9,6.8-7.3c1.7-1.9,3.4-3.8,5.1-5.7c1.8-2.1,3.5-4.3,5.2-6.4
		c0.7-0.8,4.4-5,5.7-6.7c-0.9-0.9-1.4-1.6-2-2.3c-1.2-1.7-2.8-3.1-3.8-3.8c-1.1-0.7-2.9-2.2-5.7-3.7c1.1-0.5,1.5-0.9,2.5-1.9
		c0.9-1,2.2-2.9,3.1-4.5c1.1-1.8,2.2-3.6,3.4-5.2c1.2-1.6,2.6-3.2,4.4-4.1c1.3-0.6,2.9-1,4.5-0.9c1.6,0.1,2.8,0.9,3.8,2.3
		c1,1.4,1.1,2.9,1,4.5c-0.1,1.1-0.6,2.5-0.3,3.6c0.2,0.8,1.2,1.4,1.9,1.2c1.4-0.3,1.8-0.3,2.9-1.2c1.1-0.9,2.5-2.7,2.8-4.1
		c0.9-3.8,0-5.9-3.6-7.8c-3.9-2.1-11-1.6-16.3-0.9c-6.9,0.9-13.7,2.2-20.5,3.6c-12.9,2.8-25.4,7.2-37.5,12.5
		c-8.3,3.6-16.5,7.7-24.6,11.9c-5.6,2.9-11,5.8-16.6,9.4c-5.6,3.5-10.3,7.1-16.1,10.9c-0.3-2.8,0.4-6.1,1.8-8.7
		c1.9-3.8,3.9-7.5,6-11.2c4.5-7.9,9.7-15.6,15.1-22.9c4.8-6.6,9.9-13,15.1-19.4c7.2-8.9,14.5-17.8,21.9-26.5
		c7.9-9.3,15.9-18.4,24.2-27.3c7.5-7.9,15.3-15.7,23.4-23c4.6-4.1,9.2-8.1,14-12.1c3.9-3.2,7.6-6.5,11.7-9.4
		c3.9-2.8,8.1-5.5,12.6-7.2c3.8-1.5,7.8-2.4,11.7-3.3c4.1-0.9,9.3-1.3,13.2,0.2c3.1,1.2,5.1,4,5.7,7.2c0.5,2.6,0.2,5.3-0.7,7.8
		c-1.4,4-3.8,8-5.9,11.7c-2.2,4-4.5,8.1-6.2,12.4c-1.4,3.6-2.4,7.5-3.5,11.2c-0.9,2.9-1.8,6.2-1.6,9c2.5-2.7,4.7-5.7,6.9-8.7
		c3.3-4.5,6.6-8.9,10.3-13.1c3.7-4.1,7.4-8.1,11-12.3c2-2.4,3.8-5,5.8-7.4c1.1-1.3,2.1-2.4,3.3-3.6c1.4-1.4,3-2.7,4.7-3.7
		c1.3-0.7,2.8-1.2,4.2-1.6c1.5-0.5,3-1,4.4-1.6c1.1-0.5,3.7-1.2,5.2-1.4c1.5-0.2,3.9-0.5,5.5-0.5c1.6,0,2.1,0.1,3.1,0.6
		c-1.2,0.7-1.2,0.6-2.1,1.6c-1.2,1.3-2.5,4-3.4,5.7c-0.9,1.7-1.9,3.7-3.3,6.4c-1.4,2.7-3.3,6.9-4.7,10.3c-1.8,4.3-3.4,8.8-4.5,13.3
		c-0.9,3.6-1.4,7.1-1.7,10.7c-0.1,2-0.3,5.4,1.8,6.5c1.6,0.9,4,0.3,5.6-0.3c4.2-1.4,8.2-3.2,12.2-4.9c4-1.8,8-3.7,12.1-5
		c4.8-1.6,9.7-2.7,14.7-2.9c3-0.1,6,0,8.9,0.6c4.1,0.9,8,2.7,11.1,5.6c3.1,2.9,5.3,6.6,6.6,10.6c1.2,3.5,1.7,7.3,1.8,10.9
		c0.1,3-0.1,5.8-0.6,8.8c-0.4,3-1.2,5.9-2.1,8.8c-0.9,3-2.1,5.9-3.4,8.8c0.6,0.6,0.6,0.8,0.9,1.1c2.8,3.7,4.8,6.1,6.1,10.6
		c1,3.3,1.7,6.7,2.1,10.1c0.6,4.7,0.5,9.5-0.2,14.1c-0.6,3.8-1.7,7.5-3.2,11c-1.5,3.4-3.3,6.5-5.6,9.4c-3,3.9-6.3,7.2-10.1,10.2
		c-3.8,2.9-7.9,5.5-12.1,7.6c-3.8,1.9-7.9,3.6-12,4.8c-3.9,1.2-7.9,2.1-12,2.6c-3.2,0.4-6.6,0.6-9.8,0.5c-3-0.1-6-0.3-8.9-0.6
		c-2.9-0.3-4.7-0.5-8.6-1.3c-3.9-0.8-9.7-2.2-14.6-3.9c-4.1-1.4-9.6-3.4-14.2-7.8c-5.2-1.4-21.4,0.3-27.5,1.1
		c-6.1,0.8-14.2,2.7-21.1,4.7c-6.6,1.9-15.1,4.8-20.3,6.7C151,202.3,144.5,204.7,138.3,207.3z M441.7,163.2
		c0.5-4.3,2.5-8.5,5.1-11.9c2.2-2.9,5.2-5.8,8.9-6.7c1.9-0.5,4-0.6,5.7,0c3.8,1.3,4.4,6.5,3.2,9.8c-1.1,3.1-3,5.1-5.9,6.7
		c-3.1,1.8-6.6,3.1-10,4.3c-2,0.7-4.8,1.5-7,1.4C441.6,165.9,441.6,164.4,441.7,163.2z M425,198.3c-5.4-1.8-9.3-4.4-12.1-9.4
		c-1.1-1.9-2-3.8-3.1-5.7c-0.3-0.5-0.9-0.9-1.5-0.9c-1-0.1-1.5,0.8-2,1.5c-1.1,1.7-2.2,3-3.7,4.4c-2.2,2.1-4.5,4.1-7,5.8
		c-3.1,2-6.2,3.4-9.7,4.6c-3,1-6.4,1.5-9.6,1.3c-4.8-0.2-9.8-2.1-13.3-5.5c-1.6-1.6-2.6-3.7-3.1-5.9c-1.5-6.5,1.9-13.3,4.3-19.1
		c1.1-2.8,2.2-5.5,2.9-8.4c0.7-3.4,1.3-8.4-2.2-10.6c-1.2-0.7-2.7-0.7-4-0.4c-1.4,0.4-2,0.4-2.5,2c-2.8,8.9-6.1,16.9-10.8,25
		c-4.1,6.9-9.2,14.2-14.4,20.3c-0.9,1.1-2.2,2.4-3.8,2.4c-1.3-0.1-2.4-0.8-3.4-1.6c-0.7-0.6-1.4-1.6-1.5-2.6c0-0.8,0.3-1.5,0.9-2.1
		c6.8-7.1,12.2-12.8,16.6-22c2.5-5.2,4.5-10.5,6.1-16.1c1.8-6.1,3.1-12.3,4.1-18.6c0.5-3.4,1-6.9,1.4-10.3c2.9,0.2,5.9,0.1,8.8-0.2
		c0.2,3.4-0.5,9.8-0.7,11.6c-0.3,1.9,0,2.5,1.9,3c1.6,0.4,3.4,0.4,5.1,0.3c4.1-0.1,8.2-0.8,12.3-1.2c2.6-0.3,5.4-0.4,8,0
		c2.3,0.3,4.6,0.9,6.6,2.1c2.2,1.3,3.8,3.4,4.4,5.9c1.3,4.7-0.2,9.9-2.2,14.2c-1.8,3.7-4,7.2-5.3,11.2c-0.6,1.8-2,6.4-0.5,8
		c0.8,0.9,2.2,0.6,3.2,0.3c1.8-0.7,3.8-1.8,5.1-3.2c4.4-4.7,6.7-10,9.8-15.6c4.2-7.6,9.9-13.5,17.1-18.1c4.1-2.6,8.4-4.6,13-5.9
		c4.9-1.4,10.1-2.1,15.3-1.6c4.9,0.5,9.7,1.7,14.1,3.9c2.2,1.1,4,2.2,5.4,4.2c1.4,2,2.5,4.7,2.7,7.2c0.3,4.3-0.8,8.3-3.2,11.9
		c-2.9,4.2-5.7,5.5-10.5,7c-2.6,0.8-5.6,1.4-8.9,1.9c-3.8,0.6-10.2,1-13.7,2.6c-0.8,0.4-1.3,1-1.4,1.9c-0.2,3.7,5.8,8.5,8.7,9.7
		c5.4,2.1,12,0.6,17.1-1.7c6.7-3,11.3-7,14.7-13.5c3.4-6.5,5.6-13.5,8.3-20.3c3.5-9,6.3-18.1,9-27.3c1.1-3.7,3-10,5-16.9
		c3.4,0.1,23.4,0.6,30.6,0.6c-3.8,12-7.9,22.5-11.4,34.6c-2.7,9.4-6.6,24-7.2,29.9c-0.6,5.9-0.4,5.6,0.9,7.3c0.7,0.8,1.8,0.7,3.1,0
		c2.7-1.4,5.8-5.2,7.6-7.7c1.6-2.1,4.3-6.8,5.2-8.7c2.2,0.6,4.2,1.3,6.4,1.7c-1.7,4.1-8.9,15.2-10.8,17.3
		c-5.8,6.7-12.2,13.3-21.2,15.5c-7.6,1.8-16.2,0-22-5.2c-1.1-1-3.3-4.7-4.7-4.6c-1.3,0.1-3.3,1.6-4.4,2.3c-2.8,1.8-5.6,3.7-8.7,5.1
		c-6.4,2.8-13.2,4.1-20.2,4.5C439.6,200.6,431.7,200.5,425,198.3z"/>
</g>
</svg>
