<?xml version="1.0" encoding="utf-8"?>
<!-- Generator: Adobe Illustrator 24.1.1, SVG Export Plug-In . SVG Version: 6.00 Build 0)  -->
<svg version="1.1" xmlns="http://www.w3.org/2000/svg" xmlns:xlink="http://www.w3.org/1999/xlink" x="0px" y="0px"
	 viewBox="0 0 498.9 123.4" style="enable-background:new 0 0 498.9 123.4;" xml:space="preserve">
<style type="text/css">
	.st0{clip-path:url(#SVGID_2_);fill-rule:evenodd;clip-rule:evenodd;fill:#E6342B;}
	.st1{fill-rule:evenodd;clip-rule:evenodd;fill:#FDFDFC;}
	.st2{fill:#005A92;}
	.st3{clip-path:url(#SVGID_4_);}
</style>
<g id="Vrstva_2">
</g>
<g id="Vrstva_1">
	<g>
		<defs>
			<rect id="SVGID_1_" x="31.3" y="9.6" width="425" height="100"/>
		</defs>
		<clipPath id="SVGID_2_">
			<use xlink:href="#SVGID_1_"  style="overflow:visible;"/>
		</clipPath>
		<path class="st0" d="M103.3,16.1l0,59.4l-0.4,3.6l-0.7,3.5c-3.6,13.9-15.2,24.4-29.4,26.6l-3.6,0.4h-3.7
			c-15.7-0.8-29.1-11.8-33-27l-0.7-3.5l-0.4-3.6l0-59.4"/>
	</g>
	<path class="st1" d="M52.3,45.8l7.8,43.6H44.6l3.9-21.8 M67.9,45.8l-7.8,43.6h15.5l-3.9-21.8L67.9,45.8z M83.4,45.8l3.9,21.8
		l3.9,21.8H75.6l3.9-21.8L83.4,45.8z M41.4,26.1c1.9,0,3.5,1.6,3.5,3.5s-1.6,3.5-3.5,3.5c-1.9,0-3.5-1.6-3.5-3.5
		S39.4,26.1,41.4,26.1 M92.9,26.1c1.9,0,3.5,1.6,3.5,3.5s-1.6,3.5-3.5,3.5c-1.9,0-3.5-1.6-3.5-3.5S90.9,26.1,92.9,26.1 M80,26.1
		c1.9,0,3.5,1.6,3.5,3.5s-1.6,3.5-3.5,3.5c-1.9,0-3.5-1.6-3.5-3.5S78.1,26.1,80,26.1 M67.1,26.1c1.9,0,3.5,1.6,3.5,3.5
		s-1.6,3.5-3.5,3.5c-1.9,0-3.5-1.6-3.5-3.5S65.2,26.1,67.1,26.1 M54.2,26.1c1.9,0,3.5,1.6,3.5,3.5s-1.6,3.5-3.5,3.5
		c-1.9,0-3.5-1.6-3.5-3.5S52.3,26.1,54.2,26.1 M98.6,38.6H36v35.1l0,1.6c0.7,14.8,11.9,27.1,26.5,29.3l3.1,0.3l1.6,0
		c15.4,0,28.6-11.4,30.9-26.6l0.3-3.1l0-1.6V38.6z M36,36.6h62.6V20.8H36V36.6z M100.6,18.8v54.9c0,18.3-15,33.3-33.3,33.3
		S34,92.1,34,73.7V18.8H100.6z"/>
	<g>
		<path class="st2" d="M119.6,45.3l4.8-5.7c3.1,2.4,6.5,3.7,10,3.7c2.3,0,3.5-0.8,3.5-2.1v-0.1c0-1.3-1-2-5.2-3
			c-6.6-1.5-11.7-3.4-11.7-9.7v-0.1c0-5.7,4.6-9.9,12-9.9c5.3,0,9.4,1.4,12.7,4.1l-4.3,6.1c-2.8-2-5.9-3.1-8.7-3.1
			c-2.1,0-3.1,0.9-3.1,2v0.1c0,1.4,1.1,2,5.4,3c7.1,1.5,11.5,3.8,11.5,9.6v0.1c0,6.3-5,10.1-12.5,10.1
			C128.7,50.4,123.5,48.7,119.6,45.3z"/>
		<path class="st2" d="M157.5,26.4h-9.3v-7.5h27.2v7.5h-9.3v23.4h-8.6V26.4z"/>
		<path class="st2" d="M185.9,18.7h8.3l13.2,31.2h-9.2l-2.3-5.5H184l-2.2,5.5h-9L185.9,18.7z M193.4,37.7l-3.4-8.8l-3.5,8.8H193.4z"
			/>
		<path class="st2" d="M210.4,18.9H225c4.7,0,8,1.2,10.1,3.4c1.8,1.8,2.7,4.2,2.7,7.2v0.1c0,4.7-2.5,7.9-6.4,9.5l7.4,10.8h-9.9
			l-6.2-9.4H219v9.4h-8.6V18.9z M224.6,33.8c2.9,0,4.6-1.4,4.6-3.7V30c0-2.4-1.8-3.7-4.6-3.7H219v7.4H224.6z"/>
		<path class="st2" d="M241.1,34.5L241.1,34.5c0-9,7.2-16.2,16.7-16.2s16.6,7.1,16.6,16v0.1c0,8.9-7.2,16.1-16.7,16.1
			C248.2,50.5,241.1,43.4,241.1,34.5z M265.7,34.5L265.7,34.5c0-4.6-3.2-8.4-8-8.4c-4.7,0-7.8,3.8-7.8,8.3v0.1
			c0,4.5,3.2,8.4,7.9,8.4C262.6,42.8,265.7,39,265.7,34.5z"/>
		<path class="st2" d="M278.9,18.9h15.9c3.9,0,6.6,1,8.4,2.8c1.2,1.2,2,2.9,2,5v0.1c0,3.6-2,5.7-4.8,6.9c3.8,1.2,6.1,3.4,6.1,7.6
			v0.1c0,5.3-4.3,8.5-11.7,8.5h-16V18.9z M292.7,31.3c2.6,0,4.1-0.9,4.1-2.7v-0.1c0-1.7-1.3-2.7-3.9-2.7h-5.6v5.4H292.7z M293.9,43
			c2.6,0,4.1-1,4.1-2.8v-0.1c0-1.7-1.3-2.8-4.2-2.8h-6.5V43H293.9z"/>
		<path class="st2" d="M310.5,18.9h24.9v7.3H319v4.7h14.9v6.8H319v4.9h16.6v7.3h-25.1V18.9z M326.8,16.8h-7.5l-5.4-6.6h5.7l3.5,2.3
			l3.5-2.3h5.7L326.8,16.8z"/>
		<path class="st2" d="M340.1,18.9h8.6v23.4h15v7.5h-23.6V18.9z"/>
		<path class="st2" d="M364.9,45.3l4.8-5.7c3.1,2.4,6.5,3.7,10,3.7c2.3,0,3.5-0.8,3.5-2.1v-0.1c0-1.3-1-2-5.2-3
			c-6.6-1.5-11.7-3.4-11.7-9.7v-0.1c0-5.7,4.6-9.9,12-9.9c5.3,0,9.4,1.4,12.7,4.1l-4.3,6.1c-2.8-2-5.9-3.1-8.7-3.1
			c-2.1,0-3.1,0.9-3.1,2v0.1c0,1.4,1.1,2,5.4,3c7.1,1.5,11.5,3.8,11.5,9.6v0.1c0,6.3-5,10.1-12.5,10.1
			C374,50.4,368.8,48.7,364.9,45.3z"/>
		<path class="st2" d="M396.1,18.9h8.6v12.6l10.7-12.6h10.2l-11.7,13.3l12.1,17.6h-10.3l-7.8-11.5l-3.1,3.5v8h-8.6V18.9z"/>
	</g>
	<g>
		<defs>
			<rect id="SVGID_3_" x="31.3" y="9.6" width="425" height="100"/>
		</defs>
		<clipPath id="SVGID_4_">
			<use xlink:href="#SVGID_3_"  style="overflow:visible;"/>
		</clipPath>
		<g class="st3">
			<path class="st2" d="M435.9,38.3l-11.8-19.4h9.8l6.4,11.3l6.4-11.3h9.6l-11.8,19.2v11.7h-8.6V38.3z M441.7,9.6l8,2.4l-6.5,4.7
				h-6.2L441.7,9.6z"/>
		</g>
	</g>
	<g>
		<path class="st2" d="M121,83.4L136.5,66h-15v-7.3h26.8V65l-15.5,17.5h15.5v7.3H121V83.4z"/>
		<path class="st2" d="M152.9,58.7h13.3c7.8,0,12.9,4,12.9,10.9v0.1c0,7.3-5.6,11.1-13.3,11.1h-4.2v8.8h-8.6V58.7z M165.5,74.1
			c3.1,0,4.9-1.6,4.9-4V70c0-2.7-1.9-4.1-5-4.1h-4v8.2H165.5z"/>
		<path class="st2" d="M182.6,58.7h14.6c4.7,0,8,1.2,10.1,3.4c1.8,1.8,2.7,4.2,2.7,7.2v0.1c0,4.7-2.5,7.9-6.4,9.5l7.4,10.8h-9.9
			l-6.2-9.4h-3.8v9.4h-8.6V58.7z M196.8,73.6c2.9,0,4.6-1.4,4.6-3.7v-0.1c0-2.4-1.8-3.7-4.6-3.7h-5.6v7.4H196.8z"/>
		<path class="st2" d="M224.6,58.5h8.3L246,89.7h-9.2l-2.3-5.5h-11.9l-2.2,5.5h-9L224.6,58.5z M232.1,77.5l-3.4-8.8l-3.5,8.8H232.1z
			"/>
		<path class="st2" d="M242.1,58.7h9.6l7,19.6l7-19.6h9.4l-12.6,31.2h-8L242.1,58.7z"/>
		<path class="st2" d="M275.2,74.3L275.2,74.3c0-9,7.2-16.2,16.7-16.2s16.6,7.1,16.6,16v0.1c0,8.9-7.2,16.1-16.7,16.1
			C282.2,90.3,275.2,83.2,275.2,74.3z M299.7,74.3L299.7,74.3c0-4.6-3.2-8.4-8-8.4c-4.7,0-7.8,3.8-7.8,8.3v0.1
			c0,4.5,3.2,8.4,7.9,8.4C296.6,82.6,299.7,78.8,299.7,74.3z"/>
		<path class="st2" d="M313,58.7h11.9c11.1,0,17.5,6.4,17.5,15.3v0.1c0,8.9-6.5,15.6-17.6,15.6H313V58.7z M325,82.1
			c5.1,0,8.5-2.8,8.5-7.8v-0.1c0-5-3.4-7.8-8.5-7.8h-3.5v15.7H325z"/>
		<path class="st2" d="M355.3,58.5h8.3l13.2,31.2h-9.2l-2.3-5.5h-11.9l-2.2,5.5h-9L355.3,58.5z M362.8,77.5l-3.4-8.8l-3.5,8.8H362.8
			z"/>
		<path class="st2" d="M377.2,85l5.5-5.2c1.5,1.8,2.9,2.9,4.8,2.9c2.2,0,3.5-1.5,3.5-4.3V58.7h8.5v19.6c0,3.9-1,6.6-3.1,8.7
			c-2,2-5,3.1-8.5,3.1C382.6,90.2,379.3,88,377.2,85z"/>
	</g>
</g>
</svg>
