<?xml version="1.0" encoding="utf-8"?>
<!-- Generator: Adobe Illustrator 24.1.1, SVG Export Plug-In . SVG Version: 6.00 Build 0)  -->
<svg version="1.1" id="Vrstva_1" xmlns="http://www.w3.org/2000/svg" xmlns:xlink="http://www.w3.org/1999/xlink" x="0px" y="0px"
	 viewBox="0 0 92.1 92.1" style="enable-background:new 0 0 92.1 92.1;" xml:space="preserve">
<style type="text/css">
	.st0{fill:#FFFFFF;}
</style>
<g>
	<path d="M46.1,4.9C23.4,4.9,4.9,23.3,4.9,46.1c0,22.7,18.4,41.2,41.2,41.2c22.7,0,41.2-18.5,41.2-41.2S68.8,4.9,46.1,4.9z
		 M44.8,10.9c5,0,9.5,1.8,13,4.5v9.4c-3.3-3.7-7.7-5.5-11.8-5.5c-5.2,0-9.7,3.1-9.7,7.9c0,1,0.2,2,0.5,2.8c-3.8,2.3-6.8,6-8,10.3
		c-2.7-3.1-4.6-7-4.6-11.8C24.2,18.1,33.7,10.9,44.8,10.9z M74.3,37.5H60.6c1.2,2.2,1.8,4.6,1.8,7.3v0.7c-2.4-2-5.3-4-8.8-6
		c-1.7-2.6-4.5-4.4-7.5-4.4c-4.9,0-9.1,4.3-9.1,9.7c0,5.4,4.2,9.7,9.1,9.7c0.4,0,0.8,0,1.2-0.1c2.5,1.4,4.7,2.8,6.3,4.4
		c-2.3,1.1-4.8,1.8-7.5,1.8c-3,0-5.8-0.8-8.2-2.1c-0.3-0.2-0.6-0.3-0.9-0.5l-3.9,4c3.2,5.8,9,10.4,14.9,10.4c5.4,0,9.5-2.7,9.5-8.1
		c0-7.3-8.7-10.5-16.7-14.9c-0.5-0.3-1.2-0.7-1.7-1.1c-0.4-1-0.7-2.2-0.7-3.3c0-4,2.8-7.4,6.3-8.1c2.2,1,4.7,2.1,7.1,3.5
		c13.3,7.4,17.8,14.2,17.8,22.1C69.7,74.3,59.5,81,49.2,81c-9.3,0-17.6-6.4-21.1-14l-0.2,0.2v7.9h-7.3V50.9h7.3v7.9l4.7-4.9
		c-1.9-2.6-2.9-5.7-2.9-9.1C29.7,36.1,37,29,46.1,29c5.5,0,10.4,2.6,13.3,6.6V13.3h7.3v18.8h7.6V37.5z"/>
	<path d="M46.1,0C20.6,0,0,20.6,0,46.1c0,25.4,20.6,46,46,46.1c25.5,0,46.1-20.7,46.1-46.1C92.1,20.6,71.5,0,46.1,0z M46.1,89.7
		C22,89.7,2.4,70.2,2.4,46.1S22,2.4,46.1,2.4c24.1,0,43.6,19.6,43.6,43.7S70.2,89.7,46.1,89.7z"/>
	<path class="st0" d="M36.8,30c-0.3-0.8-0.5-1.8-0.5-2.8c0-4.8,4.5-7.9,9.7-7.9c4.1,0,8.5,1.8,11.8,5.5v-9.4c-3.5-2.7-8-4.5-13-4.5
		c-11.1,0-20.6,7.2-20.6,17.6c0,4.8,1.9,8.7,4.6,11.8C30,36,33,32.3,36.8,30z"/>
	<path class="st0" d="M46.1,2.4C22,2.4,2.4,22,2.4,46.1S22,89.7,46.1,89.7c24.1,0,43.6-19.5,43.6-43.6S70.2,2.4,46.1,2.4z
		 M46.1,87.3c-22.8,0-41.2-18.5-41.2-41.2c0-22.8,18.5-41.2,41.2-41.2c22.7,0,41.2,18.5,41.2,41.2S68.8,87.3,46.1,87.3z"/>
	<path class="st0" d="M27.9,67.3l0.2-0.2c-0.1-0.1-0.1-0.3-0.2-0.4V67.3z"/>
	<path class="st0" d="M74.3,32.1h-7.6V13.3h-7.3v22.3c-2.9-4-7.8-6.6-13.3-6.6c-9.1,0-16.4,7.1-16.4,15.8c0,3.4,1.1,6.5,2.9,9.1
		l-4.7,4.9v-7.9h-7.3v24.3h7.3v-7.9v-0.7c0.1,0.1,0.1,0.3,0.2,0.4c3.5,7.5,11.8,14,21.1,14c10.3,0,20.5-6.7,20.4-18.6
		c0-7.9-4.5-14.7-17.8-22.1c-2.4-1.4-4.9-2.5-7.1-3.5c-3.5,0.7-6.3,4.1-6.3,8.1c0,1.1,0.3,2.3,0.7,3.3c0.5,0.4,1.2,0.8,1.7,1.1
		c8,4.4,16.7,7.6,16.7,14.9c0,5.4-4.1,8.1-9.5,8.1c-5.9,0-11.7-4.5-14.9-10.4l3.9-4c0.3,0.2,0.6,0.4,0.9,0.5
		c2.4,1.3,5.2,2.1,8.2,2.1c2.7,0,5.2-0.7,7.5-1.8c-1.6-1.6-3.8-3-6.3-4.4c-0.4,0.1-0.8,0.1-1.2,0.1c-4.9,0-9.1-4.3-9.1-9.7
		c0-5.4,4.2-9.7,9.1-9.7c3,0,5.8,1.8,7.5,4.4c3.5,2,6.4,4,8.8,6v-0.7c0-2.7-0.6-5.1-1.8-7.3h13.7V32.1z"/>
</g>
</svg>
