<?xml version="1.0" standalone="no"?>
<!DOCTYPE svg PUBLIC "-//W3C//DTD SVG 20010904//EN"
 "http://www.w3.org/TR/2001/REC-SVG-20010904/DTD/svg10.dtd">
<svg version="1.0" xmlns="http://www.w3.org/2000/svg"
 width="1207.000000pt" height="849.000000pt" viewBox="0 0 1207.000000 849.000000"
 preserveAspectRatio="xMidYMid meet">

<g transform="translate(0.000000,849.000000) scale(0.100000,-0.100000)"
fill="#000000" stroke="none">
<path d="M7047 7634 c-160 -34 -322 -111 -464 -220 -143 -110 -297 -295 -364
-439 -23 -49 -35 -64 -48 -61 -122 36 -364 54 -511 37 -402 -46 -773 -195
-1303 -525 -358 -223 -512 -292 -1107 -496 -471 -161 -646 -230 -861 -337
-597 -295 -927 -703 -1073 -1323 -37 -156 -53 -281 -86 -667 -36 -408 -50
-515 -91 -680 -52 -215 -104 -318 -215 -433 -133 -138 -175 -235 -177 -405 -1
-185 29 -226 123 -165 66 42 175 161 223 241 53 91 97 233 102 333 3 76 7 88
60 188 110 210 167 440 207 828 l12 125 14 -50 c7 -27 52 -171 99 -320 147
-465 159 -524 150 -728 -11 -232 -69 -468 -251 -1025 -153 -466 -164 -546 -87
-623 73 -74 264 -109 591 -109 412 0 545 29 565 121 10 45 -20 129 -76 215
-29 43 -58 93 -65 111 -21 50 -17 166 10 278 74 305 157 475 371 760 68 90
140 192 161 226 l39 62 10 -75 c11 -82 31 -120 74 -143 40 -20 292 -84 361
-91 65 -7 84 4 229 129 50 42 95 77 100 77 5 0 12 -8 16 -19 3 -10 14 -26 25
-36 19 -17 22 -15 112 69 51 47 96 85 102 83 5 -2 16 -21 25 -42 27 -66 51
-105 64 -105 6 1 68 52 137 115 69 63 128 115 133 115 4 0 7 -9 7 -21 0 -46
22 -109 39 -109 20 0 162 82 180 104 7 8 19 57 26 108 17 122 23 143 54 203
l26 50 6 -115 c11 -184 41 -291 203 -717 133 -350 130 -463 -19 -898 -116
-339 -110 -365 94 -419 143 -38 380 -53 613 -38 380 25 407 58 278 347 -94
212 -98 276 -39 585 30 157 32 181 39 515 4 193 11 361 15 375 3 14 11 45 17
70 17 69 64 146 120 193 61 50 173 185 220 261 18 31 37 56 42 56 4 0 6 -27 4
-60 -2 -33 0 -60 4 -60 17 0 206 198 263 275 61 83 146 219 185 294 28 57 85
214 95 266 l8 40 11 -49 c6 -28 19 -54 29 -60 16 -9 25 -4 59 34 66 74 138
242 138 324 0 53 13 60 47 23 17 -17 47 -58 67 -90 36 -57 36 -57 64 -43 93
48 195 272 218 478 8 67 11 68 96 39 117 -40 163 -76 254 -198 46 -62 63 -77
117 -101 35 -16 73 -42 86 -58 31 -40 162 -175 247 -255 221 -207 532 -404
796 -505 129 -49 334 -101 452 -115 140 -16 406 -6 519 20 214 49 374 140 547
311 194 192 315 404 404 711 64 223 79 506 37 706 -54 260 -155 450 -321 607
-110 103 -217 154 -234 111 -3 -9 20 -53 55 -106 133 -198 197 -394 206 -629
6 -170 -8 -272 -62 -439 -128 -396 -405 -685 -735 -767 -120 -30 -343 -26
-480 8 -226 57 -445 176 -609 332 -61 59 -161 177 -161 191 0 4 19 -8 43 -25
190 -144 420 -270 606 -335 157 -54 265 -68 455 -61 163 6 215 18 129 30 -64
9 -150 30 -318 78 -173 50 -239 75 -381 143 l-111 52 -7 89 c-38 471 -162 850
-408 1241 -133 211 -160 275 -209 491 -51 230 -79 281 -259 467 -163 169 -176
193 -255 448 -20 65 -62 169 -93 230 -100 198 -243 317 -440 368 -93 24 -311
25 -415 3z"/>
<path d="M11212 5867 c-9 -10 -7 -21 9 -48 59 -102 114 -232 141 -337 29 -109
31 -130 32 -297 1 -139 -3 -199 -17 -265 -39 -182 -115 -364 -227 -542 -37
-60 -71 -130 -89 -186 -59 -180 -194 -407 -328 -552 -36 -39 -63 -73 -61 -75
7 -8 107 29 184 68 386 194 667 576 760 1032 29 137 26 481 -4 622 -41 188
-110 347 -202 460 -77 95 -171 153 -198 120z"/>
<path d="M8250 3853 c0 -4 7 -46 15 -93 9 -47 18 -178 22 -291 11 -367 -31
-611 -143 -829 -106 -207 -247 -315 -382 -295 -114 17 -152 61 -152 177 0 68
-2 76 -27 100 -38 36 -147 71 -197 65 -66 -9 -80 -33 -79 -129 4 -341 281
-608 630 -608 219 0 398 77 561 242 164 166 304 417 404 723 35 108 104 372
113 435 l6 45 -73 29 c-214 86 -473 244 -655 401 -24 20 -43 33 -43 28z"/>
<path d="M6736 3354 c-125 -189 -348 -406 -552 -536 -150 -97 -171 -132 -201
-337 l-17 -120 50 -98 c28 -54 78 -150 111 -214 41 -78 64 -138 73 -184 26
-136 -5 -321 -91 -547 -57 -148 -66 -196 -49 -238 24 -57 140 -105 340 -139
247 -43 555 -46 615 -7 49 32 46 100 -11 259 -83 231 -88 276 -47 454 25 107
27 136 27 318 0 222 -4 256 -79 555 -77 311 -100 448 -118 719 l-12 174 -39
-59z"/>
<path d="M3659 2244 c-92 -73 -148 -103 -193 -104 -55 0 -277 50 -391 89
l-115 39 -26 -21 c-37 -29 -119 -157 -139 -217 -14 -41 -15 -74 -10 -202 8
-169 -9 -390 -46 -603 -25 -146 -22 -215 12 -251 68 -75 207 -98 569 -97 353
1 492 18 525 66 33 48 9 144 -66 268 -130 212 -149 271 -149 473 0 157 18 275
65 429 33 110 55 197 51 197 -2 0 -41 -30 -87 -66z"/>
</g>
</svg>
