<?xml version="1.0" encoding="utf-8"?>
<!-- Generator: Adobe Illustrator 24.1.1, SVG Export Plug-In . SVG Version: 6.00 Build 0)  -->
<svg version="1.1" id="Vrstva_1" xmlns="http://www.w3.org/2000/svg" xmlns:xlink="http://www.w3.org/1999/xlink" x="0px" y="0px"
	 viewBox="0 0 458.4 263" style="enable-background:new 0 0 458.4 263;" xml:space="preserve">
<g>
	<g>
		<path d="M439.9,57.2c-0.5-0.7-1.5-1.2-2.3-1.6c-0.5-0.3-1.2-0.2-1.7-0.5c-3.7-1.9-7.7-2.6-11.8-2.5c-1.3,0-2.8,0.3-3.4-1.5
			c-0.1-0.3-0.6-0.5-0.9-0.6c-2.6-0.7-5.2-1.5-7.9-1.9c-1.7-0.3-3.6-0.1-5.6-0.1c2.5-3.2,2.1-4.2-1.7-4.7c-0.4,0-0.7-0.1-1.1-0.1
			c-2.9,0-5.8,0-8.6,0c0.1-0.1,0.3-0.4,0.5-0.8c0.9-1.9,0.7-2.5-1.3-2.9c-1.5-0.3-3.1-0.1-4.6,0.1c-1.2,0.1-2.4,0.6-4,1.1
			c0.4-0.9,0.6-1.3,0.8-1.7c1-1.9,0.7-3-1.5-3.3c-1.5-0.2-3.2,0.1-4.7,0.4c-1.3,0.3-2.5,1-4,1.6c0.6-1.6,1-2.8,1.3-4
			c0.5-1.9-1.2-3.6-3-2.9c-1.8,0.8-3.5,1.9-5.3,2.9c-0.4,0.2-0.8,0.6-1.4,1c1.4-5.1,1.4-5.3,0.4-6.1c-1.6-1.3-3.3-1.2-5.6,0.1
			c-0.8-2.5-1.8-3-3.6-1.8c-0.7,0.5-1.3,1.2-2,1.8c-0.5,0.5-1,0.9-1.7,1.5c-0.3-2,1.6-4-0.7-5.2c-2.6-1.5-3.5,1.3-5.2,2.4
			c-0.1-0.3-0.1-0.5-0.2-0.6c-0.5-0.9-0.9-1.9-1.3-2.9c-1.1,0.5-2.2,0.9-3.2,1.6c-1.2,0.9-2.3,1.9-3.3,2.8c-0.1-1.7-0.1-3.4-0.3-5
			s-1.7-2.4-3.1-1.5c-0.9,0.6-1.6,1.5-2.4,2.3c-0.5,0.5-0.8,1.1-1.4,2c-0.1-1.3-0.2-2.1-0.3-2.9c-0.2-1.3-0.7-2.4-2.2-2.7
			c-1.5-0.3-2.3,0.6-2.9,1.8c-0.4,0.8-0.9,1.5-1.4,2.4c-0.7-1.4-1.3-2.6-2-3.7c-1-1.5-2-1.7-3.2-0.3c-1,1.2-1.6,2.7-2.3,3.9
			c-1.4-1.2-2.9-2.7-4.5-3.9c-0.7-0.4-2-0.7-2.6-0.4c-0.6,0.4-1,1.5-1.1,2.4c-0.1,1.4,0,2.9,0,4.3c-2.2-1.4-4.1-2.9-6.2-4
			c-0.7-0.4-2.6-0.4-2.7-0.1c-0.4,1-0.3,2.3-0.3,3.4c0,0.5,0.3,1.1,0.5,1.6c-2-0.9-3.6-2-5.2-3c-1.5-1-2.9-0.4-2.7,1.4
			c0.2,1.6,1,3.2,1.6,4.8c0.2,0.5,0.4,1,0.6,1.5c-2.5-1.2-4.6-2.7-6.8-3.9c-1.3-0.6-2.9-1-4.3-1c-1.1,0-2.1,0.9-1.5,2.4
			c0.2,0.5,0.2,1,0.4,1.7c-0.9-0.3-1.6-0.4-2.3-0.6c-1.5-0.3-3-0.8-4.5-0.9c-1.6,0-2.4,1.8-1.5,3.1c0.5,0.6,1,1.2,1.5,1.7
			c-3-1.9-6.3-2.2-9.6-2.5c-2-0.2-2.9,0.4-3.6,2.2c-0.2,0.4-1.2,0.8-1.6,0.6c-1.4-0.7-2.7-0.2-3.6,0.7c-0.5,0.5-0.4,1.8-0.5,2.7
			c0,0,0.1,0,0.1,0c0.8,1,1.4,2.2,2.4,2.9c0.8,0.6,2,0.7,2.9,1.1c1.2,0.5,2.2,1.2,3.3,1.8c0,0.1-0.1,0.1-0.1,0.2
			c-4.1-1.2-8.2-2.4-12.3-3.6c0.1-0.1,0.1-0.3,0.1-0.4c1.3,0,2.5,0,3.9,0c-2.3-1.7-5.8-1.2-7.7,0.6c1-0.8,2,0.4,3,0.6
			c1.9,0.3,3.7,0.8,5.5,1.5c3.7,1.4,7.6,2.3,10.5,5.2c0.2,0.2,0.2,0.4,0.1,1c-0.8-0.3-1.7-0.6-2.5-1.1c-4.1-2.5-8.5-4-13.1-4.9
			c-1.5-0.3-3-0.2-4-1.6c-0.1-0.1-0.2-0.1-0.3-0.1l-0.1,0.1c0.9,1.2,1.7,2.5,2.7,3.9c-1.1-0.2-2.2-0.4-3.3-0.6
			c-2.6-0.4-5.1-0.7-7.6,0.3c-1.7,0.7-2.2,2.4-1,3.5c0.5,0.5,1.3,1,1.5,1.6c0.3,1.1,1.1,1.1,1.8,1.3c2,0.4,3.9,0.6,5.8,1.1
			c2.5,0.7,4.9,1.6,7.3,2.5c0,0.1-0.1,0.3-0.1,0.4c-7.3-1.7-14.6-3.8-22.3-2.5c0-0.2,0-0.4,0-0.6c2.2-0.6,4.3-1.1,6.5-1.6
			c-2.6,0.1-5.2,0.3-7.8,0.8c-0.5,0.1-1,0.9-1.1,1.5c-0.1,0.8,2.8,3.3,3.7,3.5c2.4,0.4,4.7,0.9,7,1.5c0.3,0.1,0.5,0.5,0.8,0.7
			c0,0.2-0.1,0.4-0.1,0.6c-5.4-0.7-10.8-2.4-16.7-0.6c5.7,3.1,11.7,3.4,17.4,5.1c-3.3,0.1-6.6,0.1-9.8-0.6c-2.7-0.6-5.4-1.9-8-3
			c-0.6-0.2-1.1-0.9-1.7-1.3c0.6-0.3,1.3-0.7,1.9-1c-0.9-0.1-1.8-0.2-3-0.3c0.4,1.2,0.6,2,0.8,2.6c-2.4-0.5-4.7-0.9-7-1.5
			c-3.5-0.8-6.9-1.2-10.4-0.9c-0.5,0.1-1.2-0.1-1.5-0.4c-1.3-1.5-2.5-3.2-3.7-4.8c-2-2.8-3.5-6.1-7.4-7c-0.2-0.1-0.4-0.5-0.6-0.8
			c-0.8-1-1.7-1.9-2.5-2.9c-0.2,0.1-0.3,0.3-0.5,0.4c1.8,3,3.7,6,5.5,9c0.2-0.1,0.3-0.2,0.5-0.3c-0.5-1.2-1-2.3-1.5-3.4
			c0.3-0.2,0.5-0.3,0.7-0.4c0.7,0.8,1.4,1.7,2.2,2.4c2.6,2.1,2.8,6,6,7.9c1.4,0.9,2,3.2,2.7,5c0.7,1.5,1,3.2,1.4,4.8
			c0.2,0,0.3,0,0.4,0c0.1-0.6,0.3-1.2,0.5-2.1c0.5,0.6,0.9,1,1.2,1.4c2.4,3,2.8,6.6,3,10.3c0.1,1.8,0.4,3.3,1.6,4.6
			c0.5,0.5,0.7,1.4,1.1,2.2c-0.2,0.2-0.3,0.3-0.5,0.5c-0.8-0.5-2-0.9-2.4-1.7c-1.4-3.2-2.6-6.5-4-9.8c-0.8-1.7-1.7-3.4-2.7-5
			c-0.5-0.6-1.4-1.4-2.1-1.4c-1.6,0-1,1.5-1.2,2.5c0,0.1-0.1,0.1-0.2,0.2c-0.6-0.5-1.3-0.9-2.4-1.5c0.4,1,0.6,1.6,0.9,2.1
			c0.2,0.4,0.6,0.5,0.9,0.8c0.7,0.7,0.5,3.7-0.2,3.6c-1.3-0.1-1.5,1-2.2,1.4c0.7,0.7,0.7,2.4,2.4,2.1c0.1,0,0.4,0.6,0.4,0.9
			c0.1,1.5,0.2,2.9,0.3,4.4c-2.6-1-4.5-4.8-3.6-7.3c0-0.1,0.3-0.1,0.5-0.1c-1.9-2.2-2.8-4.6-2.1-7.5c0.2-0.8,0.8-1.5,1.2-2.2
			c0.2,0.1,0.4,0.1,0.6,0.2c-0.3-1.5-0.5-3-0.8-4.5c-0.2,0-0.4,0.1-0.6,0.1c0,0.9,0,1.7-0.1,2.8c-0.7-0.4-1.1-0.7-1.4-0.9
			c0.2,1.5,0.3,3.1,0.5,5c-1.2-2.5-2.2-4.6-3.4-7.1c-0.7,1.5-2.5,1.5-3,0.4c-0.5-1-0.7-2.1-0.7-3.2c0-1.6-0.3-2.5-1.5-3.1
			c0,0.5,0,1,0.1,1.5c0.3,1.7,0,3.8,0.9,4.9c1.1,1.4,1.3,2.7,1.4,4.4c0.2-1.2,0.5-2.2,0.7-3.2c0.3-0.1,0.5-0.1,0.7-0.2
			c1.1,2.1,2.1,4.1,3.4,6.5c-1.4,0.1-2.3,0.2-3.4,0.3c0.1,0.3,0.2,0.8,0.3,1.3c-2.7-0.7-4.7-5-3.5-7.4c-0.3-0.2-0.8-0.2-0.9-0.5
			c-0.4-0.8-0.3-1.9-0.9-2.4c-0.6-0.5-2-0.1-2.4-0.6c-0.8-1.1-1.2-2.4-1.7-3.7c-0.3-0.5-0.4-1.1-0.8-2.1c-0.3,1-0.4,1.3-0.6,2
			c-1-1.1-1.8-2-2.7-2.9c-0.8-0.9-1.6-1.7-2.5-2.4c-2.1-1.8-4.2-3.5-6.3-5.2c-0.1-0.1-0.3-0.3-0.3-0.4c0.4-2.2-1.4-2.9-2.6-4.1
			c-1.2-1.1-2.1-2.4-3.2-3.6c-1.1-1.2-2.2-2.5-3.3-3.7c-0.2,0.2-0.4,0.4-0.6,0.6c2.3,2.5,4.5,5.1,6.8,7.6
			c-5.7-2.1-8.5-7.6-13.3-10.7c-0.3,0.2-0.5,0.5-0.8,0.8c1.6,1,3.1,2.1,4.6,3.2c-0.2,0.2-0.3,0.4-0.5,0.6c-4.4-2.6-9.1-4.7-12.8-8.4
			c0.1-0.3,0.2-0.5,0.3-0.7c2.3,0.7,4.5,1.4,6.7,2.1c0-0.1,0.1-0.2,0.1-0.3c-0.7-0.5-1.3-1-2-1.5c0-0.1,0.1-0.2,0.2-0.3
			c2.9,2.1,5.8,4.2,8.7,6.3c0.1-0.1,0.2-0.3,0.3-0.4c-2.6-2.1-5.2-4.3-7.8-6.4c-0.1-0.1-0.2-0.1-0.3-0.2c-2-1-4-1.8-5.9-2.9
			c-1.2-0.6-2.1-1.7-3.1-2.6c0.2-0.2,0.3-0.4,0.4-0.6c3.3,1.2,6.6,2.5,10.2,3.8c-0.7,0.6-0.9,0.9-1.5,1.4c4.9,1,8.4,3.5,11.3,7.2
			c-0.7,0-1.2,0-1.7,0c0.1,0.2,0.1,0.3,0.1,0.3c0.3,0.2,0.5,0.5,0.8,0.5c3.5,0.5,5.6,2.7,7.6,5.3c0.7,0.8,1.7,1.4,2.5,2.1
			c0.2-0.2,0.3-0.3,0.4-0.4c-0.6-1.9-3.5-2.2-4-4.6c1.1,0.1,2,0.1,3.2,0.2c-6.1-2.3-10.7-5.9-14.2-11.1c2.8,0.8,5.5,1.7,8,3
			c3.8,2,7.2,4.7,9.4,8.5c0.3,0.6,1,1.1,1.6,1.6c0.1-0.1,0.2-0.2,0.3-0.3c-1.5-2.1-2.9-4.1-4.6-6.4c4.3,1.4,7.5,3.8,10.1,7.2
			c-1.1-0.3-2.2-0.6-3.3-0.9c-0.1,0.1-0.1,0.1-0.1,0.2c2.3,1.4,4.6,2.7,7.2,4.3c-0.5-1.6-0.7-2.6-1-3.5c-0.8,0.4-1.5,0.7-2.1,1
			c0-0.8,0.2-1.5-0.1-1.8c-2.2-2.7-4.6-5.3-8-6.6c-2.9-1.1-5.7-2.2-8.3-3.9c-2.7-1.8-6-3.1-9.1-3.4c-2.3-0.3-4.3-1-6.3-1.9
			c-0.9-0.4-1.9-0.7-2.8-1.1c-3.4-1.7-7.2-1.5-10.8-2.2c-2-0.4-4-0.8-6-1c-3.1-0.3-6.4-0.1-9.3-0.9c-5.9-1.7-12-1.4-18-2
			c-2.5-0.3-5.1,0.3-7.6,0.3c-6.4,0-12.8-0.2-19.1,0c-2.8,0.1-5.6,0.7-8.4,1.1c8.3,0.4,16.5,0.5,24.7,0.3c2.8-0.1,4.4,1.6,6.9,2.9
			c-1.5,0.1-2.5,0.2-3.6,0.2c0,0.3-0.1,0.5-0.1,0.8c7.5,0.3,14.6,2.2,21.5,4.8c-4.2-0.5-8.4-1.2-12.6-2.1c-1.6-0.4-3.2-1.1-4.9-1.4
			c-1.7-0.4-3.6-0.2-5.3-0.6c-1.2-0.3-2.8-0.6-3.4-2.4c1-0.2,1.7-0.3,2.4-0.4c-1.3-0.3-2.6-0.5-3.9-0.5c-6.6,0-13.3,0.2-19.9,0.2
			c-1.2,0-2.3-0.5-3.8-0.8c-13.9,2.1-28,5.3-42.6,4.6c-0.2,1.9,0.6,2.7,2,2.7c3.1,0,6.2-0.2,9.3-0.5c1.5-0.1,2.9-0.4,4.2,0.8
			c0.7,0.6,1.8,0.9,2.7,0.9c3.3-0.1,6.5-0.2,9.7-0.5c2.9-0.3,5.8-0.7,8.7-1.1c0.8-0.1,1.5-0.1,1.4,1.1c2.1-0.4,4.2-0.7,6.3-1.1
			c2.6-0.4,5.2-0.9,7.8-1.2c5.2-0.5,10.4-1.1,15.7-0.4c1.3,0.1,2.7,0,4,0c0,0.2,0,0.4,0,0.6c-2,0.1-4.1,0.2-6.2,0.4
			c-6.4,0.5-12.7,0.9-19,1.5c-1.7,0.2-3.3,0.8-5,1.1c-1.4,0.2-2.8,0.3-4.2,0.4c-0.3-0.3-0.5-0.6-0.7-0.9c0.5-0.1,0.9-0.3,1.3-0.4
			c-0.7,0.1-1.6,0-3.3,0c-0.4,0.3-1,1.1-0.9,1.5c0.1,0.4,0.9,0.9,1.5,1c1,0.2,2,0,3,0c2.7,0,5.4,0,8.1-0.2c1.8-0.1,3.5-0.5,5.3-0.8
			c0.9-0.1,1.4,0,0.7,1c5.9-2.3,12.1-2.1,18.2-2.3c5.2-0.1,10.4,0.2,15.5,0.7c4.3,0.4,8.5,1.4,12.8,2.1c1,0.2,2.1,0.3,3.3,0.5
			c-0.6,1-1,1.6-2.5,1.2c-4.2-1.1-8.5-1.9-13.1-2.9c0.4,0.6,0.6,0.8,1,1.3c-4.1,1.2-8,2.4-11.9,3.6c0-0.1-0.1-0.3-0.1-0.4
			c3.4-1.3,6.8-2.5,10.2-3.8c0-0.2-0.1-0.3-0.1-0.5c-0.7,0-1.4,0.1-2.1,0c-1.7-0.2-3.3-0.4-5-0.6c-0.4,0-0.8-0.1-1.2-0.1
			c-4.5,0.2-9.1,0.4-13.6,0.7c-3.2,0.2-6.4,0.7-9.6,1c-0.6,0.1-1.2-0.3-1.8-0.4c-0.9,0.3-1.9,0.5-2.7,1c-1.7,1.1-1.7,2.5,0,3.5
			c1,0.6,2.1,0.8,3-0.5c0.2-0.3,1-0.2,1.6-0.2c0,0,0.1,0.2,0.1,0.3c-0.5,0.3-0.9,0.5-1.3,0.7c0,0.1,0,0.3,0,0.4
			c4.2,0.5,8.3,1.1,12.7,1.6c-2.8,0.6-5.5,1.1-8.2,1.7c0-0.1-0.1-0.3-0.1-0.4c0.4-0.3,0.8-0.6,1.2-0.9c-0.1-0.1-0.1-0.3-0.2-0.4
			c-1.4,0.6-3,1-4.3,1.8c-0.7,0.4-1.6,1.5-1.5,2.1c0.2,1,1.1,1.9,1.9,2.6c0.5,0.4,1.4,0.4,2.1,0.4c2.8-0.1,5.5-0.3,8.3-0.4
			c4.2-0.2,8.3-0.5,12.4-0.6c3.4,0,6.7,0.3,10.1,0.3c4.8,0.1,9.6,0,14.4,0.1c2.2,0.1,4.4,0.2,6.4,1.7c-0.8,0.3-1.7,0.4-2.5,0.3
			c-3.3-0.3-6.5-0.6-9.7-0.9c-1.5-0.1-3.1-0.1-4.6-0.2c-0.6,0-1.1-0.2-1.6-0.1c-3.3,0.4-6.6,0.9-9.9,1.3c-4.4,0.5-8.7,1.4-12.6,3.4
			c-0.7,0.3-1.5,0.6-2.3,0.9c-0.7,0.3-1.4,0.5-2.1,0.8c5.8-3.6,12-5.8,18.6-6.8c-1.3,0-2.7,0-4,0.2c-5.5,0.7-10.9,2.2-16,4.4
			c-0.8,0.3-1.7,1.4-1.7,2.1c0.1,0.9,0.8,2.2,1.6,2.6c3,1.7,6.3,2.3,9.7,1.4c0.5-0.2,0.9-0.2,1.4-0.3c3.3-0.5,6.6-1,9.9-1.4
			c1.7-0.2,3.4-0.3,5.1-0.5c-0.4,0.6-0.8,0.8-1.2,1c-3.7,1.3-7.5,2.5-11.1,4c-1.7,0.7-3.3,2-4.6,3.3s-0.6,3.9,0.8,4.4
			c2.4,0.9,4.7,0.6,7.1-0.2c5-1.7,10.2-3,15.3-4.5c0.4-0.1,0.9,0,1.3,0c-1.9,1-3.9,1.7-5.9,2.5c-3.6,1.5-6.3,4-8,7.4
			c-0.8,1.8-0.1,3.6,1.8,4c1.2,0.2,2.7,0.2,4-0.1c2.7-0.6,5.3-1.3,8-2c0.1-0.1,0.2,0.1,0.1,0c-2.1,2.2-4.4,4.3-6.4,6.6
			c-0.6,0.8-0.6,2.4-0.3,3.5c0.2,0.5,1.7,0.8,2.6,1c0.5,0.1,1.1,0,1.6-0.1c1.6-0.3,3.3-0.7,5-1.1c-0.9,1.4-2,2.4-2.9,3.5
			c-1,1.3-1.8,2.8-0.9,4.4c0.9,1.7,2.7,1.8,4.8,0.5c-0.5,0-1-0.1-1.5-0.1c0-0.1-0.1-0.3-0.1-0.4c2.5-0.8,5.1-1.7,7.6-2.6
			c0.1,0.2,0.2,0.5,0.3,0.7c-1.6,0.7-3.3,1.4-4.9,2.1c0.1,0.1,0.1,0.1,0.1,0.2c0.5,0,1-0.1,1.5-0.1c-0.6,1.5-1.1,3-1.7,4.5
			c0.2,0.1,0.3,0.1,0.5,0.2c1.4-0.6,2.8-1.3,4.2-2c0-0.1-0.1-0.2-0.1-0.3c-1.1,0.2-2.1,0.4-3.1,0.6c-0.1-0.2-0.2-0.4-0.3-0.6
			c1-0.9,2.3-1.6,3-2.7c0.8-1.2,1.7-1.6,2.9-1.7c1.3-0.1,2.7,0.3,3.9-0.3c0-0.2-0.1-0.5-0.1-0.7c-1,0-2,0-3,0c0-0.2,0-0.4,0-0.6
			c1.9,0,3.7,0,5.6,0c0-0.2,0-0.4,0-0.6c-1,0-1.9-0.1-2.9-0.2c0.1-0.1,0.1-0.2,0.1-0.3c2.4-0.2,4.8-0.5,7.1-0.8
			c-0.8,1-1.4,2.1-2.3,2.7c-4.4,2.8-8.9,5.4-13.3,8c-0.1,0.1-0.4,0.2-0.4,0.3c0,0.3-0.1,0.7,0,0.8c0.2,0.2,0.6,0.2,0.8,0.1
			c1.3-1,2.5-2.1,3.8-3.1c0.8-0.6,1.5-1.1,2.3-1.6c0.1,0.1,0.2,0.3,0.3,0.4c-1.6,1.5-3.3,2.9-5.3,4.7c1.3-0.1,2.2-0.2,3.5-0.3
			c-0.8,0.5-1.3,0.7-1.4,1c-0.4,2.1-2.4,1.8-3.7,2.5c-1.5,0.8-3.1,1.5-4.6,2.3c0.1,0.3,0.2,0.5,0.3,0.7c0.4-0.1,0.8-0.1,1.2-0.3
			c2.3-1.1,4.6-2.2,6.9-3.3c0.2-0.1,0.6-0.3,0.6-0.4c-0.6-1.7,1-1.4,1.7-1.8c1.4-0.7,2.9-1.2,4.3-1.8c0.1-0.1,0.3-0.2,0.5-0.3
			c-0.4-0.1-0.8-0.2-1.3-0.3c1-0.8,1.9-1.5,2.8-2c0.4-0.2,0.9-0.2,1.4-0.1c0.6,0.1,1.2,0.6,1.7,0.4c1.5-0.5,2.9-1.2,4.4-1.8
			c0.2,0.2,0.7,0.6,1,0.8c-1.4,0.6-2.7,1.2-4.1,1.7c-0.6,0.3-1.7,0-1.3,1.3c0.3,1,1,1,2,0.7c1.5-0.5,3.1-0.7,4.5-1
			c-0.6,0.7-1.2,1.2-1.8,1.8c-1.1,1.1-2.1,2.5-3.4,3.3c-2.3,1.5-5,2.4-7.4,3.9c-6,3.9-11.9,7.8-17.7,11.9c-3.9,2.8-7.8,5.6-8.9,10.7
			c-0.2,0.8-1.1,1.5-1.7,2.2c-0.2-0.1-0.3-0.3-0.5-0.4c0.6-1.3,1.3-2.5,1.9-3.8c-0.2-0.1-0.5-0.3-0.7-0.4c-0.8,0.9-1.7,1.8-2.6,2.8
			c-1.4-0.6-1.9,0.8-2.5,1.7c-1,1.5-2.1,2.7-3.9,3.3c0.4-0.6,0.8-1.2,1.4-2.1c-1,0.5-1.7,0.8-2.4,1.1c0-0.1-0.1-0.3-0.2-0.4
			c0.7-0.5,1.3-0.9,2-1.4c1-0.7,2.6-1.3,2.9-2.2c0.3-1.4,1.2-1.6,2.1-2.1c1-0.6,2.1-1.1,3.1-1.7c-3.3-0.4-5.5,1.7-8,3.1
			c2.2-3.6,6.5-3.5,9.6-5.4c-0.1-0.1-0.1-0.3-0.2-0.4c-1.1,0.2-2.3,0.4-3.4,0.6c-0.1-0.1-0.1-0.2-0.1-0.3c2.3-0.8,4.7-1.7,7-2.5
			c-0.1-0.2-0.1-0.4-0.2-0.6c-1.9,0.5-3.9,1-5.8,1.5c0-0.2-0.1-0.3-0.1-0.5c3-1.1,6.1-2.1,9.1-3.1c-0.1-0.2-0.1-0.4-0.2-0.6
			c-1.8,0.4-3.6,0.8-5.4,1.2c0-0.1-0.1-0.3-0.1-0.4c3-1,5.9-2,8.9-3c-0.5-0.4-0.9-0.5-1.3-0.4c-2.9,0.9-5.9,1.6-8.7,2.8
			c-2,0.9-3.7,2.4-5.4,3.8c-0.4,0.4-0.4,1.4-0.6,2.6c-0.9,0.4-2.4,1.2-3.9,1.9c-0.1,0.1-0.1,0.1-0.2,0.1c-2,1.1-2.5,3.1-1.8,4.2
			c-0.2,1.8-0.3,3-0.4,4.3c-0.1,1.7,1.2,2.7,2.8,2c2.5-1.1,4.9-2.5,7.4-3.7c-1.8,2.3-3.6,4.5-5.2,6.9c-0.6,0.8-0.8,2.2-0.5,3.1
			c0.2,0.8,1.5,1.8,2.2,1.8c2.9-0.1,6-0.1,8.4-2.3c1.2-1.1,2.7-2,4-3c-0.2,1-0.6,1.8-1,2.5c-0.4,0.8-0.7,1.5-1,2.3
			c-0.7,1.6-0.5,4,0.6,4.9c1.5,1.3,3.1,0.6,4.5-0.2c1.5-0.9,2.8-2,4.3-2.9c0.4-0.3,0.8-0.3,1.2-0.4c-0.9,1.8-1.9,3.6-2.5,5.5
			c-1,2.8,1.1,5.4,4.1,5.2c1.8-0.1,3.9,0.7,5-1.7c0.3,2,0.5,3.7,0.8,5.3c0.3,2,1.6,2.5,3.3,1.4c0.7-0.5,1.2-1.1,2.2-1.9
			c0,0.8,0.2,1.5,0,1.9c-1.7,3.5-3.5,7-5.1,10.5c-1.1,2.2-1.9,4.6-2.9,6.9c-1.4,3.2-2.7,6.3-4.2,9.4c-0.4,0.8-1.1,1.6-1.8,2.2
			c-2.1,2-2.4,4-0.7,6.3c1.1,1.5,2.5,2.7,3.4,4.3c2.7,4.7,5.1,9.5,7.7,14.3c3.3,6,6.6,12,12.1,16.3c2.9,2.3,5.9,4.6,9,6.6
			c2.9,1.8,6,3.3,9.1,4.6c1.6,0.7,2.3,1.8,2.7,3.4c0.7,3,1.7,6,4.1,8.2c4.2,3.8,8.9,6.3,14.9,6.1c4.8-0.1,9.6-0.8,13.2-3.9
			c4.3-3.6,8.1-7.8,8.8-13.8c0.2-1.9,1.3-2.9,2.8-3.9c2.8-1.9,5.7-3.9,8.2-6.1c6.1-5.3,9.7-12.5,14.1-19.1c2.5-3.7,4.4-7.8,6.9-11.5
			c1.6-2.4,3.5-4.7,5.6-6.7c2.4-2.4,2.5-2.2,0.5-5.1c-1.4-2-3-3.8-4.2-5.9c-1.7-2.9-3-5.9-4.6-8.9c-1-2-1.3-4.5-3.8-5.4
			c-0.2-0.1-0.2-0.5-0.3-0.8c-0.3-0.8-0.5-1.7-0.9-2.5c-0.9-1.8-0.7-2.6,1.1-3.6c0,1.6,0,3.2,0,5.3c0.9-0.9,1.6-1.3,2-1.9
			c1.4-2.4,2.7-4.7,3.9-7.1c1.7-3.3,2.8-7,6.3-9.1c0.5-0.3,0.7-1.1,1-1.6c-0.7-0.2-1.1-0.2-1.4,0c-1.2,0.9-2.2,1.9-3.3,2.9
			c-1.7,1.5-3.2,3.1-3.7,5.5c-0.6,2.7-1.7,5.3-3.5,7.5c0.1-1.2,0.5-2.3,0.7-3.5c0.3-2,0.6-4,0.7-6.1c0.1-0.5-0.6-1-0.9-1.5
			c-0.5,0.5-1.2,0.8-1.4,1.4c-1.2,2.7-2.4,5.5-3.4,8.3c-1.4,3.9-2.5,5,2,7.4c0.1,0.1,0.2,0.4,0.4,0.6c-4.3,0.1-7.6-1-8.5-5.2
			c-0.2-1.3-0.1-2.7,0.2-3.9c0.6-1.9,0.2-4.2,2.3-5.6c-0.4-0.3-0.8-0.4-1.1-0.7c-0.4-0.4-0.8-0.9-1.2-1.4c0.5-0.3,0.9-0.8,1.5-1
			c0.8-0.3,1.7-0.4,2.5-0.8c0.4-0.2,0.9-0.8,0.9-1.3c0-0.3-0.7-0.8-1.2-0.9c-0.9-0.2-1.7-0.3-2.8-0.5c-0.1,0.3-0.2,0.9-0.3,1.3
			c-1-0.7-1.9-1.4-2.7-2.2c-1.1-1-0.9-2.5,0.2-3.5c0.3-0.3,0.6-0.8,0.5-1.2c-0.1-1-0.5-2.1-0.7-3.1c-0.1-0.7-0.2-1.6,0.1-2.1
			c0.9-1.2,2.1-2.3,3.1-3.5c-0.1,0.9-0.3,2.1-0.5,3.2c0.2,0,0.3,0.1,0.5,0.1c0.4-1.3,0.9-2.6,1.1-3.9c0.1-0.5-0.8-1.1-0.7-1.5
			c0.4-1.4,1-2.6,1.5-3.9c0.1-0.5,0.4-0.9,0.4-1.4c0.2-1.3,0.2-2.6,0.3-3.9c0.2,0,0.3,0,0.5,0c0.3,0.8,0.5,1.6,0.9,2.8
			c3.2-4.4,1.8-9.4,3.6-13.7c0.3,2.1,0.4,4.1,0.3,6.1c0,1.9-0.3,3.9-0.4,5.8c0.2,0.1,0.5,0.1,0.8,0.1c0.2-2,0.3-4,0.5-6
			c0.5,0.3,0.8,0.5,1.3,0.9c0.2-2.3,0.4-4.5,0.5-6.6c0.2,0,0.3,0,0.5,0c0.1,0.7,0.4,1.5,0.3,2.2c-0.4,2.4-0.9,4.8-1.4,7.2
			c-0.2,1.1-0.3,2.1-0.5,3.2c0.2,0.1,0.4,0.1,0.6,0.2c0.2-0.4,0.5-0.7,0.6-1.1c0.7-2.8,1.3-5.5,2.1-8.3c0.2-0.6,0.7-1.1,1-1.6
			c0.1,0.1,0.3,0.1,0.4,0.2c-0.4,4.1-0.7,8.2-1.1,12.3c0.2,0.1,0.3,0.1,0.5,0.2c0.9-2.4,1.7-4.9,2.5-7.4c0-0.1,0-0.2-0.1-0.3
			c-1.2-2.1-1.1-4.1,0.4-6.3c0.3,1.5,0.5,2.8,0.6,4.1c0.1,1.2,0.1,2.5,0.2,3.8c0,1.2-0.9,2.5,0.4,3.7c1.2-4.7,2.4-9.3,3.6-13.8
			c0.3,0,0.5,0.1,0.8,0.1c0.1,2,0.1,4,0.3,6c0.1,0.9,0.6,1.9,0.5,2.8c0,1.4-0.4,2.7-0.7,4c-0.1,0.3-0.9,0.3-1,0.6
			c-0.7,2.1-1.3,4.1-1.9,6.2c-0.1,0.4,0.1,0.8,0.1,1.2c0.2,0,0.3,0.1,0.5,0.1c1.7-4.5,3.5-8.9,5.2-13.3c0.2,0,0.3,0.1,0.5,0.1
			c0,2.7,0,5.5,0,8.2c0.2,0,0.3,0,0.5,0c1.7-4.3,0.2-9.2,2.9-13.4c0,2.6,0,5.3,0,8c0.2,0,0.5,0,0.7,0c0.1-2.5,0.3-4.9,0.2-7.4
			c-0.1-1-0.8-1.9-1.2-2.8c-0.6,0.6-1.2,1.3-2,2.1c-2.5-0.7-1.3,2.4-2.7,3.1c-0.6-2.3,0.1-4.7-1.7-6.9c-1.1-1.3-0.9-3.5-1.3-5.3
			c-0.3-1.2-0.7-2.4-1.1-3.6c0.1,2.5,0.8,5,0.6,7.4c-0.2,2.3-1.4,4.5-2.2,6.8c-0.1,0-0.3-0.1-0.4-0.1c0-3.9,0-7.8,0-11.9
			c-0.4,1.3-0.9,2.4-1.3,3.6c-0.3-0.6-0.5-1.1-0.4-1.6c0.5-2.9,1-5.7,1.4-8.6c0-0.3-0.3-0.6-0.6-1.2c-0.4,0.7-0.7,1.2-1.1,2
			c-1.5-4-3-7.7-4.4-11.4c0.2-0.1,0.5-0.2,0.7-0.3c3,4.4,5.8,8.9,6.7,14.2c0.5-0.8,0.9-1.5,1.5-2.4c-1-1.8-2.3-4-3.5-6.2
			c-1.6-2.8-2.8-5.7-5.9-7.3c-1.1-0.6-2.3-1.8-2.3-3.4c0.3-0.2,0.5-0.4,0.7-0.6c-0.8-0.5-1.4-1-2.1-1.5c-0.2,0.1-0.3,0.3-0.5,0.4
			c-0.2-0.7-0.3-1.4-0.4-2c1.5-0.2,2.8,1,4.2,3.9c-0.4-0.2-0.7-0.5-1-0.7c0.2,0.5,0.4,1.1,0.8,1.5c1.5,1.2,3.1,2.3,4.6,3.5
			c0.3,0.2,0.6,0.3,0.7,0.5c0.5,1.3,0.8,2.6,1.5,3.8c1.2,2.1,2.4,4.3,4,6c1.4,1.5,2.5,2.8,2.8,4.8c0.5,3,1.1,6,1.6,9
			c0.1-0.1,0.3-0.1,0.4-0.1c-0.3-3.2-0.7-6.3-1.1-9.4c0.2-0.1,0.5-0.1,0.7-0.2c1,3.1,2,6.3,3,9.4c0.2,0,0.4-0.1,0.6-0.1
			c-0.1-0.7-0.2-1.5-0.2-2.3c0-0.4,0.1-0.8,0.2-1.2c0.1-0.7,0.7-1.4,0.5-1.9c-1.7-4-3.6-7.9-5.3-11.9c-0.2-0.5,0-1,0-1.6
			c5.1,7.6,7.5,15.8,6.7,24.8c0.6,0,0.9,0,1.6,0c-0.5,3.1-1,6-1.6,8.9c-0.6,2.9-1.7,5.5-3.7,7.7c-0.2,0.3,0.1,1.1,0.2,1.6
			c0.5-0.1,1.3-0.1,1.6-0.4c0.7-0.7,1.2-1.6,1.5-2.5c1.1-3.4,2.4-6.9,3.1-10.4c0.4-2,0.7-4.4-0.8-6c1.7-3.5,0.3-6.8-0.2-10
			c-0.5-3.4-1.3-6.7-2-10.1c1.8-0.5,3.9-0.7,5.8-1.5c4.3-1.7,8.5-3.4,12.6-5.5c3.5-1.8,6.7-4,10-6.2c2.5-1.6,4.8-3.5,7.3-5.1
			c1.6-1,3.3-1.7,4.9-2.6c5-2.7,10.4-4.4,16-5.2c2.8-0.4,5.8-0.3,8.7,0c3.8,0.4,7.6,1.1,11.3,1.8c4.9,0.9,9.6,2.8,14.9,2.2
			c3.5-0.4,7.1,0.3,10.7,0.7c1.3,0.2,1.5-0.3,1.3-1.4c5.1-0.1,10.1,0,15.1-0.5c0.1-0.3,0.1-0.5,0.1-0.8c-1.2-0.4-2.4-0.8-3.6-1.2
			c0-0.2,0-0.3,0-0.5c4.6-0.7,9.3-1.5,13.9-2.2c6.8-1,13.5-2,20.3-2.7c4.4-0.5,8.7-0.8,13.1-0.7c6.1,0.2,12.2,1,18.4,1.4
			c0.8,0.1,2-0.2,2.4-0.8C440.5,59.1,440.3,57.8,439.9,57.2z M45.3,24.6c-0.1-0.2-0.1-0.4-0.1-0.6c13.7-2.4,27.5-3.6,41.4-2.7
			C72.8,22.4,59.1,23.5,45.3,24.6z M81.5,31.2c-0.1-0.2-0.1-0.3-0.2-0.5c1.8-0.4,3.5-0.8,5.3-1.3c0.1,0.3,0.1,0.5,0.2,0.8
			C85,30.6,83.3,30.9,81.5,31.2z M124,31.7c0.1,0.3,0.1,0.5,0.2,0.8c-2.3,0.4-4.7,0.9-7,1.4c0-0.2-0.1-0.5-0.1-0.7
			C119.3,32.2,121.6,31.4,124,31.7z M118.9,30.4c0.1,0.2,0.1,0.4,0.2,0.6c-3.7,1-7.3,2-10.9,3.1c-0.1-0.2-0.1-0.5-0.2-0.7
			C111.6,32.4,114.9,30,118.9,30.4z M104.2,29.1c-1,1.9-9.7,4.4-12,3.8C96.3,31.5,100.3,30.3,104.2,29.1z M82.6,40
			c0-0.2-0.1-0.4-0.1-0.6c3.5-1,7-1.9,10.5-2.9c0,0.3,0.1,0.7,0.2,1C89.6,38.4,86.1,39.2,82.6,40z M91.4,39.7
			c3.9-1,7.9-1.9,11.8-2.8c0,0.2,0.1,0.4,0.1,0.6c-4,0.9-7.9,1.9-11.7,2.9C91.5,40.2,91.5,39.9,91.4,39.7z M99.9,39.9
			c4.6-0.3,8.7-3.2,13.7-3C111.5,38.5,101.8,40.7,99.9,39.9z M116.8,40.9c2.9-1,5.8-2.1,8.7-3.1c0.1,0.2,0.1,0.4,0.2,0.6
			C122.9,39.7,120,40.9,116.8,40.9z M120.7,36.7c0.1,0.1,0.1,0.3,0.2,0.4c-0.4,0.4-0.9,0.9-1.4,1.1c-2.1,0.6-4.3,1.1-6.4,1.7
			c-0.7,0.2-1.3,0.6-2,0.8c-0.3,0.1-0.8-0.1-1.2-0.2c0.2-0.3,0.5-0.8,0.8-0.9c2.3-0.7,4.6-1.2,6.9-1.8c0.4-0.1,0.8-0.6,1.2-0.9
			c-0.5-0.2-1-0.5-1.5-0.6c-1-0.2-2-0.3-3-0.3c-2.4,0.1-4.7,0.2-7.1,0.3c-0.8,0.1-1.5-0.1-2.3-0.2c-1.2-0.1-2.3-0.4-3.4-0.3
			c-2.1,0.1-4.1,0.5-6.2,0.6c-0.8,0.1-1.7-0.4-2.5-0.6c4.6-1.9,32.8-0.8,34.5,1.2C124.9,36.9,122.8,36.8,120.7,36.7z M232.3,65.7
			c0.2,0.5,0.9,0.8,1.4,1c1,0.4,2,0.8,3.2,1.3c-2.9,0.5-5.5-0.9-6.3-3.2C231.7,64.7,231.6,64.7,232.3,65.7z M226.8,67.8
			c-1.1-0.6-2-1.2-3-1.9C225.7,64.8,226.3,65.2,226.8,67.8z M223.5,67.6c2.8,0,3.1,2.9,4.8,4.2c-0.1,0.2-0.2,0.3-0.3,0.4
			c-1.6-1.4-3.3-2.8-4.9-4.2C223.2,67.9,223.4,67.7,223.5,67.6z M222.9,63.1c-1.4-0.3-2.7-0.6-4.2-1
			C220.4,60.9,221.8,61.3,222.9,63.1z M210.2,61.1c2-1.5,3.9-1.2,5.7,0.8C213.9,61.6,212.2,61.4,210.2,61.1z M217.7,87.1
			c1.1,1.2,2.1,2.4,3.3,3.7c-2.5,0.1-3.3-0.7-3.8-3.2C217.4,87.4,217.5,87.3,217.7,87.1z M224.5,93.7c-1.6-2.3-2.9-4.2-4.5-6.4
			C223.3,88.2,225.4,90.9,224.5,93.7z M222.3,83.4c2.2,0.4,3.9,1.5,4.6,3.9C224.6,88.1,222.7,86.5,222.3,83.4z M226.9,101.2
			c-0.9-0.7-2.8-0.6-1.8-2.4c0.1-0.2-0.1-0.6-0.3-0.8c-1.8-1.7-3.7-3.4-5.5-5.1c0.1-0.2,0.3-0.5,0.4-0.7c1,0.7,2,1.2,2.9,1.9
			c1.4,1.3,2.8,2.6,3.9,4.1C227.1,98.9,227,100.1,226.9,101.2z M228.8,107.5c-1.2-1.6-2.2-2.8-3.2-4.1
			C227.8,103.9,228.6,104.9,228.8,107.5z M221.5,99.3c-1.1-0.8-2.2-1.7-3.5-2.8C220.6,96.4,221.2,96.8,221.5,99.3z M218.9,80
			c0.8,1.9,1.7,3.7,2.5,5.5C218.6,85.1,218,83.6,218.9,80z M215.2,89.6c0.1,0,0.3,0.2,0.4,0.3c1.4,1.7,2.7,3.5,4.2,5.4
			c-0.4-0.2-0.8-0.4-1.3-0.4c-1.3-0.6-2.7-1.3-4-2c-0.5-0.3-0.8-0.8-1.1-1.3c-0.9-1.4-1.9-2.7-2.6-4.2c-1-2-1.7-4.1-2.5-6.1
			c0.3-0.1,0.5-0.3,0.8-0.4c0.9,1.1,1.8,2.1,2.5,3.3c0.8,1.3,1.3,2.8,2,4.2C213.9,89,213.9,90.2,215.2,89.6z M213.3,110.4
			c-1.6,1.3-3.2,2.6-4.8,3.9c-0.1-0.2-0.3-0.4-0.4-0.6c1.7-1.2,3.3-2.5,4.9-3.7C213.1,110.1,213.2,110.3,213.3,110.4z M211.8,81.4
			c-3.2-3.8-5.6-7.7-6.2-12.8C208.4,69.9,212.3,78,211.8,81.4z M207.7,79.7c-0.5,3,0.5,5.6,2,8.1c1,1.8,1.9,3.6,3,5.6
			c-2.2-0.2-3.8-2-3.8-3.7c0-0.7-0.4-1.3-0.6-2c-0.4-1.3-0.8-2.5-1.2-3.8c-0.5-1.6-1-3.1-1.4-4.7c-0.3-1.2-0.5-2.4-0.7-4
			C207,76.1,208,78,207.7,79.7z M196.6,71.7c1.2,2.5,3.7,4.1,4,7.3c0.2,2.8,0.9,5.8,4.6,6.7c1.1,0.3,1.8,2.1,2.9,3.5
			c-5.7-0.6-7.8-4.8-10.6-8.2c0.1-0.1,0.2-0.3,0.3-0.4c0.3,0.1,0.6,0.1,1.3,0.2C197.3,77.9,195.8,75.1,196.6,71.7z M208.5,131.9
			c-0.1,0.5-0.2,0.9-0.4,1.5c1.9-0.1,3.5,0.1,1.5,2.1c1.2,0.6,2.4,1,3.5,1.6c0.2,0.1,0.1,0.8,0.1,1.2c-2-0.2-3.7-0.4-5.7-0.7
			c0.9-3-1.4-5.4-2.6-8.4c1.1,0.3,1.8,0.5,2.6,0.7c-0.3,0.6-0.5,1-0.8,1.5C207.3,131.6,207.9,131.7,208.5,131.9z M211.5,142
			c-0.1,0.3-0.8,0.7-1.2,0.7c-0.3,0-0.8-0.6-0.9-1c-0.3-0.7-0.4-1.5-0.7-2.8c1.1,0.4,2.1,0.5,2.9,1
			C211.9,140.2,211.7,141.3,211.5,142z M201.2,137c-1.1-0.1-1.7-0.5-1.7-1.8c0-1.9-0.1-3.9-0.3-5.8c0-0.9,0.2-1.4,1.1-1.1
			c0.9,0.3,1.8,0.9,3.1,1.5c-0.9,0.8-1.3,1.2-2,1.8c1.5,0.4,2.9,0.8,4.2,1.2c0,0.2-0.1,0.3-0.1,0.5c-1.3,0.2-2.6,0.3-3.9,0.4
			c4.7,2,4.7,2,4.5,3.3C204.4,137,202.8,137,201.2,137z M204.8,139.6c0,1-1.9,1.8-3.6,1.4c0.8-1.2-0.3-3.6,2.4-2.8
			C204.1,138.4,204.8,139.1,204.8,139.6z M203.2,107.9c-0.2-0.4-0.8-1.1-0.7-1.3c0.7-1.4,1.9-2,3.7-1.9
			C205.3,105.9,202.8,105.4,203.2,107.9z M206.8,110.5c0.1,0.2,0.3,0.3,0.4,0.5c-1,0.8-2,1.7-3,2.5c-0.2-0.2-0.3-0.4-0.5-0.6
			C204.8,112.1,205.8,111.3,206.8,110.5z M203.8,116.3c0,2-1.2,2.6-2.9,2.4C201.8,118,202.8,117.2,203.8,116.3z M204.6,119.9
			c0.1,0.2,0.2,0.3,0.3,0.5c-1.3,0.8-2.7,1.5-4,2.2c-0.1-0.2-0.2-0.3-0.3-0.5C201.9,121.3,203.3,120.6,204.6,119.9z M192.3,135.3
			c-0.5,0-1.2-0.3-1.4-0.6c-0.1-0.3,0.2-0.9,0.4-1.4c0.4-1.1,1-2.2,1.3-3.3c0.6-1.8,2-2.5,3.6-1.9c1.5,0.6,1.7,1.6,0.3,2.8
			c0.4,0.5,0.8,0.8,1.2,1.5c-1,0.3-1.8,0.6-2.7,1c1.1,1.3,3.2,1.4,2.8,4.1C196.4,134.8,194.4,135,192.3,135.3z M196,137.9
			c-1.1,0.4-2.2,0.8-3.4,1.2c-0.2-0.2-0.3-0.3-0.5-0.5c0.3-0.7,0.3-1.9,0.8-2.1C194,136.1,195.3,136.1,196,137.9z M179.3,134.3
			c-0.4,0-1-0.6-1-0.9c0-0.4,0.6-1,0.9-1c3.1-0.1,6.2-0.1,9.3-0.1c0.3,0,0.7,0.7,1,1c-0.4,0.4-0.8,1-1.3,1.1c-1.4,0.2-2.9,0.1-4.3,0
			C182.3,134.4,180.8,134.5,179.3,134.3z M188.7,131.1c-3.3-0.9-6.5-0.5-9.8-0.2c-0.3,0.1-0.7,0.1-0.9,0c-0.3-0.2-0.6-0.5-0.9-0.8
			c0.3-0.2,0.6-0.6,0.9-0.6c2-0.2,4-0.4,5.7-0.5c2.3,0.1,4.2,0.3,6.1,0.4c0.4,0,0.7,0.6,1.1,0.9c-0.4,0.3-0.7,0.6-1.1,0.7
			C189.4,131.1,189,131.2,188.7,131.1z M174.9,134.3c-1.6-0.2-2.7,0.4-3.7,1.7c-0.4,0.5-1.3,0.6-1.9,0.9c-0.1-0.8-0.4-1.7-0.2-2.4
			c0.3-1.3,1.1-2.4,1.7-3.8c-1.7-0.4-2.5-0.3-2.6,1.3c-0.1,0.7-0.7,1.4-1.2,2c-0.5,0.8-1.4,1.6,0.3,2.1c0.3,0,0.4,0.6,0.4,0.7
			c-1.4,0.8-2.6,1.6-3.9,2.3c-0.3,0.1-1,0.3-1.1,0.1c-0.3-0.4-0.8-1.1-0.6-1.5c0.4-1.1,1.2-2.2,1.8-3.2c0.7-1.1,1.4-2.3,2.1-3.4
			c0.4-0.8,0.7-1.7,1.3-2.3c0.5-0.5,1.3-0.8,2-0.8c0.3,0,0.6,1.1,0.9,1.7c2.1-2.5,4.1-2.8,5.9-1.1c-0.9,0.3-1.9,0.6-3.1,1
			c1,0.7,1.6,1.1,2.2,1.5c-0.4,0.5-0.8,0.9-1.4,1.6c0.7,0.2,1.5,0.4,2.3,0.6c0.1,0.2,0.1,0.3,0.2,0.5
			C175.8,134,175.3,134.4,174.9,134.3z M175.3,139.5c-2.3-0.4-3.8-1.4-3.3-2.4c0.3-0.6,1.3-1.2,1.9-1.1
			C176,136.5,175.3,138.1,175.3,139.5z M168.2,142.5c-1-0.5-1.8-0.8-2.3-1.4c-0.5-0.4-0.7-1-1-1.5c0.7-0.3,1.3-0.9,2.1-1
			c0.2,0,0.8,0.9,1,1.4C168.2,140.6,168.1,141.3,168.2,142.5z M161.5,133.8c-0.8,0.6-1.6,1-2.5,1.6c0.3,0.3,0.5,0.4,0.6,0.5
			c0.6,0.3,1.1,0.5,1.7,0.8c-0.6,0.3-1.1,0.6-1.7,0.9c-0.9,0.5-1.8,0.9-2.7,1.2c-0.7,0.2-1.5,0.4-2.2,0.6c0.1-0.8,0-2.1,0.4-2.3
			c2.9-1.7,4.1-4.9,6.3-7.2c1.1-1.2,2.6-1.5,4.3-1c-0.1,1.7-1.5,2.1-2.5,2.3C161.3,131.5,161.1,132.4,161.5,133.8z M147.8,179.4
			c-1.8-2.6-2.6-5.9-2.3-9.5c0.7-7.2,3.1-13.8,6.9-19.8c1.2-1.8,2.7-3.4,4.1-5c0.3-0.3,0.9-0.3,1.4-0.4c-0.1,0.5,0,1-0.2,1.4
			c-1.7,2.4-3.5,4.7-5.1,7.1c-3.3,5-5.1,10.5-5.3,16.5C147.2,173,147.6,176.3,147.8,179.4z M157.4,142.2c-0.3-0.7-0.5-1.7-0.2-2.3
			c0.2-0.5,1.3-0.7,2-0.7c0.3,0,0.9,0.7,0.9,1c0,1.1-0.3,2.3-0.5,3.9C158.6,143.3,157.8,142.9,157.4,142.2z M153.3,129.2
			c0.4-0.2,0.7-0.5,1.1-0.6c1.6-0.3,3.2-0.5,4-2.3c0.3-0.7,1.1-1.2,1.7-1.7c-0.1-1.7,1.1-2.4,2.3-3.5c0.2,0.1,0.4,0.2,0.6,0.3
			c-0.3,0.9-0.6,1.7-0.9,2.6c-0.2-0.1-0.3-0.3-0.5-0.4c-0.5,0.4-1,0.7-1.5,1c-0.6,1.3-1.2,2.6-1.9,4.3c-0.6,0.1-1.8,0.3-3,0.5
			c0,0.2,0.1,0.3,0.1,0.5c0.7-0.1,1.5-0.2,2.3-0.3c-0.3,1-4,2.3-6.9,2.2c0.6-0.2,1.1-0.5,1.7-0.8c0.5-0.3,1.1-0.6,1.6-0.9
			C153.8,129.8,153.5,129.5,153.3,129.2z M160.3,108.4c1-2.5,6.5-5.7,8.6-4.9c-0.8,0.3-1.7,0.5-2.3,1c-0.6,0.5-1.1,1.3-1.6,1.9
			c0.8,0.6,1.6,1.6,2.3,1.6c2.3-0.1,4.7-0.7,7-1.1c-2.6,1.7-5.4,3.5-8.2,5.3c-0.2-0.2-0.5-0.5-0.7-0.7c1-0.6,2.1-1.3,3.2-2.3
			c-2.9-1.1-4.5,0.5-6.2,1.6c-1.1,0.8-2,1.9-3,2.9c-0.9,0.9-1.7,1.7-2.4,2.7c-0.9,1.2-1.4,2.6-0.4,4.1c-1.4,0.5-1.8,0-1.5-1.2
			c0.8-2.9,1.8-5.6,4.8-7c0.6-0.3,1.1-0.7,1.5-1.4c-1.9,0.8-3.8,1.5-5.7,2.3c-0.1-0.2-0.2-0.4-0.3-0.6c2-1,4-2.5,6.1-2.9
			c1.2-0.2,2.1-0.3,2.8-1.3C162.9,106.4,161.6,108.7,160.3,108.4z M155.8,91.9c1.2-1,2.6-1.7,3.9-2.6c0.2,0.1,0.3,0.3,0.4,0.5
			c-0.8,0.6-1.5,1.3-2.3,2c0,0.2,0,0.4,0,0.6c1.6,0.2,3.1,0.5,4.6,0.6c0.2,0,0.6-0.5,0.7-0.8c0.6-1.3,2.2-1.8,3.6-1.1
			c-0.3,0.4-0.6,0.7-1.2,1.5c2.2,0.6,4.3,1.2,6.5,1.8c-1.9,1-3.8,0.8-5.4,0.1c-2.6-1.2-4.9-0.3-7.4,0.4c-1.7,0.5-3.3,0.8-5,1.2
			c-0.1-0.2-0.1-0.3-0.2-0.5c0.9-0.5,1.8-1.1,2.6-1.6C156.3,93.2,155.6,92,155.8,91.9z M175.8,98.5c-1.2,0.4-1.2,0.4-4.3-2.3
			c0.6-0.3,1.1-0.6,1.6-0.9C172.2,98.4,175.6,97,175.8,98.5z M164.2,79.2c-0.4-0.3-0.6-1-0.9-1.5c0.5-0.3,1.1-0.6,1.7-0.8
			c0.3,0,0.6,0.1,1,0.2c-0.2,0.4-0.2,0.9-0.4,1.6c2.1,0.6,4.2,1.2,6.3,1.8c0,0.1,0,0.2,0,0.3c-1.4,0-2.7,0-4.1,0
			c-0.3,0.6-0.5,1.6-0.7,1.6c-2.2-0.1-4.3-0.4-6.5-0.6c0-0.3,0-0.6,0-0.9c2.5,0,4.9,0,7.2-0.1C166.6,80.3,165.3,79.8,164.2,79.2z
			 M175.5,76.1c1,0.6,2,1.2,3,1.8c-2.6,0.1-4.8-0.5-6.3-2.6c-0.4-0.6-0.5-1.5-0.5-2.2c0-0.3,0.7-0.8,1.1-0.8c0.4,0,1,0.7,0.9,0.9
			C173.2,74.9,174.4,75.5,175.5,76.1z M180,75.4c0-0.2,0.1-0.5,0.2-0.7c1.5,0.5,3.2,0,4.2,1.8C183,76.1,181.5,75.8,180,75.4z
			 M184.5,81.2c0.6,0.9,1.3,1.9,2.2,3.2C184.7,84,183.7,83.3,184.5,81.2z M186,95.2c-2.2-0.3-3.7-1.8-3.5-3.6
			c0.1-1.1,1.9-1.9,3.2-1.7c-0.8,0.9-2.1,1.9-2,2.9C183.7,93.7,185.2,94.5,186,95.2z M183.8,113.3c1.3-0.4,2.7-0.9,4.1-1.3
			C187.3,113.9,186.4,114.3,183.8,113.3z M184.6,117.8c-1.4,0.5-2.9,1-4.3,1.5c-0.1-0.3-0.2-0.6-0.3-0.9c1.5-0.5,2.9-0.9,4.3-1.3
			C184.4,117.3,184.5,117.6,184.6,117.8z M183.5,111.7c0-0.3-0.1-0.8-0.1-1.3c-0.1,0.1-0.2,0.3-0.3,0.4c-1.1-0.8-2.2-1.5-3.2-2.4
			c-0.3-0.3-0.3-1.2,0-1.5c1.3-1.5,3-2.4,4.8-3c0.1,0.1,0.2,0.3,0.3,0.4c-0.6,0.3-1.2,0.7-1.7,1.1c-0.7,0.6-1.4,1-1.9,1.7
			c-0.3,0.5-0.4,1.3-0.6,1.9c0.6,0,1.2,0.3,1.8,0.1c1.2-0.4,2.4-0.9,4.1-1.5C185.4,109.1,184.4,110.3,183.5,111.7z M179.9,103.1
			c0-0.3,0-0.5,0-0.7c1.8-0.1,3.6-0.3,5.4-0.4c0.1,0.2,0.1,0.5,0.1,0.7C183.6,102.8,181.8,102.9,179.9,103.1z M178.7,89.2
			c-1-0.6-2-1.4-2.8-2.2c-0.4-0.4-0.7-1.3-0.5-1.7s1.1-0.5,1.9-0.9c-0.4,3.5,1.7,4.6,6.8,4.9C182.3,90.3,180.5,90.2,178.7,89.2z
			 M177.8,83.2c-1.8,0.8-3.9-0.7-3.7-2.7c1.2,0,2.5,0,3.8,0c0,0.1,0.1,0.2,0.1,0.3c-0.7,0.3-1.5,0.5-2.6,0.9
			C176.5,82.3,177.1,82.7,177.8,83.2z M174.6,84.5c-1.8,0.8-3.6,1.4-5.6,0.7C170.8,85.1,172.5,83.2,174.6,84.5z M174.8,90.6
			c0.2,0.2,0.3,0.3,0.5,0.4c-1.2,1.5-0.5,2.2,0.9,2.4c2.3,0.6,4.6,0.9,6.9,1.4c0.3,0.1,0.7,0.2,1,0.3c0,0.2-0.1,0.4-0.1,0.6
			c-2.9-0.3-5.9-0.5-8.8-1.1c-0.9-0.2-1.4-1.8-1.9-2.8C173.3,91.6,174.3,91,174.8,90.6z M175.6,111.1c-1.2,0.4-2.5,0.8-3.9,1.3
			c0-0.6,0-0.8,0-1c0.1-0.2,0.2-0.4,0.2-0.4c1.3-0.1,2.4-0.2,3.6-0.3C175.5,110.8,175.6,111,175.6,111.1z M166.5,96.2
			c0.5,2.9,3.2,2.2,4.9,3.2c0,0.1-0.1,0.3-0.1,0.5c-1-0.1-2.3,0.2-3.1-0.3c-1.8-0.9-3.5-0.6-5.2-0.1c-0.8,0.2-1.8,0.3-2.7,0.5
			c-0.1-0.2-0.1-0.4-0.2-0.6C162.2,98.4,164.3,97.3,166.5,96.2z M161.2,116.6c-0.7,0.6-1.5,1.2-2.3,1.8c-0.2-0.3-0.4-0.5-0.6-0.7
			c0.7-0.8,1.4-1.6,2.5-2.6C161,115.9,161.3,116.5,161.2,116.6z M161.1,114.3c0.1-0.2,0.3-0.3,0.5-0.4c0.3,0.5,0.5,0.9,0.9,1.5
			c0.8-0.1,1.8-0.2,2.7-0.3c0,0.2,0,0.4,0,0.6c-1.1-0.1-2.1,0-3.1-0.2C161.7,115.4,161.4,114.7,161.1,114.3z M165,118.3
			c-1.4,1.9-5.1,3.1-7.3,2.3C160.3,119.8,162.5,119.1,165,118.3z M165.9,121c-0.6,2.1-1,3.6-1.5,5.3
			C163.2,125.2,163.8,122.8,165.9,121z M154.8,111.6c-0.2-0.1-0.4-0.3-0.6-0.4c1-2.4,2.3-4.6,5.3-5.5
			C157.9,107.7,156.4,109.6,154.8,111.6z M154.9,131.9c0.1,0.2,0.2,0.4,0.3,0.6c-1.9,2.2-5,1.1-7.2,2.7c-0.1-0.2-0.2-0.5-0.3-0.7
			C150.1,133.6,152.5,132.8,154.9,131.9z M170.9,125.5c1.6-2.1,3.2-4.3,4.8-6.3c0.1,0.5,0.3,1.4,0.5,2.1c-0.2-0.1-0.3-0.1-0.5-0.2
			c-0.6,0.7-1.2,1.3-1.7,2C173.1,124.2,172.4,125.6,170.9,125.5z M174.1,118.6c0.1-0.5,0.2-1,0.4-1.7c-3.2,1.5-4,4.4-4.7,7.3
			c-0.2,0-0.4-0.1-0.6-0.2c0.1-1.2,0.3-2.3,0.5-3.7c-1.1,0-2,0-3,0c-0.1-0.2-0.1-0.3-0.2-0.5c0.3-0.2,0.7-0.5,1.1-0.6
			c2.2-0.4,4.1-1.3,5.5-3.1c0.2-0.2,0.6-0.3,0.8-0.3c2.8,0.4,4.8-1.3,6.9-2.6c0.3-0.2,0.6-0.4,0.9-0.6c-0.8,1.9-1.6,3.7-2.4,5.6
			c-0.3-0.6-0.5-1.3-0.7-1.9C176.5,115.8,175.4,117.4,174.1,118.6z M192.6,119.1c-0.4,1.6-0.7,3.2-1.2,5.1
			C190,121.7,190,121.7,192.6,119.1z M197.8,105.6c-0.6-0.7-1.2-1.2-2-1.9c1.1-0.3,1.8-0.5,2.4-0.7
			C198.1,103.8,198,104.5,197.8,105.6z M195.3,73.6c0.4,1.5,0.8,3,1.2,4.4C195.5,76.8,193.7,75.8,195.3,73.6z M196.8,110.5
			c-2.3,3.3-5,4.4-6.4,3.3C192.3,112.8,194.3,111.8,196.8,110.5z M193.7,107.3c-1.2,0.8-2.3,1.7-3.9,1.3c-0.1-0.2-0.1-0.3-0.2-0.5
			c1.3-0.4,2.6-0.9,3.9-1.3C193.6,107,193.6,107.1,193.7,107.3z M192.4,96.5c-1,0.6-2.2,0.9-2.7,1.7c-0.4,0.6,0.2,1.8,0.4,2.7
			c-1-0.5-2.1-1.2-1.7-2.7C188.6,97.2,190.9,96.2,192.4,96.5z M189.2,87.3c-2.7,0-5.3,0-8,0c0-0.3,0-0.5,0-0.8
			c2.7,0.2,5.3,0.4,8,0.6C189.2,87.2,189.2,87.2,189.2,87.3z M189,78.8c-0.1,0.2-0.1,0.5-0.2,0.7c-1.2-0.2-2.3-0.4-3.4-0.6
			c0.1-0.4,0.2-0.7,0.3-1.1C186.8,78.1,187.9,78.4,189,78.8z M178.8,69.3c1.6-0.2,3.2-0.2,4.8-0.2c0.7,0,1.3,0.4,1.8,0.6
			c-2.1,0.4-4.3,0.9-6.4,1.3c-0.3,0-0.7-0.3-1-0.5C178.3,70.1,178.5,69.3,178.8,69.3z M177.3,58.4c-2-0.2-3.7-0.4-5.6-0.6
			C172.7,56.5,176,56.9,177.3,58.4z M174.6,62.6c0.9-0.4,2.2,0.2,3.3,0.3c0,0.2,0,0.3,0,0.5c-1.2,0.3-2.3,0.6-3.5,0.9
			c0,0.2,0,0.4,0,0.6c1.3,0.7,2.6,1.3,3.9,2c0,0.2,0,0.3,0,0.5c-0.6,0-1.2,0.1-1.7,0c-1.4-0.2-2.8-0.4-4.2-0.6
			c-0.3,0-0.8,0.4-0.8,0.5c0.1,0.4,0.2,1,0.5,1.2c1.1,0.7,2.2,1.3,3.6,2.1c-0.5,0.2-0.9,0.4-1.2,0.3c-1.6-0.7-3.3-1.3-4.8-2.2
			c-0.5-0.3-0.7-1.5-0.6-2.2c0-0.3,1.2-0.5,1.8-0.6c0.9,0,1.7,0.1,2.6,0.2c0.1-1.9-1.3-2.3-2.4-3c-0.9-0.5-1.7-1.1-2.6-1.7
			c-2.3-0.7-4.5-1.2-6.6-2c-1.2-0.4-2.5-1-3.4-1.9c-1.8-1.7-3.9-2.6-6.3-3.2c-2-0.5-4-1-6-1.5c0-0.2,0.1-0.4,0.1-0.6
			c5,0.7,10.1,1.4,15.2,2.1c0,0.1,0.1,0.3,0.1,0.4c-1,0.1-2,0.2-3.3,0.3c0.5,0.6,0.7,1.2,1.1,1.4c2.1,1.1,4,2.5,6.6,2.2
			c1.1-0.2,2.1,0.1,2.1,1.6c0,0.4,0.3,0.7,0.5,1.1c0.8,0.2,1.5,0.5,2.2,0.8C172,62.6,173.1,63.2,174.6,62.6z M165.2,65.4
			c-1.1,0.2-1.7,0.2-2.6-0.9c-0.8-1.1-2.4-1.5-3.7-2.1c-1.1-0.5-2.3-0.7-3.4-1.1c0-0.2,0.1-0.3,0.1-0.5c2.9,0.4,5.9,0.8,8.9,1.2
			C162.4,63.6,165.2,64.1,165.2,65.4z M150.2,38c1.1-0.1,2.2,0.1,3.3,0.1c0,0.1,0,0.3,0,0.5c-0.5,0.1-1.1,0.2-2.1,0.4
			c0.9,0.8,1.6,1.4,2.6,2.3c-3.6,0.6-6.5-0.8-9.4-1.8c0.9-1.4,0.9-1.4,4.8,0C149.7,38.9,150,38,150.2,38z M144.9,43
			c3.3-1.6,5.6,0.4,8.1,1.2c-0.1,0.2-0.1,0.5-0.2,0.7C150.3,44.3,147.7,43.6,144.9,43z M151.8,47.1c-2.5-0.6-4.5-1.2-6.5-1.7
			C147.4,44.5,149.9,45.2,151.8,47.1z M143.2,23.9c-4.5-0.8-8.8-1.4-13.1-2.2c-1.2-0.3-2.3-1.2-3.6-1.8
			C130.4,18.8,141.6,21.4,143.2,23.9z M123.7,25.8c-1.8-0.5-3.6-0.6-5.3-1c-3.3-0.8-6.7-1.6-10-2.5c-0.7-0.1-1.2-0.8-1.8-1.2
			c0-0.1,0.1-0.3,0.2-0.4c1.5,0.1,3,0.2,5,0.3c-1.1-1.7-2.8-2.1-3.7-1.8c-1.6,0.7-3.1,0.5-4.7,0.2c-1.4-0.3-2.7-0.5-4.1-1
			c4.1-2.5,8.4-0.5,12.6-0.5c4.3,0,8.5,0.9,12.8,1.4c0,0.1,0,0.2,0,0.3c1,0.7,1.9,1.7,3,2.2c2.5,0.9,5.2,1.6,7.9,2.2
			c2.6,0.6,5.3,0.7,7.9,1.2c1.5,0.3,2.9,1.1,4.3,1.9c-2.4,1-3.9-0.8-5.8-1.4c-3.2-0.9-6.4-1-10.1-0.7c0.5,1,0.9,1.7,1.3,2.5
			c-1.9,0.8-3.7,0.3-5.6-0.3C126.2,26.8,125,26.1,123.7,25.8z M145.4,30.7c-4.4-1.2-8.4-2.1-12.3-4.7c2.8-0.8,5,0.2,7.2,0.4
			C142.9,26.5,143.6,28.9,145.4,30.7z M133.3,45.5c0,0.2,0.1,0.4,0.2,0.6c-2.1,0.9-4.3,1.8-6.4,2.7c-0.1-0.2-0.1-0.3-0.2-0.5
			C129,47.4,130.7,45.4,133.3,45.5z M129.4,45.7c-3.3,1.2-6.6,2.5-9.7,3.6c-0.1-0.2-0.2-0.5-0.3-0.7c3.5-0.5,6.1-3.5,9.8-3.6
			C129.2,45.2,129.3,45.5,129.4,45.7z M92.6,50.9c-0.1-0.2-0.2-0.4-0.3-0.6c2.4-1.1,4.7-2.3,7.1-3.5c0.1,0.2,0.2,0.4,0.3,0.6
			C97.3,48.6,94.9,49.8,92.6,50.9z M97.5,50.8c-0.2,0-0.4-0.1-0.5-0.2c3.9-1.8,7.7-3.6,11.7-5.4c0.1,0.2,0.2,0.5,0.3,0.7
			c-2.2,1.1-4.4,2.3-6.7,3.4C100.8,50,99.4,51.3,97.5,50.8z M106.2,49.9c1.1-1.9,8.9-5.6,10.5-4.8C113.2,46.7,109.7,48.3,106.2,49.9
			z M110.3,50c0-0.2-0.1-0.3-0.1-0.5c4.2-1.7,8.4-3.3,12.6-5c0.1,0.3,0.2,0.5,0.3,0.8C118.9,47.1,114.8,49.1,110.3,50z M98.9,62.3
			c3.4-2.1,6.8-4.1,10.3-6.1C108.1,58.8,101.1,62.7,98.9,62.3z M108.5,60.3c-0.1-0.1-0.1-0.3-0.2-0.4c2.9-2.3,5.7-4.5,8.7-6.9
			c-6.4,1.1-12.1,3.6-17.5,6.8c-0.1-0.3-0.2-0.6-0.3-0.9c12-7.9,25.5-9.4,39.4-8.7c-0.2,1-0.5,2-0.7,3c0.2,0.1,0.3,0.2,0.5,0.3
			c-1.6,0.6-3.3,1.3-5,2c-0.1-0.1-0.1-0.2-0.2-0.3c1.4-0.8,2.9-1.6,4.3-2.4c-0.1-0.3-0.2-0.5-0.3-0.7c-2.6-0.3-4.5,1.8-6.9,2.5
			c1-0.9,2-1.7,3-2.6c-0.2-0.2-0.3-0.4-0.4-0.6c-0.9,0.3-1.8,0.6-2.9,0.9c-0.2-0.3-0.5-0.7-0.8-1.1c-0.2,0-0.3,0-0.5,0.1
			c-1.6,0.7-3.1,1.2-5.1,0.7c-1.3-0.4-3.1,0.7-4.5,1.5c-3.3,2.1-6.5,4.4-9.8,6.6C109.1,60.3,108.8,60.2,108.5,60.3z M143.1,49.1
			c-3.2,1.2-5.1-2.4-7.8-1.7c-0.5-0.9-1-1.6-1.5-2.5c2.1-0.1,4.1-1.5,6.2,0.4c-0.9,0.3-1.7,0.5-2.4,0.7c0,0.2-0.1,0.3-0.1,0.5
			C139.3,47.3,141,48.1,143.1,49.1z M139.7,57.2c0,0.2,0.1,0.3,0.1,0.5c-1.4,0.6-2.8,1.4-4.3,1.8c-0.8,0.1-1.7-0.5-2.6-0.7
			c0.1-0.2,0.1-0.3,0.1-0.5C135.3,57.9,137.5,57.6,139.7,57.2z M128.8,53.4c-2.3,1.4-4.2,3.6-7,4.2c-0.1-0.2-0.2-0.3-0.3-0.5
			c2.3-1.4,4.7-2.8,7-4.2C128.6,53,128.7,53.2,128.8,53.4z M116.3,57.3c2.8-1.4,4.3-3.9,7.4-4C123,55.1,118.9,57.4,116.3,57.3z
			 M111.2,70.7c-0.5,0.4-1.3,0.5-1.9,0.8c0-0.1-0.1-0.3-0.2-0.4c1.1-0.9,2.2-1.8,3.3-2.7c-0.1-0.1-0.1-0.2-0.2-0.3
			c-1.2,0.7-2.4,1.4-3.9,2.3c0.4-2.2,1.4-3,3.2-3.2c1.4-0.2,2.9-0.5,4.6-0.8c-1.4-1.5-2.9-0.3-4.1-1c2.5,0,4.9,0,7.4,0
			c0-0.2,0.1-0.5,0.1-0.8c-0.9-0.1-1.9-0.3-2.8-0.4c-1,0-2,0-3-0.1c3.2-1.2,6.3,0.1,9.5,0.1c0-0.3,0.1-0.5,0.1-0.8
			c-2-0.3-4-0.6-6-0.9c3.5-1,6.8,0.4,10.2,0.5c-2-1.6-4.5-1.5-6.8-1.8c0-0.2,0.1-0.5,0.1-0.7c1,0.1,2,0.2,3,0.4
			c1.1,0.2,2.2,0.4,3.3,0.7c1.1,0.3,2.3,0.6,3.4,0.9c0.1-0.1,0.1-0.3,0.2-0.4c-1-0.5-1.9-1.1-2.9-1.4c-1.1-0.4-2.3-0.4-3.4-0.9
			c2.8-0.9,5.2,1.5,8.1,0.8c-1.4-0.5-2.8-1.1-4.5-1.7c2.6-1.5,4,0.3,5.4,1.4c-1,3.1-3.8,3.2-6.3,3.8c-2.4,0.5-4.7,1.4-7.1,1.8
			C116.5,66.6,113.9,68.7,111.2,70.7z M126.1,70.8c0.7,0.3,1.7-0.2,2.6-0.3c0.7,0,1.4,0.1,2.1,0.2c0.1,0.2,0.1,0.4,0.1,0.6
			c-2.8,0.5-5.7,1-8.5,1.5c-0.1-0.2-0.1-0.4-0.2-0.6C123.4,71.4,124.3,70.2,126.1,70.8z M121.9,69.9c-0.1-0.2-0.3-0.3-0.4-0.5
			c1.5-1,2.9-2.1,4.4-3.2c0.1,0.1,0.2,0.3,0.3,0.4C125,68,124,69.8,121.9,69.9z M112.6,71.1c1.5-1.2,3-2.4,4.5-3.5
			c0.2,0.3,0.4,0.5,0.6,0.8c-1.5,1.1-3.1,2.2-4.6,3.3C112.9,71.5,112.8,71.3,112.6,71.1z M116.8,71.4c-0.2-0.2-0.3-0.5-0.5-0.7
			c1.6-1.1,3.1-2.2,4.6-3.3c0.2,0.2,0.3,0.4,0.5,0.6C119.9,69.2,118.4,70.3,116.8,71.4z M118,81c0-0.1-0.1-0.3-0.1-0.5
			c1.6-0.4,3.2-0.8,4.8-1.2c0.1,0.2,0.1,0.5,0.2,0.7C121.3,80.4,119.6,80.7,118,81z M116.6,78.4c1.9-0.7,3.9-1.3,5.8-2
			c0-0.1-0.1-0.3-0.1-0.4c-1.8,0.4-3.6,0.8-5.4,1.2c-0.1-0.2-0.1-0.4-0.2-0.6c1.4-0.5,2.8-1.1,4.2-1.5c1.5-0.4,3-0.5,4.5-0.7
			c-0.1-0.2-0.1-0.4-0.1-0.6c-2,0.2-4,0.5-6,0.7c0-0.2-0.1-0.3-0.1-0.5c0.9-0.1,1.7-0.3,2.6-0.5c1.1-0.2,2.2-0.5,3.3-0.5
			c3.8,0,7-1.7,10.2-3.5c0.2,0.2,0.3,0.3,0.5,0.5c-0.8,0.7-1.4,1.7-2.2,2.1c-2.6,1.3-5.3,2.1-7.8,3.5
			C122.9,77.2,120.2,79,116.6,78.4z M122.1,87.1c0.1,0.2,0.2,0.4,0.4,0.8c-0.6,0.1-1.2,0.2-2.1,0.4c0.4-3.3,2.4-5.6,4.7-6.9
			c2-1.2,4.6-1.5,7-2.1c-0.9,0-1.7,0-2.5,0c2.6-1.8,5.4-0.6,8.2-0.3C132.9,82.4,128,85.5,122.1,87.1z M134.3,77.1
			c-1.5-3.6-0.2-4.7,3.5-7.4c2.3-1.6,5.2-2.3,7.8-3.4c0.5-0.2,1.1-0.5,1.7-0.8c-1.3-1.7,0.4-2.1,1.2-3c-3.5,0.4-7,0.9-10.7,1.4
			c2.4-2,11.9-4.1,13.9-1.5c-0.3-2.6-1.5-3.7-3.8-3.5c-2.9,0.3-5.8,0.4-8.5,1.2c-1.8,0.5-3.5,1.9-5.1,3.1c-1.1,0.9-0.7,1.9,0.8,2.2
			c1.8,0.3,3.7,0.5,5.6,0.8c-2.7,0.8-5.4,1.2-8.1-0.1c-1.2-0.6-1.2-1.5-0.4-2.5c2.9-3.6,6.7-5.3,11.2-5.7c1.1-0.1,2.2-0.3,3.3-0.4
			c0.1-0.3,0.1-0.5,0.1-0.8c-2.7-0.5-5.4-1-8.4-1.6c0.3-0.2,0.8-0.5,1.2-0.7c-0.9-2.4-0.9-2.4,0.8-3.8c0.1-0.1,0.5,0,0.7,0
			c0.6-0.1,1.3-0.2,1.9-0.4c1.4-0.6,1.4-1.7,0.3-2.7c-1.3-1.1-2.6-2.4-4.3-4c-2.3-0.2-5.2-0.9-7.7-2.9c-0.3-0.3-0.5-0.7-0.7-1.1
			c0.4-0.3,0.8-0.7,1.2-0.7c1.3-0.1,2.6-0.1,3.9-0.1c0.4,0,0.7,0,1.1,0c-2.1-1-4.2-2.1-5.9-3.4c0,0.1,0,0.1,0,0.2
			c-0.5-0.6-1.1-1.1-1.6-1.8c-0.5-0.6-0.7-1.4-1.1-2.1c0.7-0.2,1.4-0.6,2.1-0.7c3.1-0.3,6,0.6,8.7,2c-0.1,0.2-0.1,0.3-0.1,0.5
			c-2.6-0.5-5.3-0.9-7.9-1.4c-0.1,0.3-0.2,0.5-0.3,0.8c2.4,2.2,5.2,3.8,8.3,4.9c0.1-0.2,0.3-0.4,0.4-0.6c-1.5-1-3.1-1.9-4.6-2.9
			c0-0.1,0.1-0.3,0.2-0.4c0.3,0,0.6,0,0.9,0.2c1.1,0.7,2.2,0.6,3.5,0.3c2.4-0.6,4.8,0,7.1,1c-1.4,0-2.8-0.1-4.2,0
			c-1.5,0.1-2,1.1-1,2.3c1.1,1.4,2.6,2.5,4.3,4.2c-2.4-0.7-4.4-1.4-6.8-2.1c0.8-0.4,1.1-0.5,1.5-0.7c0-0.2,0-0.3,0-0.5
			c-0.8-0.1-1.6-0.1-2.4-0.2c0.1,0.3,0.2,0.5,0.4,0.8c-1.3,0.1-2.5,0.3-3.8,0.4c0,0.2,0,0.5,0,0.7c2.8,1.6,5.9,1.9,9.3,1.7
			c-1.5,1.3-1.1,2.6,0.1,3.4c3.1,2.2,6.7,2.8,10.4,3.4c0.2,0.1,0.4-0.2,0.8-0.4c-0.5-0.4-1-0.6-1.3-1c-0.4-0.5-0.7-1.2-0.6-1.8
			c0.1-0.5,0.8-1.1,1.3-1.1c1.5,0,3,0.2,4.5,0.3c1.4,0.1,2.9,0.1,4.3,0.3c0.8,0.1,1.7,0.5,2.6,0.7c-0.1,0.2-0.1,0.4-0.2,0.6
			c-0.6-0.1-1.3-0.2-2.2-0.3c0.4,0.6,0.6,1,0.9,1.5c-0.2,0-0.4,0.2-0.5,0.1c-0.6-0.3-1.2-0.5-1.7-0.9c-2-1.4-4.2-1.6-6.5-1.5
			c-0.3,0-0.7,0.3-0.9,0.6c-0.1,0.2,0.3,0.6,0.4,0.9c0,0.1,0.1,0.2,0.2,0.3c1,1.1,1.9,2.5,3.2,3.2c1.8,1,3.9,1.3,5.9,1.9
			c1.7,0.5,3.3,0.9,5,1.4c-0.1,0.2-0.2,0.5-0.3,0.8c-0.9-0.3-1.8-0.7-3.1-1.2c0.7,2,2.9,1.8,3.5,3.5c-1.3-0.7-2.5-1.3-3.8-2
			c-1.6-0.8-3-1.8-4.7-2.3c-3.7-1-7.4-2.1-11.1-2.5c-2.6-0.2-5.4,0.6-8.1,1.1c-0.4,0-1,0.6-1.1,1c0,0.3,0.4,1,0.8,1.2
			c2,0.8,4,1.7,6.1,2.4c1.5,0.5,3.3,0.5,4.5,1.9c0.3,0.3,1.1,0.1,1.6,0.2c1.5,0.3,3.1,0.6,4.6,1.1c-2.1,0.8-4.5-0.7-6.8,1.3
			c2.1,1.3,3.9,2.5,5.8,3.5c1,0.6,2.5,0.2,2.5,2c0,0.3,0.8,0.6,1.3,1c-0.4,0.3-0.8,0.6-1.3,1c1.8,2.6,4.9,2.6,7.5,3.6
			c0,0.3-0.1,0.5-0.1,0.7c-2.2,0-4.5,0-7.1,0c1.6,3.4,4.9,1.7,7.1,3.8c-1.9-0.3-3.4,1.1-4.9-0.6c-0.6-0.7-1.8-0.7-2.6-1.2
			c-0.6-0.3-1.2-1-1.3-1.6c-0.1-0.4,0.9-0.9,1.4-1.3c0.2-0.2,0.5-0.3,0.8-0.4c-2.3-2-4.9-2.8-7.8-2.8c-0.4,0-0.8,0.2-1.1,0
			c-3.2-1.8-6.2-0.6-9.1,0.8c-2.6,1.3-5.3,2.4-6.9,5c-0.9,1.5-0.9,2,0.8,2.2c1.7,0.3,3.4,0.2,5.1,0.1c0.7,0,1.4-0.3,2.1-0.2
			C141,78.5,137.5,76.6,134.3,77.1z M145.9,68.9c1.2-0.3,2.3-0.6,3.5-0.8c0.5-0.1,1,0,1.6,0.4c-1.3,0.4-2.6,0.7-3.9,1.1
			c0,0.2-0.1,0.5-0.1,0.7c1.8,0.7,3.7,1.4,5.5,2.1c-4.2,0.4-8.3,0.8-12.5,1.2c-0.1,0-0.1-0.1-0.2-0.2c1.7-0.7,3.4-1.3,5-2
			C143.8,70,144.1,69.3,145.9,68.9z M150.6,70.4c1.2-1.5,4.8-1.5,6.2,0C154.7,70.4,152.7,70.4,150.6,70.4z M141.2,81.9
			c-1.2,0-1.6-1.1-0.8-1.9c2.3-2.4,4.9-4.5,8.3-5.3c0.2,0,0.4,0.1,1.1,0.4c-3.1,1.8-6.5,2.6-8.6,5.8c2,0.1,3.6,0.2,5.2,0.3
			c0,0.3,0,0.5,0,0.7C144.7,82,142.9,82.1,141.2,81.9z M136.2,91.8c0-1.5,0.1-3,2.4-3C137.6,89.9,136.9,90.8,136.2,91.8z
			 M149.8,95.2c1.2-0.7,2.3-1.7,3.9-2.9c-1.8-1-3-1.6-4.9-2.7c0.7-0.5,1.3-0.9,2-1.4c-2.7,0.3-5.2,0.5-7.9,0.8
			c0-0.3-0.1-0.7-0.3-1.5c-1.4,1.6-2.6,2.9-3.9,4.3c-0.2-0.2-0.4-0.4-0.6-0.6c1.6-1.8,3.3-3.6,5-5.4c0.2,0.1,0.3,0.2,0.4,0.3
			c0,0.4,0,0.8,0,1.6c2-4.2,5.4-6.4,8.9-8.4c0-0.2-0.1-0.4-0.1-0.6c-2.4,0.3-4.7,0.7-7.3,1.1c1.4-1.9,3.3-1.7,5-2.1c0.1-3,0.1-3,3-4
			c1.9-0.6,3.9-0.5,5.4,0.3c-2.3,0.6-5-0.1-7.1,2.6c2.2,0.4,4.2,1.1,6.1,1c2.1-0.1,3.8,0.1,5.3,1.8c-2,0.6-4,1.3-6.2,2
			c1.6,1.4,3.1,1.9,4.9,2c0.9,0,2.1-0.4,2.5,1c0.8-0.3,1.7-0.6,2.7-0.8c0,0.5,0.1,0.6,0,0.7c-0.4,0.6-0.8,1.3-1.3,1.9
			c0.7,0.3,1.4,0.7,2.2,0.8c2,0.4,4.1,0.6,6.1,0.9c0,0.1,0,0.3,0,0.4c-1.2,0.1-2.5,0.3-3.8,0.3c-1.3,0-2.8,0.1-3.7-0.6
			c-2.9-2.2-5.6-0.1-8.6,0.2c0.7-1.4,2.2-1.4,3.2-2c1.1-0.6,2.2-1.2,3.2-1.8c-1.4,0.2-2.8,0.4-4.4,1.2c0-0.2,0.1-0.3,0.1-0.4
			c-1.3-0.4-2.6-0.9-3.9-1c-1.3,0-2.7,0.4-4,0.6c-0.1-0.1-0.1-0.3-0.2-0.4c2.3-1.7,4.6-3.4,6.6-4.8c-2.7-0.6-10.1,3.2-12.6,7.3
			c1,0.2,1.9,0.7,2.7,0.6c2.9-0.5,5.8-1.1,8.6-1.7c0.3-0.1,0.6-0.1,0.9-0.1c0.2,0,0.4,0,0.9,0.1c-1.9,1.1-3.5,2.2-5.2,3.1
			c-1.2,0.7-1.4,1.2,0,1.9c1.9,1,1.9,2.4,0.1,3.6c-1.4,1-2.9,2.1-4.3,3.1c0.1,0.2,0.2,0.4,0.3,0.6c3-0.2,6.1-0.3,9.1-0.5
			c0.1,0.2,0.1,0.3,0.2,0.5c-1.1,1-2.3,2-3.9,3.3c3.5,1,6.4,1.1,9.5-0.3c-0.5,1.9-2.3,2.2-6.5,2.4c-2.8,0.1-4.5-1.9-6.9-2.8
			c0.7,0,1.4-0.1,2.1-0.1c0,0.1,0,0.3,0,0.4c0.7-0.7,1.3-1.4,2.4-2.5c-3.1,0.4-5.8,0.9-8.6,1.3C146.9,97.4,148.2,96.2,149.8,95.2z
			 M140.9,102c-1.2,2-1.8,4.3-4.3,5.2C138.1,105.6,137.6,102.4,140.9,102z M135.5,105c-1.4,1.8-0.7,5-4.1,5.3
			C133.6,109.1,132.5,105.5,135.5,105z M130.7,108.3c-1.2,1.6-0.8,4.2-3.6,4.6C128.3,111.4,128.1,108.8,130.7,108.3z M123.4,112.6
			c0.2-0.4,1.4-0.4,2.4-0.7c-0.8,2.6-1.8,4.5-4,5.7C122.3,115.8,122.7,114.1,123.4,112.6z M119.1,115.9c0.3-0.6,1.2-0.9,1.9-1.3
			c0.2,0.2,0.3,0.4,0.5,0.6c-1.5,2-3,4.1-4.4,6.1c-0.1-0.1-0.2-0.1-0.3-0.2C117.5,119.4,118.2,117.6,119.1,115.9z M116.1,117.9
			c0.1,2-2.2,5.9-3.5,6.1C113.9,121.9,115,119.9,116.1,117.9z M104.1,138.7c0.8-2.7,3.8-5,6.1-5c-1.5,1.4-2.9,2.7-4.5,4
			C105.3,138.1,104.8,138.3,104.1,138.7z M106.9,139c-0.1-0.1-0.2-0.3-0.3-0.4c1-1.1,2.1-2.2,3-3.4c0.3-0.4,0.5-1,0.7-1.5
			c0,0,0,0,0,0c0.4-0.4,0.8-0.8,1.2-1.2c0.4-0.3,0.9-0.5,1.3-0.7c-0.1-0.2-0.2-0.4-0.3-0.6c-2,0.8-4.1,1.7-6.6,2.8
			c2.9-3.3,6.7-4.2,9.8-6.4c-2.1,0.7-4.1,1.5-6.2,2.2c0.4-1,0.6-2,2.1-1.9c0.8,0.1,1.7-0.5,2.5-0.8c1.9-0.7,3.7-1.5,5.6-2.2
			c-0.1-0.2-0.1-0.4-0.2-0.6c-2.4,0.9-4.9,1.7-7.4,2.5c-0.1-0.1-0.2-0.2-0.3-0.3c1.2-0.9,2.3-1.9,3.5-2.8c1.3-1,2.5-2,3.8-3
			c1.3-1,2.6-2,4-2.7c1.4-0.7,3-0.9,4.6-1.3c1.6-0.4,3.1-0.7,4.7-1.1c-0.1-0.2-0.1-0.3-0.1-0.5c-2.1,0.4-4.3,0.8-7,1.2
			c2.5-2.9,5.5-4,8.1-5.9c1.3-0.6,2.7-1.3,4-2c0.8-1,1.8-1.5,3.1-1.7c2.6-0.3,5.1-1,7.7-1.9c-1.9,0.2-3.8,0.3-5.7,0.5
			c0-0.2-0.1-0.3-0.1-0.5c3-0.5,5.9-1,9.2-1.5c-0.6-0.4-1-0.7-1.5-1c1.8-0.8,1.8-0.8,3.6,1.6c-2.3,1.3-4.8,2.4-7,3.8
			c-5.9,3.9-11.9,7.7-17.7,11.9c-4.8,3.5-9.5,7.3-14,11.2c-2.4,2.1-4.3,4.7-6.5,7.1C108.1,138.3,107.4,138.6,106.9,139z M146.5,121
			c-0.5,5.1-4.7,6.7-8,9.1c-0.2-0.1-0.3-0.3-0.5-0.4c1.3-1.8,2.5-3.7,3.7-5.6c0.3,0.2,0.5,0.3,0.7,0.4c-0.2,0.7-0.5,1.5-0.9,2.6
			C144.2,125.7,143.9,122.2,146.5,121z M149.5,119.4c-0.7,1.7-0.6,4.1-3.3,5C147.4,122.6,148.5,121,149.5,119.4z M139,124.2
			c-0.7,0.4-2-0.1-3,0.1c-2,0.3-4.1,0.8-6.6,1.4c3.2-3.5,7.6-2.8,11.1-4.2c0-0.2-0.1-0.3-0.1-0.5c-1.6,0.3-3.3,0.6-5.1,1
			c2.3-2.9,5.7-2,8.6-3.2c-1.2,0-2.3,0-3.4,0c0-0.2-0.1-0.3-0.1-0.5c2.1-1.4,4.7-1.2,7-2.2c-0.8-0.2-1.7-0.3-2.5-0.4
			c-0.1-0.1-0.1-0.3-0.1-0.4c2.2-0.2,4.3-0.4,6.8-0.6c-1.2-1.9-2.8,0.1-3.8-0.8c1.1-1.6,4.6-1.5,5.8,0.4
			C148.8,117.6,143.9,121,139,124.2z M128.8,123.9c1.2-1.8,1.2-4.1,3.8-5.2C132.1,121.3,131.4,123.2,128.8,123.9z M132.8,121.4
			c1.2-2,2.1-3.5,3.1-5c0.2,0.1,0.4,0.3,0.6,0.4C135.5,118.3,135.6,120.5,132.8,121.4z M136.9,118.5c1.2-1.9,2.3-3.4,3.4-5
			c0.1,0.1,0.3,0.2,0.4,0.3C140.1,115.8,140.2,118.1,136.9,118.5z M141.3,115.5c1.1-1.5,2.1-2.9,3.1-4.4
			C143.9,113,144.2,115.3,141.3,115.5z M145.4,112.9c1-1.4,2-2.7,3-4.1C148.6,111.8,148.1,112.5,145.4,112.9z M150.1,110
			c0.8-1.1,1.5-2.3,2.2-3.4c0.2,0.2,0.4,0.3,0.6,0.4c-0.7,1.2-1.4,2.3-2.2,3.4C150.5,110.3,150.3,110.1,150.1,110z M123.7,124.7
			c-1.1,3.1-4.5,7.6-6.6,8.6c1.3-2,2.6-3.7,3.5-5.6C121.2,126.2,122.2,125.4,123.7,124.7z M110.9,138.1c-0.2-0.1-0.3-0.2-0.4-0.3
			c2.3-2.9,4.7-5.9,7.1-8.8c0.1,0.1,0.3,0.3,0.5,0.4C115.8,132.4,114.3,136.1,110.9,138.1z M119.9,142.5c-0.2-0.2-0.4-0.3-0.6-0.5
			c0.6-1,1.2-1.9,2-3.2c-0.6,0.2-0.8,0.2-1.1,0.3c-1.1,1.4-2.1,2.7-3.2,4.2c-0.2-0.4-0.7-1.3-0.5-1.5c1-1.1,1.6-2.8,3.6-2.6
			c0.2-0.5,0.3-1,0.6-1.8c-1.4,0.8-2.5,1.5-3.7,2.2c-0.1-0.2-0.3-0.4-0.4-0.6c1.1-0.8,2.2-1.6,3.4-2.3c1.2-0.7,2.6-1.3,3.9-1.9
			c0-0.2-0.1-0.4-0.2-0.6c-1.7,0.6-3.3,1.2-5,1.8c1.9-3.5,5.9-3.1,8.8-5.2c-0.8,0.2-1.6,0.3-2.4,0.5c-0.8,0.2-1.7,0.5-2.5,0.7
			c-0.1-0.2-0.1-0.3-0.2-0.5c2.3-1,4.6-2,6.9-3c0-0.1,0-0.2,0-0.3c-1.1,0.2-2.1,0.3-3.2,0.4c0.2-0.2,0.3-0.5,0.5-0.7
			c-0.2-0.4-0.3-0.9-0.5-1.6c-0.9,0.6-1.7,1.2-2.4,1.7c0.8-1.8,1.5-3.6,2.4-5.4c0.3-0.5,1.1-0.8,1.8-1.3c-0.4,2.4-0.9,4.5-1.3,6.6
			c3.3-1.7,7-2.2,10.9-3C131.4,130.6,123.4,134.2,119.9,142.5z M137.5,129.1c-1.2,1.6-2.4,3.3-3.6,4.9c-0.2-0.2-0.4-0.3-0.6-0.5
			c1.2-1.6,2.4-3.2,3.6-4.9C137.1,128.8,137.3,128.9,137.5,129.1z M122.5,142c-0.3-0.1-0.5-0.3-0.8-0.4c1.2-2.1,2.4-4.1,3.8-6.3
			c0.2,0.1,0.4,0.3,0.6,0.4C124.9,137.8,123.7,139.9,122.5,142z M124.6,140.1c1.2-2.1,2.4-4.2,3.6-6.3c0.1,0.1,0.3,0.1,0.4,0.1
			c-0.1,0.5-0.2,1.1-0.3,1.6c-0.2,0.9-0.4,1.7-0.6,2.6c1.2-1.7,2.3-3.5,3.6-5.2c0.5-0.6,1.2-1.2,1.8-1.8c0.1,0.1,0.3,0.3,0.4,0.4
			c-1.4,2-2.8,3.9-4.3,5.8c-0.3,0.4-1,0.5-1.5,0.8c-0.8,0.8-1.6,1.6-2.6,2.4C124.9,140.4,124.8,140.2,124.6,140.1z M128.8,148.5
			c-1,2.1-2.1,2.9-3.4,2.4c-1.2-0.5-1.8-2.6-1.1-4.5c0-0.1,0.1-0.2,0.2-0.3c-0.2-1.1,0.2-1.9,1.4-2.6c2.6-1.4,5.1-3,7.6-4.8
			c-0.5,0.1-1.1,0.1-1.5,0.3c-1.7,0.9-3.3,1.9-5,2.7c-0.3,0.2-0.8,0-1.2-0.1c0.9-1.6,2.9-1.8,4.2-2.7c1.5-1,3.3-1.6,5-2.3
			c1-0.5,2.1-0.9,3.1-1.6c-3.2,0-5.8,1.8-9.1,3.1c3.8-3.7,8.2-5.1,12.8-6.6c-0.6-0.5-0.9-0.7-1.5-1.2c2-0.8,3.8-1.5,5.7-2.2
			c-0.1-0.2-0.1-0.3-0.2-0.5c-0.6,0-1.3,0.1-2.2,0.2c1.5-1.8,3.5-1.8,5.6-2.5c-0.5-0.4-0.9-0.6-1.3-0.9c1.5-0.6,3-1.2,4.8-1.9
			c-0.6-0.3-1-0.4-1.6-0.7c0.6-0.6,1.2-1.1,1.9-1.8c0.4,1.2,0.6,2,0.8,2.5c-4.8,4-9.5,7.8-14,11.8c-1.9,1.7-3.3,4.1-5.2,5.9
			C132,142.6,130.2,145.4,128.8,148.5z M131.7,148.1c-0.1-0.1-0.3-0.2-0.4-0.3c0.9-1.6,1.8-3.2,2.7-4.7c0.2,0.1,0.5,0.3,0.7,0.4
			C133.7,145,132.7,146.6,131.7,148.1z M136.6,155.9c0,0.3-0.5,0.9-0.8,0.9c-0.3,0-0.9-0.4-1.1-0.7c-1.8-3.2-0.6-6.5,2.8-7.9
			c1.5-0.6,2.9-1.3,4.4-2c-0.1-0.3-0.3-0.6-0.4-0.9c-2.1,1-4.2,2-6.4,3.1c1.3-5.1,6.2-5.4,9.8-7.3c-0.1-0.2-0.2-0.3-0.3-0.5
			c-1.3,0.4-2.5,0.8-3.8,1.2c-0.1-0.2-0.2-0.4-0.3-0.6c2.8-1.3,5.6-2.5,8.4-3.8c0-0.1,0-0.2,0-0.3c-1.4,0.3-2.8,0.7-4.4,1.1
			c1-1.6,6.8-3.6,9-3.1c-0.6,0.8-1.1,1.4-1.6,2c-4.3,4.6-8.7,9.1-12.9,13.8C137.8,152.2,136.5,153.8,136.6,155.9z M139.3,161.1
			c2-5.2,5.1-9.6,8.9-13.6c1.6-1.7,3.3-3.4,5.1-5c0.4-0.4,1.3-0.2,2-0.3c-0.3,0.6-0.4,1.4-0.8,1.7c-7.2,5.8-11.8,13.5-15.2,22
			c-2,4.8-4.2,9.6-6.4,14.4c-0.7,1.4-1.9,2.7-2.8,4.1c0-0.1-0.1-0.1-0.1-0.2C133.1,176.4,136.2,168.7,139.3,161.1z M125.5,189.8
			c5.9-4.4,10.9-9.7,15.2-16.3c3.1,5.9,7,10.6,12.9,14c-5.8,5.6-9.4,12.2-10.6,19.7C137,201.3,131.3,195.7,125.5,189.8z
			 M195.7,234.6c1.6-0.5,2.9-0.9,4.3-1.3c0.1,0.1,0.1,0.3,0.2,0.5C198.9,235.3,197.1,235.8,195.7,234.6z M200.8,237.1
			c-1.4,1.6-3.2,1.3-4.9,2C196.2,237.7,198.7,236.8,200.8,237.1z M200.1,239.9c0,4.8-7,10-12.9,9.8c-7.5-0.1-11.9-4.4-11.5-8
			c2.3-0.4,3,0,3.7,2c0.9,2.4,3.2,2.9,5.3,3.1c3.8,0.4,7.1-0.5,9.2-4.1C195.2,240.3,197.8,240.5,200.1,239.9z M192.1,240.9
			c-1.9,2.9-6.9,3.9-9.5,2.1c0.7-0.4,1.1-0.7,1.6-0.9c3.1-1.4,4.8-5.7,3.5-8.8c-1.2-2.9-4.9-4.8-8.2-3.7c-1.5,0.5-2.9,1.5-4.1,2.6
			c-0.9,0.9-1.4,0.9-2.2-0.1c1-2.7,3.6-3.7,5.9-4.4c2.9-0.9,6-1.1,9.1,0.2C191.8,229.4,194.6,237,192.1,240.9z M186.5,234.8
			c-2.4,0.6-4.7,0.4-8.8-0.8c1.3-2,3.4-2.1,5.3-2.2C184.9,231.8,185.8,233.2,186.5,234.8z M185.9,237.3c-0.3,0.5-0.5,1-0.6,1.2
			c-1.8-0.3-3.4-0.5-5-0.7c-6.4-0.9-12-3.7-17-7.8c-4.6-3.8-8.6-8.2-11.9-13.1c-2.2-3.2-3.3-6.7-4.1-10.4c-0.2-0.8-0.2-1.7-0.5-2.5
			c-0.8-2.3-0.2-4.3,1.3-6.2c-0.2,10.8,4.4,19.4,11.6,26.8C166.8,231.9,174.9,237.3,185.9,237.3z M167.5,237.6
			c-5.5-1.9-10.4-4.7-14.9-8.3c-6.3-5-11.5-10.8-15.1-18.1c-1.8-3.8-3.8-7.5-5.7-11.3c-0.2-0.5-0.3-0.9-0.5-1.4
			c0.1-0.1,0.3-0.2,0.4-0.3c1.2,1.3,2.6,2.4,3.5,3.9c2.4,4.1,4.4,8.5,6.9,12.7c2.8,4.8,6.2,9,10.9,12.2c2.8,1.9,5.4,4.3,8.4,5.9
			c7,3.8,14.2,6.5,22.4,7.1c-0.6,0.3-1.1,0.7-1.6,0.7C177.1,240.4,172.3,239.2,167.5,237.6z M204.4,245.2c-2.1,3.3-4.7,5.6-8,7.3
			c-5.8,3.1-11.8,3.4-17.7,0.4c-4.2-2.1-7.6-5.1-8.4-10.2c-0.1-0.7,0.2-1.9,0.6-2.1c1.2-0.5,1.2,0.7,1.4,1.5
			c1.4,5.8,6.8,9.1,12.5,9.4c3.3,0.2,6.6,0,9.6-1.5c4.5-2.2,8.2-7.6,7.8-13.2c-0.3-3-0.9-5.7-2.3-8.2c-2.5-4.5-6.5-7-11.1-8.9
			c-1.5-0.6-3-1-4.4-1.6c-0.3-0.1-0.5-0.5-0.8-0.8c0.4-0.2,0.7-0.5,1.1-0.6c2.9-0.5,5.4,0.8,7.7,2.2c6.7,4.1,11.1,9.8,11.2,18
			c0,1.3-0.5,2.6-0.7,4c-0.1,0.6-0.1,1.3-0.1,2c0.2,0,0.4,0.1,0.6,0.1c1.3-1.5,1.9-3.3,2.1-5.3c1.4-10.3-3.8-17.1-11.9-22.3
			c-1.3-0.9-2.7-1.8-4.2-2.8c1.2-0.9,2.1-0.9,3.3-0.3c4.3,2.3,7.8,5.5,10.8,9.3c2,2.6,3.3,5.6,3.6,8.9
			C207.5,235.6,207.3,240.6,204.4,245.2z M181.5,215.8c0.1,0.9,0.3,1.7,0.2,2.6c0,0.4-0.6,0.9-0.9,0.9c-0.5,0-1-0.4-1.3-0.7
			c-0.4-0.5-0.6-1.1-1-1.5c-4.2-3.8-6.3-8.6-7.1-14.1c-0.4-3.3,0.6-6.4,1.8-9.4c0.1-0.4,0.6-0.6,1.3-0.6c-0.1,0.5-0.1,1.1-0.3,1.6
			c-2,5.1-1.3,10,0.8,14.8c0.6,1.3,1.8,2.4,2.7,3.6c0.2,0.2,0.7,0.5,0.8,0.4c0.9-1,2.1-1.9,2.7-3.1c0.6-1.1-0.4-1.8-1.4-2.1
			c-4.2-1.3-4.7-4.9-5.3-8.4c-0.4-2.1,0.2-4,1.6-5.8c0.1,0.4,0.2,0.8,0.1,1.1c-1.6,7.4,3.6,13.4,11,13.6c1.1,0,2.3-0.7,3.4-1
			c0.4-0.1,0.9-0.3,1.1-0.1s0.4,1,0.2,1.1c-1,0.8-2,1.9-3.1,2.2c-1.6,0.4-3.3,0.1-5.2,0.1c0.4,0.5,0.5,0.8,0.8,1
			c0.5,0.4,1.1,0.7,1.5,1.2c0.3,0.4,0.4,1.1,0.3,1.5c0,0.2-0.8,0.4-1.2,0.3c-1.1-0.2-2.3-0.7-4-1.2
			C181.3,214.6,181.5,215.1,181.5,215.8z M184.9,149.6c4.8,0.5,9.2,1.6,12.6,4.5c0.5,0.5,1.4,0.5,2.1,0.7c0-0.6-0.1-1.3,0.1-1.8
			c0.5-1.5,1.2-2.9,1.9-4.3c0.1-0.3,0.8-0.4,1.2-0.3c0.2,0.1,0.4,0.7,0.3,1.1c-0.5,3.6-0.5,7,0.6,10.5c0.2,0.5-0.2,1.5-0.6,1.8
			c-0.4,0.3-1.3,0.4-1.8,0.1c-0.7-0.3-1.2-1-1.7-1.7c-6.1-9.1-19.4-10.2-27.6-2.2c-2.8,2.7-4.2,5.9-4.3,9.7c0,0.4,0,0.9,0.2,1.2
			c1.8,2,1,4,0.3,6.2c-0.4,1.3,0,3,0.5,4.3c2,5.6,5.8,9.4,11.8,10.6c1.3,0.3,2.3,0.8,1.9,2.3c-0.2,0.5-1,1.2-1.4,1.1
			c-5.4-1-10.1-3.4-13-8.1c-2.6-4.1-4.5-8.6-6.7-13c-0.1-0.2-0.1-0.6,0-0.8c1.7-3.7,3.4-7.4,5.2-11c1.5-3,3.9-5.3,6.6-7.1
			C176.7,151,180.8,149.9,184.9,149.6z M183.3,146.9c-0.9-1.3-2.1-2.5-3-3.8c-0.4-0.5-0.5-1.6-0.2-2.1c0.8-1.1,1.3,0,1.8,0.5
			c0.6,0.7,1.1,1.6,1.7,2.3c1.1,1.4,1.9,1.3,2.8-0.2c0.3-0.5,0.7-1.1,1.1-1.6c0.3-0.3,0.6-0.7,1-1.1c0.5,0.5,0.8,0.8,1.1,1.1
			c-0.9,1.7-1.7,3.3-2.6,4.8C185.9,148.7,184.5,148.7,183.3,146.9z M182.5,201.3c0,1.5,0,3,0,4.6c-3.3-1.1-3.8-3.8-4.1-6.7
			c-0.1-0.8,0-1.8,0.3-2.6c0.3-0.7,1.1-1.7,1.7-1.8c1.2-0.1,2.3,0.4,2.2,2.1C182.4,198.4,182.5,199.8,182.5,201.3z M179.4,187.8
			c0.4-1.3,1.5-1.7,3.4-1.7c-0.4,1.1-0.8,1.9-1.1,2.8C180.9,188.5,179.4,187.9,179.4,187.8z M202.4,193.1c0.8,2.2,1.7,2.2,4,0.7
			c0.5-0.3,1.2-0.4,1.8-0.4c0.1,0,0.4,0.9,0.3,1.3c-0.1,0.4-0.5,0.8-0.9,1c-2.4,1.5-5,2.6-6.6,5.1c-0.2,0.3-1.1,0.5-1.5,0.3
			c-0.7-0.3-1.4-0.9-2.2-1.4c2.8-4,0.4-8.5-3.1-10.9c-1.6-1-3.6-1.6-5.5-1.8c-1.6-0.2-2.3-0.6-2.1-2.3c3.7-1.2,7-0.1,10,1.8
			C199.2,188.1,201.2,190.2,202.4,193.1z M198.6,185.3c1.2-2.3,2.2-4.3,3.2-6.4c0.4-0.8,0.8-1.4,1.9-1c0.9,0.4,1.9,0.8,1.2,2
			c-1.2,2.1-2.4,4.3-3.9,6.1C199.9,187.3,199.1,185.7,198.6,185.3z M194.1,191.5c-2.3,0.8-4.6,1.5-7.2,2.4c0-1.2-0.1-2.2-0.1-3.1
			c0-0.2,0.1-0.5,0.2-0.8C189.3,191,192,187.9,194.1,191.5z M208.2,224.6c-2.5-5.6-6.1-10.3-11.4-13.5c-0.9-0.6-1.8-1.3-2.7-2
			c-0.3-0.2-0.4-0.7-0.4-1.1c-0.2-2.5-1.6-3.2-3.7-2c-0.7,0.4-1.6,0.5-2.8,0.8c0-4.1,0-7.8,0-11.6c2.8,0.8,5.3-0.5,7.9-1.5
			c1.1-0.4,1.8,0,1.7,1c0,1.2-0.2,2.4-0.8,3.4c-0.6,1.1-0.6,1.7,0.5,2.5c1.2,0.9,2.3,1.9,3.4,2.9c0.9,0.9,1.4,1,2.5-0.2
			c1.7-1.9,3.9-3.4,6-5c0.8-0.6,1.9-0.8,2.5-1.4c0.5-0.5,0.8-1.5,0.8-2.3c0-0.7-0.5-1.4-0.8-2c-1-1.9-1.5-2.1-3.4-1.2
			c-1.3,0.7-2.4,1.1-2.9-0.9c-0.1-0.4-0.6-0.7-0.9-1.1c-1-1.1-0.8-1.8,0.2-3c1.7-1.9,3.1-4.1,4.3-6.3c0.4-0.5,0-2.1-0.5-2.4
			c-1.7-0.9-3.6-1.5-5.4-2c-0.3,0-1.1,1-1.4,1.6c-1,1.8-1.7,3.6-2.7,5.3c-0.7,1.2-1.7,1.3-3.2,1c-2.4-0.5-5-0.7-7.7-1.1
			c0,0.1-0.1,0-0.1-0.2c-0.3-4,0.9-4.9,5-4.2c1.3,0.2,2.8-0.1,4.1-0.5c0.3-0.1,0.6-1.3,0.6-2c0.1-3.1,0-3.1-3-2.9
			c-1.6,0.1-3.3,0-5,0.1c-1.3,0.1-1.8-0.5-2-1.7c-0.4-3.6-0.3-3.8,3.3-3.7c0.6,0,1.2-0.1,1.8,0.1c1.7,0.5,2-0.5,2-1.8
			c0-0.7,0-1.5-0.3-2.1c-0.3-0.5-1-0.9-1.6-1.2c-0.2-0.2-0.6,0.2-1,0.2c-3.8,0.5-3.9,0.4-4.1-3.4c-0.1-0.9,0.8-2.5-1.2-2.6
			c-2.8-0.1-3.4,0.4-3.6,2.7c-0.3,3.5-0.3,3.5-4.1,3.6c-0.5,0.1-0.9,0.7-1.3,1.1c0,0.1,0,0.1,0,0.2c-0.3,3.3,0,3.6,3.3,3.3
			c0.5-0.1,1.1-0.1,1.6-0.1c0.3,0,0.8,0.1,0.8,0.2c0.2,1.5,0.4,3,0.3,4.5c-0.1,0.4-1,1.1-1.6,1.1c-1.6,0.2-3.3,0-5,0
			c-0.3,0-1-0.1-1,0c-0.3,1.4-0.6,2.7-0.6,4.1c0,0.4,0.8,1.2,1.3,1.2c1.7,0.1,3.5-0.1,5.2-0.2c1.4-0.1,2.1,0.5,1.9,1.9
			c-0.1,0.5-0.1,0.9,0,1.3c0.4,1.8-0.1,3.1-2.1,3.4c-0.4,0.1-0.8,0.3-1.1,0.6c-1.5,1.6-2.9,0.7-3.9-0.5c-2.7-3.3-4.9-6.9-3.3-11.5
			c0.2-0.4,0.1-1.3-0.2-1.6c-1.8-1.5-1.4-3.5-1-5.2c1.1-5,4.2-8.5,9-10.4c4.9-2,9.7-1.8,14.2,0.5c2.1,1.1,3.6,3.6,5.4,5.5
			c0.8,0.8,1.5,1.8,2.5,2.2c2.5,1,5.5-0.2,6.6-2.7c0.2-0.4,0.1-1.1-0.1-1.3c-2.1-2.1-1.9-4.8-2-7.5c0-0.4,0.1-0.9,0.2-1.4
			c0.3-2.8-0.8-4.8-3-5.1c-2.1-0.3-4.4,1.8-4.9,4.2c-0.1,0.4-0.2,0.8-0.3,1.3c-2.9-1.2-5.7-2.4-8.6-3.7c0.7-1.2,1.5-2.6,2.3-4
			c0.8-1.3,0.5-2.4-0.8-3.2c-0.4-0.2-0.8-0.5-1.1-0.7c-2.3-1.6-2.3-1.6-3.9,0.8c-0.3,0.4-0.6,0.7-0.7,0.8c-1.4-1-2.6-2-4-2.8
			c-2.1-1.1-2.5,1.1-3.5,2c-0.9,0.7-0.3,1.6,0.3,2.3c1.3,1.5,2.4,3,3.7,4.5c-2.6,0.9-5.1,1.5-7.4,2.6c-3.9,1.9-7.2,4.5-9.3,8.4
			c-1.9,3.4-3.3,6.9-5.2,10.2c-1,1.8-1.8,3-0.2,5.2c1.8,2.5,2.7,5.8,4.2,8.6c1.6,3.1,3.7,6,6.8,7.9c1.1,0.7,1.2,1.3,0.7,2.5
			c-2.7,6.2-2.7,12.4,0.9,18.2c1.8,3,3.9,5.8,6,8.6c0.9,1.1,2.2,1.1,3.2,0.1c1.2-1.2,2.2-1,3.6-0.2c2.5,1.4,5.3,2.3,7.6,3.9
			c2.2,1.6,3.9,3.8,5.6,5.8c1,1.2,0.6,2-1,2.4c-2.5,0.7-2.5,0.8-3.8-1.5c-2-3.4-7.3-5.8-11.3-5.1c-1.4,0.3-2.7,0.4-4.1,0.6
			c-2.4,0.3-4.2,1.7-5.6,3.6c-1.6,2.2-1.7,2.1-4,0.6c-3.6-2.3-6.9-4.9-9.6-8.2c-2.6-3.2-5.6-6.2-6.6-10.4c-0.7-2.8-1.7-5.5-2.5-8.3
			c-0.1-0.1-0.1-0.1-0.1-0.2c0.1-2.6-0.3-5.3,0.5-7.6c0.8-2.4,2.6-4.4,4.3-6.4c1.4-1.6,1.6-2.8-0.1-4c-3.9-2.7-5.8-6.4-6.2-11.1
			c-0.3-4.1,0.6-7.8,1.5-11.6c1.1-5.1,3.9-9.2,7-13.1c1.8-2.3,4.3-4,6.6-5.9c0.2-0.2,0.9,0,1.3-0.1c1.3-0.2,2.6-0.4,3.9-0.8
			c0.3-0.1,0.3-1.1,0.5-2c1.2-0.8,2.4-0.6,3.7-0.7c0.8,0.4,2,0.1,3,0.1c-0.1-0.7,0-1.4-0.2-2.1c-0.4-1.4,0-2.2,1.5-2.3
			c3.7-0.2,7.4-0.3,11.1-0.3c1.1,0,2.1,0.6,1.7,2.1c-0.4,1.6,0.5,2.6,2.3,2.3c0.7-0.1,1.4-0.3,2-0.7c1.5-1.1,3.1-1.5,5.3-1.1
			c-0.2,0.7-0.2,1.4-0.6,1.9c-0.9,1.3-0.1,1.9,0.9,2c1.1,0.1,2.1-0.2,3.2-0.4c0.6-0.1,1.5-0.7,1.8-0.5c0.8,0.7,1.4,1.6,2,2.5
			c0.2,0.2,0.2,0.6,0.3,1.2c1.9-1.2,2.6,0.4,3.6,1.5c4.6,5.2,7.4,11.3,8.9,18c1.4,6,0.7,11.9-1.6,17.6c-0.5,1.1-1.5,2.1-2.4,2.9
			c-0.9,0.8-0.9,1.5-0.4,2.5c4.3,7.6,4.2,15.5,1.7,23.7c-1.5,4.8-3.8,8.9-6.7,12.8c-0.5,0.8-1.1,1.4-1.9,2.3
			C208.7,225.4,208.4,225,208.2,224.6z M209.8,228c3.4-2.8,5.4-6.6,7.3-10.3c2.6-5.1,4-10.6,3.8-16.4c-0.1-2.4,0-4.9,0-7.4
			c0.1-0.1,0.2-0.1,0.3-0.2c0.6,1.7,1.3,3.4,1.3,5.2c0.8,5.6,0.1,11-2.3,16.1c-1.7,3.5-3.8,6.9-5.9,10.2c-0.9,1.5-2.4,2.6-3.7,3.8
			c-0.3,0.2-0.8,0.2-1.2,0.3C209.5,228.9,209.5,228.2,209.8,228z M231.9,210.5c-3.3,5.4-6.9,10.7-11.4,15.3c-1.4,1.4-2.6,2.9-4,4.3
			c-1.7,1.7-3.7,2.9-6,3.6c-0.2-0.2-0.3-0.4-0.5-0.6c1.5-1.4,2.8-2.9,4.4-4c2.3-1.7,4.2-3.5,6.1-5.7c4.2-4.9,7.6-10.5,11.2-15.8
			c1.9-2.8,3.5-5.9,5.4-8.8c0.9-1.4,2.2-2.6,3.4-3.9c0.1,0.1,0.2,0.2,0.3,0.3C237.9,200.3,235,205.5,231.9,210.5z M235.8,170.3
			c2.5,4.8,5,9.6,7.5,14.5c-4-1.4-9.2-12-9.1-16.4C234.9,169.2,235.5,169.7,235.8,170.3z M230.6,173.4c4.2,6,9.2,11.1,14.9,15.8
			c-7.2,4.6-12.8,10.5-17.9,17.1c-1.3-7.2-3.8-13.6-9.2-18.8C223.1,183.3,227.7,179.2,230.6,173.4z M225,169
			c0.4,3.9-0.2,7.8-1.8,11.4c-0.5,1.3-1.8,2.2-2.7,3.2c3.6-6.6,3.5-13.4,1.4-20.1c-2-6.4-4.3-12.8-9.2-17.8
			c-0.1-0.1-0.3-0.2-0.3-0.4c-0.2-0.5-0.3-1-0.4-1.5c0.5,0.2,1,0.3,1.3,0.6c3.1,3,5.5,6.4,7.4,10.3C222.9,159.2,224.4,164,225,169z
			 M225,155.6c-1.2-1.6-2-3.2-3-4.5c-2.4-2.9-5.1-5.7-7.6-8.6c-0.4-0.5-0.7-1.1-1.1-1.9C217.4,141.2,225.8,151.8,225,155.6z
			 M228.8,117.8c-1.6,3.8-2.8,7.7-4.2,11.6c-0.2,0.6-0.8,1-1.2,1.6c-0.4,0.7-0.9,1.4-1.1,2.2c-0.3,1.3-0.3,2.6-0.5,3.9
			c-0.1,0.8-0.6,1.5-0.7,2.3c-0.1,0.7,0.1,1.4,0.1,2.1c0.1,0.9,0.1,1.7,0.2,3c-1.6-1.2-2.6-2.1-3.7-3.1c-1.4-1.3-3.2-2.4-3.1-4.7
			c0.1-0.5-0.2-1.2-0.6-1.4c-1.8-0.9-2.1-2.8-3.1-4.2c-0.8-1.1-2-1.9-3-2.8c2.2-1.2,4.3-2.3,6.3-3.5s3.1-3.2,3.8-5.4
			c1.3-4,5-5.6,9.2-4.9c0.4,0.1,0.9-0.2,1.6-0.4C229.2,115,229.5,116.2,228.8,117.8z M226.5,93.8c3.6,1.4,3.7,4.6,4.5,7.3
			C230.4,98.2,226.3,97.4,226.5,93.8z M231.4,118.3c-0.2,0-0.4,0-0.6,0c0.2-2.7-1-5.4,1-8.1C231.7,112.9,231.5,115.6,231.4,118.3z
			 M232.7,108.5c-0.2,0.1-0.5,0.1-0.7,0.2c-0.3-2-0.7-4-1.2-6c0.2,0,0.4-0.1,0.6-0.1C233.2,104.3,233.1,106.3,232.7,108.5z
			 M235.8,110.9c-0.8-4.1-1.5-7.8-2.2-11.7c-0.4,0.5-0.7,0.8-1.4,1.7c-0.4-5.2-3.7-8.1-6.7-11.3c0.3-0.1,0.5-0.2,0.6-0.1
			c2.5,1.9,5.7,3,6.2,6.7c0,0.4,0.3,1,0.7,1.3c2,1.4,2.5,3.6,3.2,5.8C236.9,105.9,236.5,108.2,235.8,110.9z M227,89
			c1.4-1,2.1-0.7,2.9,1.7C229,90.1,228.1,89.6,227,89z M239.6,101.9c-0.7-2.8-1.3-5.4-2-8c0.2-0.1,0.3-0.1,0.5-0.2
			C239.6,95.4,240.7,100.3,239.6,101.9z M240.1,108.6c0.2-2.3,0.3-4.5,0.6-6.9C242.6,103.8,242.4,107.4,240.1,108.6z M236.7,85.2
			c1.1,1,2.3,2.1,2.8,3.4c1,2.4,1.6,5,2.3,7.5c0.1,0.6,0,1.2,0,1.8c-0.1,0-0.3,0.1-0.5,0.1c-0.8-2.7-1.7-5.5-2.6-8.2
			c-0.4,0.6-1.1,1.4-2,2.6c-0.5-0.7-0.8-1.2-1.1-1.7c-0.1,0.1-0.3,0.2-0.4,0.3c0.8,2.7,1.6,5.5,2.4,8.2c-0.3,0.1-0.5,0.2-0.8,0.3
			c-0.6-1.4-1.5-2.7-1.9-4.1c-0.4-1.7-0.8-3.3-2.1-4.6c-2-2.1-4.2-4-5.9-6.4c-1.5-2.1-3.9-2.4-5.7-3.9c-0.8-0.7-2.3-1.3-1-3
			c-2.8-0.5-3.3-3-4.8-4.7c0.1-0.2,0.3-0.3,0.4-0.5c0.8,0.7,1.7,1.3,2.5,2.1c0.9,0.9,1.7,1.8,2.6,2.8c0.4,0.5,0.8,1.1,1.2,1.6
			c0.1,0.1,0.3,0.3,0.4,0.3c1.7-0.5,1.6,1.1,2.3,1.9c0.7,0.9,1.6,1.6,2.5,2.4c0.1-0.2,0.3-0.3,0.4-0.4c-0.9-0.9-1.7-1.8-2.7-2.9
			c2.9-0.6,5.6,0.7,6.9,3.3c-1-0.4-1.9-0.8-3.2-1.6c0.4,1.7,0.7,3,1,4.2c0.1,0,0.2,0,0.3,0c0-0.4,0-0.9-0.1-1.8
			c2.2,1.9,4.2,3.6,6.1,5.2c0.1-0.1,0.3-0.3,0.5-0.4c-1.1-1.7-2.1-3.5-3.2-5.2c0.2-0.2,0.3-0.3,0.5-0.5
			C234.8,83.9,235.9,84.4,236.7,85.2z M219.4,74.8c0.3-0.2,0.6-0.7,1-0.7c2-0.1,4.9,2.3,5.1,4.8C223.5,77.6,221.6,76.3,219.4,74.8z
			 M233.3,78.2c-0.5,0.2-1,0.4-1.7,0.6c1.2,1.3,2.3,2.6,3.4,3.8c-0.1,0.2-0.1,0.3-0.2,0.5c-0.9-0.5-1.8-1.1-2.7-1.9
			c-1.2-0.7-2.3-1.4-3.4-2.2c-0.7-0.6-1.3-1.4-2-2c-1.3-1.1-2.6-2-3.8-3.2c-1.5-1.4-2.8-3-4.1-4.6c-0.1-0.2,0.2-0.8,0.3-1.6
			c2,1.4,3.8,2.7,5.6,3.9c-0.1,0.1-0.1,0.2-0.2,0.3c-1.2-0.5-2.3-1-3.5-1.5c-0.1,0.1-0.2,0.2-0.3,0.3c0.2,0.4,0.4,0.9,0.7,1.1
			c2.2,1,3.6,3.1,6.2,3.7c1.2,0.3,2.1,1.8,3.2,2.9C231.6,77.4,232.4,76.5,233.3,78.2z M237.9,76c-1.1-1-2.1-1.8-3.5-3
			C237.5,72.9,238,73.3,237.9,76z M239.7,70.7c-0.9-0.1-1.8,0-2.7-0.1c-2.1-0.5-4.3-1.1-6.4-1.8c-0.3-0.1-0.4-0.6-0.6-0.9
			c0.4-0.1,0.8-0.4,1.1-0.3c2.9,0.9,5.7,1.9,8.6,2.9C239.7,70.6,239.7,70.6,239.7,70.7z M403.6,46c1.1,0.1,2.1,0.7,3.2,1.1
			c-0.8,0.7-1.6,1.7-2.6,2.1c-2.6,1-5.3,1.8-8,2.5c-1.9,0.5-3.9,0.9-5.8,1.3c0-0.1-0.1-0.2-0.1-0.3c2.9-1.2,5.7-2.5,8.5-3.5
			c-0.2-0.3-0.3-0.6-0.4-0.9c-8.6,3.1-17.1,6.1-25.7,9.2c-0.1-0.1-0.1-0.2-0.2-0.3c1.2-0.7,2.4-1.6,3.7-2.2c3.3-1.6,6.6-3,9.9-4.6
			C391.6,47.6,397.3,45.3,403.6,46z M372.2,53c-0.1-0.1-0.2-0.3-0.3-0.4c2.1-1.3,4.1-2.6,6.2-3.9C376.4,50.5,375,52.8,372.2,53z
			 M395.1,42.6c-4.2,5.4-10.4,7-16.2,9.3c-0.2-0.2-0.3-0.4-0.4-0.6c2.9-1.8,5.9-3.5,8.8-5.3c-0.1-0.2-0.1-0.3-0.2-0.5
			c-2.4,0-4.3,1.7-6.6,2.1C382.8,44.5,392.3,41.1,395.1,42.6z M363.9,31.2c1-1.4,2.2-1.7,3.5-0.8c0.5,0.4,1,1.4,0.9,2
			c-0.8,4-2.8,7.2-6.1,9.6c-1,0.8-1.8,1.8-2.8,2.5c-0.6,0.4-1.5,0.7-2.3,0.7c1.7-1.9,3.5-3.6,5-5.6s2.7-4.3,4-6.4
			c-0.3-0.1-0.5-0.2-0.7-0.3c-1.3,1.7-2.5,3.4-3.6,5.1c-0.1-0.1-0.3-0.2-0.5-0.3C361.5,35.3,362.5,33.2,363.9,31.2z M361.2,45.8
			c-1.1,0.7-2.2,1.4-3.3,2.1c-0.1-0.2-0.3-0.5-0.4-0.7c1.1-0.6,2.2-1.3,3.3-1.9C361,45.5,361.1,45.6,361.2,45.8z M358.9,29.9
			c0.2-0.3,0.5-0.6,0.8-0.8c0.5-0.2,1.2-0.6,1.6-0.5c0.4,0.1,0.7,1.1,0.6,1.5c-0.8,2.8-1.4,5.6-2.7,8.2c-1,2.1-2.8,3.7-4.4,5.4
			c-0.5,0.5-1.2,0.6-1.8,0.9c-0.1-0.1-0.2-0.3-0.3-0.4c2.3-3.1,5.2-5.9,5.8-10.1c-2.5,3.5-4.4,7.5-8.7,9.8c0.8-1,1.4-1.9,1.9-2.7
			C354.1,37.4,356.5,33.7,358.9,29.9z M349.9,31.3c0.9-1.3,2-2.5,3.1-3.7c0.3-0.4,1.1-0.7,1.3-0.5c0.4,0.3,0.8,1,0.7,1.5
			c-0.3,3.3-0.6,6.6-3.1,9.3c-0.8,0.9-1.3,2.2-2.1,3.1c-0.5,0.6-1.4,1-2.1,1.4c-0.1-0.1-0.2-0.3-0.3-0.4c1.7-3.1,3.4-6.2,4.9-9.3
			c-0.2-0.2-0.5-0.3-0.7-0.5c-2.4,3.9-4.4,8-8.1,10.8c-0.1-0.1-0.3-0.2-0.4-0.3c0.8-1.4,1.7-2.7,2.5-4.1
			C347,36.1,348.4,33.7,349.9,31.3z M348,26.6c1.4,4-2.6,11.6-6.7,14.7c1.4-3.3,2.8-6.6,4.1-10c-0.1,0-0.3-0.1-0.4-0.2
			c-1.4,2.3-2.8,4.7-4.2,7c-0.9,1.5-1.2,1.6-2.6,1C340.3,32.8,344.6,27.5,348,26.6z M336.4,27.2c0.4-1.2,1.5-2.2,2.5-3.1
			c0.8-0.8,1.6-0.6,1.7,0.7c0.4,3.3,0,6.5-1.5,9.6c-0.7,1.6-1.4,3.2-2.2,4.7c-0.4,0.7-1.1,1.1-1.9,1.4c1-3.6,2.1-7.1,3.1-10.7
			c-0.2-0.1-0.4-0.1-0.6-0.2c-1.5,3.8-3,7.6-4.7,11.4c-0.2,0-0.4-0.1-0.6-0.2c0.2-1,0.5-1.9,0.8-2.9
			C334.1,34.3,335.1,30.7,336.4,27.2z M329,28.3c0.3-1.6,1.3-3.1,2.1-4.5c0.6-1.1,1.4-0.9,1.7,0.2c0.3,1.4,0.8,2.8,0.8,4.2
			c0.1,5-1.5,9.7-3.7,14.2c-0.1,0.1-0.3,0.2-0.9,0.7c1.6-5.3,2.8-10.2,1.9-15.3c-0.9,4.5-1.7,8.9-2.6,13.4c-0.2,0-0.5,0-0.7,0
			c-0.1-0.5-0.4-1-0.3-1.4C327.8,36,328.3,32.1,329,28.3z M324.2,22.7c0.5,2,0.9,4,1.4,6c0.1,0,0.2,0,0.3,0c0-0.8,0.1-1.5,0.2-2
			c0.2-0.1,0.3-0.1,0.5-0.1c0.2,1.7,0.7,3.4,0.7,5.2s-0.3,3.7-0.6,5.5c-0.1,0.5-0.7,0.9-1,1.3c-0.3-0.5-0.8-0.9-0.8-1.4
			c-0.3-3.2-0.5-6.3-0.8-9.5c0-0.5-0.4-1-0.5-1.5c-0.2-1.1-0.3-2.2-0.4-3.3C323.5,22.8,323.9,22.8,324.2,22.7z M322.2,26
			c0.2,0,0.5,0,0.7,0c0,4.1,0,8.3,0,12.4c-0.2,0.1-0.3,0.1-0.4,0.1c-0.1-2.1-0.1-4.3-0.6-6.3C321.3,30,321.1,28,322.2,26z
			 M324.3,39.4c0.3-0.2,1.4,0.3,1.6,0.7c0.6,1.3,1,2.6,1.4,3.9c0.4,1.3,2,2.3,3.2,1.7c0.2-0.1,0.5-0.2,0.6-0.4
			c1.9-2.5,5-3.2,7.6-4.7c0.6,3.7-1.8,6.1-7.4,7.7c0.8-0.8,1.4-1.5,2-2.1c-0.1-0.1-0.2-0.3-0.3-0.4c-1.6,1-3.2,2-4.8,3
			c-0.2-0.5-0.3-1-0.5-1.6c-1.3,0.5-2.6,1-3.8,1.5c0.3-1.5,0.6-2.8,0.9-4.1c-0.2-0.1-0.3-0.1-0.5-0.2c-0.7,1-1.3,1.9-1.9,2.8
			c-0.2-0.1-0.3-0.1-0.5-0.2c0.4-1.4,0.9-2.8,1.3-4.2c-0.2-0.1-0.5-0.2-0.7-0.3c-0.6,1.1-1.1,2.2-1.7,3c-0.3,0.5-0.8,0.7-1.2,1.1
			c-0.2-0.6-0.5-1.1-0.4-1.6C319.8,42.2,322.2,40.9,324.3,39.4z M318.4,28.1c-0.3-1.1-0.6-2.2-0.9-3.5c3,2.3,4.9,11.5,2.7,14.9
			c-0.3-6.5-4-11.3-6.2-16.6C316.5,23.9,316.7,26.6,318.4,28.1z M313.8,24.7c2.2,4.2,4.7,8.2,4.2,13.3c-0.8-2.3-1.6-4.6-2.4-6.9
			c-0.1,0-0.3,0.1-0.4,0.1c0,0.5,0.1,1,0.1,1.5c-0.2,0-0.3,0.1-0.5,0.1c-0.6-2.6-1.1-5.3-1.7-7.9C313.3,24.8,313.6,24.8,313.8,24.7z
			 M304.6,26c0.1-0.4,0.1-0.8,0.2-1.2c3.3,0.3,8.3,4.8,9,8.5c-0.7-0.6-1.2-0.9-1.8-1.4c0.8,1.8,1.6,3.5,2.3,5.1
			c0,0.1-0.1,0.1-0.2,0.1c-2.3-3-4.5-6.1-6.8-9.1C306.7,27.1,305.5,26.6,304.6,26c2.9,3.3,6.1,6.6,7.8,11c0.2,0.6,0,1.4,0,2.1
			c2.7-1.4,3.4-1.2,4.6,1.6c0.6,1.5,1.2,3,1.7,4.5c0.7,2.1-0.9,2.7-2.2,3.3c-0.4-1.9-0.7-3.9-1-5.8c-0.2,0-0.4,0-0.6,0
			c0,1.2-0.1,2.4-0.2,3.6c-0.1,0.1-0.3,0.1-0.4,0.1c-0.3-1.2-0.6-2.5-0.9-4.1c-0.8,1.4,0.3,3.4-2.6,3.7c0.6-2.4,1.1-4.6,1.6-6.8
			c-0.4-0.4-0.9-0.7-1.2-1.1c-1.8-2.3-3.6-4.6-5.3-7c-0.7-1.1-1.3-2.3-1.8-3.5C303.9,27.2,304.4,26.5,304.6,26z M299.2,30.7
			c-0.2-0.3-0.3-0.7-0.5-0.9c-0.9-0.9-1.4-1.8-0.5-3.2c4.8,2.5,8.6,6.1,11,11.1c-2.4-2.4-4.9-4.7-7.4-7.1c-0.1,0.1-0.2,0.2-0.3,0.3
			c1.9,2.2,3.7,4.3,5.6,6.5c-0.2,0.2-0.3,0.3-0.5,0.5c-2.3-2.2-4.7-4.4-7-6.6c0.8,1.5,1.7,2.9,2.7,4.3c0.3,0.6,0.5,1.3,0.6,2.1
			c-2.5-1.8-3.7-4.4-5.3-7.3C298.4,30.5,298.8,30.6,299.2,30.7z M303.2,40.3c0.8-0.4,1.6-1.3,2.2-1.2c1.5,0.4,2.7,1.3,3,3
			c0.2,0.8,0.5,1.8,1.1,2.4c1.5,1.6,0.1,2-0.9,3c-0.4-1.2-0.7-2.2-1-3.2c-0.1,0-0.3,0-0.4,0c-0.1,0.8-0.1,1.6-0.2,2.4
			c-0.1,0.1-0.2,0.1-0.3,0.1c-0.4-0.9-0.8-1.8-1.2-2.7c-0.1,0-0.3,0-0.4,0c0,0.9,0.1,1.9,0.2,2.9c-0.1,0.1-0.2,0.2-0.3,0.3
			c-0.4-0.5-1-0.9-1.2-1.5c-0.3-1-0.4-2.1-0.6-3.1c-0.4-1.7-1.6-2.9-2.8-4.2c-3.3-3.5-7.7-5.2-11.6-7.7c-0.2-0.1-0.3-0.3-0.6-0.7
			C291.1,30,298.9,35.4,303.2,40.3z M280.3,32.1c3.8,0.9,7.5,2.2,10.2,5.3c0.2,0.2,0.3,0.6,0.4,0.9c0.7,0.4,1.3,0.7,2.2,1.2
			c-2.2-2.8-4.3-5.4-6.3-8c0.2-0.2,0.3-0.4,0.5-0.6c1.2,0.8,2.4,1.5,3.6,2.3c1.3,0.9,2.6,1.8,3.9,2.8c1.3,0.9,2.4,1.9,3.4,3.2
			c-3.1-1.7-5.3-4.7-9.1-5.3c1.2,1.1,2.5,2.2,3.8,3.3c1.5,1.3,1.6,2.7,0.2,4.3c-0.7-1.1-1.5-2.2-2.2-3.2c-1.8-1.1-3.6-2.3-5.6-3.3
			c-1.9-0.9-3.9-1.6-6.3-2.6C279.7,32.2,280.1,32,280.3,32.1z M292.3,42.4c-0.1,0.3-0.3,0.5-0.5,0.8c-3.3-4.4-9.1-5-12.7-8.9
			C284.3,35.8,288.9,38.2,292.3,42.4z M281.3,39.1c-3.1-1.3-6.4-2.7-9.6-4.1C273.9,34.3,280.3,37,281.3,39.1z M281.9,41.9
			c-4.5-1.8-9-3.5-13.7-5.5C271.2,35.5,279.8,39,281.9,41.9z M281.6,44.7c-0.2,0.2-0.3,0.4-0.4,0.6c-2.3-1.5-4.6-3-6.8-4.4
			C276.6,40.4,280,42.5,281.6,44.7z M259.5,39.2c0.6-0.2,1.4-0.5,2-0.6c0.1-0.2,0.2-0.3,0.3-0.5c-0.5-0.1-1-0.2-1.5-0.3
			c-0.1-0.2-0.1-0.4-0.1-0.6c0.8-0.2,1.6-0.6,2.3-0.5c4.4,0.4,8.1,2.2,11.3,5.3c-2-0.8-3.9-1.8-6-2.5c-2-0.7-4-1.7-6.3-0.9
			c0.9,0.2,1.7,0.3,2.5,0.7c4.4,2.1,8.8,4.3,13.2,6.5c0.1,0.1,0.1,0.2,0.3,0.7c-2.5,0-3.7-2.3-5.7-2.9c-2.1-0.6-4.1-1.6-6.2-2.3
			C263.5,40.5,261.6,39.9,259.5,39.2z M268,44.4c2-0.5,5.2,1,7.3,3.3C272.2,47.8,270.3,45.9,268,44.4z M269.1,51.9
			c-1.5-0.4-2.6-0.5-3.7-1c-3.1-1.5-6.3-3-9.4-4.6c-0.4-0.2-0.7-0.5-1.2-0.8C257.3,44.9,267.7,49.3,269.1,51.9z M247.8,52.2
			c-1.4-0.4-2.7-1.3-3.9-2.1c-0.2-0.2-0.2-1-0.1-1.4c0.1-0.5,0.5-0.9,0.8-1.6c3-0.7,9.8,0.2,12.7,1.9c-4.2-0.1-8.2-2.2-12.6-0.7
			c3.5,0.6,7,0.9,10.3,1.8c3.3,1,6.3,2.5,9.4,4c-5.7-0.2-10.5-4-16.7-3.7c4.8,1.7,9.3,3.2,13.7,4.8c0,0.2-0.1,0.3-0.1,0.5
			c-0.5,0-1.1,0.1-1.6,0C255.7,54.5,251.7,53.5,247.8,52.2z M262.6,65c-0.9,0-1.3,0-1.7,0c-2,0-4-0.1-6,0c-0.3,0.1-1,0.6-1,1
			c-0.1,0.4,0.3,1,0.7,1.3c0.9,0.8,2,1.4,2.9,2.2c-2.9-0.1-5-1.5-6.3-4.1C253.1,63.6,259.1,63.2,262.6,65z M260.9,72.2
			c0,0.2-0.1,0.5-0.1,0.7c-1.8-0.3-3.5-0.6-5.3-0.9c0.1-0.1,0.1-0.3,0.1-0.4C257.4,71.9,259.2,72.1,260.9,72.2z M247.4,77.9
			c3-0.4,5.9,0,8.1,2.5C252.8,79.6,250.1,78.7,247.4,77.9z M248,86.1c-0.2,0.1-0.3,0.2-0.5,0.3c-2.2-1.1-2.1-3.5-3-5.3
			c0.2-0.1,0.4-0.2,0.6-0.3C246,82.6,247,84.3,248,86.1z M246.3,60.9c0-0.2,0.1-0.5,0.1-0.7c1.8,0.5,3.6,1,5.4,1.4
			c0,0.2-0.1,0.3-0.1,0.5C249.9,61.7,248.1,61.3,246.3,60.9z M257.6,59.9c-3.5-1-6.7-2.1-9.9-2.7c-3.3-0.6-6.6-0.7-10.2-1
			C240.9,53.8,255.5,56.8,257.6,59.9z M241.3,58c0-0.2,0.1-0.3,0.1-0.5c2.3-0.4,4.9,0,6.2,1.5C245.2,58.6,243.3,58.3,241.3,58z
			 M232.7,60.9c4.6-0.6,8.9,0.9,13.2,1.8c0,0.2-0.1,0.5-0.1,0.7C241.4,62.6,237.1,61.7,232.7,60.9z M249,69.5c0,0.1,0.1,0.2,0.1,0.3
			c-0.2,0.2-0.4,0.3-0.6,0.4c-0.7,0.5-1.5,1.1-2.2,1.6c0.6,0.7,1.1,1.6,1.9,2c1.3,0.7,2.7,1.1,4.1,1.7c0.7,0.3,1.3,0.7,1.9,1
			c-0.1,0.2-0.2,0.4-0.3,0.6c-2.9-1.2-5.8-2.3-8.7-3.8c-0.8-0.4-1.2-1.7-1.9-2.8C245.6,70.1,247.3,69.8,249,69.5z M243.3,76.2
			c2.2,0.7,3.3,2.5,4.1,4.7c-1.5-1.5-3-2.9-4.5-4.3C243,76.5,243.2,76.3,243.3,76.2z M252.7,95.6c-0.2,0.1-0.3,0.2-0.4,0.3
			c-0.8-0.7-1.5-1.6-2.3-2.3c-0.7-0.6-1.5-1.1-2.1-1.8c-1.2-1.5-2.8-2.7-3.1-5c-0.3-2.2-1.6-4.3-2.4-6.4c0.1-0.1,0.2-0.1,0.3-0.2
			c2,3.5,4,7.1,6.2,11c0.3-0.7,0.4-1.2,0.7-2.1C250.7,91.4,251.7,93.5,252.7,95.6z M249.2,80.6c0.1-0.2,0.1-0.4,0.2-0.6
			c2.4,0.8,4.9,1.5,7.3,2.3c0,0.2-0.1,0.4-0.1,0.6C253.9,82.8,251.6,81.7,249.2,80.6z M258.3,99.6c-1.4-2.9-2.8-5.8-4.2-8.7
			c0.2-0.1,0.4-0.2,0.6-0.3C256.7,93.2,257.5,96.3,258.3,99.6z M257.4,85.6c-1.4-0.1-2.9-0.3-4.4-0.4c0-0.3,0.1-0.5,0.1-0.8
			c1.5,0.2,2.9,0.5,4.3,0.8C257.4,85.3,257.4,85.5,257.4,85.6z M265.6,84.2c-1.8-0.6-3.6-1.2-5.4-1.7c0.1-0.2,0.1-0.4,0.2-0.6
			c1.8,0.5,3.6,1,5.4,1.5C265.8,83.7,265.7,83.9,265.6,84.2z M274.5,82c-0.8-0.5-1.6-1-2.4-1.4c-0.9-0.5-1.9-0.9-2.7-1.2
			c0.4,0.8,0.9,1.7,1.3,2.5c0,1.8-0.4,2.1-2.6,1.3c-2.7-0.9-5.3-2.1-7.9-3.3c-0.4-0.1-0.5-0.7-0.8-1.1c0.1-0.2,0.3-0.3,0.4-0.5
			c3.3,1.4,6.7,2.8,9.9,4.1c0.1-1.5-1.3-2.3-9.3-4.9c1.5-0.5,2.5-1,4,0.1c1.4,1,3.3,1.2,5,1.8c-1.2-0.8-2.4-1.5-3.6-2.3
			c0.1-0.1,0.1-0.3,0.2-0.4c3.1,1.2,6.2,2.5,8.8,4.6C274.7,81.6,274.6,81.8,274.5,82z M366.8,64.6c0.9,0.6,1.5,1,2.1,1.4
			c0,0.2-0.1,0.3-0.1,0.4c-2.3,0.2-4.7,0.6-7,0.7c-4.6,0.1-9.2,0.3-13.8,0.1c-1.4,0-2.8-0.9-4.1,0.3c-0.1,0.1-0.6-0.2-0.9-0.3
			c-1.7-0.8-3.4-1.6-5.2-2.3c-0.5-0.2-1.1,0.3-1.6,0.1c-0.5-0.2-0.9-0.7-1.4-1.2c-0.4,0.3-0.9,0.7-1.5,1.2c-0.3-0.9-0.5-1.7-0.8-2.6
			c-1.6,0.5-2.9,0.5-2.9-1.8c-1.3,0.6-2.5,2.2-2.8-0.5c-0.7,0.4-1.3,0.6-2,1c-0.5-0.9-1-1.7-1.7-2.9c-0.7,0.9-1.4,1.7-2.5,3
			c0-1.5-0.1-2.3-0.1-3.1c-0.2-0.1-0.3-0.2-0.5-0.3c-0.6,0.8-1.1,1.6-1.7,2.4c-0.2-0.1-0.4-0.1-0.6-0.2c-0.1-0.6-0.1-1.3-0.2-1.9
			c-1.7,0.5-2.2,1.8-1.9,3.6c-0.2,0-0.4,0-0.6,0c-0.3-1.3-0.6-2.6-0.9-4.1c-2.7,1.1-4.4,2.9-5,5.7c-0.2-0.1-0.3-0.1-0.5-0.1
			c-0.3-0.9-0.6-1.7-0.9-2.7c-2,0.4-1.9,2-1.9,3.7c-1-0.5-1.7-0.8-2.5-1.2c-0.4,0.7-0.7,1.4-1.1,2.2c-1.2-0.3-2.9-1.2-2.8,1.5
			c-1.3-0.2-2.5-0.5-2.6,1.3c0,0.2-0.2,0.3-0.3,0.4c-1.9,1-3.7,2.1-5.6,3.2c-1.5,0.8-2.9,1.7-4.3,2.5c-0.3,0.2-0.7,0.1-1.1,0.2
			c-0.4,0-0.8,0-1,0.2c-1.6,1.2-3.2,2.5-4.8,3.7c-3-3.3-7.3-5.2-8.9-3.7c1.9,0.7,3.7,1.6,5.5,2.1c1.6,0.5,1.9,1.4,1.6,2.9
			c-0.3,0-0.6,0-0.7-0.1c-1.2-2.2-3.4-2.8-5.4-3.6c-0.7-0.3-1.7,0.1-2.6,0.1c-0.7,0-1.4-0.3-2.1-0.4c0.3-0.6,0.4-1.2,0.8-1.6
			c1.4-1.4,3.1-1.5,4.9-0.8c1.3,0.4,2.6,0.6,3.8,1.1c1.1,0.4,2.1,1.1,3.6,1.9c-0.4-0.7-0.5-1.1-0.8-1.3c-1.4-1.3-2.5-3.2-4.8-3.2
			c-0.1,0-0.2,0-0.3-0.1c-3.3-1.8-3.3-2.1-0.6-4.7c-3.6,0.9-7.3-0.4-10.9,1.8c1.8,0.9,3.3,1.8,4.8,2.7c-0.1,0.2-0.2,0.3-0.3,0.5
			c-2.6,0.2-4.3-1.6-6.1-3.4c2.1-2.6,4.9-1.9,7.6-2c0.1-0.2,0.3-0.3,0.4-0.5c-0.4-0.2-0.9-0.5-1.6-0.8c0.8-0.3,1.4-0.4,1.9-0.6
			c-0.5-1.5-1.6-3,0-4.4c-2.4-0.4-4.9-0.8-7.3-1c-0.1,0-0.7,1.3-0.5,1.5c0.8,0.7,1.7,1.3,2.6,1.8c1,0.6,2,1.1,2.9,2
			c-2.7-1.1-5.9-1.2-7.5-4.4c-0.8-1.6,0.1-2.1,1.2-2.1c2.4-0.1,4.7,0.1,7,0.3c0.7,0.1,1.3,0.4,2.2,0.6c-0.2,0.5-0.4,0.9-0.6,1.3
			c2.2-1.2,4.3,0.4,6.6,0.8c0.6,0,1.1,0.1,2.1,0.2c-0.5-0.6-0.6-0.9-0.8-1c-2.8-1.4-5.6-2.7-8.3-4.2c-0.6-0.3-0.8-1.2-1.2-1.8
			c0.5-0.3,1.1-0.9,1.7-0.9c2.2,0.1,4.5,0.4,6.7,0.7c1.8,0.3,3.4,0.7,5.2,1.1c-1.7-1.3-3.4-2.5-4.9-3.8c-0.4-0.3-0.7-1-0.6-1.3
			c0.3-0.5,0.8-1.2,1.4-1.4c2.5-0.7,4.6,0.4,6.7,1.6c0.9,0.6,1.7,1.2,2.5,1.7c1.3-0.8,1.1-1.4,0.4-2.5c-0.7-1.1-1.2-2.4-1.6-3.7
			c-0.2-0.6,0.2-1.3,0.4-2.1c-0.2-0.3-0.7-0.8-1.1-1.3c0-0.1,0.1-0.1,0.1-0.2c2.4,1.6,4.8,3.1,7.2,4.6c0.7,0.4,1.5,0.6,2.3,0.9
			c0-0.8,0.2-1.6,0-2.3c-0.6-1.5-0.4-3,0.6-4.2c0.3-0.4,1.2-0.8,1.6-0.6c2.4,1.1,4,3,4.9,5.4c0.1,0.2-0.1,0.4-0.3,0.9
			c-1.1-1.4-2-2.7-3-4c-0.1,0.1-0.3,0.1-0.4,0.2c0.5,1.7,1.1,3.3,1.6,5c-0.2,0.1-0.3,0.1-0.5,0.2c-0.7-1.2-1.5-2.3-2.2-3.5
			c-0.2,0.1-0.3,0.2-0.5,0.3c0.7,1.4,1.4,2.9,2.1,4.4c-0.2,0.1-0.3,0.1-0.4,0.2c-0.5-0.5-1.1-1.1-1.6-1.7c-0.1,0.1-0.3,0.2-0.5,0.3
			c0.2,0.8,0.5,1.6,0.7,2.4c-0.1,0.2-0.2,0.3-0.3,0.4c-2.6-1.6-5.1-3.1-7.8-4.8c0,2.1,1.3,3.6,2.9,4.3c2.3,1,4.4,2.3,6.7,3.6
			c0.1-0.2,0.3-0.7,0.2-1.1c-0.3-2.2,0.9-3.7,2.5-5c1-0.8,2.2-0.9,3.1,0.3c0.9,1.3,1.7,2.7,2.7,3.9c1,1.3,2.1,2.5,3.2,3.7
			c0.3-1.4,0-2.6-1.1-3.7c-0.8-0.8-0.3-3,0.8-3.9c1.3-1.1,3.1-1.1,3.8,0.1c0.8,1.4,1.5,2.8,2.2,4.2c3.9-4.5,4-4.7,6.5-4
			c-1,1.6-2,3.1-2.9,4.7c0.2,0.1,0.3,0.3,0.5,0.4c0.9-0.7,1.7-1.6,2.7-2.1c1.4-0.7,2.8-1.4,4.3-1.8c1.4-0.3,2,0.7,1.7,2
			c-0.3,1.2-0.8,2.3-1.2,3.5c-0.1,0.3-0.2,0.6-0.4,1.3c0.7-0.4,1.1-0.5,1.3-0.8c0.6-0.8,1.1-1.3,2.2-0.7c0.2,0.1,0.8-0.1,1-0.3
			c1.3-1.1,2.5-2.2,3.7-3.3c-0.2-0.2-0.3-0.4-0.5-0.6c-1.5,0.9-3.1,1.9-4.7,2.8c-0.2,0-0.3-0.1-0.5-0.2c0.3-0.8,0.4-1.7,0.9-2.2
			c2.2-2.2,5.1-2.9,8.2-2.6c1.6,0.1,1.8,0.6,0.9,1.9c-1.8,2.4-4.1,3.8-6.8,4.8c-1,0.3-2,0.9-2.9,1.7c2.9-0.6,5.8-1.4,8.8-0.3
			c0.3,1.8-1.2,2.4-2.3,3.4c1.9,1.2,3-1,4.6-1c1.5,0,3.1-0.2,4.9-0.4c-1.4-1.4-1.4-1.4-6.2-1.5c1-0.7,2.1-1.3,3.1-2
			c-0.2-0.3-0.3-0.5-0.5-0.8c-1.9-0.1-4,2.6-5.9-0.4c1.8-0.8,3.5-1.5,5.2-2.3c-0.5-0.2-0.9-0.3-1.6-0.5c1.2-1.3,2.2-2.5,3.3-3.9
			c-2.2,0.3-4.1,0.5-6.1,0.8c1.8-1,3.3-1.9,4.8-2.6c1.9-0.8,3.9-1.5,5.9-2.2c0.2,0.3,0.3,0.5,0.5,0.7c-1.8,2.5-3.6,5-5.5,7.8
			c1.3,0,2.4,0.1,3.5,0.2c-0.1-0.2-0.1-0.3-0.2-0.4c1-0.7,2-1.5,3.1-2.2c-1.1,0-2.3,0-3.5,0c3.6-2.4,7.5-3.3,12.1-3
			c-0.8,2.3-2.6,2.6-4,3.5c-1.4,0.9-2.7,1.8-4,2.9c5.2-2.2,10.7-2.6,15.7-3.1c1.7-1.8,3.2-3.3,4.7-4.9c-0.1-0.2-0.2-0.4-0.3-0.6
			c-0.5,0.3-1.1,0.4-1.6,0.7c-2.1,1.3-4.2,2.7-6.3,4.1c-0.3,0.1-0.7,0.1-0.9,0.1c2.1-1.9,4.3-3.9,6.4-5.8c2.1-1.9,4.8-3.3,6.1-6.2
			c-3.8,2.9-7.4,5.7-11.1,8.5c-0.1-0.2-0.3-0.3-0.4-0.5c4.1-4.7,8.1-9.5,14.7-10.9c-1,6.5-5.5,10.7-9.7,15.2c1.3,1,2.7,0.6,3.8-0.2
			c2.8-2,5.6-4,8.3-6c0.4-0.3,0.7-0.9,1-1.4c-0.1-0.1-0.2-0.3-0.3-0.4c-3.2,2.1-6.5,4.2-9.7,6.3c3.6-4.7,8.1-7.9,13.9-9.2
			c0.4-0.1,1.1,0.2,1.4,0.5c0.2,0.2,0.1,1-0.2,1.3c-2.3,2.3-4.5,4.5-6.9,6.7c-1.2,1.1-2.6,1.8-4.1,2.4c0.6-0.8,1.3-1.5,1.9-2.3
			c-0.1-0.2-0.3-0.4-0.5-0.6c-4.3,2.9-8.5,5.7-12.7,8.6c3.8-0.2,7.3-2,11.2,0.1c-1.8,3.1-5.6,2.9-8.3,4.7c0.8,1.4,2,0.9,3.1,0.7
			c4.6-0.9,9.3-1.8,14-2.7c0.4-0.1,0.7,0.2,1.5,0.4C379,62.7,373.3,64.3,366.8,64.6z M380.2,62c2.2-2.1,5.1-1.9,7.6-2.4
			c5-1,10-1.7,15-2.5c1.3-0.2,2.6-0.4,3.3,1.1C397.5,59.5,388.9,60.8,380.2,62z M388.5,55.3c0-0.1-0.1-0.1-0.1-0.2
			c2-0.6,4.1-1.2,6.2-1.7c4.4-0.9,8.6-2,13-2.7c4.2-0.6,8.4-0.1,12.3,2.1C409.4,53.6,399,54.5,388.5,55.3z M438.8,59.2
			c-5.2-0.4-10.4-1.2-15.6-1.3c-5.3-0.1-10.6,0.4-15.9,0.6c-0.1-0.2-0.2-0.3-0.3-0.4c0.7-0.7,1.3-1.4,1.9-2.2
			c-0.3-0.1-0.8-0.3-1.3-0.6c10.6-0.7,21.2-1.3,31.2,3.3C438.8,58.8,438.8,59,438.8,59.2z"/>
		<path d="M251.4,42.6c0.2-0.2,0.3-0.5,0.5-0.7C251.8,42.1,251.6,42.3,251.4,42.6z"/>
		<path d="M235.6,77c0.1,0,0.1,0.1,0.2,0.1c0-0.1-0.1-0.2-0.1-0.2C235.7,76.9,235.6,77,235.6,77z"/>
		<path d="M132.9,79.1c-0.3,0.1-0.5,0.1-0.8,0.2c0.3,0,0.6,0,0.9,0C133,79.2,133,79.2,132.9,79.1z"/>
		<path d="M124.5,146.1C124.5,146.1,124.5,146.1,124.5,146.1c0,0,0,0.1,0,0.1V146.1z"/>
	</g>
	<path d="M235,143c-0.4,1.5-0.7,2.8-1.2,3.9c-0.2,0.4-1.1,0.5-1.3,0.6c-0.2-1.2-0.2-2.2-0.5-3.1c-1-2.8,0.4-7,2.8-8.6
		c0.9-0.6,1.4-1.7,2.2-2.6c0.3-0.4,0.9-0.6,1.3-0.9c0.1,0.5,0.4,1.1,0.2,1.6c-0.4,1.4-1,2.7-1.6,4.1c-0.6-0.3-1.1-0.6-1.9-1
		c-0.4,1-0.9,1.9-1.4,3.1c1,0,1.5,0,2.2,0c-0.1-0.6-0.1-1.1-0.2-1.9c1.6,0.3,2,1.3,1.9,2.5C237.3,142.4,236.2,143.1,235,143z"/>
	<path d="M246.2,144.3c0.2-0.7,0.2-1.5,0.6-2.1c1.4-2.3,2.9-4.5,4.4-6.7c0.5-0.8,0.9-1.9,1.6-2.6c0.5-0.5,1.4-0.5,2.1-0.7
		c0.1,0.5,0.3,1.1,0.3,1.6c0,0.2-0.3,0.6-0.5,0.7c-2.7,1.1-3.1,3.7-4,5.9c-0.6,1.3-1.5,2.4-2.4,3.5c-0.3,0.4-1.1,0.5-1.6,0.8
		C246.5,144.6,246.3,144.4,246.2,144.3z"/>
	<path d="M136.5,101.3c-1.4-2-3.4-0.5-5.2-1.5c3.1-0.3,5.9-0.5,8.6-0.7c0-0.2,0-0.4,0-0.6c-2-0.1-3.9-0.3-5.9-0.4c0-0.2,0-0.3,0-0.5
		c3,0,5.9,0,9,0c-1.4-0.8-2.4-1.4-3.4-2c0.6-0.7,1.2-1.3,1.7-2c0.1,0.1,0.2,0.2,0.4,0.3c-0.4,0.6-0.7,1.2-1.1,1.7
		c0.1,0.2,0.2,0.4,0.3,0.6c2-0.3,4.1-0.5,6.3-0.8C143.6,97.4,140,99.4,136.5,101.3z"/>
	<path d="M175.1,42.8c0.6,0.2,1.2,0.5,1.9,0.7c0.1-0.3,0.2-0.7,0.4-1.2c0.6,0.6,1.1,1.2,1.7,1.5c0.4,0.2,1,0,1.5,0
		c0.1-0.2,0.2-0.4,0.4-0.6c1.5,4.2,3,8.3,4.5,12.5c-0.2,0.1-0.4,0.2-0.6,0.3c-0.7-1.3-1.7-2.5-1.9-3.9c-0.6-4-2.9-6.4-6.5-8
		c-0.6-0.3-1.2-0.7-1.7-1.1C174.9,43.1,175,43,175.1,42.8z"/>
	<path d="M110.9,112.5c-0.3-2,1.2-2.9,2.5-3.4c4.1-1.7,8.4-3.1,12.9-3c0.6,0,1.3,0.2,1.9,0.3c-3.1,0.6-6.2,0.9-9,1.9
		C116.4,109.3,113.8,111,110.9,112.5z"/>
	<path d="M239.8,139.3c1.1,1.8-0.7,6.9-1.8,7.3c-1.4,0.5-1.7-0.8-2.2-1.5c-0.7-0.9,0-1.1,0.6-1.6c1-0.8,1.9-1.7,2.8-2.7
		C239.5,140.5,239.6,139.8,239.8,139.3z"/>
	<path d="M117.7,106.7c1.2-3.3,11.3-6,17.4-4.7c-0.7,0.2-1.3,0.4-2,0.5c-2.8,0.2-5.6,0-8.3,0.5c-1.8,0.4-3.4,1.7-5.1,2.6
		C119.1,106,118.4,106.3,117.7,106.7z"/>
	<path d="M247.1,97.5c2,0.2,5.4,8.8,4.2,11C249.9,104.9,248.5,101.3,247.1,97.5z"/>
	<path d="M185,45.8c1,0.3,1.9,0.4,2.7,0.8c0.2,0.1,0.4,1.2,0.2,1.3c-1.5,0.8-0.6,1.7,0.2,2c2,0.7,1.4,2.6,2.3,3.8
		C188.5,51.1,185.3,49.4,185,45.8z"/>
	<path d="M195.1,57.2c0.2-0.6,0.3-1.2,0.5-1.7c0.1,0,0.3,0,0.4,0c-0.2,1.7-0.3,3.4-0.5,5.2c-0.2,0.1-0.3,0.1-0.5,0.2
		c-1.2-2.4-2.4-4.8-3.6-7.2c0.1-0.1,0.3-0.2,0.4-0.3C192.9,54.5,193.9,55.8,195.1,57.2z"/>
	<path d="M166,30.6c2.3,1.6,4.7,3.2,7,4.8c-0.1,0.2-0.2,0.3-0.3,0.5c-3.2-0.4-4.7-3.2-7-4.9C165.7,30.9,165.9,30.8,166,30.6z"/>
	<path d="M185.5,37.2c2.2,1.6,4.5,3.2,6.7,4.8c-0.1,0.2-0.1,0.4-0.2,0.7c-0.4-0.1-0.9,0-1.2-0.2c-1.8-1.3-3.6-2.6-5.3-4
		c-0.2-0.2-0.3-0.5-0.4-0.8C185.2,37.6,185.3,37.4,185.5,37.2z"/>
	<path d="M116.5,109.9c2.9-0.6,5.8-1.1,8.6-1.7c0.1,0.3,0.1,0.5,0.2,0.8c-2.9,0.5-5.7,1.1-8.6,1.6
		C116.6,110.4,116.6,110.1,116.5,109.9z"/>
	<path d="M122.6,105.5c2.7-1.3,5.6-1.7,8.5-1.4c0,0.2,0,0.3,0.1,0.5C128.3,104.8,125.5,105.2,122.6,105.5z"/>
	<path d="M175.4,46.2c0.3,0.6,0.5,1.3,0.8,1.9c0.3,0.5,0.7,1,0.9,1.7c-1.6-1.2-3.4-2.2-3.5-4.8c0.5,0.2,0.8,0.3,1.1,0.5
		C174.9,45.8,175.1,46,175.4,46.2z"/>
	<path d="M243.4,144.3c-0.7,0.7-1.4,1.3-2.2,2c-0.4,0.4-0.9,0.8-1.3,1.3c-0.2-0.2-0.4-0.3-0.6-0.5c1.2-1.5,2.5-3,3.7-4.4
		c0.2,0.1,0.4,0.2,0.5,0.3C243.6,143.4,243.5,143.8,243.4,144.3L243.4,144.3z"/>
	<path d="M234.7,147.5c2.1,0.7,4.2,1.4,6.1,2.1C239.5,150.5,236.7,149.8,234.7,147.5z"/>
	<path d="M243.4,144.3c0.6-0.7,1.2-1.5,1.9-2.3c0.8,1.7-0.5,3.5-2.6,3.8C243,145.2,243.2,144.7,243.4,144.3L243.4,144.3z"/>
	<path d="M175.4,46.2c-0.2-0.2-0.5-0.5-0.7-0.7c-0.1-1,0.3-1.4,1.1-0.6c1,1.1,1.9,2.4,2.8,3.6c-0.1,0.1-0.2,0.2-0.3,0.3
		C177.3,48,176.3,47.1,175.4,46.2z"/>
	<path d="M228.3,59.4c-0.2-0.3-0.4-0.5-0.9-1.1c2.4-0.4,4.4-0.8,6.5-1.1c0,0.2,0.1,0.3,0.1,0.5c-0.6,0.2-1.2,0.4-1.8,0.5
		c-0.7,0.2-1.4,0.2-2.1,0.4C229.4,58.8,228.8,59.1,228.3,59.4C228.2,59.4,228.3,59.4,228.3,59.4z"/>
	<path d="M181.2,49.7c0.7,1.7,1.4,3.7,2.2,5.6C181.4,53.8,180.5,51.2,181.2,49.7z"/>
	<path d="M255.8,122.8c-0.8,1.6-1.5,3.3-2.3,4.9c-0.2-0.1-0.4-0.2-0.7-0.3c0.8-1.7,1.5-3.3,2.3-5
		C255.4,122.6,255.6,122.7,255.8,122.8z"/>
	<path d="M244.5,134.7c0.9-1.6,1.6-2.7,2.3-4C247.4,132,246.4,133.9,244.5,134.7z"/>
	<path d="M232.4,151.2c-1.1,0.6-2.1,1.2-3.3,2C229.3,151.5,230.5,150.7,232.4,151.2z"/>
	<path d="M193.4,51.9c-1.2-1.3-2.4-2.5-3.5-3.8c0.1-0.1,0.3-0.3,0.4-0.4c1.2,1.3,2.3,2.6,3.5,3.8C193.7,51.6,193.5,51.8,193.4,51.9z
		"/>
	<path d="M231.8,154.5c0,0.1,0.1,0.3,0,0.3c-0.6,0.5-1.3,1.1-1.9,1.6c-0.2-0.2-0.5-0.6-0.5-0.6c0.6-0.6,1.3-1.2,2-1.8
		C231.5,154.1,231.6,154.3,231.8,154.5z"/>
	<path d="M186.6,58.4c-0.8-1.6-0.7-2.9,0.3-4.1c0.2-0.2,0.9,0,1.4,0.1C187.4,54.8,187.4,54.8,186.6,58.4z"/>
	<path d="M133.4,110.4c2.1-0.3,4.2-0.6,6.3-0.9c0,0.1,0.1,0.3,0.1,0.4c-0.3,0.1-0.5,0.4-0.8,0.4c-1.6,0.3-3.3,0.5-4.9,0.8
		C133.3,111.3,133.1,111.2,133.4,110.4C133.3,110.4,133.4,110.4,133.4,110.4z"/>
	<path d="M292.9,67.4c-1.2-0.4-1.6-2.5-3.5-1.8c0.7,1.3,1.3,2.5,2.1,4.1c-2.8-0.8-3.8-2.4-3.2-4.6c-0.9-0.3-1.8-0.6-2.8-1
		c0.1,1.4,3.1,1.6,1,3.3c-1.4-0.9-2.7-1.7-4.1-2.6c-1.1-0.7-1-1.9,0.2-2.5c0.6-0.3,1.3-0.3,2.2-0.6c-1.8-0.8-3.4-0.6-4.8,0.3
		c-1.1,0.7-0.7,1.7,0.1,2.4c1.3,1.2,2.7,2.3,4.3,3.7c-2.1-0.3-3.4-2.8-6-1.6c1.8,0.9,3.4,1.6,5.1,2.4c-0.6,0.7-2.4-0.5-1.3,1.5
		c-0.9-0.3-1.5-0.5-2-0.7c-0.1,0.1-0.2,0.2-0.3,0.3c0.6,0.2,1.1,0.5,1.7,0.7c-3.4,0.7-7.7-0.9-7.9-2.3c1.2-0.5,2.4-0.9,4-1.6
		c-1.8-0.5-3.1-0.7-4.3-1.2c-1.4-0.6-2.6-1.6-2.5-3.4c0.1-1.2,0.6-2,2-1.5c1.3,0.5,2.7,1.1,4,1.5c0.4,0.2,1,0.1,1.5,0.1
		c-0.1-0.5-0.1-0.9-0.2-1.4c0-0.2,0-0.3,0-0.3c1.1,0.1,2.2,0.3,3.2,0.2c1-0.2,2-0.7,3-1.4c-1.6-1-3.8,1.5-4.9-1.1
		c-1.4,1.2-8.7-2.3-9.9-4.7c2.8,0,5.5-0.3,8.1,0.9c1.7,0.8,3.2,1.1,4.7-0.4c0.2-0.2,0.8-0.2,1.5-0.4c-1.6-1.2-3-2.4-4.4-3.4
		c2.4-0.6,5,0.6,8.3,3.7c0.4-0.8,0.8-1.6,1.3-2.4c0.2,1.3,0,2.9,0.6,3.6c0.6,0.7,2.2,0.4,3.8,0.6c-0.8-0.8-1.2-1.4-1.7-1.9
		c-0.4-0.5-0.9-0.9-1.3-1.3c0.1-0.2,0.2-0.4,0.4-0.5c0.9,0.6,1.7,1.2,2.7,1.8c1.8-1.7,2.9,0.3,3.7,1.3c0.6,0.7,0,2.3-0.1,3.5
		c-0.2,0-0.3,0.1-0.5,0.1c0.8,0.6,1.7,1.2,2.5,1.9c-0.1,0.1-0.1,0.2-0.2,0.3c-0.4-0.2-0.7-0.4-1.1-0.6c-2-1-3.9-2.3-6-3
		c-1-0.4-2.4,0.1-3.5,0.4c-0.3,0.1-0.6,1.3-0.4,1.6c1.1,1.7,2.4,3.2,3.6,4.8c0.6,0.9,1.1,1.8,1.7,2.7
		C293.2,67.2,293.1,67.3,292.9,67.4z M281.8,58.7c2-2.2,3.2,0.3,4.9,0.3c0.4-2.3-2.3-1.1-2.8-2.4c1.6-1.3,3.1,1.9,5-0.1
		c-2.3-0.1-4-2.1-6.2-0.9c-0.6,0.3-1.5,0.6-1.6,1C280.9,57.1,281.4,57.8,281.8,58.7z M285.2,62c1.5,1,2.9,1.9,4.3,2.9
		C289.7,63.2,287.2,61.6,285.2,62z M278.8,64.5c0.1-0.2,0.2-0.5,0.3-0.7c-1.4-0.5-2.8-1-4.2-1.5c-0.1,0.1-0.1,0.3-0.2,0.4
		C276.1,63.4,277.4,63.9,278.8,64.5z"/>
	<path d="M362.6,51.5c-2,0.8-3.6,1.1-5,1.9c-1.7,1-3.4,1.5-5.5,1.6c-1.7,0.1-3.5,0.9-5.5,1.2c0.7-0.6,1.3-1.6,2-1.8
		c4.2-1.2,8.4-2.2,12.6-3.2C361.6,51.2,361.8,51.3,362.6,51.5z"/>
	<path d="M305.4,57c-0.6-0.4-1.3-0.8-2.3-1.4c0.3,1.4,0.6,2.4,0.8,3.4c-0.1,0.1-0.2,0.1-0.3,0.2c-0.8-0.9-1.7-1.7-2.5-2.6
		c-0.2-0.2-0.2-0.5-0.2-0.8c0-1.3,0.1-2.5,0.2-3.8c0-0.3,0.3-0.7,0.4-1c0.3,0.2,0.7,0.3,0.8,0.5c1.1,1.8,2.2,3.6,3.2,5.4
		C305.6,56.9,305.5,57,305.4,57z"/>
	<path d="M365.6,55.7c-1.1,0.9-2.1,1.8-3.3,2.6c-0.3,0.2-0.9,0.1-1.4,0.1c-1.5,0-3.1-0.2-4.4,0.9c-0.4,0.4-1.2,0.4-1.9,0.5
		c1.3-1.4,3.5-2,3.5-4.4c0.2,0.5,0.4,1,0.6,1.4c2.3-0.5,4.6-1,6.9-1.4C365.6,55.5,365.6,55.6,365.6,55.7z"/>
	<path d="M373.2,60.4c-1.5,0.8-3,1.5-4.3,2.1c-1.1-0.2-2.2-0.4-3.4-0.5c-1.9-0.1-3.7,0.4-5.3,1.6c-0.4,0.3-1,0.3-2,0.5
		c1.8-2.1,5-2,5.7-4.9c0,0.7,0,1.4,0,2.5c3.1-0.5,6.2-1,9.4-1.5C373.3,60.2,373.3,60.3,373.2,60.4z"/>
	<path d="M297.5,64.2c-1.5-1.3-3-2.6-5-4.2c0.9,0,1.5-0.1,1.9,0C296.4,60.8,297.5,62.5,297.5,64.2z"/>
	<path d="M347.8,59.6c1.3-2.1,2.4-2.5,4.5-1.4C350.6,58.5,349.8,60.4,347.8,59.6z"/>
	<path d="M295.1,66.1c-1.2-1.2-2.3-2.5-3.8-4C294.3,62.4,296,64.6,295.1,66.1z"/>
	<path d="M302.1,61.2c-1.2-1.1-2.3-2.2-3.4-3.3C301.2,57.7,302.3,59,302.1,61.2z"/>
	<path d="M351.2,62.9c0.2-1.5,1.6-1.9,4.8-1.4c0,0.2,0.1,0.3,0.1,0.5C354.5,62.3,352.9,62.6,351.2,62.9z"/>
	<path d="M321.6,54.5c0.7-1.1,1.4-2.2,2.2-3.3c0.7,1.8-0.1,3.2-1.6,3.7C322,54.7,321.8,54.6,321.6,54.5z"/>
	<path d="M346.7,51.2c1.9,1.6,1.4,2.5-2.1,4.7C344.6,54,348.3,54,346.7,51.2z"/>
	<path d="M311.7,54.5c-0.4-1.4-0.8-2.6-1.2-4C312.6,51.3,312.9,52.4,311.7,54.5z"/>
	<path d="M306.1,53.4c0.6,0.9,1.3,1.8,1.9,2.8c-0.2,0.2-0.4,0.3-0.6,0.5c-0.7-0.9-1.4-1.7-2.1-2.6C305.6,53.8,305.8,53.6,306.1,53.4
		z"/>
	<path d="M165.6,169.6c1.8,2.2,1.9,3.2,0.6,4.5c-0.9,0.8-1.3,0.2-1.9-0.5C163.1,172.2,163.2,171.7,165.6,169.6z"/>
	<path d="M159,65.7c-0.2,0.5-0.3,1-0.5,1.7c-3.3-0.5-6.6-0.9-10.1-1.4c0-2,1.8-2,3-2C154.1,63.8,156.7,63.9,159,65.7z"/>
	<path d="M143.3,196.9c-0.3,2-0.5,3.7-0.8,5.3c-0.1,0.3-0.5,0.7-0.8,0.8c-0.1,0.1-0.5-0.3-0.7-0.6c-0.9-1.4-1.8-2.9-2.7-4.4
		c-0.2-0.3-0.2-0.8,0-1.2c0.3-1,0.7-2,1.2-3c0.2-0.4,0.7-0.8,1.2-0.9c0.2-0.1,0.6,0.5,0.9,0.9C142.2,194.9,142.8,196.1,143.3,196.9z
		"/>
	<path d="M136.7,189.9c-0.9,1.1-1.5,2.1-2.4,2.8c-0.3,0.3-1.2-0.2-1.9-0.4c-1.1-0.4-2.1-0.8-3.1-1.3c-0.4-0.2-0.7-0.7-1-1.1
		c0.4-0.3,0.7-0.7,1.1-0.9c1-0.5,2.1-1.1,3.2-1.5c0.5-0.2,1.3,0,1.7,0.3C135.2,188.3,135.9,189.1,136.7,189.9z"/>
	<path d="M150.6,187.8c-1.1,1.2-2,2.4-3.1,3.4c-0.3,0.3-1,0.2-1.5,0.2c-0.2,0-0.4-0.1-0.5-0.2c-1-0.8-2-1.6-2.9-2.4
		c0.9-0.8,1.9-1.7,2.9-2.5c0.2-0.1,0.6-0.2,0.8-0.1C147.6,186.6,149,187.2,150.6,187.8z"/>
	<path d="M139.5,186.7c-0.9-1.5-1.6-2.5-2.2-3.7c-0.2-0.3-0.1-1,0.1-1.3c0.8-1.2,1.8-2.3,2.7-3.5c0.7,1.2,1.6,2.5,2.4,3.8
		c0.1,0.1,0.1,0.3,0,0.3C141.5,183.7,140.5,185.1,139.5,186.7z"/>
	<path d="M137.5,189.4c0.2-1.1,0.7-2,2.1-1.9c1.2,0.1,2.3,0.4,2.4,1.8c0.1,1.3-1.1,2.6-2.2,2.5C138.6,191.6,137.6,191,137.5,189.4z"
		/>
	<path d="M134.9,195.1c0.5-1.7,1.5-2.6,3.1-3.1C138,193.7,136.9,194.8,134.9,195.1z"/>
	<path d="M145.3,194.8c-0.6-0.3-1.4-0.4-1.9-0.9c-0.4-0.5-0.5-1.3-0.7-1.9c0.2-0.1,0.4-0.2,0.6-0.3c0.8,0.8,1.6,1.7,2.3,2.5
		C145.6,194.4,145.5,194.6,145.3,194.8z"/>
	<path d="M134.1,184.3c0.7,0.2,1.1,0.2,1.2,0.4c0.6,0.6,1.2,1.4,1.8,2c-0.2,0.1-0.6,0.4-0.7,0.4C135.5,186.6,134.5,186,134.1,184.3z
		"/>
	<path d="M145,183.9c-0.7,0.7-1.3,1.5-2,2.2l-0.6-0.4c0.5-0.8,1.1-1.7,1.7-2.5C144.4,183.4,144.7,183.6,145,183.9z"/>
	<path d="M228.8,202.2c-0.3-2.4-0.6-4.3-0.8-6.2c0-0.2,0.1-0.6,0.3-0.8c0.9-0.9,1.9-1.7,2.9-2.5c1.7,1.4,1.9,2.8,0.6,4.7
		C230.8,198.8,230,200.3,228.8,202.2z"/>
	<path d="M242.5,189.2c-1.7,0.9-3.2,1.9-5,2.6c-1.7,0.6-1.8-1.4-2.7-2.1c-0.2-0.2-0.2-1.1-0.1-1.2c0.9-0.5,1.4-1.9,2.9-1.3
		c0.9,0.4,2,0.4,2.9,0.7c0.7,0.2,1.3,0.4,2,0.7C242.5,188.8,242.5,189,242.5,189.2z"/>
	<path d="M231.7,186c-1.2-0.3-3.1-3-2.8-4.1c0.5-1.6,1.2-3.2,2-5.2c0.9,1.6,2.2,3,2.3,4.5S232.3,184.3,231.7,186z"/>
	<path d="M224.8,186c0.9,0.7,1.8,1.4,2.7,2.1c0.3,0.2,0.4,0.7,0.6,1c-1.3,0.6-2.6,1.7-3.9,1.6c-1-0.1-2-1.6-2.8-2.5
		c-0.2-0.2,0-1.1,0.2-1.2C222.7,186.5,223.8,186.2,224.8,186z"/>
	<path d="M234.2,188.3c-1,1.1-1.6,1.8-2.2,2.5c-0.7-0.7-1.4-1.4-2.1-2.1c0.8-0.7,1.4-1.5,2.3-1.9
		C232.5,186.7,233.3,187.6,234.2,188.3z"/>
	<path d="M226.7,194.3c-0.5-0.7-0.9-1.2-0.9-1.2c0.7-0.8,1.5-1.6,2.2-2.4c0.3,0.3,0.8,0.8,0.8,0.9
		C228.2,192.4,227.6,193.3,226.7,194.3z"/>
	<path d="M234.6,194.7c-0.6-0.9-1.3-1.8-1.9-2.8c0.2-0.2,0.5-0.3,0.7-0.5c0.7,0.9,1.4,1.8,2.1,2.7
		C235.2,194.3,234.9,194.5,234.6,194.7z"/>
	<path d="M227.9,186.5c-0.8-0.7-1.6-1.4-2.4-2.1c0.2-0.2,0.3-0.3,0.5-0.5c1.5,0,1.9,1.1,2.4,2.1
		C228.2,186.2,228.1,186.3,227.9,186.5z"/>
	<path d="M124.1,121.3c-2.2,0.7-4.4,1.5-6.8,2.3C117.9,121.8,121.1,120.6,124.1,121.3z"/>
	<path d="M121.3,119.9c2.2-1.5,4.7-1.7,7.3-1.8c-2.4,0.8-4.7,1.6-7.1,2.3C121.4,120.3,121.4,120.1,121.3,119.9z"/>
	<path d="M137.3,108.4c2.5-0.5,5.1-1,7.6-1.5c0,0.2,0.1,0.5,0.1,0.7c-2.5,0.4-4.9,0.7-7.4,1.1C137.6,108.8,137.5,108.5,137.3,108.4
		C137.4,108.4,137.3,108.4,137.3,108.4z"/>
	<path d="M121.7,23.8c-0.9-0.6-1.4-1.2-2-1.3c-1.8-0.3-3.6-0.3-5.3-0.5c-0.6-0.1-1.2-0.2-1.8-0.5c6.1-0.7,11.8,1.7,17.8,1.4
		c0,0.3,0,0.5,0,0.8C127.2,23.8,124.2,23.8,121.7,23.8z"/>
	<path d="M125.2,21.3c-3.8,0.4-7.3-1.1-10.9-1.8c0-0.2,0.1-0.4,0.1-0.7c3.6,0.6,7.2,1.2,10.9,1.9C125.2,20.9,125.2,21.1,125.2,21.3z
		"/>
	<path d="M131.3,26.5c-2,0.4-3.8-0.5-5.5-1.6c1.9,0.3,3.7,0.6,5.6,1C131.4,26.1,131.3,26.3,131.3,26.5z"/>
	<path d="M125.4,146.3c2-1.2,4.1-2.4,6.1-3.6c0.1,0.2,0.3,0.3,0.4,0.5c-0.3,0.4-0.7,0.8-1.1,1.1c-1.4,1-2.8,2-4.2,2.9
		c-0.3,0.2-0.7,0.2-1.1,0.3C125.4,147,125.4,146.7,125.4,146.3L125.4,146.3z"/>
	<path d="M126.2,148.2c0.8-0.4,1.5-0.7,2.7-1.3c-0.6,1.5-1.1,2.5-1.6,3.6c-0.1,0-0.3-0.1-0.4-0.1C126.7,149.7,126.4,149,126.2,148.2
		z"/>
	<path d="M138.5,149.7c-1.1,0.8-2.2,1.7-3.2,2.5c-0.2-0.2-0.3-0.4-0.5-0.7c1.1-0.8,2.2-1.7,3.2-2.5
		C138.2,149.3,138.3,149.5,138.5,149.7z"/>
	<path d="M137.2,145.5c1.3-0.7,2.7-1.3,4-2c0.1,0.2,0.2,0.4,0.3,0.6c-1.3,0.7-2.7,1.4-4,2.1C137.4,146,137.3,145.7,137.2,145.5z"/>
</g>
</svg>
