<?xml version="1.0" encoding="UTF-8"?>
<svg version="1.1" xmlns="http://www.w3.org/2000/svg" width="735" height="810">
<path d="M0 0 C2.52610592 9.52313227 4.54420697 19.13024034 6.47949219 28.78662109 C6.99237544 31.33708462 7.51550207 33.88530385 8.0390625 36.43359375 C10.56801828 48.90068456 12.40537099 61.38293808 14 74 C14.18215922 75.42865684 14.36454598 76.85728468 14.54711914 78.28588867 C15.64323011 86.86362036 16.73271739 95.44217771 17.81835938 104.02124023 C27.03845733 176.85263091 37.84793237 248.98068828 53.07748413 320.81283569 C54.86009915 329.25118103 56.49319424 337.70719069 58.0625 346.1875 C63.02108091 372.47346804 69.62234632 398.44802497 76.046875 424.40625 C76.39365629 425.80886467 76.74042247 427.21148307 77.08717346 428.61410522 C78.62519993 434.83216778 80.16681889 441.04924269 81.72503853 447.26227951 C82.52258134 450.44727784 83.31322933 453.63399154 84.10546875 456.8203125 C84.39867004 457.9796228 84.69187134 459.13893311 84.99395752 460.33337402 C85.25916199 461.40430298 85.52436646 462.47523193 85.79760742 463.57861328 C86.03090256 464.50940704 86.26419769 465.44020081 86.50456238 466.39920044 C86.99984922 468.99920846 87.09178827 471.36033713 87 474 C62.66213698 477.55205936 38.29684503 480.84019553 13.90246582 483.97894287 C9.4887887 484.54737256 5.0754677 485.11855453 0.66210938 485.68945312 C-7.89159548 486.7955483 -16.4456658 487.89878263 -25 489 C-24.79842285 490.12792969 -24.5968457 491.25585938 -24.38916016 492.41796875 C-23.62833673 496.68156018 -22.87299417 500.94610869 -22.11914062 505.2109375 C-21.79474316 507.04192396 -21.46894223 508.87266243 -21.14160156 510.703125 C-7.4654256 587.22258806 -7.4654256 587.22258806 -25.328125 614.8125 C-34.61745478 626.96676327 -52.74037175 627.8745597 -66.82406616 630.46142578 C-72.00201043 631.4145257 -77.17499973 632.39366161 -82.34765625 633.375 C-83.44503616 633.58318359 -84.54241608 633.79136719 -85.67304993 634.00585938 C-105.072606 637.70975511 -124.39049556 641.8299215 -143.7230835 645.86552429 C-150.8352307 647.34808105 -157.9513663 648.80807476 -165.07421875 650.23828125 C-194.7931777 656.21218241 -224.3835514 662.74740555 -253.97284412 669.32727814 C-263.31877669 671.40553679 -272.66632533 673.47641272 -282.01457214 675.54423523 C-288.39387072 676.95536317 -294.77275083 678.36837785 -301.15150166 679.78197956 C-305.5613847 680.75925598 -309.97137463 681.73604147 -314.38168335 682.71139526 C-330.18778958 686.20788009 -345.99246534 689.70424944 -361.73828125 693.46484375 C-362.76914352 693.71029434 -363.8000058 693.95574493 -364.86210632 694.20863342 C-365.78715469 694.43232101 -366.71220306 694.65600861 -367.6652832 694.88647461 C-368.46150589 695.07890244 -369.25772858 695.27133026 -370.07807922 695.46958923 C-372.06203448 695.95053832 -372.06203448 695.95053832 -374 697 C-376.6723621 697.13415472 -379.32250488 697.04318541 -382 697 C-382.12375 695.865625 -382.2475 694.73125 -382.375 693.5625 C-382.58125 692.386875 -382.7875 691.21125 -383 690 C-383.66 689.67 -384.32 689.34 -385 689 C-385.52789307 686.9724884 -385.52789307 686.9724884 -385.93847656 684.28442383 C-387.04402642 677.6122923 -388.49666773 671.04538516 -389.984375 664.44921875 C-390.27956416 663.13318874 -390.57456724 661.81711698 -390.86940002 660.50100708 C-391.49864629 657.69418717 -392.12932688 654.88769488 -392.76113892 652.08145142 C-393.5959115 648.37363603 -394.42828094 644.66528634 -395.25983524 640.95674801 C-398.73513024 625.45817628 -402.23035037 609.96423293 -405.75390625 594.4765625 C-412.825908 563.38222734 -419.77115943 532.27566195 -426 501 C-426.19726685 500.01084595 -426.39453369 499.02169189 -426.59777832 498.00256348 C-433.01557067 465.73413761 -438.53624322 433.33800287 -443.76426601 400.85925865 C-444.26602294 397.74270159 -444.76969833 394.62645542 -445.27323341 391.51018524 C-445.62233126 389.3416244 -445.96751733 387.1724657 -446.31242371 385.00323486 C-446.52071304 383.71092957 -446.72900238 382.41862427 -446.94360352 381.0871582 C-447.12439957 379.95462112 -447.30519562 378.82208405 -447.49147034 377.65522766 C-447.86859533 375.03698635 -447.86859533 375.03698635 -449 373 C-449.17605995 371.29834079 -449.30621518 369.59184612 -449.41430664 367.88452148 C-450.00920494 360.14538381 -451.18099791 352.51193388 -452.37109375 344.84765625 C-452.61111783 343.28466803 -452.85097156 341.72165365 -453.09066772 340.15861511 C-453.86495733 335.12532294 -454.65033289 330.09379199 -455.4375 325.0625 C-455.63967951 323.76761909 -455.63967951 323.76761909 -455.84594345 322.44657898 C-463.09884805 276.0168479 -472.06772063 230.0105525 -481.67265987 184.01530743 C-482.32083058 180.90996863 -482.96627565 177.80406618 -483.61150169 174.6981144 C-484.06084342 172.54153975 -484.51453988 170.38591091 -484.96833801 168.23027039 C-485.2367601 166.93797012 -485.50518219 165.64566986 -485.78173828 164.31420898 C-486.01804962 163.18611313 -486.25436096 162.05801727 -486.49783325 160.89573669 C-487 158 -487 158 -487 154 C-487.66 153.67 -488.32 153.34 -489 153 C-489.34155273 151.08837891 -489.34155273 151.08837891 -489.49609375 148.6015625 C-489.94316431 143.0853996 -490.92817281 137.78610142 -492.0625 132.375 C-492.3419043 131.01181641 -492.3419043 131.01181641 -492.62695312 129.62109375 C-493.08017296 127.4130997 -493.53789693 125.20614876 -494 123 C-488.29321205 120.39259671 -482.50895273 118.54498061 -476.4921875 116.78515625 C-474.98847092 116.33963661 -474.98847092 116.33963661 -473.45437622 115.88511658 C-470.2624146 114.94025216 -467.06878482 114.00118116 -463.875 113.0625 C-460.70971212 112.12813601 -457.54478101 111.19257276 -454.37994385 110.25668335 C-452.34646134 109.65559827 -450.31273301 109.05534411 -448.27874756 108.45596313 C-441.89906433 106.57347191 -435.53922089 104.64085285 -429.19970703 102.62670898 C-427 102 -427 102 -425 102 C-424.70867187 103.21816406 -424.41734375 104.43632812 -424.1171875 105.69140625 C-423.70415702 107.315367 -423.29003615 108.93905069 -422.875 110.5625 C-422.68679688 111.36236328 -422.49859375 112.16222656 -422.3046875 112.98632812 C-420.56180522 119.65829935 -417.56437643 124.62374905 -411.75 128.5 C-405.08873627 129.71113886 -398.51082353 128.55387154 -392.62890625 125.21484375 C-389.83316701 123.12977204 -388.9863106 121.32879828 -388 118 C-387.49521752 113.06802689 -387.72637076 108.52711959 -389.0625 103.75 C-390.0072193 99.97112278 -389.93355574 97.73422294 -389 94 C-388.37996094 93.90203125 -387.75992188 93.8040625 -387.12109375 93.703125 C-379.99619706 92.50008568 -373.13562452 90.75528803 -366.1875 88.8046875 C-363 88 -363 88 -360 88 C-359.67 87.34 -359.34 86.68 -359 86 C-357.38060281 85.74543162 -355.75870625 85.50213622 -354.13037109 85.31298828 C-349.2504781 84.59604778 -344.50858524 83.04836509 -339.76367188 81.72851562 C-338.95091797 81.50744141 -338.13816406 81.28636719 -337.30078125 81.05859375 C-336.20503784 80.75393188 -336.20503784 80.75393188 -335.0871582 80.44311523 C-333 80 -333 80 -329 80 C-328.67 79.34 -328.34 78.68 -328 78 C-326.20718384 77.54530334 -326.20718384 77.54530334 -323.70166016 77.19165039 C-318.31789516 76.29734319 -313.07211881 75.08908741 -307.78662109 73.74780273 C-306.92671885 73.52959083 -306.0668166 73.31137892 -305.1808567 73.08655453 C-302.37762842 72.37182246 -299.57552237 71.65279434 -296.7734375 70.93359375 C-294.76900438 70.42196918 -292.76449618 69.91063868 -290.75991821 69.39958191 C-285.40504027 68.03320826 -280.05145581 66.66183212 -274.69818115 65.2891922 C-271.36645495 64.43531 -268.03436691 63.58285497 -264.70214844 62.730896 C-224.46270444 52.44248218 -184.26522664 42.00118528 -144.11053467 31.3868103 C-140.11306322 30.33067932 -136.11492319 29.27709397 -132.11669922 28.22381592 C-129.48707803 27.5295889 -126.85872253 26.83073023 -124.23046875 26.13134766 C-122.6823454 25.72277813 -121.1341718 25.3143989 -119.5859375 24.90625 C-118.5722963 24.63420242 -118.5722963 24.63420242 -117.53817749 24.35665894 C-113.3640793 23.26255002 -109.27239376 22.5377549 -105 22 C-104.68546875 23.22976562 -104.3709375 24.45953125 -104.046875 25.7265625 C-103.61517083 27.35953043 -103.18284622 28.99233442 -102.75 30.625 C-102.54503906 31.43324219 -102.34007812 32.24148437 -102.12890625 33.07421875 C-100.52667929 39.04615562 -98.70482982 43.82110931 -93.75 47.8125 C-87.24019943 50.62355025 -82.55273994 50.27394189 -76.078125 47.88671875 C-75.39234375 47.59410156 -74.7065625 47.30148438 -74 47 C-73.278125 46.69707031 -72.55625 46.39414063 -71.8125 46.08203125 C-69.67022156 45.04710296 -69.67022156 45.04710296 -68.75 42 C-66.67924618 32.95211168 -68.46801748 24.77151086 -71 16 C-70.34 16 -69.68 16 -69 16 C-68.67 15.34 -68.34 14.68 -68 14 C-65.94091797 13.52319336 -65.94091797 13.52319336 -63.1171875 13.15234375 C-57.6718059 12.32691989 -52.35973128 11.22097318 -47.0078125 9.94140625 C-46.20825134 9.75049408 -45.40869019 9.55958191 -44.5848999 9.36288452 C-42.097516 8.76582489 -39.61118555 8.16452835 -37.125 7.5625 C-5.75030475 0 -5.75030475 0 0 0 Z M-53.89941406 75.06982422 C-55.46674286 75.42051468 -55.46674286 75.42051468 -57.06573486 75.77828979 C-58.20419861 76.03450104 -59.34266235 76.29071228 -60.515625 76.5546875 C-61.67874207 76.81629669 -62.84185913 77.07790588 -64.04022217 77.34744263 C-66.50856954 77.90334077 -68.97676577 78.45991035 -71.44482422 79.01708984 C-75.21889879 79.86798796 -78.99419263 80.7133245 -82.76953125 81.55859375 C-85.16414062 82.09861204 -87.55867437 82.63896577 -89.953125 83.1796875 C-91.08349182 83.43185028 -92.21385864 83.68401306 -93.378479 83.94381714 C-94.96472076 84.30396408 -94.96472076 84.30396408 -96.58300781 84.67138672 C-97.51042786 84.88012421 -98.4378479 85.08886169 -99.39337158 85.30392456 C-101.99873252 85.92986562 -101.99873252 85.92986562 -104.33856201 87.02053833 C-107.19011729 88.06996691 -109.8998329 88.42111954 -112.91077423 88.74496078 C-116.27451387 89.15558444 -119.55917387 89.92046909 -122.85839844 90.67626953 C-123.60804745 90.84476599 -124.35769646 91.01326244 -125.1300621 91.18686485 C-127.62402036 91.74846925 -130.11668759 92.31559628 -132.609375 92.8828125 C-134.41061885 93.28980394 -136.21193097 93.69649335 -138.01330566 94.10290527 C-142.9054055 95.20783312 -147.79632574 96.31789937 -152.68696594 97.42926788 C-155.75198282 98.12545038 -158.81728544 98.82036007 -161.88269043 99.51483154 C-176.10481272 102.73702525 -190.3242021 105.97113548 -204.54211426 109.21185303 C-208.02705733 110.00616711 -211.51206287 110.80020668 -214.99707031 111.59423828 C-228.86312462 114.75415169 -242.72735644 117.92193603 -256.58947754 121.09906006 C-261.02064803 122.11464343 -265.45222601 123.12841916 -269.88415527 124.14068604 C-275.1204806 125.33695572 -280.35574407 126.53776797 -285.59022522 127.74208069 C-287.51320538 128.18380072 -289.43652625 128.62404061 -291.36021423 129.06266785 C-293.99925889 129.66472586 -296.6369646 130.27234523 -299.27441406 130.88134766 C-300.03122845 131.05268282 -300.78804283 131.22401798 -301.56779099 131.40054512 C-306.13862043 132.46355113 -310.53668142 133.79277296 -314.95897102 135.36556721 C-317.55616911 136.17287943 -320.16383516 136.46764374 -322.86407471 136.73733521 C-327.26846308 137.27896359 -331.57718786 138.38116182 -335.8984375 139.37109375 C-336.95066498 139.6091423 -338.00289246 139.84719086 -339.08700562 140.092453 C-342.51729292 140.86999421 -345.94618285 141.65350327 -349.375 142.4375 C-351.75030586 142.97778825 -354.12563157 143.51798926 -356.50097656 144.05810547 C-373.3454764 147.89705665 -390.16432796 151.83963581 -406.96240234 155.87670898 C-407.78165192 156.07355789 -408.60090149 156.2704068 -409.44497681 156.47322083 C-410.94029283 156.83297795 -412.43541269 157.19355214 -413.93026733 157.55522156 C-414.60135529 157.7169838 -415.27244324 157.87874603 -415.96386719 158.04541016 C-416.61367554 158.20309875 -417.26348389 158.36078735 -417.9329834 158.52325439 C-419.44145663 158.87117515 -420.95634042 159.19163139 -422.47424316 159.49578857 C-423.29130737 159.66137268 -424.10837158 159.82695679 -424.95019531 159.99755859 C-425.69988586 160.14228607 -426.44957642 160.28701355 -427.22198486 160.43612671 C-427.80872986 160.6222049 -428.39547485 160.80828308 -429 161 C-430.54779324 164.09558647 -429.49746872 166.49954847 -428.84765625 169.86352539 C-428.71274277 170.57158829 -428.57782928 171.27965118 -428.43882751 172.00917053 C-427.98657114 174.37330389 -427.52465804 176.73544013 -427.0625 179.09765625 C-426.74104234 180.76442606 -426.42008772 182.43129296 -426.09960938 184.09825134 C-425.42094325 187.62075492 -424.73780723 191.14235236 -424.05126953 194.66333008 C-423.19215062 199.06995165 -422.34115302 203.47808512 -421.49327087 207.88688087 C-417.24231943 229.97901341 -412.76421876 252.01271875 -408 274 C-401.06322877 272.8930592 -394.18664317 271.69561035 -387.34765625 270.08984375 C-386.2256205 269.83129356 -386.2256205 269.83129356 -385.08091736 269.56752014 C-382.74064052 269.02758813 -380.40153911 268.4827662 -378.0625 267.9375 C-375.69823615 267.38970926 -373.33373701 266.84294986 -370.96910095 266.29676819 C-369.51079443 265.95957759 -368.05274024 265.62129313 -366.59498596 265.28172302 C-363.07259862 264.46378325 -359.54628181 263.70544884 -356 263 C-351.61506848 262.01808624 -347.23751654 261.00464084 -342.86035156 259.98876953 C-341.44665278 259.66134878 -340.03258507 259.3355171 -338.61816406 259.01123047 C-336.5727422 258.54223161 -334.52845857 258.06854315 -332.484375 257.59375 C-331.26459961 257.31208984 -330.04482422 257.03042969 -328.78808594 256.74023438 C-326.11215278 256.27947931 -326.11215278 256.27947931 -325 255 C-323.80890625 254.8865625 -322.6178125 254.773125 -321.390625 254.65625 C-315.15527207 254.0137312 -309.13575681 252.50381818 -303.05160522 251.04916382 C-281.15829799 245.82541299 -259.16797425 241.02713087 -237.1875 236.1875 C-235.4738341 235.81006841 -233.76017035 235.43262708 -232.04650879 235.05517578 C-224.90464796 233.48225709 -217.76272125 231.90964414 -210.62017155 230.33985615 C-208.52196647 229.87821689 -206.42410956 229.41501899 -204.32626343 228.95175171 C-201.20618975 228.26333971 -198.08407694 227.58488852 -194.96109009 226.90982056 C-193.30258207 226.54840557 -191.6440837 226.18694631 -189.9855957 225.82543945 C-189.20193477 225.65767344 -188.41827383 225.48990744 -187.61086559 225.31705761 C-184.00679295 224.78400648 -184.00679295 224.78400648 -181 223 C-179.79835205 222.87882813 -178.5967041 222.75765625 -177.35864258 222.6328125 C-170.5516584 221.93853513 -163.93163584 220.35755161 -157.26171875 218.875 C-155.84935408 218.56455223 -154.4369023 218.25450054 -153.02436829 217.94482422 C-149.33105811 217.13394388 -145.63901765 216.31742119 -141.94720459 215.49975586 C-138.93069579 214.83262532 -135.91332956 214.16942444 -132.8959074 213.50643921 C-126.6584733 212.13593872 -120.42172282 210.76234184 -114.1862793 209.3828125 C-112.53489204 209.01760498 -112.53489204 209.01760498 -110.85014343 208.64501953 C-109.23896027 208.28039065 -107.62971971 207.90589655 -106.02868652 207.49900818 C-103.15383452 206.79186361 -100.25655321 206.21953125 -97.35473633 205.63305664 C-96.69561249 205.49957321 -96.03648865 205.36608978 -95.35739136 205.2285614 C-93.92955868 204.93952325 -92.50164114 204.65090409 -91.07364845 204.36265755 C-88.80655013 203.90501254 -86.53968352 203.44623529 -84.27287292 202.98716736 C-79.45295332 202.01126503 -74.63274432 201.03679704 -69.8125 200.0625 C-64.24105796 198.93631894 -58.6697386 197.80953718 -53.09869957 196.68136406 C-50.87834436 196.23202868 -48.65778312 195.78372197 -46.43721008 195.33546448 C-39.60950041 193.95460191 -32.79262778 192.54521771 -26 191 C-26.11906204 190.35752319 -26.23812408 189.71504639 -26.36079407 189.05310059 C-29.71178409 170.96872633 -33.05526827 152.88297451 -36.39428711 134.79638672 C-37.06303092 131.17401582 -37.73198283 127.55168338 -38.40098095 123.92935944 C-38.92700899 121.0809721 -39.4529001 118.2325595 -39.97875404 115.38414001 C-40.34310055 113.41073958 -40.70758154 111.43736398 -41.07206726 109.46398926 C-41.29602676 108.2506189 -41.51998627 107.03724854 -41.75073242 105.78710938 C-41.96289398 104.64201904 -42.17505554 103.49692871 -42.39364624 102.31713867 C-42.79649424 100.11330523 -43.18981747 97.90770853 -43.57339478 95.70043945 C-43.74809296 94.69907959 -43.92279114 93.69771973 -44.1027832 92.66601562 C-44.32802422 91.34615662 -44.32802422 91.34615662 -44.55781555 89.99963379 C-44.80953987 88.01120969 -44.80953987 88.01120969 -46 87 C-46 85.33333333 -46 83.66666667 -46 82 C-46.33 81.67 -46.66 81.34 -47 81 C-47.36760731 78.67182036 -47.70241581 76.3381615 -48 74 C-49.9890272 74 -51.97078664 74.6375674 -53.89941406 75.06982422 Z M-41.84936523 224.95263672 C-43.31751427 225.26504051 -43.31751427 225.26504051 -44.81532288 225.58375549 C-48.06434637 226.27661633 -51.31143357 226.97815037 -54.55859375 227.6796875 C-56.85869464 228.1719382 -59.1589137 228.66363707 -61.45924377 229.15481567 C-67.55303362 230.4575065 -73.64523523 231.76748113 -79.73712158 233.07904053 C-85.74769163 234.37192726 -91.75961682 235.6584751 -97.77148438 236.9453125 C-106.09131458 238.72671072 -114.41069213 240.51019541 -122.72950935 242.29631805 C-136.54681456 245.26275836 -150.36785164 248.21126984 -164.19140625 251.1484375 C-186.96671706 255.9887599 -209.73559027 260.85867081 -232.5 265.75 C-233.4929948 265.9632832 -234.48598961 266.17656639 -235.50907516 266.39631271 C-262.9723419 272.2954169 -290.41702715 278.26708697 -317.82775879 284.4057312 C-338.34000045 288.99868673 -358.88501464 293.41760762 -379.46118164 297.71508789 C-380.49362503 297.93118713 -381.52606842 298.14728638 -382.58979797 298.36993408 C-384.50601247 298.77062902 -386.4225679 299.16969833 -388.33952332 299.5668335 C-389.17977554 299.74240784 -390.02002777 299.91798218 -390.88574219 300.09887695 C-391.61283386 300.24984329 -392.33992554 300.40080963 -393.08905029 300.55635071 C-395.20320862 301.01579547 -395.20320862 301.01579547 -398 302 C-397.69128878 303.79232337 -397.37790936 305.58384321 -397.0625 307.375 C-396.88847656 308.37273437 -396.71445312 309.37046875 -396.53515625 310.3984375 C-396.12287938 312.96909656 -396.12287938 312.96909656 -395 315 C-388.7945858 314.51679152 -383.00054754 313.66681876 -377 312 C-377 311.34 -377 310.68 -377 310 C-376.13369461 310.18621918 -375.26738922 310.37243835 -374.37483215 310.56430054 C-370.85278254 311.01900615 -368.45408859 310.7301022 -365.00268555 309.97119141 C-363.8328009 309.71958252 -362.66291626 309.46797363 -361.45758057 309.20874023 C-360.19669617 308.92587158 -358.93581177 308.64300293 -357.63671875 308.3515625 C-356.29844567 308.05951279 -354.95995976 307.76843689 -353.62127686 307.47827148 C-350.04514897 306.70032607 -346.47209542 305.90904678 -342.89948654 305.11511993 C-339.21409125 304.29853011 -335.52599482 303.49433562 -331.83813477 302.68896484 C-325.25522866 301.24957635 -318.67460599 299.80006443 -312.09500217 298.34566307 C-305.5914341 296.90851487 -299.08513558 295.48397752 -292.578125 294.0625 C-283.38302183 292.05246385 -274.19033722 290.03171247 -265 288 C-265 287.34 -265 286.68 -265 286 C-264.02398079 286.29598335 -264.02398079 286.29598335 -263.02824402 286.59794617 C-258.99517524 287.13340855 -255.46703416 286.30531831 -251.5480957 285.43286133 C-250.70821106 285.25411469 -249.86832642 285.07536804 -249.00299072 284.89120483 C-246.22514251 284.29754279 -243.45055765 283.68987522 -240.67578125 283.08203125 C-238.73082852 282.6633546 -236.78569072 282.24553687 -234.84037781 281.82853699 C-229.70794371 280.72584509 -224.57817639 279.61119781 -219.44885254 278.49414062 C-214.29236663 277.37345338 -209.13336374 276.26448545 -203.97460938 275.15429688 C-186.970912 271.49045887 -169.97597662 267.79034306 -153 264 C-153 263.34 -153 262.68 -153 262 C-151.97836761 262.28609634 -151.97836761 262.28609634 -150.93609619 262.57797241 C-147.31053513 263.09910206 -144.60318566 262.52623438 -141.02246094 261.75244141 C-140.34058716 261.60789017 -139.65871338 261.46333893 -138.95617676 261.31440735 C-136.71339979 260.83636531 -134.47398076 260.34422949 -132.234375 259.8515625 C-130.67466242 259.5154683 -129.11478422 259.18014182 -127.55474854 258.84555054 C-124.29199015 258.14364395 -121.03073693 257.43524048 -117.77050781 256.72167969 C-113.58356268 255.80542837 -109.39414157 254.90118738 -105.2036705 254.00121498 C-101.9860494 253.30957354 -98.76933249 252.61380788 -95.55292511 251.91654587 C-94.00766065 251.58165136 -92.46222476 251.24754693 -90.91661835 250.91423416 C-88.76353037 250.44882023 -86.61160441 249.97838828 -84.45996094 249.50634766 C-83.23372009 249.23907867 -82.00747925 248.97180969 -80.74407959 248.69644165 C-78.1051866 248.27566331 -78.1051866 248.27566331 -77 247 C-74.86792168 246.76335297 -72.73544749 246.52982104 -70.60128784 246.31274414 C-66.27616188 245.79274871 -62.04369803 244.87320195 -57.78515625 243.96875 C-56.84820419 243.77277222 -55.91125214 243.57679443 -54.94590759 243.37487793 C-52.98328626 242.96337823 -51.02109601 242.54981748 -49.05932617 242.13427734 C-46.04781767 241.49689249 -43.03478708 240.86712315 -40.02148438 240.23828125 C-38.10928114 239.83638382 -36.19716839 239.43405559 -34.28515625 239.03125 C-33.3831398 238.84268433 -32.48112335 238.65411865 -31.55177307 238.45983887 C-30.72008102 238.28295532 -29.88838898 238.10607178 -29.03149414 237.92382812 C-28.29919083 237.76918091 -27.56688751 237.61453369 -26.81239319 237.4552002 C-24.9171149 237.04850124 -24.9171149 237.04850124 -23 236 C-23.30759178 234.02006459 -23.6212068 232.04106401 -23.9375 230.0625 C-24.11152344 228.96035156 -24.28554688 227.85820312 -24.46484375 226.72265625 C-24.71845136 224.09573071 -24.71845136 224.09573071 -26 223 C-31.47824289 222.5868455 -36.53474622 223.79403643 -41.84936523 224.95263672 Z M-154.87768555 343.04443359 C-156.07287308 343.27562897 -157.26806061 343.50682434 -158.49946594 343.74502563 C-159.8161024 344.00423131 -161.13268497 344.26371081 -162.44921875 344.5234375 C-163.83533334 344.7944291 -165.22145721 345.06537325 -166.60758972 345.33627319 C-182.55177491 348.46483893 -198.45622404 351.787076 -214.3602562 355.11253357 C-218.55144296 355.98840183 -222.74313584 356.86184073 -226.93481445 357.73535156 C-228.6399384 358.09069801 -230.34506231 358.44604469 -232.05018616 358.8013916 C-232.89456804 358.97735367 -233.73894993 359.15331573 -234.60891914 359.33460999 C-237.15623075 359.8655551 -239.70348023 360.39679738 -242.25071716 360.92810059 C-252.92261228 363.15359011 -263.59681107 365.36763719 -274.2734375 367.5703125 C-275.61490457 367.84717425 -276.95637085 368.12403984 -278.2978363 368.40090942 C-283.28279303 369.42951334 -288.26779629 370.45788209 -293.25332642 371.48370361 C-306.52741421 374.21521961 -319.78250813 377.00560226 -333 380 C-333.81827927 383.68359814 -333.99513062 386.13683814 -333.0625 389.8125 C-332.70833333 391.20833333 -332.35416667 392.60416667 -332 394 C-324.3509343 393.47252846 -317.0212958 392.34044886 -309.53515625 390.70703125 C-308.47077332 390.48024185 -307.40639038 390.25345245 -306.30975342 390.01979065 C-302.89264773 389.29019182 -299.47756401 388.55159064 -296.0625 387.8125 C-293.71780691 387.30952292 -291.3729985 386.80708306 -289.02807617 386.30517578 C-284.43404572 385.32103637 -279.84076242 384.3335184 -275.24804688 383.34326172 C-269.96520562 382.20538671 -264.67922139 381.08343454 -259.390625 379.97265625 C-258.06109398 379.69240842 -256.73158424 379.41205962 -255.40209961 379.1315918 C-253.07002557 378.64005283 -250.73752789 378.15051804 -248.40454102 377.66333008 C-246.91458618 377.34658325 -246.91458618 377.34658325 -245.39453125 377.0234375 C-244.13926636 376.75926025 -244.13926636 376.75926025 -242.85864258 376.48974609 C-240.99859703 376.16646281 -240.99859703 376.16646281 -240 375 C-238.67165065 374.80662147 -237.33569408 374.66465636 -235.9985199 374.546875 C-231.26425142 374.06514842 -226.67793875 373.22598153 -222.02368164 372.25 C-221.17701935 372.075896 -220.33035706 371.90179199 -219.45803833 371.72241211 C-216.69122122 371.15233354 -213.92567583 370.57633729 -211.16015625 370 C-209.22730711 369.59998022 -207.29439905 369.20024508 -205.36143494 368.80078125 C-201.32724387 367.96614703 -197.29365507 367.12867887 -193.26049805 366.2890625 C-188.08402838 365.21158508 -182.90629518 364.14032847 -177.72812748 363.07104492 C-173.74468343 362.24792821 -169.76182142 361.42202443 -165.77914238 360.59521484 C-163.86906007 360.19893919 -161.95881875 359.80342924 -160.04841805 359.40869141 C-157.38854636 358.85856224 -154.72945687 358.30480269 -152.07055664 357.75 C-151.27837234 357.58685303 -150.48618805 357.42370605 -149.66999817 357.25561523 C-145.72549297 356.46359927 -145.72549297 356.46359927 -142 355 C-142.11389875 353.20759337 -142.24147687 351.41605165 -142.375 349.625 C-142.47941406 348.12839844 -142.47941406 348.12839844 -142.5859375 346.6015625 C-142.76363964 343.84491121 -142.76363964 343.84491121 -145 342 C-148.54757124 342 -151.4175847 342.37184538 -154.87768555 343.04443359 Z M-378 389 C-380.27042717 391.70986468 -380.91835776 393.45183064 -381.4375 396.9375 C-380.85691275 401.00161073 -379.76572238 402.95770539 -377 406 C-372.93003434 408.13403067 -369.09931264 408.37373323 -364.6875 407.1875 C-362.18736149 406.08783355 -361.19079401 405.31357627 -359.76171875 402.96484375 C-358.43602144 399.46663807 -357.84112885 396.8936502 -358.5 393.1875 C-361.04460451 389.47661843 -363.58625897 387.46100251 -367.875 386.0625 C-371.99171126 385.98016577 -374.42930793 386.97885354 -378 389 Z M-139 410.3125 C-141.58409171 410.88025732 -144.16856784 411.44579889 -146.75390625 412.0078125 C-147.83159019 412.24249489 -147.83159019 412.24249489 -148.93104553 412.48191833 C-158.91349124 414.64553467 -168.92726381 416.65729351 -178.9375 418.6875 C-181.15358513 419.13767493 -183.36964892 419.5879549 -185.58569336 420.03833008 C-189.28983565 420.79110517 -192.99398914 421.54382462 -196.69819641 422.29627991 C-214.31510055 425.87514697 -231.92989741 429.46436096 -249.54372883 433.05831814 C-255.84787353 434.34458024 -262.15232541 435.62932206 -268.45701599 436.91290569 C-272.45138215 437.7265033 -276.44545373 438.54153992 -280.43944931 439.35695457 C-282.30835171 439.73822459 -284.17736935 440.11893021 -286.0465126 440.49901772 C-296.06398304 442.53646172 -306.05576987 444.62599982 -316 447 C-315.94247559 447.65194336 -315.88495117 448.30388672 -315.82568359 448.97558594 C-315.61987305 451.30810547 -315.61987305 451.30810547 -315.4140625 453.640625 C-314.98492887 456.085877 -314.21399362 457.84836903 -313 460 C-306.01803804 460.42347825 -299.50406065 458.84932983 -292.69921875 457.41015625 C-291.42649612 457.14617538 -290.1537735 456.88219452 -288.84248352 456.61021423 C-286.16124994 456.05372916 -283.48102719 455.49268665 -280.80151367 454.92797852 C-277.36518064 454.20387836 -273.92712311 453.48841073 -270.4883604 452.77594852 C-267.20378029 452.0948556 -263.92025688 451.40875604 -260.63671875 450.72265625 C-259.4003215 450.46533218 -258.16392426 450.20800812 -256.89006042 449.94288635 C-255.75160172 449.70271286 -254.61314301 449.46253937 -253.44018555 449.21508789 C-252.43537643 449.00412979 -251.43056732 448.79317169 -250.39530945 448.57582092 C-248.00488948 448.09651379 -248.00488948 448.09651379 -246 447 C-244.11495213 446.67733239 -242.22328421 446.39299139 -240.3293457 446.12744141 C-232.74003065 444.99857284 -225.24400278 443.50615083 -217.73046875 441.9609375 C-216.31420844 441.67206098 -214.8978916 441.38346152 -213.48152161 441.09512329 C-209.80024677 440.34494844 -206.1197387 439.5910784 -202.43939209 438.83636475 C-198.66513986 438.06310082 -194.89015455 437.29343271 -191.11523438 436.5234375 C-183.74277846 435.01909004 -176.371131 433.51082759 -169 432 C-169 431.34 -169 430.68 -169 430 C-168.17258301 430.19384277 -167.34516602 430.38768555 -166.49267578 430.58740234 C-162.45149249 431.06479643 -159.03823849 430.47034428 -155.1171875 429.6015625 C-154.38049835 429.44714691 -153.6438092 429.29273132 -152.88479614 429.13363647 C-150.54592651 428.64083013 -148.21059089 428.13309346 -145.875 427.625 C-144.29838307 427.29069372 -142.72156157 426.95735072 -141.14453125 426.625 C-133.04749043 424.92084882 -133.04749043 424.92084882 -125 423 C-123.33480481 422.65939189 -121.66842534 422.32441604 -120 422 C-119.8200072 416.78020872 -120.02905192 412.92737019 -122 408 C-127.91015813 407.63061512 -133.27953597 409.01841812 -139 410.3125 Z M-362 458 C-363.57455739 461.14911479 -363.34799118 463.52008816 -363 467 C-361.10963195 470.18999609 -359.67519645 472.38427071 -356.09765625 473.69921875 C-352.46817953 474.34709079 -350.21551698 474.07319445 -346.6875 472.875 C-343.58629754 470.71137038 -342.31448695 469.55684704 -341 466 C-340.73116425 461.44608528 -341.1580201 458.11358632 -343.9375 454.4375 C-350.93018546 451.15521907 -357.23736028 451.54739135 -362 458 Z M-114.921875 479.984375 C-115.98857422 480.19553955 -117.05527344 480.4067041 -118.15429688 480.62426758 C-121.68767946 481.32562121 -125.2187867 482.03781162 -128.75 482.75 C-131.2697228 483.2523001 -133.78958247 483.75391409 -136.30957031 484.25488281 C-142.24860444 485.43730861 -148.18625806 486.62643054 -154.1231575 487.81952286 C-162.06334414 489.4151071 -170.00526859 491.00198698 -177.94723511 492.58868408 C-183.97636405 493.79365848 -190.00473968 495.0021852 -196.03173828 496.21777344 C-209.99184733 499.02866843 -223.96258094 501.77036657 -237.94987488 504.44257355 C-243.23666909 505.45452109 -248.52171372 506.47557553 -253.8067627 507.49659348 C-258.98438083 508.49562896 -264.16464299 509.47920515 -269.34724998 510.45200729 C-272.57019898 511.0607158 -275.79024815 511.68378489 -279.00967789 512.3108139 C-280.51849272 512.60152855 -282.02849885 512.8861329 -283.53966904 513.16434479 C-285.61272872 513.54680401 -287.68058067 513.95034238 -289.74853516 514.359375 C-291.49561264 514.69146973 -291.49561264 514.69146973 -293.27798462 515.03027344 C-296.09139522 515.74399685 -296.09139522 515.74399685 -297.40365601 517.92993164 C-298.2204595 520.76527347 -297.78244865 522.81255461 -297.1875 525.6875 C-296.99542969 526.66074219 -296.80335938 527.63398437 -296.60546875 528.63671875 C-296.22901341 530.94081726 -296.22901341 530.94081726 -295 532 C-286.11165807 531.96222059 -277.17377013 529.54762163 -268.50390625 527.76171875 C-266.90470174 527.43601199 -265.30541099 527.1107284 -263.70603943 526.7858429 C-259.50886369 525.93200301 -255.31294361 525.07214144 -251.11724854 524.21105957 C-246.90773921 523.34838019 -242.69696044 522.49194359 -238.48632812 521.63476562 C-230.65404824 520.03920366 -222.82387244 518.43358843 -214.99493408 516.82171631 C-211.48155876 516.09845231 -207.96714268 515.38034838 -204.45263672 514.66259766 C-202.70662997 514.30277625 -200.96069024 513.9426294 -199.21484375 513.58203125 C-198.46086807 513.42909103 -197.7068924 513.27615082 -196.93006897 513.11857605 C-193.68664537 512.64597912 -193.68664537 512.64597912 -191 511 C-189.10311741 510.75461665 -187.20555906 510.51357874 -185.30529785 510.29590034 C-181.47236314 509.80391763 -177.70585006 509.00989306 -173.921875 508.23413086 C-173.05263901 508.05842056 -172.18340302 507.88271027 -171.28782654 507.70167542 C-168.44130529 507.12554715 -165.595656 506.54522921 -162.75 505.96484375 C-160.76608458 505.56244874 -158.78211565 505.16031744 -156.7980957 504.75843811 C-151.59608201 503.70399475 -146.39479969 502.64598643 -141.19366455 501.58721924 C-135.878247 500.50585049 -130.56214142 499.42787534 -125.24609375 498.34960938 C-114.83005525 496.23638265 -104.41478668 494.11938691 -94 492 C-93.11369549 488.11215305 -93.03300513 485.95154626 -94.4375 482.1875 C-94.72496094 481.39730469 -95.01242187 480.60710937 -95.30859375 479.79296875 C-95.53675781 479.20128906 -95.76492188 478.60960937 -96 478 C-102.56880866 477.75441899 -108.49549508 478.67396501 -114.921875 479.984375 Z M-346.375 526.875 C-347.67223303 531.28559229 -347.43710227 534.09082728 -345.4375 538.25 C-342.38580997 541.69293234 -340.53620311 542.38492161 -336 543 C-331.87683534 542.37104268 -329.69805766 541.64294784 -326.625 538.8125 C-324.18885931 534.59610265 -323.54184882 531.0158652 -324.625 526.25 C-326.43470621 523.28866257 -327.7832582 522.32865422 -331 521 C-337.59480573 520.26724381 -342.18951624 521.16752215 -346.375 526.875 Z " fill="#010101" transform="translate(521,70)"/>
<path d="M0 0 C18.57399036 1.41200464 37.14418498 2.84946573 55.6875 4.625 C56.99146729 4.74786377 58.29543457 4.87072754 59.63891602 4.99731445 C60.83444092 5.11421631 62.02996582 5.23111816 63.26171875 5.3515625 C64.30287842 5.45291504 65.34403809 5.55426758 66.41674805 5.65869141 C69 6 69 6 72 7 C71.89300781 7.83402344 71.78601563 8.66804687 71.67578125 9.52734375 C70.78888259 17.85274731 70.61188649 24.59545244 75.875 31.4375 C80.96404888 35.1794477 85.83199642 35.68775969 92 35 C96.90395668 33.30247653 100.55453003 30.61442037 103 26 C105.78851122 18.46467665 105.78851122 18.46467665 105 11 C118.55781026 11.4287639 132.05029323 12.34181085 145.5625 13.5 C146.33929108 13.56571198 147.11608215 13.63142395 147.91641235 13.6991272 C150.15424733 13.88949637 152.39163211 14.08440903 154.62890625 14.28125 C155.92900635 14.39533203 157.22910645 14.50941406 158.56860352 14.62695312 C161.44207467 14.93934472 164.1755248 15.4109116 167 16 C166.94037582 16.8545578 166.88075165 17.7091156 166.81932068 18.58956909 C159.65345646 121.35671585 152.58221874 224.13978598 142.13996601 420.91070652 C141.67861932 429.98923231 141.21557931 439.067671 140.75177288 448.14607143 C140.42042744 454.63777878 140.09244958 461.12964494 139.76721478 467.62166119 C139.56624711 471.62166967 139.36269967 475.62154401 139.15851402 479.62138939 C139.06439288 481.47636422 138.97138919 483.33139615 138.87958717 485.1864872 C138.75372259 487.72734856 138.62390821 490.26797947 138.49316406 492.80859375 C138.45784797 493.54143931 138.42253187 494.27428488 138.38614559 495.02933788 C138.15561632 499.41154214 137.67978308 503.67068288 137 508 C132.18430504 507.73386031 127.36863261 507.46731742 122.55297852 507.20043945 C120.92310148 507.1101659 119.29321888 507.01999266 117.66333008 506.92993164 C106.44080845 506.30973054 95.21980378 505.66759944 84 505 C82.84898928 507.30202144 82.79305432 508.81499199 82.65869141 511.38047791 C82.58306976 512.76171341 82.58306976 512.76171341 82.50592041 514.17085266 C82.4549823 515.18431259 82.40404419 516.19777252 82.3515625 517.24194336 C82.29450134 518.30721252 82.23744019 519.37248169 82.1786499 520.47003174 C81.9900116 524.00976553 81.80758378 527.54979293 81.625 531.08984375 C81.49474934 533.54930446 81.36404662 536.00874127 81.23291016 538.46815491 C80.88758537 544.96242121 80.54723228 551.45693787 80.20825195 557.95153809 C79.66678352 568.31529476 79.11907768 578.67872012 78.56903076 589.04202461 C78.37816015 592.65502516 78.19014231 596.26816597 78.00244141 599.8813324 C77.88453156 602.11872837 77.76653474 604.35611977 77.6484375 606.59350586 C77.59749939 607.58874771 77.54656128 608.58398956 77.49407959 609.60939026 C76.54862556 627.35412333 76.54862556 627.35412333 75 632 C73 631 73 631 72 630 C70.65218306 629.81994297 69.29595296 629.70206099 67.93920898 629.61108398 C66.64798378 629.5211039 66.64798378 629.5211039 65.33067322 629.42930603 C64.39526199 629.36884598 63.45985077 629.30838593 62.49609375 629.24609375 C61.54307877 629.18092056 60.59006378 629.11574738 59.60816956 629.04859924 C56.55155463 628.84057164 53.49455337 628.63897182 50.4375 628.4375 C48.37041419 628.29794786 46.30335643 628.15797943 44.23632812 628.01757812 C39.15786558 627.67354662 34.07904746 627.33528085 29 627 C28.67 627.66 28.34 628.32 28 629 C27.67 628.34 27.34 627.68 27 627 C25.12635002 626.57927105 25.12635002 626.57927105 22.82991028 626.47717285 C21.92649965 626.41158173 21.02308903 626.3459906 20.09230232 626.27841187 C19.08964773 626.21553986 18.08699314 626.15266785 17.05395508 626.08789062 C15.99974806 626.014263 14.94554104 625.94063538 13.85938835 625.86477661 C10.30917132 625.61931189 6.75818174 625.38778907 3.20703125 625.15625 C0.68222448 624.98477169 -1.84252947 624.81251399 -4.36723328 624.63952637 C-10.47405787 624.22362015 -16.58143619 623.8169866 -22.68922228 623.41547346 C-27.54155608 623.09646366 -32.39368021 622.77444662 -37.2456665 622.45019531 C-55.80065985 621.21075488 -74.35712853 619.99455933 -92.91418457 618.78643799 C-105.30346962 617.97975841 -117.6925491 617.16992467 -130.08160543 616.35974121 C-132.22974267 616.2193082 -134.37788803 616.07900003 -136.52603531 615.9387207 C-151.95134463 614.93118017 -167.3758114 613.91260553 -182.79833984 612.86328125 C-183.47571729 612.81721395 -184.15309473 612.77114664 -184.85099876 612.72368336 C-191.87939313 612.24553169 -198.90761747 611.76496164 -205.93562317 611.28112793 C-207.65083743 611.16368099 -207.65083743 611.16368099 -209.40070248 611.04386139 C-211.59434667 610.8936418 -213.78792582 610.74246876 -215.98143101 610.59023285 C-220.83919912 610.25817534 -225.6941368 609.95515663 -230.5585022 609.73803711 C-231.40380399 609.69895988 -232.24910578 609.65988266 -233.12002277 609.61962128 C-234.66850366 609.55128345 -236.21736976 609.49097424 -237.76653576 609.44049835 C-242.77983156 609.22016844 -242.77983156 609.22016844 -245 607 C-243.00795509 605.00795509 -239.34798189 605.12049469 -236.61914062 604.67016602 C-227.0756088 603.04029278 -217.58571498 601.18207964 -208.09375 599.27734375 C-206.81164894 599.02043353 -206.81164894 599.02043353 -205.50364685 598.75833321 C-201.00860732 597.85721516 -196.51410723 596.95345988 -192.02001953 596.04760742 C-187.38223366 595.11342234 -182.74249023 594.18934141 -178.10228729 593.26724911 C-174.51879368 592.55319214 -170.9368526 591.83157906 -167.3553009 591.10785103 C-165.64298884 590.76326184 -163.93008553 590.42159739 -162.21659851 590.08289909 C-159.8412635 589.6126955 -157.46833277 589.13183508 -155.09570312 588.64819336 C-154.38729782 588.51048523 -153.67889252 588.3727771 -152.94902039 588.230896 C-151.2845049 587.88570661 -149.63889246 587.45144107 -148 587 C-147.67 586.34 -147.34 585.68 -147 585 C-145.68555908 585.02868164 -144.37111816 585.05736328 -143.0168457 585.08691406 C-138.44200008 585.08356478 -134.20511177 584.507744 -129.73046875 583.609375 C-128.97559174 583.4647583 -128.22071472 583.3201416 -127.44296265 583.17114258 C-125.02284319 582.70543734 -122.60521837 582.22799879 -120.1875 581.75 C-118.51502121 581.42544323 -116.84241293 581.10155299 -115.16967773 580.77832031 C-111.14492352 579.99841776 -107.12213548 579.20894992 -103.10021973 578.41455078 C-100.27316213 577.85653348 -97.44509039 577.30371525 -94.6171875 576.75 C-85.39035029 574.93170271 -76.18742655 573.00784819 -67 571 C-67 570.34 -67 569.68 -67 569 C-66.18660156 569.07347656 -65.37320313 569.14695312 -64.53515625 569.22265625 C-59.94075575 568.93328517 -56.56881654 567.3711582 -52.4375 565.4375 C-51.64174561 565.07253418 -50.84599121 564.70756836 -50.02612305 564.33154297 C-26.30101532 553.32783275 -4.70860581 538.26413593 14 520 C15.03205566 518.99864014 15.03205566 518.99864014 16.08496094 517.97705078 C24.25370801 510.02572966 32.14195013 502.12678092 39 493 C40.05018494 491.68493777 41.10392309 490.37270937 42.16015625 489.0625 C70.83792664 454.30863385 70.83792664 454.30863385 84.30541992 413.56738281 C83.68722465 408.37078691 81.90266597 403.50690862 80.25 398.5625 C79.42902368 396.01566701 78.61186052 393.46794097 77.80078125 390.91796875 C77.58208878 390.23301331 77.3633963 389.54805786 77.13807678 388.84234619 C74.34183444 380.02241915 71.79644862 371.12903514 69.2545166 362.23312378 C68.71026559 360.3292007 68.16412544 358.42581662 67.61608887 356.52297974 C66.84264266 353.83683545 66.07469255 351.14918529 65.30859375 348.4609375 C65.07464401 347.64969925 64.84069427 346.838461 64.59965515 346.00263977 C63.72653394 342.91456826 63 340.22598266 63 337 C62.34 336.67 61.68 336.34 61 336 C60.45617676 333.86235046 60.45617676 333.86235046 60.03320312 331.08862305 C59.10787909 325.50262647 57.86409136 320.06695102 56.46875 314.58203125 C56.23216675 313.63994308 55.9955835 312.69785492 55.75183105 311.72721863 C55.00457554 308.75478889 54.25239951 305.78363133 53.5 302.8125 C52.99576293 300.81063017 52.4918541 298.80867764 51.98828125 296.80664062 C50.85839351 292.31679045 49.72614209 287.82755186 48.58813477 283.3397522 C48.19721801 281.78458425 47.81224791 280.22790898 47.43334961 278.66976929 C46.50827296 274.7339265 46.50827296 274.7339265 45 271 C44.65678836 269.15127177 44.34966393 267.29575917 44.0625 265.4375 C43.45164944 261.60705361 42.77080396 257.83631244 41.875 254.0625 C41.15674887 250.97626469 40.79434221 248.18769575 41 245 C40.34 244.67 39.68 244.34 39 244 C38.71586753 242.08061036 38.4436081 240.15832214 38.24660873 238.2280426 C37.87147167 234.83878164 37.16286213 231.51988096 36.46533203 228.18554688 C36.31394775 227.44930084 36.16256348 226.71305481 36.0065918 225.95449829 C35.50984699 223.54198471 35.00880111 221.13038551 34.5078125 218.71875 C34.15739325 217.0197989 33.80729109 215.32078238 33.45748901 213.6217041 C32.5373618 209.15574391 31.61378321 204.69050527 30.68920898 200.22546387 C29.21619543 193.10993519 27.74762847 185.99349006 26.28060532 178.87672424 C25.77303085 176.41748417 25.263489 173.95865822 24.75369263 171.49987793 C23.82312088 167.00244868 22.90534723 162.50257411 22 158 C21.77565403 156.88650681 21.77565403 156.88650681 21.54677582 155.7505188 C21.11251853 153.57783223 20.6872398 151.40359268 20.26513672 149.22851562 C20.0206076 147.97864868 19.77607849 146.72878174 19.5241394 145.44104004 C19.03462946 142.22734669 18.89934995 139.24364294 19 136 C18.34 135.67 17.68 135.34 17 135 C16.64347839 132.6834259 16.64347839 132.6834259 16.47729492 129.65942383 C16.06175732 123.52768554 15.28647992 117.52257622 14.36328125 111.44921875 C14.03252219 109.22226587 13.70187927 106.99529574 13.37133789 104.76831055 C13.19845245 103.61277679 13.02556702 102.45724304 12.84744263 101.26669312 C9.5558424 79.24326055 6.5233638 57.20118663 3.81567383 35.09838867 C3.69915466 34.15668823 3.5826355 33.21498779 3.46258545 32.24475098 C3.24622502 30.49289243 3.03309412 28.74063082 2.8237915 26.98791504 C2.38332237 22.86540844 2.38332237 22.86540844 1 19 C0.84932786 17.5534758 0.75138964 16.1012066 0.68359375 14.6484375 C0.62075195 13.37226563 0.62075195 13.37226563 0.55664062 12.0703125 C0.51732422 11.18085938 0.47800781 10.29140625 0.4375 9.375 C0.39431641 8.4778125 0.35113281 7.580625 0.30664062 6.65625 C0.20043139 4.43765717 0.09838806 2.2189512 0 0 Z M18 57 C17.82549458 65.01391287 18.3789337 72.68929861 19.5 80.625 C19.66870605 81.83397949 19.83741211 83.04295898 20.01123047 84.28857422 C21.71818459 95.961704 23.88507212 107.54384281 26.125 119.125 C26.30071533 120.04242981 26.47643066 120.95985962 26.6574707 121.90509033 C27.1617953 124.52437189 27.67647395 127.14137155 28.1953125 129.7578125 C28.3473111 130.54716187 28.49930969 131.33651123 28.65591431 132.14978027 C29.36267041 135.64473971 29.99777695 137.99666542 32 141 C34.14161557 141.62768776 34.14161557 141.62768776 36.67407227 141.79956055 C37.64590958 141.89943771 38.61774689 141.99931488 39.61903381 142.10221863 C40.67416672 142.19610367 41.72929962 142.28998871 42.81640625 142.38671875 C43.90203354 142.49345413 44.98766083 142.60018951 46.10618591 142.7101593 C48.40977097 142.93408697 50.71401092 143.15136079 53.01879883 143.36254883 C56.52509257 143.6840698 60.02909617 144.02468081 63.53320312 144.36914062 C65.773329 144.58446507 68.01356067 144.79869233 70.25390625 145.01171875 C71.29486954 145.11167648 72.33583282 145.21163422 73.40834045 145.31462097 C78.01394769 145.73361799 82.54523243 146.04790049 87.17163086 145.99926758 C91 146 91 146 92 147 C94.52596259 147.23653523 97.03107207 147.42173692 99.5625 147.5625 C100.27341797 147.60568359 100.98433594 147.64886719 101.71679688 147.69335938 C103.47761912 147.79971777 105.2387832 147.90038846 107 148 C107.91942602 143.93848399 108.28950052 139.96286308 108.57250977 135.81054688 C108.64588058 134.75348289 108.64588058 134.75348289 108.72073364 133.67506409 C108.88082227 131.35649945 109.03620898 129.03764678 109.19140625 126.71875 C109.3018413 125.10118009 109.41251691 123.4836266 109.52342224 121.86608887 C109.75486977 118.48035902 109.98411539 115.09448978 110.21166992 111.70849609 C110.50304567 107.37397665 110.79879427 103.03976973 111.09605503 98.70565033 C111.32475311 95.36685309 111.5516844 92.02793768 111.77802849 88.6889801 C111.88646023 87.09100025 111.99530883 85.49304863 112.10458565 83.89512634 C112.25706017 81.66001329 112.40729034 79.42476055 112.55688477 77.18945312 C112.64269302 75.91880005 112.72850128 74.64814697 112.81690979 73.33898926 C112.96991695 70.54862012 113.03772336 67.79323314 113 65 C102.41710217 63.61815805 91.83449763 62.44607645 81.203125 61.4921875 C79.75257617 61.36060883 78.30203516 61.22894386 76.85150146 61.09719849 C73.84339349 60.82472589 70.83509611 60.55447038 67.82666016 60.28564453 C64.00515707 59.94381354 60.18437935 59.59448578 56.36372757 59.24328423 C53.38005229 58.97018923 50.395947 58.70203932 47.41170502 58.435215 C46.00359367 58.30856352 44.59563238 58.18023005 43.18784332 58.05004501 C34.76606178 57.27361633 26.45835293 56.82311993 18 57 Z M39 167 C38.34 167.66 37.68 168.32 37 169 C37.08612782 171.1296782 37.08612782 171.1296782 37.6875 173.4375 C37.85636719 174.21996094 38.02523438 175.00242187 38.19921875 175.80859375 C39.1474156 178.40341538 39.79502437 179.32750586 42 181 C45.22157937 181.75391585 45.22157937 181.75391585 48.984375 182.0859375 C49.68560486 182.16315033 50.38683472 182.24036316 51.10931396 182.31991577 C53.40477054 182.56518054 55.70138592 182.78643305 58 183 C59.16221069 183.10834167 59.16221069 183.10834167 60.34790039 183.21887207 C65.1611182 183.65786019 69.97699231 184.05534697 74.79541016 184.43261719 C77.28972758 184.62811372 79.78354133 184.82929909 82.27734375 185.03125 C83.87757827 185.15917845 85.4778378 185.28679472 87.078125 185.4140625 C87.81661682 185.47340973 88.55510864 185.53275696 89.315979 185.59390259 C92.56112723 185.84645272 95.74188587 186 99 186 C99.8723412 183.00519083 100.10829766 180.36424089 100.0625 177.25 C100.04166667 175.83333333 100.02083333 174.41666667 100 173 C91.99197807 171.10761441 83.92862948 170.28273099 75.75073242 169.56738281 C73.56936936 169.37560393 71.38923253 169.17277277 69.20898438 168.96875 C62.16492954 168.32789937 55.19838844 167.84611269 48.11694336 168.04931641 C46 168 46 168 43 167 C42.67 167.33 42.34 167.66 42 168 C41.01 167.67 40.02 167.34 39 167 Z M51 226 C49.59257978 228.81484045 50.33347836 230.56936113 50.9375 233.625 C51.29166667 235.41666667 51.64583333 237.20833333 52 239 C60.18610973 240.69031655 68.29202128 241.55193157 76.625 242.125 C77.80707031 242.21136719 78.98914063 242.29773438 80.20703125 242.38671875 C85.09812279 242.811158 85.09812279 242.811158 90 243 C90.495 236.565 90.495 236.565 91 230 C84.53285589 228.16982129 78.25297014 227.40675072 71.5625 226.875 C70.57701172 226.78863281 69.59152344 226.70226562 68.57617188 226.61328125 C62.69518034 226.1222243 56.9008238 225.91456925 51 226 Z M64 285 C62.98413465 288.04759605 62.99566558 289.45093253 63.375 292.5625 C63.46523438 293.34753906 63.55546875 294.13257813 63.6484375 294.94140625 C63.90707694 297.05603953 63.90707694 297.05603953 65 299 C69.1391442 300.16486235 73.41303549 300.33194171 77.6875 300.625 C78.36361328 300.6765625 79.03972656 300.728125 79.73632812 300.78125 C83.48678075 301.11395144 83.48678075 301.11395144 87 300 C87 299.195625 87 298.39125 87 297.5625 C87 294.375 87 291.1875 87 288 C79.36190145 286.02462968 71.8667126 285.42522771 64 285 Z " fill="#010202" transform="translate(547,139)"/>
<path d="M0 0 C-2.24733421 7.50155461 -5.42392889 14.20154186 -9.0625 21.125 C-9.64249756 22.23157959 -10.22249512 23.33815918 -10.82006836 24.47827148 C-15.37756328 33.05564631 -20.27689956 41.15939566 -26 49 C-26.70141113 49.97090576 -26.70141113 49.97090576 -27.41699219 50.96142578 C-38.55774524 66.32127087 -50.89641059 80.29417292 -64 94 C-64.77472656 94.81726563 -65.54945313 95.63453125 -66.34765625 96.4765625 C-70.63824819 100.8993082 -75.26962157 104.78631468 -80.07421875 108.640625 C-83.11112885 111.08961525 -86.08594251 113.60314128 -89.0625 116.125 C-102.15340909 127.05113636 -102.15340909 127.05113636 -108 129 C-106.90515913 126.15449773 -105.71766205 123.40263965 -104.4140625 120.64453125 C-95.69940483 102.15926157 -93.7740148 83.61896939 -93.75 63.375 C-93.74799591 62.55585114 -93.74599182 61.73670227 -93.743927 60.89273071 C-93.73635705 48.24240776 -94.41942136 35.91825301 -96.61108398 23.43237305 C-97.1654396 19.96530151 -97.57546329 16.48532053 -98 13 C-90.98951854 12.28371643 -83.97857196 11.57212634 -76.96728516 10.86376953 C-74.58306129 10.62233324 -72.19894524 10.37982982 -69.81494141 10.13623047 C-66.38471945 9.78591601 -62.95412584 9.43946345 -59.5234375 9.09375 C-58.46071625 8.9843811 -57.397995 8.87501221 -56.30307007 8.7623291 C-51.51586734 8.28339201 -46.81884502 7.8555069 -42 8 C-41.67 7.34 -41.34 6.68 -41 6 C-38.71875 5.76171875 -38.71875 5.76171875 -35.5 5.6875 C-24.91383966 5.11646231 -14.6426885 2.65957308 -4.29980469 0.44311523 C-2 0 -2 0 0 0 Z " fill="#010202" transform="translate(615,558)"/>
<path d="M0 0 C0.66 0 1.32 0 2 0 C2.07404053 0.53101318 2.14808105 1.06202637 2.22436523 1.60913086 C4.43452748 17.18681933 7.14743123 32.66140791 9.99609375 48.1328125 C10.18910946 49.1832329 10.38212517 50.2336533 10.58098984 51.31590462 C15.14169997 76.09561435 20.0210796 100.81062078 24.94476318 125.52032471 C25.8582037 130.10900072 26.76809136 134.69837817 27.6779213 139.28777122 C32.84298985 165.41058863 32.84298985 165.41058863 38.17089844 191.50048828 C38.41997609 192.69945095 38.41997609 192.69945095 38.67408562 193.92263508 C39.42663589 197.54042782 40.18417544 201.15703981 40.9515686 204.77171326 C42.29506795 211.18231038 43.42464155 217.47352614 44 224 C26.57789728 224.34960741 9.36932977 223.23418534 -8 222 C-7.54015152 196.53604911 -6.62718302 171.09176022 -5.625 145.64453125 C-5.59284519 144.82777215 -5.56069038 144.01101306 -5.52756119 143.16950369 C-5.1261923 132.98458059 -4.72011601 122.79984737 -4.31222248 112.61518371 C-3.86148409 101.35920205 -3.41451338 90.10307057 -2.9682312 78.84691143 C-2.93492769 78.00693562 -2.90162418 77.16695981 -2.86731148 76.30153018 C-2.80073646 74.62228554 -2.73417119 72.9430405 -2.66761589 71.26379508 C-2.47733692 66.46547696 -2.28603826 61.667201 -2.09381676 56.86896032 C-1.33487596 37.91447497 -0.62926116 18.95929667 0 0 Z " fill="#010202" transform="translate(67,501)"/>
<path d="M0 0 C4.26421817 3.22416496 7.85431792 6.81295376 9.5625 11.9375 C10.10068855 18.39576265 9.30953632 21.62919854 5.5625 26.9375 C4.85360123 27.40318893 4.14470245 27.86887787 3.4143219 28.34867859 C1.33403312 29.76878608 1.33403312 29.76878608 1.31797791 32.09236145 C1.43855057 32.90210922 1.55912323 33.71185699 1.68334961 34.54614258 C1.81152069 35.43580719 1.93969177 36.3254718 2.07174683 37.24209595 C2.80383663 41.26301306 3.65291538 45.23062672 4.62890625 49.19921875 C5.03584296 50.9121009 5.44274292 52.62499178 5.84960938 54.33789062 C6.48826016 56.99118314 7.12955953 59.64381774 7.7722168 62.29614258 C8.39764077 64.88732112 9.01359168 67.48062413 9.62890625 70.07421875 C9.82263321 70.8597966 10.01636017 71.64537445 10.21595764 72.45475769 C11.29698583 77.02424966 11.94639846 81.20693982 11.5625 85.9375 C9.13396618 89.2231634 7.43975186 90.64508271 3.5625 91.9375 C-0.15344733 91.9375 -1.59489513 91.31914192 -4.4375 88.9375 C-7.61607627 83.66879292 -8.78911893 78.07164361 -10.13671875 72.140625 C-10.3766304 71.11064392 -10.61654205 70.08066284 -10.86372375 69.01947021 C-11.36719601 66.85185234 -11.86706063 64.68339373 -12.36352539 62.51416016 C-13.12593955 59.18339538 -13.89889463 55.85521579 -14.67382812 52.52734375 C-15.16206946 50.41941229 -15.64972045 48.31134399 -16.13671875 46.203125 C-16.36791916 45.20420227 -16.59911957 44.20527954 -16.83732605 43.17608643 C-17.15314384 41.79389923 -17.15314384 41.79389923 -17.4753418 40.38378906 C-17.661707 39.57137756 -17.8480722 38.75896606 -18.04008484 37.92193604 C-18.4375 35.9375 -18.4375 35.9375 -18.4375 33.9375 C-19.13875 33.855 -19.84 33.7725 -20.5625 33.6875 C-24.86075909 32.56621502 -28.02300548 30.80937598 -30.7421875 27.2109375 C-33.26574381 22.84257451 -34.04507338 19.15490349 -33.16015625 14.171875 C-31.19006425 8.08056353 -27.35246688 4.11336028 -21.875 0.9375 C-14.85592024 -2.20568852 -7.29752169 -2.25559761 0 0 Z " fill="#010202" transform="translate(433.4375,19.0625)"/>
<path d="M0 0 C3.99470274 3.65204201 5.47874446 7.81996124 6.23046875 13.08203125 C5.42319626 18.73293871 3.14495328 23.82798141 -1.26953125 27.58203125 C-1.92953125 27.58203125 -2.58953125 27.58203125 -3.26953125 27.58203125 C-3.1464711 28.12358856 -3.02341095 28.66514587 -2.8966217 29.22311401 C-1.60787268 34.90006072 -0.32757741 40.57886818 0.94799805 46.25878906 C1.42405643 48.37352789 1.90221162 50.48779589 2.38256836 52.6015625 C3.07577994 55.65370903 3.76123611 58.70751345 4.4453125 61.76171875 C4.65888901 62.69442596 4.87246552 63.62713318 5.09251404 64.58810425 C8.66762316 80.66867433 8.66762316 80.66867433 6.23046875 85.64453125 C2.96107074 88.17831471 0.85104081 88.58203125 -3.26953125 88.58203125 C-6.62047037 87.28735023 -7.91807649 86.16803799 -9.76391602 83.09033203 C-11.67168293 78.6449598 -12.62910424 74.23522977 -13.609375 69.51171875 C-14.03674296 67.54419121 -14.46448866 65.57674569 -14.89257812 63.609375 C-15.55399412 60.52506444 -16.21064048 57.43987694 -16.86010742 54.35302734 C-17.4928307 51.36132335 -18.14371687 48.37401748 -18.796875 45.38671875 C-19.07989723 44.00225052 -19.07989723 44.00225052 -19.36863708 42.58981323 C-20.66986415 36.69841701 -22.09891176 33.62072133 -27.3046875 30.2734375 C-27.97371094 29.90089844 -28.64273438 29.52835938 -29.33203125 29.14453125 C-32.75488449 27.08318469 -34.56682791 25.28791499 -36.26953125 21.58203125 C-36.59953125 20.92203125 -36.92953125 20.26203125 -37.26953125 19.58203125 C-37.46289809 12.92468709 -35.67833213 7.5801273 -31.26953125 2.58203125 C-22.13472235 -5.10838479 -10.08218957 -6.98307342 0 0 Z " fill="#020202" transform="translate(117.26953125,102.41796875)"/>
<path d="M0 0 C4.52261389 3.31340975 8.05706975 7.22827898 9.4375 12.75 C9.59896684 17.58503468 8.91955362 20.93653452 6.4375 25.125 C3.60071683 27.60718527 2.21450731 28.34081839 -1.25 29.4140625 C-2.05824219 29.66881348 -2.86648438 29.92356445 -3.69921875 30.18603516 C-4.31410156 30.37214355 -4.92898438 30.55825195 -5.5625 30.75 C-5.74256592 31.77262939 -5.74256592 31.77262939 -5.92626953 32.81591797 C-8.26251717 45.98725577 -10.73409595 59.12551543 -13.625 72.1875 C-13.85783691 73.28755371 -14.09067383 74.38760742 -14.33056641 75.52099609 C-14.67933838 77.05554443 -14.67933838 77.05554443 -15.03515625 78.62109375 C-15.23375244 79.51755615 -15.43234863 80.41401855 -15.63696289 81.33764648 C-16.75801699 84.25960258 -18.17968799 85.75013483 -20.5625 87.75 C-23.65001255 88.53818542 -26.44973132 88.39539974 -29.5625 87.75 C-32.125 85.75 -32.125 85.75 -33.5625 82.75 C-33.89497894 76.68215634 -33.07453462 71.20983801 -31.84765625 65.28125 C-31.67245956 64.40150513 -31.49726288 63.52176025 -31.3167572 62.61535645 C-30.76002 59.82540559 -30.19310622 57.03765595 -29.625 54.25 C-29.06214443 51.46204185 -28.50152645 48.67366323 -27.94395447 45.88464355 C-27.59792265 44.15649244 -27.24864554 42.42898671 -26.89552307 40.70227051 C-25.89339442 35.7293572 -25.13128751 30.79144357 -24.5625 25.75 C-25.42875 25.440625 -25.42875 25.440625 -26.3125 25.125 C-30.51915087 22.55426891 -32.23022862 18.9683284 -33.5 14.3125 C-33.57701562 9.92260991 -32.74631368 7.55406254 -30.5625 3.75 C-22.63628842 -4.35635275 -9.88728287 -5.86941699 0 0 Z " fill="#020202" transform="translate(659.5625,77.25)"/>
<path d="M0 0 C1.98 0 3.96 0 6 0 C6 0.33 6 0.66 6 1 C4.02 1 2.04 1 0 1 C0 0.67 0 0.34 0 0 Z " fill="#050503" transform="translate(510,762)"/>
<path d="M0 0 C1.98 0 3.96 0 6 0 C6 0.33 6 0.66 6 1 C4.02 1 2.04 1 0 1 C0 0.67 0 0.34 0 0 Z " fill="#070606" transform="translate(330,750)"/>
<path d="M0 0 C1.98 0 3.96 0 6 0 C6 0.33 6 0.66 6 1 C4.02 1 2.04 1 0 1 C0 0.67 0 0.34 0 0 Z " fill="#080808" transform="translate(655,646)"/>
<path d="M0 0 C1.98 0 3.96 0 6 0 C6 0.33 6 0.66 6 1 C4.02 1 2.04 1 0 1 C0 0.67 0 0.34 0 0 Z " fill="#070606" transform="translate(624,202)"/>
<path d="M0 0 C1.98 0.495 1.98 0.495 4 1 C2.35 1.33 0.7 1.66 -1 2 C-0.67 1.34 -0.34 0.68 0 0 Z " fill="#070706" transform="translate(83,173)"/>
<path d="M0 0 C1.65 0 3.3 0 5 0 C5 0.33 5 0.66 5 1 C3.35 1 1.7 1 0 1 C0 0.67 0 0.34 0 0 Z " fill="#060605" transform="translate(504,762)"/>
<path d="M0 0 C0.33 0 0.66 0 1 0 C1 1.65 1 3.3 1 5 C0.67 5 0.34 5 0 5 C0 3.35 0 1.7 0 0 Z " fill="#050505" transform="translate(703,323)"/>
<path d="M0 0 C1.65 0 3.3 0 5 0 C5 0.33 5 0.66 5 1 C3.35 1 1.7 1 0 1 C0 0.67 0 0.34 0 0 Z " fill="#050505" transform="translate(640,284)"/>
<path d="M0 0 C0.33 0 0.66 0 1 0 C1 1.65 1 3.3 1 5 C0.67 5 0.34 5 0 5 C0 3.35 0 1.7 0 0 Z " fill="#070706" transform="translate(490,244)"/>
<path d="M0 0 C4 1 4 1 4 1 Z " fill="#060606" transform="translate(219,750)"/>
<path d="M0 0 C4 1 4 1 4 1 Z " fill="#040505" transform="translate(320,740)"/>
<path d="M0 0 C1 4 1 4 1 4 Z " fill="#070807" transform="translate(57,718)"/>
<path d="M0 0 C4 1 4 1 4 1 Z " fill="#070707" transform="translate(668,647)"/>
<path d="M0 0 C1 4 1 4 1 4 Z " fill="#060707" transform="translate(60,645)"/>
<path d="M0 0 C4 1 4 1 4 1 Z " fill="#050706" transform="translate(568,564)"/>
<path d="M0 0 C1 4 1 4 1 4 Z " fill="#060706" transform="translate(569,302)"/>
<path d="M0 0 C1 4 1 4 1 4 Z " fill="#070607" transform="translate(711,204)"/>
<path d="M0 0 C4 1 4 1 4 1 Z " fill="#070606" transform="translate(635,203)"/>
<path d="M0 0 C4 1 4 1 4 1 Z " fill="#060706" transform="translate(344,108)"/>
<path d="M0 0 C3 1 3 1 3 1 Z " fill="#070707" transform="translate(566,766)"/>
<path d="M0 0 C3 1 3 1 3 1 Z " fill="#060405" transform="translate(525,763)"/>
<path d="M0 0 C3 1 3 1 3 1 Z " fill="#050504" transform="translate(521,763)"/>
<path d="M0 0 C3 1 3 1 3 1 Z " fill="#050605" transform="translate(464,759)"/>
<path d="M0 0 C3 1 3 1 3 1 Z " fill="#070605" transform="translate(387,754)"/>
<path d="M0 0 C3 1 3 1 3 1 Z " fill="#060605" transform="translate(383,754)"/>
<path d="M0 0 C3 1 3 1 3 1 Z " fill="#060708" transform="translate(324,750)"/>
<path d="M0 0 C0.33 0.66 0.66 1.32 1 2 C0.34 1.67 -0.32 1.34 -1 1 C-0.67 0.67 -0.34 0.34 0 0 Z " fill="#060506" transform="translate(316,740)"/>
<path d="M0 0 C3 1 3 1 3 1 Z " fill="#080806" transform="translate(94,726)"/>
<path d="" fill="#080807" transform="translate(0,0)"/>
<path d="" fill="#070807" transform="translate(0,0)"/>
<path d="" fill="#050606" transform="translate(0,0)"/>
<path d="M0 0 C3 1 3 1 3 1 Z " fill="#060606" transform="translate(308,571)"/>
<path d="" fill="#070605" transform="translate(0,0)"/>
<path d="" fill="#080605" transform="translate(0,0)"/>
<path d="M0 0 C3 1 3 1 3 1 Z " fill="#040504" transform="translate(271,434)"/>
<path d="M0 0 C3 1 3 1 3 1 Z " fill="#050605" transform="translate(328,340)"/>
<path d="M0 0 C3 1 3 1 3 1 Z " fill="#050805" transform="translate(424,319)"/>
<path d="M0 0 C0.33 0.66 0.66 1.32 1 2 C0.34 1.67 -0.32 1.34 -1 1 C-0.67 0.67 -0.34 0.34 0 0 Z " fill="#060605" transform="translate(219,317)"/>
<path d="M0 0 C3 1 3 1 3 1 Z " fill="#080606" transform="translate(618,310)"/>
<path d="M0 0 C3 1 3 1 3 1 Z " fill="#080706" transform="translate(582,198)"/>
<path d="" fill="#070606" transform="translate(0,0)"/>
<path d="M0 0 C3 1 3 1 3 1 Z " fill="#040604" transform="translate(287,187)"/>
<path d="M0 0 C3 1 3 1 3 1 Z " fill="#080707" transform="translate(639,172)"/>
<path d="M0 0 C3 1 3 1 3 1 Z " fill="#070706" transform="translate(88,172)"/>
<path d="M0 0 C3 1 3 1 3 1 Z " fill="#060706" transform="translate(154,157)"/>
<path d="M0 0 C0.33 0.66 0.66 1.32 1 2 C0.34 1.67 -0.32 1.34 -1 1 C-0.67 0.67 -0.34 0.34 0 0 Z " fill="#070707" transform="translate(682,149)"/>
<path d="M0 0 C0.33 0.66 0.66 1.32 1 2 C0.34 1.67 -0.32 1.34 -1 1 C-0.67 0.67 -0.34 0.34 0 0 Z " fill="#050505" transform="translate(472,146)"/>
<path d="M0 0 C0.33 0.66 0.66 1.32 1 2 C0.34 1.67 -0.32 1.34 -1 1 C-0.67 0.67 -0.34 0.34 0 0 Z " fill="#060506" transform="translate(339,109)"/>
<path d="M0 0 C3 1 3 1 3 1 Z " fill="#050605" transform="translate(376,100)"/>
<path d="M0 0 C0.33 0.66 0.66 1.32 1 2 C0.34 1.67 -0.32 1.34 -1 1 C-0.67 0.67 -0.34 0.34 0 0 Z " fill="#070706" transform="translate(627,76)"/>
<path d="M0 0 C2 1 2 1 2 1 Z " fill="#070605" transform="translate(611,769)"/>
<path d="M0 0 C2 1 2 1 2 1 Z " fill="#060705" transform="translate(585,767)"/>
<path d="M0 0 C2 1 2 1 2 1 Z " fill="#070706" transform="translate(582,767)"/>
<path d="M0 0 C2 1 2 1 2 1 Z " fill="#080706" transform="translate(150,766)"/>
<path d="" fill="#060507" transform="translate(0,0)"/>
<path d="M0 0 C2 1 2 1 2 1 Z " fill="#060506" transform="translate(451,758)"/>
<path d="M0 0 C2 1 2 1 2 1 Z " fill="#070605" transform="translate(369,753)"/>
<path d="M0 0 C2 1 2 1 2 1 Z " fill="#060705" transform="translate(358,752)"/>
<path d="M0 0 C2 1 2 1 2 1 Z " fill="#070606" transform="translate(342,751)"/>
<path d="M0 0 C2 1 2 1 2 1 Z " fill="#070706" transform="translate(316,750)"/>
<path d="M0 0 C2 1 2 1 2 1 Z " fill="#050505" transform="translate(232,747)"/>
<path d="" fill="#060607" transform="translate(0,0)"/>
<path d="M0 0 C2 1 2 1 2 1 Z " fill="#070705" transform="translate(304,743)"/>
<path d="M0 0 C2 1 2 1 2 1 Z " fill="#070605" transform="translate(254,743)"/>
<path d="M0 0 C2 1 2 1 2 1 Z " fill="#060606" transform="translate(251,743)"/>
<path d="M0 0 C2 1 2 1 2 1 Z " fill="#060403" transform="translate(311,742)"/>
<path d="" fill="#070707" transform="translate(0,0)"/>
<path d="M0 0 C2 1 2 1 2 1 Z " fill="#070505" transform="translate(350,734)"/>
<path d="M0 0 C2 1 2 1 2 1 Z " fill="#070805" transform="translate(109,726)"/>
<path d="" fill="#080706" transform="translate(0,0)"/>
<path d="" fill="#090706" transform="translate(0,0)"/>
<path d="" fill="#070706" transform="translate(0,0)"/>
<path d="" fill="#070606" transform="translate(0,0)"/>
<path d="M0 0 C2 1 2 1 2 1 Z " fill="#070707" transform="translate(446,702)"/>
<path d="M0 0 C2 1 2 1 2 1 Z " fill="#060607" transform="translate(468,698)"/>
<path d="" fill="#060606" transform="translate(0,0)"/>
<path d="" fill="#060605" transform="translate(0,0)"/>
<path d="" fill="#070807" transform="translate(0,0)"/>
<path d="" fill="#080606" transform="translate(0,0)"/>
<path d="" fill="#090807" transform="translate(0,0)"/>
<path d="M0 0 C2 1 2 1 2 1 Z " fill="#070706" transform="translate(673,647)"/>
<path d="M0 0 C2 1 2 1 2 1 Z " fill="#080807" transform="translate(665,647)"/>
<path d="" fill="#060707" transform="translate(0,0)"/>
<path d="" fill="#070709" transform="translate(0,0)"/>
<path d="" fill="#060707" transform="translate(0,0)"/>
<path d="" fill="#060506" transform="translate(0,0)"/>
<path d="" fill="#050807" transform="translate(0,0)"/>
<path d="" fill="#090909" transform="translate(0,0)"/>
<path d="M0 0 C2 1 2 1 2 1 Z " fill="#070707" transform="translate(592,603)"/>
<path d="M0 0 C2 1 2 1 2 1 Z " fill="#040505" transform="translate(249,596)"/>
<path d="M0 0 C2 1 2 1 2 1 Z " fill="#060605" transform="translate(288,588)"/>
<path d="M0 0 C2 1 2 1 2 1 Z " fill="#070705" transform="translate(563,565)"/>
<path d="M0 0 C2 1 2 1 2 1 Z " fill="#050406" transform="translate(528,555)"/>
<path d="" fill="#060506" transform="translate(0,0)"/>
<path d="" fill="#080706" transform="translate(0,0)"/>
<path d="" fill="#070706" transform="translate(0,0)"/>
<path d="" fill="#060607" transform="translate(0,0)"/>
<path d="" fill="#070706" transform="translate(0,0)"/>
<path d="" fill="#050504" transform="translate(0,0)"/>
<path d="M0 0 C2 1 2 1 2 1 Z " fill="#060604" transform="translate(299,510)"/>
<path d="" fill="#050605" transform="translate(0,0)"/>
<path d="M0 0 C2 1 2 1 2 1 Z " fill="#070507" transform="translate(379,494)"/>
<path d="" fill="#070606" transform="translate(0,0)"/>
<path d="" fill="#070606" transform="translate(0,0)"/>
<path d="" fill="#070606" transform="translate(0,0)"/>
<path d="" fill="#040505" transform="translate(0,0)"/>
<path d="" fill="#060706" transform="translate(0,0)"/>
<path d="M0 0 C2 1 2 1 2 1 Z " fill="#050406" transform="translate(267,446)"/>
<path d="M0 0 C2 1 2 1 2 1 Z " fill="#060606" transform="translate(272,445)"/>
<path d="" fill="#060605" transform="translate(0,0)"/>
<path d="" fill="#050505" transform="translate(0,0)"/>
<path d="M0 0 C2 1 2 1 2 1 Z " fill="#060606" transform="translate(127,383)"/>
<path d="M0 0 C2 1 2 1 2 1 Z " fill="#060505" transform="translate(217,364)"/>
<path d="" fill="#040505" transform="translate(0,0)"/>
<path d="" fill="#050607" transform="translate(0,0)"/>
<path d="M0 0 C2 1 2 1 2 1 Z " fill="#070606" transform="translate(355,334)"/>
<path d="M0 0 C2 1 2 1 2 1 Z " fill="#050504" transform="translate(394,326)"/>
<path d="M0 0 C2 1 2 1 2 1 Z " fill="#050606" transform="translate(435,317)"/>
<path d="M0 0 C2 1 2 1 2 1 Z " fill="#070707" transform="translate(467,310)"/>
<path d="M0 0 C2 1 2 1 2 1 Z " fill="#060603" transform="translate(480,308)"/>
<path d="M0 0 C2 1 2 1 2 1 Z " fill="#080705" transform="translate(264,308)"/>
<path d="M0 0 C2 1 2 1 2 1 Z " fill="#050605" transform="translate(435,306)"/>
<path d="" fill="#070506" transform="translate(0,0)"/>
<path d="M0 0 C2 1 2 1 2 1 Z " fill="#070706" transform="translate(449,303)"/>
<path d="M0 0 C2 1 2 1 2 1 Z " fill="#060606" transform="translate(290,302)"/>
<path d="" fill="#070706" transform="translate(0,0)"/>
<path d="M0 0 C2 1 2 1 2 1 Z " fill="#060706" transform="translate(472,298)"/>
<path d="" fill="#090807" transform="translate(0,0)"/>
<path d="M0 0 C2 1 2 1 2 1 Z " fill="#050605" transform="translate(488,260)"/>
<path d="" fill="#050405" transform="translate(0,0)"/>
<path d="" fill="#050706" transform="translate(0,0)"/>
<path d="" fill="#080808" transform="translate(0,0)"/>
<path d="" fill="#060706" transform="translate(0,0)"/>
<path d="M0 0 C2 1 2 1 2 1 Z " fill="#080507" transform="translate(221,203)"/>
<path d="" fill="#080507" transform="translate(0,0)"/>
<path d="M0 0 C2 1 2 1 2 1 Z " fill="#050606" transform="translate(107,196)"/>
<path d="M0 0 C2 1 2 1 2 1 Z " fill="#060705" transform="translate(306,183)"/>
<path d="" fill="#050606" transform="translate(0,0)"/>
<path d="" fill="#040605" transform="translate(0,0)"/>
<path d="" fill="#0B0908" transform="translate(0,0)"/>
<path d="M0 0 C2 1 2 1 2 1 Z " fill="#070707" transform="translate(327,178)"/>
<path d="" fill="#090A08" transform="translate(0,0)"/>
<path d="M0 0 C2 1 2 1 2 1 Z " fill="#070807" transform="translate(347,174)"/>
<path d="M0 0 C2 1 2 1 2 1 Z " fill="#080707" transform="translate(130,174)"/>
<path d="M0 0 C2 1 2 1 2 1 Z " fill="#080806" transform="translate(636,173)"/>
<path d="M0 0 C2 1 2 1 2 1 Z " fill="#080809" transform="translate(627,172)"/>
<path d="M0 0 C2 1 2 1 2 1 Z " fill="#080707" transform="translate(81,172)"/>
<path d="M0 0 C2 1 2 1 2 1 Z " fill="#090706" transform="translate(407,160)"/>
<path d="" fill="#060708" transform="translate(0,0)"/>
<path d="M0 0 C2 1 2 1 2 1 Z " fill="#090808" transform="translate(412,159)"/>
<path d="M0 0 C2 1 2 1 2 1 Z " fill="#070706" transform="translate(150,158)"/>
<path d="M0 0 C2 1 2 1 2 1 Z " fill="#080608" transform="translate(429,155)"/>
<path d="" fill="#080906" transform="translate(0,0)"/>
<path d="M0 0 C2 1 2 1 2 1 Z " fill="#070808" transform="translate(705,151)"/>
<path d="M0 0 C2 1 2 1 2 1 Z " fill="#080806" transform="translate(692,151)"/>
<path d="" fill="#060707" transform="translate(0,0)"/>
<path d="M0 0 C2 1 2 1 2 1 Z " fill="#080707" transform="translate(447,151)"/>
<path d="" fill="#060708" transform="translate(0,0)"/>
<path d="M0 0 C2 1 2 1 2 1 Z " fill="#050605" transform="translate(579,140)"/>
<path d="" fill="#080807" transform="translate(0,0)"/>
<path d="M0 0 C2 1 2 1 2 1 Z " fill="#070506" transform="translate(90,134)"/>
<path d="" fill="#080708" transform="translate(0,0)"/>
<path d="" fill="#070606" transform="translate(0,0)"/>
<path d="" fill="#060706" transform="translate(0,0)"/>
<path d="" fill="#060706" transform="translate(0,0)"/>
<path d="M0 0 C2 1 2 1 2 1 Z " fill="#060606" transform="translate(451,105)"/>
<path d="" fill="#020503" transform="translate(0,0)"/>
<path d="" fill="#060606" transform="translate(0,0)"/>
<path d="M0 0 C2 1 2 1 2 1 Z " fill="#080605" transform="translate(629,78)"/>
<path d="" fill="#070704" transform="translate(0,0)"/>
<path d="M0 0 C2 1 2 1 2 1 Z " fill="#060506" transform="translate(412,54)"/>
<path d="" fill="#050304" transform="translate(0,0)"/>
<path d="M0 0 C2 1 2 1 2 1 Z " fill="#040504" transform="translate(408,20)"/>
<path d="" fill="#000102" transform="translate(0,0)"/>
<path d="" fill="#000000" transform="translate(0,0)"/>
<path d="" fill="#020202" transform="translate(0,0)"/>
<path d="" fill="#020302" transform="translate(0,0)"/>
<path d="" fill="#000102" transform="translate(0,0)"/>
<path d="" fill="#030402" transform="translate(0,0)"/>
<path d="" fill="#050506" transform="translate(0,0)"/>
<path d="" fill="#060605" transform="translate(0,0)"/>
<path d="" fill="#050505" transform="translate(0,0)"/>
<path d="" fill="#040505" transform="translate(0,0)"/>
<path d="" fill="#000000" transform="translate(0,0)"/>
<path d="" fill="#060706" transform="translate(0,0)"/>
<path d="" fill="#060705" transform="translate(0,0)"/>
<path d="" fill="#050705" transform="translate(0,0)"/>
<path d="" fill="#050605" transform="translate(0,0)"/>
<path d="" fill="#030602" transform="translate(0,0)"/>
<path d="" fill="#040604" transform="translate(0,0)"/>
<path d="" fill="#050604" transform="translate(0,0)"/>
<path d="" fill="#040402" transform="translate(0,0)"/>
<path d="" fill="#000000" transform="translate(0,0)"/>
<path d="" fill="#000000" transform="translate(0,0)"/>
<path d="" fill="#040303" transform="translate(0,0)"/>
<path d="" fill="#040605" transform="translate(0,0)"/>
<path d="" fill="#070704" transform="translate(0,0)"/>
<path d="" fill="#060A07" transform="translate(0,0)"/>
<path d="" fill="#080607" transform="translate(0,0)"/>
<path d="" fill="#060707" transform="translate(0,0)"/>
<path d="" fill="#050404" transform="translate(0,0)"/>
<path d="" fill="#070405" transform="translate(0,0)"/>
<path d="" fill="#060605" transform="translate(0,0)"/>
<path d="" fill="#040505" transform="translate(0,0)"/>
<path d="" fill="#050505" transform="translate(0,0)"/>
<path d="" fill="#050705" transform="translate(0,0)"/>
<path d="" fill="#040605" transform="translate(0,0)"/>
<path d="" fill="#030305" transform="translate(0,0)"/>
<path d="" fill="#060506" transform="translate(0,0)"/>
<path d="" fill="#040504" transform="translate(0,0)"/>
<path d="" fill="#050504" transform="translate(0,0)"/>
<path d="" fill="#050406" transform="translate(0,0)"/>
<path d="" fill="#040504" transform="translate(0,0)"/>
<path d="" fill="#050604" transform="translate(0,0)"/>
<path d="" fill="#070606" transform="translate(0,0)"/>
<path d="" fill="#080604" transform="translate(0,0)"/>
<path d="" fill="#070401" transform="translate(0,0)"/>
<path d="" fill="#060607" transform="translate(0,0)"/>
<path d="" fill="#060605" transform="translate(0,0)"/>
<path d="" fill="#050404" transform="translate(0,0)"/>
<path d="" fill="#000000" transform="translate(0,0)"/>
<path d="" fill="#000000" transform="translate(0,0)"/>
<path d="" fill="#000000" transform="translate(0,0)"/>
<path d="" fill="#000000" transform="translate(0,0)"/>
<path d="" fill="#000000" transform="translate(0,0)"/>
<path d="" fill="#060807" transform="translate(0,0)"/>
<path d="" fill="#080807" transform="translate(0,0)"/>
<path d="" fill="#060605" transform="translate(0,0)"/>
<path d="" fill="#040404" transform="translate(0,0)"/>
<path d="" fill="#000000" transform="translate(0,0)"/>
<path d="" fill="#000000" transform="translate(0,0)"/>
<path d="" fill="#070806" transform="translate(0,0)"/>
<path d="" fill="#060605" transform="translate(0,0)"/>
<path d="" fill="#080707" transform="translate(0,0)"/>
<path d="" fill="#060504" transform="translate(0,0)"/>
<path d="" fill="#070605" transform="translate(0,0)"/>
<path d="" fill="#070704" transform="translate(0,0)"/>
<path d="" fill="#050802" transform="translate(0,0)"/>
<path d="" fill="#070704" transform="translate(0,0)"/>
<path d="" fill="#060803" transform="translate(0,0)"/>
<path d="" fill="#080906" transform="translate(0,0)"/>
<path d="" fill="#040502" transform="translate(0,0)"/>
<path d="" fill="#050505" transform="translate(0,0)"/>
<path d="" fill="#050504" transform="translate(0,0)"/>
<path d="" fill="#050503" transform="translate(0,0)"/>
<path d="" fill="#060404" transform="translate(0,0)"/>
<path d="" fill="#060607" transform="translate(0,0)"/>
<path d="" fill="#070706" transform="translate(0,0)"/>
<path d="" fill="#040404" transform="translate(0,0)"/>
<path d="" fill="#050505" transform="translate(0,0)"/>
<path d="" fill="#070505" transform="translate(0,0)"/>
<path d="" fill="#090909" transform="translate(0,0)"/>
<path d="" fill="#080705" transform="translate(0,0)"/>
<path d="" fill="#080A06" transform="translate(0,0)"/>
<path d="" fill="#0A0808" transform="translate(0,0)"/>
<path d="" fill="#080707" transform="translate(0,0)"/>
<path d="" fill="#050706" transform="translate(0,0)"/>
<path d="" fill="#060707" transform="translate(0,0)"/>
<path d="" fill="#070707" transform="translate(0,0)"/>
<path d="" fill="#050504" transform="translate(0,0)"/>
<path d="" fill="#080907" transform="translate(0,0)"/>
<path d="" fill="#070806" transform="translate(0,0)"/>
<path d="" fill="#070707" transform="translate(0,0)"/>
<path d="" fill="#050605" transform="translate(0,0)"/>
<path d="" fill="#060406" transform="translate(0,0)"/>
<path d="" fill="#080708" transform="translate(0,0)"/>
<path d="" fill="#040503" transform="translate(0,0)"/>
<path d="" fill="#060504" transform="translate(0,0)"/>
<path d="" fill="#070304" transform="translate(0,0)"/>
<path d="" fill="#080806" transform="translate(0,0)"/>
<path d="" fill="#090706" transform="translate(0,0)"/>
<path d="" fill="#09080A" transform="translate(0,0)"/>
<path d="" fill="#090807" transform="translate(0,0)"/>
<path d="" fill="#080707" transform="translate(0,0)"/>
<path d="" fill="#080706" transform="translate(0,0)"/>
<path d="" fill="#060707" transform="translate(0,0)"/>
<path d="" fill="#060607" transform="translate(0,0)"/>
<path d="" fill="#060606" transform="translate(0,0)"/>
<path d="" fill="#080807" transform="translate(0,0)"/>
<path d="" fill="#070808" transform="translate(0,0)"/>
<path d="" fill="#090807" transform="translate(0,0)"/>
<path d="" fill="#060705" transform="translate(0,0)"/>
<path d="" fill="#060707" transform="translate(0,0)"/>
<path d="" fill="#080907" transform="translate(0,0)"/>
<path d="" fill="#080806" transform="translate(0,0)"/>
<path d="" fill="#070806" transform="translate(0,0)"/>
<path d="" fill="#070606" transform="translate(0,0)"/>
<path d="" fill="#080606" transform="translate(0,0)"/>
<path d="" fill="#090808" transform="translate(0,0)"/>
<path d="" fill="#040605" transform="translate(0,0)"/>
<path d="" fill="#070706" transform="translate(0,0)"/>
<path d="" fill="#060507" transform="translate(0,0)"/>
<path d="" fill="#070506" transform="translate(0,0)"/>
<path d="" fill="#070808" transform="translate(0,0)"/>
<path d="" fill="#080506" transform="translate(0,0)"/>
<path d="" fill="#080A08" transform="translate(0,0)"/>
<path d="" fill="#090908" transform="translate(0,0)"/>
<path d="" fill="#090808" transform="translate(0,0)"/>
<path d="" fill="#070807" transform="translate(0,0)"/>
<path d="" fill="#060606" transform="translate(0,0)"/>
<path d="" fill="#060906" transform="translate(0,0)"/>
<path d="" fill="#090809" transform="translate(0,0)"/>
<path d="" fill="#070707" transform="translate(0,0)"/>
<path d="" fill="#020303" transform="translate(0,0)"/>
<path d="" fill="#090A09" transform="translate(0,0)"/>
<path d="" fill="#060807" transform="translate(0,0)"/>
<path d="" fill="#060606" transform="translate(0,0)"/>
<path d="" fill="#070707" transform="translate(0,0)"/>
<path d="" fill="#050607" transform="translate(0,0)"/>
<path d="" fill="#080707" transform="translate(0,0)"/>
<path d="" fill="#080606" transform="translate(0,0)"/>
<path d="" fill="#050807" transform="translate(0,0)"/>
<path d="" fill="#070606" transform="translate(0,0)"/>
<path d="" fill="#050603" transform="translate(0,0)"/>
<path d="" fill="#080608" transform="translate(0,0)"/>
<path d="" fill="#080807" transform="translate(0,0)"/>
<path d="" fill="#050705" transform="translate(0,0)"/>
<path d="" fill="#080A07" transform="translate(0,0)"/>
<path d="" fill="#070704" transform="translate(0,0)"/>
<path d="" fill="#090909" transform="translate(0,0)"/>
<path d="" fill="#070706" transform="translate(0,0)"/>
<path d="" fill="#070606" transform="translate(0,0)"/>
<path d="" fill="#070606" transform="translate(0,0)"/>
<path d="" fill="#0D0906" transform="translate(0,0)"/>
<path d="" fill="#0B0907" transform="translate(0,0)"/>
<path d="" fill="#060905" transform="translate(0,0)"/>
<path d="" fill="#080708" transform="translate(0,0)"/>
<path d="" fill="#060606" transform="translate(0,0)"/>
<path d="" fill="#050506" transform="translate(0,0)"/>
<path d="" fill="#050606" transform="translate(0,0)"/>
<path d="" fill="#060503" transform="translate(0,0)"/>
<path d="" fill="#090604" transform="translate(0,0)"/>
<path d="" fill="#060706" transform="translate(0,0)"/>
<path d="" fill="#080607" transform="translate(0,0)"/>
<path d="" fill="#070705" transform="translate(0,0)"/>
<path d="" fill="#060806" transform="translate(0,0)"/>
<path d="" fill="#080707" transform="translate(0,0)"/>
<path d="" fill="#060506" transform="translate(0,0)"/>
<path d="" fill="#060705" transform="translate(0,0)"/>
<path d="" fill="#080B09" transform="translate(0,0)"/>
<path d="" fill="#070604" transform="translate(0,0)"/>
<path d="" fill="#070705" transform="translate(0,0)"/>
<path d="" fill="#060704" transform="translate(0,0)"/>
<path d="" fill="#050404" transform="translate(0,0)"/>
<path d="" fill="#070606" transform="translate(0,0)"/>
<path d="" fill="#040606" transform="translate(0,0)"/>
<path d="" fill="#050506" transform="translate(0,0)"/>
<path d="" fill="#070406" transform="translate(0,0)"/>
<path d="" fill="#050505" transform="translate(0,0)"/>
<path d="" fill="#050604" transform="translate(0,0)"/>
<path d="" fill="#050707" transform="translate(0,0)"/>
<path d="" fill="#050703" transform="translate(0,0)"/>
<path d="" fill="#050706" transform="translate(0,0)"/>
<path d="" fill="#080607" transform="translate(0,0)"/>
<path d="" fill="#0A0907" transform="translate(0,0)"/>
<path d="" fill="#060809" transform="translate(0,0)"/>
<path d="" fill="#060703" transform="translate(0,0)"/>
<path d="" fill="#060606" transform="translate(0,0)"/>
<path d="" fill="#070606" transform="translate(0,0)"/>
<path d="" fill="#050405" transform="translate(0,0)"/>
<path d="" fill="#080804" transform="translate(0,0)"/>
<path d="" fill="#070505" transform="translate(0,0)"/>
<path d="" fill="#050505" transform="translate(0,0)"/>
<path d="" fill="#070506" transform="translate(0,0)"/>
<path d="" fill="#060606" transform="translate(0,0)"/>
<path d="" fill="#080607" transform="translate(0,0)"/>
<path d="" fill="#070906" transform="translate(0,0)"/>
<path d="" fill="#070506" transform="translate(0,0)"/>
<path d="" fill="#070504" transform="translate(0,0)"/>
<path d="" fill="#080808" transform="translate(0,0)"/>
<path d="" fill="#080806" transform="translate(0,0)"/>
<path d="" fill="#080505" transform="translate(0,0)"/>
<path d="" fill="#060807" transform="translate(0,0)"/>
<path d="" fill="#060504" transform="translate(0,0)"/>
<path d="" fill="#060504" transform="translate(0,0)"/>
<path d="" fill="#050606" transform="translate(0,0)"/>
<path d="" fill="#060605" transform="translate(0,0)"/>
<path d="" fill="#0A0905" transform="translate(0,0)"/>
<path d="" fill="#070709" transform="translate(0,0)"/>
<path d="" fill="#080906" transform="translate(0,0)"/>
<path d="" fill="#080707" transform="translate(0,0)"/>
<path d="" fill="#060704" transform="translate(0,0)"/>
<path d="" fill="#050606" transform="translate(0,0)"/>
<path d="" fill="#080809" transform="translate(0,0)"/>
<path d="" fill="#050504" transform="translate(0,0)"/>
<path d="" fill="#060705" transform="translate(0,0)"/>
<path d="" fill="#070605" transform="translate(0,0)"/>
<path d="" fill="#070707" transform="translate(0,0)"/>
<path d="" fill="#070605" transform="translate(0,0)"/>
<path d="" fill="#050506" transform="translate(0,0)"/>
<path d="" fill="#060705" transform="translate(0,0)"/>
<path d="" fill="#090707" transform="translate(0,0)"/>
<path d="" fill="#060706" transform="translate(0,0)"/>
<path d="" fill="#080507" transform="translate(0,0)"/>
<path d="" fill="#080807" transform="translate(0,0)"/>
<path d="" fill="#050605" transform="translate(0,0)"/>
<path d="" fill="#060506" transform="translate(0,0)"/>
<path d="" fill="#080909" transform="translate(0,0)"/>
<path d="" fill="#060506" transform="translate(0,0)"/>
<path d="" fill="#090807" transform="translate(0,0)"/>
<path d="" fill="#060705" transform="translate(0,0)"/>
<path d="" fill="#070808" transform="translate(0,0)"/>
<path d="" fill="#040604" transform="translate(0,0)"/>
<path d="" fill="#060506" transform="translate(0,0)"/>
<path d="" fill="#060608" transform="translate(0,0)"/>
<path d="" fill="#060606" transform="translate(0,0)"/>
<path d="" fill="#060605" transform="translate(0,0)"/>
<path d="" fill="#060605" transform="translate(0,0)"/>
<path d="" fill="#070705" transform="translate(0,0)"/>
<path d="" fill="#050805" transform="translate(0,0)"/>
<path d="" fill="#070504" transform="translate(0,0)"/>
<path d="" fill="#040405" transform="translate(0,0)"/>
<path d="" fill="#060507" transform="translate(0,0)"/>
<path d="" fill="#060608" transform="translate(0,0)"/>
<path d="" fill="#060604" transform="translate(0,0)"/>
<path d="" fill="#050805" transform="translate(0,0)"/>
<path d="" fill="#040507" transform="translate(0,0)"/>
<path d="" fill="#030404" transform="translate(0,0)"/>
<path d="" fill="#070505" transform="translate(0,0)"/>
<path d="" fill="#050605" transform="translate(0,0)"/>
<path d="" fill="#070403" transform="translate(0,0)"/>
<path d="" fill="#080806" transform="translate(0,0)"/>
<path d="" fill="#070506" transform="translate(0,0)"/>
<path d="" fill="#040704" transform="translate(0,0)"/>
<path d="" fill="#070504" transform="translate(0,0)"/>
<path d="" fill="#080706" transform="translate(0,0)"/>
<path d="" fill="#070708" transform="translate(0,0)"/>
<path d="" fill="#060406" transform="translate(0,0)"/>
<path d="" fill="#080906" transform="translate(0,0)"/>
<path d="" fill="#080706" transform="translate(0,0)"/>
<path d="" fill="#070605" transform="translate(0,0)"/>
<path d="" fill="#0A0707" transform="translate(0,0)"/>
<path d="" fill="#040807" transform="translate(0,0)"/>
<path d="" fill="#060608" transform="translate(0,0)"/>
<path d="" fill="#050706" transform="translate(0,0)"/>
<path d="" fill="#070808" transform="translate(0,0)"/>
<path d="" fill="#080704" transform="translate(0,0)"/>
<path d="" fill="#040506" transform="translate(0,0)"/>
<path d="" fill="#090808" transform="translate(0,0)"/>
<path d="" fill="#070705" transform="translate(0,0)"/>
<path d="" fill="#040805" transform="translate(0,0)"/>
<path d="" fill="#070707" transform="translate(0,0)"/>
<path d="" fill="#050503" transform="translate(0,0)"/>
<path d="" fill="#050706" transform="translate(0,0)"/>
<path d="" fill="#070608" transform="translate(0,0)"/>
<path d="" fill="#070505" transform="translate(0,0)"/>
<path d="" fill="#060704" transform="translate(0,0)"/>
<path d="" fill="#070706" transform="translate(0,0)"/>
<path d="" fill="#060607" transform="translate(0,0)"/>
<path d="" fill="#090606" transform="translate(0,0)"/>
<path d="" fill="#080608" transform="translate(0,0)"/>
<path d="" fill="#070608" transform="translate(0,0)"/>
<path d="" fill="#070A07" transform="translate(0,0)"/>
<path d="" fill="#070606" transform="translate(0,0)"/>
<path d="" fill="#050405" transform="translate(0,0)"/>
<path d="" fill="#050609" transform="translate(0,0)"/>
<path d="" fill="#040706" transform="translate(0,0)"/>
<path d="" fill="#040604" transform="translate(0,0)"/>
<path d="" fill="#050306" transform="translate(0,0)"/>
<path d="" fill="#070406" transform="translate(0,0)"/>
<path d="" fill="#050505" transform="translate(0,0)"/>
<path d="" fill="#040403" transform="translate(0,0)"/>
<path d="" fill="#040607" transform="translate(0,0)"/>
<path d="" fill="#080707" transform="translate(0,0)"/>
<path d="" fill="#060405" transform="translate(0,0)"/>
<path d="" fill="#070605" transform="translate(0,0)"/>
<path d="" fill="#090607" transform="translate(0,0)"/>
<path d="" fill="#080607" transform="translate(0,0)"/>
<path d="" fill="#080504" transform="translate(0,0)"/>
<path d="" fill="#070705" transform="translate(0,0)"/>
<path d="" fill="#070606" transform="translate(0,0)"/>
<path d="" fill="#070505" transform="translate(0,0)"/>
<path d="" fill="#070707" transform="translate(0,0)"/>
<path d="" fill="#050905" transform="translate(0,0)"/>
<path d="" fill="#090906" transform="translate(0,0)"/>
<path d="" fill="#070804" transform="translate(0,0)"/>
<path d="" fill="#0A0605" transform="translate(0,0)"/>
<path d="" fill="#080704" transform="translate(0,0)"/>
<path d="" fill="#060707" transform="translate(0,0)"/>
<path d="" fill="#080807" transform="translate(0,0)"/>
<path d="" fill="#060704" transform="translate(0,0)"/>
<path d="" fill="#070506" transform="translate(0,0)"/>
<path d="" fill="#080806" transform="translate(0,0)"/>
<path d="" fill="#080708" transform="translate(0,0)"/>
<path d="" fill="#060606" transform="translate(0,0)"/>
<path d="" fill="#060605" transform="translate(0,0)"/>
<path d="" fill="#090808" transform="translate(0,0)"/>
<path d="" fill="#050805" transform="translate(0,0)"/>
<path d="" fill="#060605" transform="translate(0,0)"/>
<path d="" fill="#050204" transform="translate(0,0)"/>
<path d="" fill="#060404" transform="translate(0,0)"/>
<path d="" fill="#080405" transform="translate(0,0)"/>
<path d="" fill="#060606" transform="translate(0,0)"/>
<path d="" fill="#060707" transform="translate(0,0)"/>
<path d="" fill="#070506" transform="translate(0,0)"/>
<path d="" fill="#070704" transform="translate(0,0)"/>
<path d="" fill="#070707" transform="translate(0,0)"/>
<path d="" fill="#090706" transform="translate(0,0)"/>
<path d="" fill="#070807" transform="translate(0,0)"/>
<path d="" fill="#070A08" transform="translate(0,0)"/>
<path d="" fill="#070406" transform="translate(0,0)"/>
<path d="" fill="#080807" transform="translate(0,0)"/>
<path d="" fill="#080505" transform="translate(0,0)"/>
<path d="" fill="#080505" transform="translate(0,0)"/>
<path d="" fill="#060707" transform="translate(0,0)"/>
<path d="" fill="#070605" transform="translate(0,0)"/>
<path d="" fill="#080606" transform="translate(0,0)"/>
<path d="" fill="#060806" transform="translate(0,0)"/>
<path d="" fill="#060704" transform="translate(0,0)"/>
<path d="" fill="#060708" transform="translate(0,0)"/>
<path d="" fill="#060705" transform="translate(0,0)"/>
<path d="" fill="#070906" transform="translate(0,0)"/>
<path d="" fill="#080604" transform="translate(0,0)"/>
<path d="" fill="#050A06" transform="translate(0,0)"/>
<path d="" fill="#070607" transform="translate(0,0)"/>
<path d="" fill="#050505" transform="translate(0,0)"/>
<path d="" fill="#060906" transform="translate(0,0)"/>
<path d="" fill="#070606" transform="translate(0,0)"/>
<path d="" fill="#070605" transform="translate(0,0)"/>
<path d="" fill="#060706" transform="translate(0,0)"/>
<path d="" fill="#0A0908" transform="translate(0,0)"/>
<path d="" fill="#050606" transform="translate(0,0)"/>
<path d="" fill="#070807" transform="translate(0,0)"/>
<path d="" fill="#070A08" transform="translate(0,0)"/>
<path d="" fill="#090907" transform="translate(0,0)"/>
<path d="" fill="#070B05" transform="translate(0,0)"/>
<path d="" fill="#060505" transform="translate(0,0)"/>
<path d="" fill="#0B0708" transform="translate(0,0)"/>
<path d="" fill="#090607" transform="translate(0,0)"/>
<path d="" fill="#060605" transform="translate(0,0)"/>
<path d="" fill="#070606" transform="translate(0,0)"/>
<path d="" fill="#050504" transform="translate(0,0)"/>
<path d="" fill="#090809" transform="translate(0,0)"/>
<path d="" fill="#070906" transform="translate(0,0)"/>
<path d="" fill="#09090A" transform="translate(0,0)"/>
<path d="" fill="#0A0A07" transform="translate(0,0)"/>
<path d="" fill="#050605" transform="translate(0,0)"/>
<path d="" fill="#080806" transform="translate(0,0)"/>
<path d="" fill="#080907" transform="translate(0,0)"/>
<path d="" fill="#070907" transform="translate(0,0)"/>
<path d="" fill="#060605" transform="translate(0,0)"/>
<path d="" fill="#070807" transform="translate(0,0)"/>
<path d="" fill="#080708" transform="translate(0,0)"/>
<path d="" fill="#090A07" transform="translate(0,0)"/>
<path d="" fill="#070808" transform="translate(0,0)"/>
<path d="" fill="#080808" transform="translate(0,0)"/>
<path d="" fill="#060705" transform="translate(0,0)"/>
<path d="" fill="#070606" transform="translate(0,0)"/>
<path d="" fill="#070505" transform="translate(0,0)"/>
<path d="" fill="#060507" transform="translate(0,0)"/>
<path d="" fill="#090808" transform="translate(0,0)"/>
<path d="" fill="#080A08" transform="translate(0,0)"/>
<path d="" fill="#0A0908" transform="translate(0,0)"/>
<path d="" fill="#0A0808" transform="translate(0,0)"/>
<path d="" fill="#090A08" transform="translate(0,0)"/>
<path d="" fill="#060507" transform="translate(0,0)"/>
<path d="" fill="#0A0808" transform="translate(0,0)"/>
<path d="" fill="#0A0909" transform="translate(0,0)"/>
<path d="" fill="#080608" transform="translate(0,0)"/>
<path d="" fill="#070608" transform="translate(0,0)"/>
<path d="" fill="#040605" transform="translate(0,0)"/>
<path d="" fill="#060404" transform="translate(0,0)"/>
<path d="" fill="#070706" transform="translate(0,0)"/>
<path d="" fill="#050606" transform="translate(0,0)"/>
<path d="" fill="#050605" transform="translate(0,0)"/>
<path d="" fill="#080807" transform="translate(0,0)"/>
<path d="" fill="#070707" transform="translate(0,0)"/>
<path d="" fill="#070905" transform="translate(0,0)"/>
<path d="" fill="#080806" transform="translate(0,0)"/>
<path d="" fill="#060708" transform="translate(0,0)"/>
<path d="" fill="#060607" transform="translate(0,0)"/>
<path d="" fill="#070908" transform="translate(0,0)"/>
<path d="" fill="#080708" transform="translate(0,0)"/>
<path d="" fill="#080508" transform="translate(0,0)"/>
<path d="" fill="#080506" transform="translate(0,0)"/>
<path d="" fill="#060806" transform="translate(0,0)"/>
<path d="" fill="#050707" transform="translate(0,0)"/>
<path d="" fill="#080807" transform="translate(0,0)"/>
<path d="" fill="#050606" transform="translate(0,0)"/>
<path d="" fill="#070808" transform="translate(0,0)"/>
<path d="" fill="#070806" transform="translate(0,0)"/>
<path d="" fill="#080808" transform="translate(0,0)"/>
<path d="" fill="#080808" transform="translate(0,0)"/>
<path d="" fill="#080805" transform="translate(0,0)"/>
<path d="" fill="#080708" transform="translate(0,0)"/>
<path d="" fill="#090608" transform="translate(0,0)"/>
<path d="" fill="#060705" transform="translate(0,0)"/>
<path d="" fill="#060604" transform="translate(0,0)"/>
<path d="" fill="#050507" transform="translate(0,0)"/>
<path d="" fill="#060705" transform="translate(0,0)"/>
<path d="" fill="#050704" transform="translate(0,0)"/>
<path d="" fill="#080605" transform="translate(0,0)"/>
<path d="" fill="#060604" transform="translate(0,0)"/>
<path d="" fill="#070706" transform="translate(0,0)"/>
<path d="" fill="#070606" transform="translate(0,0)"/>
<path d="" fill="#0B0909" transform="translate(0,0)"/>
<path d="" fill="#090808" transform="translate(0,0)"/>
<path d="" fill="#0A0808" transform="translate(0,0)"/>
<path d="" fill="#070707" transform="translate(0,0)"/>
<path d="" fill="#0B0A08" transform="translate(0,0)"/>
<path d="" fill="#080804" transform="translate(0,0)"/>
<path d="" fill="#090909" transform="translate(0,0)"/>
<path d="" fill="#0B0807" transform="translate(0,0)"/>
<path d="" fill="#0B0908" transform="translate(0,0)"/>
<path d="" fill="#070807" transform="translate(0,0)"/>
<path d="" fill="#080807" transform="translate(0,0)"/>
<path d="" fill="#070605" transform="translate(0,0)"/>
<path d="" fill="#090809" transform="translate(0,0)"/>
<path d="" fill="#0A0807" transform="translate(0,0)"/>
<path d="" fill="#060606" transform="translate(0,0)"/>
<path d="" fill="#060608" transform="translate(0,0)"/>
<path d="" fill="#070606" transform="translate(0,0)"/>
<path d="" fill="#080808" transform="translate(0,0)"/>
<path d="" fill="#090908" transform="translate(0,0)"/>
<path d="" fill="#070707" transform="translate(0,0)"/>
<path d="" fill="#080707" transform="translate(0,0)"/>
<path d="" fill="#070807" transform="translate(0,0)"/>
<path d="" fill="#060708" transform="translate(0,0)"/>
<path d="" fill="#070605" transform="translate(0,0)"/>
<path d="" fill="#060605" transform="translate(0,0)"/>
<path d="" fill="#070707" transform="translate(0,0)"/>
<path d="" fill="#090708" transform="translate(0,0)"/>
<path d="" fill="#060706" transform="translate(0,0)"/>
<path d="" fill="#090808" transform="translate(0,0)"/>
<path d="" fill="#030305" transform="translate(0,0)"/>
<path d="" fill="#020203" transform="translate(0,0)"/>
<path d="" fill="#080908" transform="translate(0,0)"/>
<path d="" fill="#0A0907" transform="translate(0,0)"/>
<path d="" fill="#070807" transform="translate(0,0)"/>
<path d="" fill="#080909" transform="translate(0,0)"/>
<path d="" fill="#070807" transform="translate(0,0)"/>
<path d="" fill="#070807" transform="translate(0,0)"/>
<path d="" fill="#060707" transform="translate(0,0)"/>
<path d="" fill="#090808" transform="translate(0,0)"/>
<path d="" fill="#0A0908" transform="translate(0,0)"/>
<path d="" fill="#0A0908" transform="translate(0,0)"/>
<path d="" fill="#080807" transform="translate(0,0)"/>
<path d="" fill="#070707" transform="translate(0,0)"/>
<path d="" fill="#060809" transform="translate(0,0)"/>
<path d="" fill="#090809" transform="translate(0,0)"/>
<path d="" fill="#070605" transform="translate(0,0)"/>
<path d="" fill="#060506" transform="translate(0,0)"/>
<path d="" fill="#050606" transform="translate(0,0)"/>
<path d="" fill="#060704" transform="translate(0,0)"/>
<path d="" fill="#0A0A05" transform="translate(0,0)"/>
<path d="" fill="#050605" transform="translate(0,0)"/>
<path d="" fill="#060807" transform="translate(0,0)"/>
<path d="" fill="#060403" transform="translate(0,0)"/>
<path d="" fill="#060708" transform="translate(0,0)"/>
<path d="" fill="#070807" transform="translate(0,0)"/>
<path d="" fill="#080605" transform="translate(0,0)"/>
<path d="" fill="#080705" transform="translate(0,0)"/>
<path d="" fill="#070404" transform="translate(0,0)"/>
<path d="" fill="#070807" transform="translate(0,0)"/>
<path d="" fill="#090605" transform="translate(0,0)"/>
<path d="" fill="#060404" transform="translate(0,0)"/>
<path d="" fill="#060807" transform="translate(0,0)"/>
<path d="" fill="#080708" transform="translate(0,0)"/>
<path d="" fill="#070808" transform="translate(0,0)"/>
<path d="" fill="#070808" transform="translate(0,0)"/>
<path d="" fill="#070807" transform="translate(0,0)"/>
<path d="" fill="#070607" transform="translate(0,0)"/>
<path d="" fill="#070806" transform="translate(0,0)"/>
<path d="" fill="#060605" transform="translate(0,0)"/>
<path d="" fill="#040605" transform="translate(0,0)"/>
<path d="" fill="#050606" transform="translate(0,0)"/>
<path d="" fill="#040707" transform="translate(0,0)"/>
<path d="" fill="#000101" transform="translate(0,0)"/>
<path d="" fill="#070806" transform="translate(0,0)"/>
<path d="" fill="#080606" transform="translate(0,0)"/>
<path d="" fill="#080706" transform="translate(0,0)"/>
<path d="" fill="#060505" transform="translate(0,0)"/>
<path d="" fill="#060502" transform="translate(0,0)"/>
<path d="" fill="#060503" transform="translate(0,0)"/>
<path d="" fill="#040706" transform="translate(0,0)"/>
<path d="" fill="#060606" transform="translate(0,0)"/>
<path d="" fill="#070806" transform="translate(0,0)"/>
<path d="" fill="#060807" transform="translate(0,0)"/>
<path d="" fill="#060706" transform="translate(0,0)"/>
<path d="" fill="#040705" transform="translate(0,0)"/>
<path d="" fill="#050605" transform="translate(0,0)"/>
<path d="" fill="#060607" transform="translate(0,0)"/>
<path d="" fill="#060605" transform="translate(0,0)"/>
<path d="" fill="#060506" transform="translate(0,0)"/>
<path d="" fill="#010100" transform="translate(0,0)"/>
<path d="" fill="#080706" transform="translate(0,0)"/>
<path d="" fill="#050503" transform="translate(0,0)"/>
<path d="" fill="#060606" transform="translate(0,0)"/>
<path d="" fill="#060607" transform="translate(0,0)"/>
<path d="" fill="#050503" transform="translate(0,0)"/>
<path d="" fill="#070504" transform="translate(0,0)"/>
<path d="" fill="#080807" transform="translate(0,0)"/>
<path d="" fill="#070606" transform="translate(0,0)"/>
<path d="" fill="#070606" transform="translate(0,0)"/>
<path d="" fill="#060807" transform="translate(0,0)"/>
<path d="" fill="#070505" transform="translate(0,0)"/>
<path d="" fill="#060707" transform="translate(0,0)"/>
<path d="" fill="#070A06" transform="translate(0,0)"/>
<path d="" fill="#040606" transform="translate(0,0)"/>
<path d="" fill="#060404" transform="translate(0,0)"/>
<path d="" fill="#050505" transform="translate(0,0)"/>
<path d="" fill="#030603" transform="translate(0,0)"/>
<path d="" fill="#080707" transform="translate(0,0)"/>
<path d="" fill="#070606" transform="translate(0,0)"/>
<path d="" fill="#080505" transform="translate(0,0)"/>
<path d="" fill="#080605" transform="translate(0,0)"/>
<path d="" fill="#040604" transform="translate(0,0)"/>
<path d="" fill="#040403" transform="translate(0,0)"/>
<path d="" fill="#030505" transform="translate(0,0)"/>
<path d="" fill="#080706" transform="translate(0,0)"/>
<path d="" fill="#050605" transform="translate(0,0)"/>
<path d="" fill="#030504" transform="translate(0,0)"/>
</svg>
