<?xml version="1.0" encoding="utf-8"?>
<!-- Generator: Adobe Illustrator 24.1.1, SVG Export Plug-In . SVG Version: 6.00 Build 0)  -->
<svg version="1.1" id="Vrstva_1" xmlns="http://www.w3.org/2000/svg" xmlns:xlink="http://www.w3.org/1999/xlink" x="0px" y="0px"
	 viewBox="0 0 498.9 286.6" style="enable-background:new 0 0 498.9 286.6;" xml:space="preserve">
<style type="text/css">
	.st0{stroke:#FFFFFF;stroke-width:0.4;stroke-dasharray:0.8,0.8;}
</style>
<path id="path8639" class="st0" d="M207.4,35.4c-3.4,0.3-7.3,2.1-11.6,5.2c-5.7,4.1-10,1.6-15.4,1.2c-5.3-0.4-4.3,7.4-4.3,12.8
	s-2.3,6-5.2,2.3c-2.9-3.7-5.2,4.8-12.2,8.1c-7,3.3-7.9,6.7-11.6,6.7s-10.3-5.4-19.7-10.7s-8.1,5.9-10.1,4.6c-2-1.2-5.8,4.5-7.8,2
	c-2-2.5-4.6-3-4.6,2.3c0,5.3-1.6,3.4-9,4.6c-7.4,1.2-2,3.8,2.9,3.8c4.9,0,2.5,3.5-1.2,4.3c-3.7,0.8-2.8,0.8-6.1,7
	c-3.3,6.1,2.7,7.4-0.6,9.9c-3.3,2.5-3.2,1.8-3.2,8.4c0,6.6,0.1,4.6-5.2,9.6c-5.3,4.9-14.2,4.7-23.2,5.5c-9,0.8-2.3,8.6-0.3,14.8
	c2,6.1,9,3.7,9,9s-9,4.5-7,9.9s2.2,1.6,6.7-2.9c4.5-4.5,2.8,2,6.1,7c3.3,4.9-1.6,7.1-4.1,4.6s-7.3,1.5-13,6.4
	c-5.7,4.9-9.5-2.8-10.7,3.8c-1.2,6.6-2.6,9.3-7.5,11.3s-4,2.3-3.2,8.4c0.8,6.1,7.7,2,13,4.1c5.3,2,5.5,1.6,12.5,4.9s10,6.9,15.4,11
	c5.3,4.1,7.8-4.6,12.8-1.7c4.9,2.9,4.2,7.5,4.6,12.5s2.9,3.9,7.8,1.4c4.9-2.5,5.3,2.1,9,5.8c3.7,3.7,6.2,0.2,9.9-3.5
	c3.7-3.7,9.1,8.8,12.8,8.4c3.7-0.4,3.6-9,8.1-9c4.5,0,4.6-0.1,1.7,6.1c-2.9,6.1-4.3,8-0.6,11.3s8.4-1.3,7.5,4.1
	c-0.8,5.3-0.3,0.7,2.6,4.3c2.9,3.7,4.2,2.2,8.7,5.5c4.5,3.3,5.4,0,8.7-2.9c3.3-2.9,2.5-4.6,5.8-4.6c3.3,0,0.8-2,4.1-6.1
	c3.3-4.1,9,1.3,11-2c2-3.3,2.1-4.5,2.9-11c0.8-6.6-0.3-9.2-3.2-14.5c-2.9-5.3-6.4-13-4.3-15.1c2-2,2.2-4.2,5.5-1.7
	c3.3,2.5,1.6-0.7,4.1,3.8c2.5,4.5-2.4,4.8-2,7.2c0.4,2.5,1.6,2.1,6.1-1.2c4.5-3.3,4.6,0.8,5.8,4.1c1.2,3.3,2,3.2,8.1,4.1
	c6.1,0.8,4.4-2.7,6.1-1.4c1.6,1.2,5.6,1.6,9.3,6.1s2.9,2.3,7,7.2c4.1,4.9,5.5,1.1,8.4,4.3c2.9,3.3,4.1,2,4.1-3.8s5.3-6.3,7-2.6
	c1.6,3.7,4.2-0.2,8.7,1.4c4.5,1.6-0.4,3.5,2,6.4c2.5,2.9,1.7,4.2,6.7,3.8s9-0.9,6.1-3.8c-2.9-2.9-0.4-1.2,2-1.2
	c2.5,0,2.6-3.6,6.7-5.2c4.1-1.6-0.2-3.8,3.5-4.6c3.7-0.8,6.2-0.9,1.7-6.7s1-5.7,7.5-7c6.6-1.2-1.8,8.7,1.4,8.7c3.3,0,3-6.2,7.5-5.8
	c4.5,0.4,4.9,11.9,7,16.8c2,4.9,3.9-2.8,9.3-6.1c5.3-3.3,7.1-0.5,4.6,3.2c-2.5,3.7-6.3,4.1-2.6,4.9c3.7,0.8,2.4-1.6,4.1,3.8
	c1.6,5.3,5.6,4.8,9.3,5.2c3.7,0.4,0.8,1.7,2,8.7c0.5,3,2.5,4.6,4.6,5.5c2.8-8.5,4.8-11.8,11.6-21.7c9-13.1,15.8,3.2,22.3,3.2
	s16.2-5.9,30.1-16.5c13.9-10.7,15.8-17,17.4-30.1c1.6-13.1,10.7-11.6,19.7-21.4c8.2-9,8.5-13.1,15.4-19.4c-1.1-2.8-2.2-5.1-3.2-6.4
	c-4.1-5.3-5-9.5-4.6-13.6c0.4-4.1-6-5.3-9.3-11.9c-3.3-6.6-8.3-5.4-13.6-2.9c-5.3,2.5,0.8,3.9-2.9,9.3c-3.7,5.3-1.6,5.1-1.2,10.4
	s2.6,2.6,2.6,6.7s-3,7.9-7.5,8.7c-4.5,0.8-15.7,0.3-23.5,0.3s-0.9-9-4.6-9.9c-3.7-0.8-3.4,0.1-3.8,5.8c-0.4,5.7-3.2,2.5-8.1,3.8
	c-4.9,1.2-9.2-0.4-12.5-4.1c-3.3-3.7-18.1-14.8-15.7-10.7c2.5,4.1-10.5-4.2-8.4,0.3c2,4.5-2.5,4.4-4.9,1.2c-2.5-3.3-4.3-6.1-10.4-2
	c-6.1,4.1-5.1-1.1-8.4,2.6c-3.3,3.7-1,5.2,3.5,8.1c4.5,2.9,6.7,7.4,4.6,11.9c-2,4.5-5.7,0.6-7-2.3c-1.2-2.9-2.4-7.8-7-7.8
	c-4.5,0-3.7,1.1-5.8,3.2c-2,2-5.5,2.6-9.6,2.6c-4.1,0-3.9-8.2-6.4-4.9c-2.5,3.3-5.8,0.8-10.7,0c-4.9-0.8-1.1-10.3,2.6-12.8
	c3.7-2.5-2.5-4.2,0-8.7c2.5-4.5,6.1-4,9-8.1c2.9-4.1-6.2-8.1-8.7-11c-2.5-2.9,2.2-3.3,6.7,0c4.5,3.3,10.5,0.6,11.3-3.5
	c0.8-4.1-0.6-6.5-6.4-11c-5.7-4.5-3.8-2.4-9.6-3.2c-5.7-0.8-3.6-5.7-6.1-11c-2.5-5.3-3.7-12.1-7.8-16.2c-4.1-4.1,1.7-3.8,3.8-9.6
	c2-5.7-3.1-12.4-8.4-9.6c-5.3,2.9,2.6,6.2-1.4,7.8c-4.1,1.6-5.1-3.8-10.4-2.6c-5.3,1.2-0.7,3.8-3.2,6.7c-2.5,2.9-5,0.7-1.7,5.2
	c3.3,4.5,2.6,0.9,0.6,5.8c-2,4.9-8.1,4-13,1.2s5.1-8.9,1.4-9.3c-3.7-0.4-8.8,1.7-11.3,0.9c-2.5-0.8-2.4-5.5-7-5.5
	c-4.5,0-3.9-2.2,4.3-3.5c8.2-1.2-4.4-2.5-6.1-3.8c-1.6-1.2,1.6-7-3.8-7s-5.8-5.3-9.9-6.1C209.5,35.5,208.5,35.3,207.4,35.4
	L207.4,35.4z"/>
</svg>
