<?xml version="1.0" standalone="no"?>
<!DOCTYPE svg PUBLIC "-//W3C//DTD SVG 20010904//EN"
 "http://www.w3.org/TR/2001/REC-SVG-20010904/DTD/svg10.dtd">
<svg version="1.0" xmlns="http://www.w3.org/2000/svg"
 width="1284.000000pt" height="720.000000pt" viewBox="0 0 1284.000000 720.000000"
 preserveAspectRatio="xMidYMid meet">

<g transform="translate(0.000000,720.000000) scale(0.100000,-0.100000)"
fill="#000000" stroke="none">
<path d="M4725 5850 c-38 -4 -114 -8 -168 -9 -103 -1 -135 -11 -174 -53 -34
-36 -51 -86 -58 -176 -8 -92 -17 -102 -90 -102 -18 0 -89 -14 -157 -30 -69
-17 -184 -37 -257 -44 -104 -11 -138 -18 -152 -33 -12 -12 -55 -168 -133 -488
-64 -258 -116 -478 -116 -488 0 -33 48 -39 350 -46 256 -5 299 -8 322 -23 43
-29 49 -116 10 -151 -31 -28 -66 -35 -208 -42 -209 -9 -1311 -53 -1794 -70
-234 -9 -445 -21 -468 -27 -24 -6 -63 -27 -85 -46 -23 -19 -64 -50 -92 -67
-51 -33 -133 -115 -154 -152 -6 -12 -18 -53 -26 -92 -33 -156 -104 -240 -225
-266 -47 -10 -100 -38 -125 -65 -11 -12 -42 -33 -70 -47 -52 -26 -252 -221
-279 -271 -8 -15 -43 -49 -78 -76 -74 -57 -125 -120 -134 -164 -6 -28 -1 -37
34 -72 38 -38 43 -40 101 -40 73 0 88 7 160 72 30 28 64 54 76 58 12 4 68 11
126 14 57 4 132 9 167 12 73 7 80 -5 20 -32 -59 -26 -135 -105 -187 -194 -24
-41 -62 -94 -83 -118 -66 -72 -82 -135 -54 -212 10 -29 10 -42 -2 -75 -18 -53
-9 -124 23 -178 15 -26 25 -59 25 -83 1 -60 31 -114 94 -168 44 -37 67 -67 93
-122 42 -87 56 -101 125 -124 43 -14 61 -27 93 -70 42 -54 93 -89 131 -90 12
0 44 -16 70 -35 71 -51 114 -72 161 -80 33 -5 49 -16 79 -52 44 -53 78 -70
159 -77 54 -4 61 -8 107 -56 58 -61 99 -80 172 -80 48 0 59 -4 98 -36 58 -50
96 -64 167 -64 49 0 68 -5 109 -31 64 -39 118 -47 177 -25 41 16 49 16 92 3
82 -26 110 -27 186 -7 74 19 75 19 130 0 68 -24 76 -24 152 -5 55 15 65 15
122 -1 67 -18 112 -15 197 13 45 14 51 14 76 0 45 -27 99 -30 175 -9 63 17 74
17 105 4 46 -20 144 -19 199 2 41 15 47 15 110 -5 71 -22 122 -20 187 7 32 13
41 13 105 -6 75 -23 120 -21 191 7 33 13 39 13 70 -3 44 -23 148 -24 214 -1
49 17 52 17 95 -3 56 -25 91 -25 173 0 60 19 68 19 101 6 66 -28 124 -30 190
-7 l61 21 59 -21 c65 -23 118 -21 195 6 36 13 46 12 103 -6 66 -21 114 -20
187 6 34 12 44 12 89 -6 65 -24 97 -24 181 2 66 20 69 20 102 2 46 -24 157
-24 221 1 45 18 50 18 83 3 60 -29 107 -31 182 -8 l69 21 59 -21 c54 -19 65
-20 129 -9 39 7 75 17 82 22 8 7 33 3 75 -12 69 -24 123 -22 211 6 45 15 52
15 95 -2 60 -23 152 -23 214 0 46 18 48 18 110 -4 71 -25 145 -23 212 5 37 16
43 15 117 -6 77 -22 78 -22 146 -4 84 23 115 23 173 1 49 -19 91 -17 171 10
44 14 51 14 109 -6 64 -21 120 -19 193 9 22 9 35 8 57 -4 16 -9 55 -15 90 -15
61 0 97 13 152 53 20 15 36 18 67 14 59 -8 118 9 174 49 38 27 65 38 114 45
77 11 93 19 152 74 31 28 59 45 86 49 67 12 123 42 183 99 34 32 77 61 107 72
60 22 96 45 152 98 25 24 63 47 99 59 71 24 129 63 171 116 18 23 60 55 94 73
38 21 84 58 123 101 34 37 83 81 108 97 53 33 91 92 109 166 6 28 27 83 46
124 51 110 59 157 44 248 -10 61 -10 88 0 139 22 109 -9 194 -120 324 -28 33
-39 51 -27 47 36 -14 252 -21 260 -8 4 6 -8 30 -27 54 -19 23 -51 69 -72 102
-85 137 -213 234 -395 299 -111 40 -151 46 -430 56 -441 16 -480 20 -480 40 0
27 -54 67 -97 74 -21 3 -141 13 -267 21 -217 15 -261 23 -278 49 -16 23 -5 26
95 26 130 0 269 15 304 32 16 7 29 23 31 35 6 41 -26 47 -273 51 l-230 4 -28
26 c-54 51 -70 96 -62 177 8 87 -8 136 -53 159 -20 10 -80 19 -173 25 -135 9
-143 11 -166 36 -14 14 -36 30 -50 36 -14 5 -275 9 -624 9 -395 0 -607 4 -620
10 -14 8 -19 21 -19 50 0 57 33 80 115 80 34 0 86 7 116 16 46 14 66 28 130
95 69 72 80 80 129 89 29 5 112 10 185 10 160 0 227 11 279 48 l39 27 466 7
c600 8 1531 26 2021 39 212 5 603 12 870 15 l485 5 21 23 c27 31 37 109 25
202 -16 124 13 114 -320 114 -216 0 -300 -3 -337 -14 -68 -19 -376 -25 -1764
-31 -641 -3 -1235 -8 -1321 -11 -153 -5 -157 -4 -204 21 -47 25 -51 25 -272
25 -175 0 -230 3 -252 14 -15 8 -46 43 -68 78 -71 108 -76 111 -378 158 -104
16 -318 50 -475 75 -516 82 -592 94 -890 136 -162 22 -304 47 -316 54 -17 11
-22 28 -28 91 -11 120 -36 168 -111 207 -39 21 -54 22 -410 23 -203 1 -401 -2
-440 -6z m-2462 -4011 c48 -7 87 -17 87 -21 0 -5 -9 -26 -20 -48 -29 -57 -50
-154 -50 -235 0 -125 41 -237 127 -347 24 -32 41 -58 36 -58 -44 1 -141 35
-170 60 -53 47 -93 63 -163 66 -65 3 -65 3 -115 57 -57 63 -72 72 -135 82 -30
5 -56 18 -80 40 -34 31 -104 65 -136 65 -8 0 -26 8 -40 17 -26 16 -26 17 62
34 50 10 120 34 159 53 79 39 188 128 254 206 37 43 48 51 70 47 14 -3 65 -11
114 -18z m2508 -10 c63 -7 116 -13 117 -15 2 -1 -10 -31 -26 -66 -37 -78 -52
-148 -52 -241 1 -156 48 -280 147 -388 l58 -62 -90 7 c-103 9 -105 9 -282 2
l-132 -5 68 65 c167 157 217 394 126 599 -12 28 -34 64 -48 81 -30 35 -34 49
-14 41 7 -3 65 -11 128 -18z m3766 0 l102 -11 -25 -50 c-55 -108 -68 -269 -34
-402 26 -104 63 -169 137 -244 l63 -64 -68 6 c-66 6 -83 7 -202 7 -33 0 -79 0
-102 1 -24 0 -63 -3 -88 -7 l-45 -8 57 60 c76 81 114 143 143 236 51 161 24
342 -72 475 -16 23 -16 23 8 18 13 -3 70 -10 126 -17z m-4980 -10 l61 -11 -24
-52 c-31 -67 -44 -139 -44 -235 1 -165 47 -288 150 -393 l66 -68 -57 0 c-32 0
-69 4 -83 10 -17 6 -44 6 -80 -2 -37 -7 -68 -7 -93 -1 -25 6 -62 6 -106 0 -37
-6 -70 -8 -73 -5 -3 3 17 27 45 53 116 108 171 235 172 393 0 54 -5 121 -12
148 -15 60 -53 149 -68 158 -6 4 -11 12 -11 18 0 10 28 8 157 -13z m2453 -6
c63 -9 116 -18 118 -19 2 -1 -3 -13 -12 -26 -56 -85 -80 -271 -52 -392 23 -99
77 -195 147 -261 l59 -56 -128 6 c-164 7 -189 8 -296 1 l-90 -6 56 58 c116
118 158 221 158 387 0 118 -21 201 -69 278 -18 27 -25 47 -18 47 6 0 64 -8
127 -17z m1239 2 c63 -9 116 -17 117 -18 2 -2 -7 -25 -20 -52 -94 -198 -46
-462 112 -622 l63 -65 -108 6 c-143 8 -168 9 -300 2 l-112 -6 64 66 c74 74
135 189 155 289 24 119 -5 286 -65 377 -14 21 -24 38 -23 38 2 0 54 -7 117
-15z m2824 -165 c83 -33 179 -60 215 -60 14 0 22 -5 20 -12 -8 -24 -88 -77
-126 -84 -92 -15 -115 -26 -178 -85 -39 -36 -72 -59 -86 -59 -55 0 -104 -23
-148 -69 -38 -40 -125 -90 -136 -78 -2 1 12 25 31 51 50 71 76 155 82 268 l6
98 36 8 c20 5 72 18 116 29 44 12 83 21 87 22 3 1 40 -12 81 -29z"/>
</g>
</svg>
