<?xml version="1.0" standalone="no"?>
<!DOCTYPE svg PUBLIC "-//W3C//DTD SVG 20010904//EN"
 "http://www.w3.org/TR/2001/REC-SVG-20010904/DTD/svg10.dtd">
<svg version="1.0" xmlns="http://www.w3.org/2000/svg"
 width="732.000000pt" height="978.000000pt" viewBox="0 0 732.000000 978.000000"
 preserveAspectRatio="xMidYMid meet">

<g transform="translate(0.000000,978.000000) scale(0.100000,-0.100000)"
fill="#000000" stroke="none">
<path d="M3652 9460 c-5 -14 -85 -258 -178 -543 l-168 -517 -580 -2 -581 -3
357 -265 c197 -146 407 -300 467 -344 l109 -78 -44 -132 c-263 -801 -316 -966
-307 -966 6 0 315 227 675 497 l257 192 143 -107 c221 -165 740 -547 771 -567
l28 -18 -7 29 c-4 16 -85 263 -181 549 l-173 520 22 15 c12 8 191 141 398 295
206 154 406 303 443 330 l69 50 -575 3 -574 2 -180 543 c-156 470 -182 539
-191 517z"/>
<path d="M3805 6393 c6 -6 93 -73 195 -149 485 -364 847 -700 1105 -1024 227
-284 437 -661 534 -954 201 -611 147 -1233 -146 -1691 -50 -78 -135 -194 -143
-195 -3 0 -574 569 -1270 1265 l-1264 1264 89 93 c49 51 206 211 348 355 l260
262 -39 7 c-22 4 -280 55 -574 115 l-535 108 -645 -645 -645 -644 335 -335
c184 -184 339 -335 345 -335 5 0 137 127 292 282 l283 283 168 -170 c93 -94
490 -494 883 -890 393 -396 871 -878 1062 -1072 l348 -351 -79 -31 c-192 -74
-347 -101 -577 -101 -536 0 -1033 221 -1559 694 -189 170 -210 171 -330 28
-70 -84 -112 -112 -170 -112 -58 0 -111 -27 -155 -80 -32 -38 -50 -51 -79 -55
-54 -9 -112 -36 -128 -60 -7 -11 -22 -50 -34 -87 -44 -142 -163 -268 -496
-528 -526 -411 -625 -525 -612 -710 9 -122 74 -221 181 -278 45 -23 64 -27
137 -27 78 0 90 3 150 35 73 39 217 175 322 305 36 44 137 177 225 296 247
333 327 414 502 512 41 23 83 53 93 67 11 16 24 62 33 117 14 97 36 143 66
143 20 0 138 -96 289 -235 549 -504 1142 -747 1761 -721 314 13 564 79 836
221 l122 64 422 -429 c384 -391 425 -430 471 -446 105 -35 226 12 348 134 91
92 139 179 147 268 8 99 -7 118 -429 543 -208 209 -378 384 -378 389 0 5 27
43 59 84 142 178 276 413 360 637 43 113 95 320 117 466 21 146 25 494 6 635
-57 425 -191 772 -447 1155 -219 328 -483 608 -824 872 -386 300 -843 538
-1204 628 -56 14 -111 28 -122 32 -13 3 -16 2 -10 -4z"/>
</g>
</svg>
