<?xml version="1.0" encoding="utf-8"?>
<!-- Generator: Adobe Illustrator 24.1.1, SVG Export Plug-In . SVG Version: 6.00 Build 0)  -->
<svg version="1.1" id="Vrstva_1" xmlns="http://www.w3.org/2000/svg" xmlns:xlink="http://www.w3.org/1999/xlink" x="0px" y="0px"
	 viewBox="0 0 419.5 277.8" style="enable-background:new 0 0 419.5 277.8;" xml:space="preserve">
<g>
	<path d="M92.8,175.2c-1.2-0.2-0.8-1.5-1.2-2.3c-0.2-0.4-0.3-0.9-0.4-1.3c-0.2-1-0.4-1.9-0.7-3.2c-0.5-0.4-1-1.1-0.4-2.2
		c0.2-0.3-0.3-0.9-0.5-1.5c0.1,0,0.3-0.2,0.8-0.6c-0.6-0.1-1-0.1-1.4-0.1c0.9-1.8,0.1-3.4-0.3-5.1c-0.1-0.6-0.5-1.2,0.2-1.4
		c-0.1-1-0.2-1.9-0.3-2.7c-0.1-0.7,0-1.4-0.2-2.1c-0.1-0.3-0.5-0.6-0.8-1c0.6-0.7,0.4-1.5-0.1-2.4c-0.2-0.4,0.1-1.1,0.1-1.6
		c0-0.1,0.1-0.1,0.1-0.2c-0.2-0.9-0.5-1.7-0.8-2.7c0,0,0.3-0.1,0.3-0.2c-0.2-1.6-0.4-3.1-0.6-4.7c0.3,0,0.6,0,1,0
		c-0.4-1.2-0.7-2.3-1-3.4c-0.1-0.3,0.1-0.7,0.1-1.1c0.1-0.8,0.1-1.6,0.3-2.4c0.1-0.4,0.5-0.8,0.7-1.1c-0.2-1.4-0.4-2.9-0.6-4.3
		c0.2,0,0.5-0.1,0.8-0.2c-0.6-1-0.6-2,0.1-2.9c0.1-0.2,0.3-0.4,0.3-0.7c-0.1-0.9-0.2-1.7-0.3-2.6c0.7-0.2,1-0.5,0.1-1.1
		c0.5-0.4,1-0.6,0.4-1.4c-0.3-0.4,0-1.4,0.1-2.1c0.2-1.2,0.2-2.5,1.1-3.6c0.1-0.2,0.2-0.5,0.1-0.8c-0.1-0.6,0.2-1.1,0.4-1.6
		c0.4-1.1,1.5-2,1-3.5c-0.2-0.6,0.4-1.4,0.5-2.2c0.1-0.7,0-1.4,0.1-2.1c0.3-1.2,0.8-2.3,1.2-3.5c0.2-0.6,0.2-1.2,0.3-1.9
		c0-0.2,0.1-0.3,0.2-0.4c0.6-0.5,0.8-1.2,0.9-2c0-0.5,0.2-1.1,0.4-1.6c0.4-1,1-2,1.4-3c0.4-0.9,0.3-2,1.4-2.5
		c0.1-0.1,0.2-0.4,0.2-0.7c-0.1-1.4,1-2.2,1.6-3.4c-0.1-0.8,1.7-4.1,2.5-4.4c0-0.8,0-1.5,0-2.3c0.1,0.1,0.1,0.1,0.2,0.2
		c0.7-1,1.2-2,2-3c0.8-1,1.2-2.4,2.7-2.8c-0.2,0-0.4-0.1-0.7-0.1c0.6-1,1.8-0.4,2.7-1.1c-0.6-0.1-1-0.1-1.6-0.1c0.5-0.8,1-1.4,1.5-2
		c0.5-0.6,1.1-1.2,1.4-1.9c0.3-0.7,0.6-1.3,1.5-1.5c0.2,0,0.2-0.5,0.3-0.8c0.2-0.4,0.1-1,0.8-1.2c0.3-0.1,0.4-0.9,0.7-1.2
		c0.4-0.4,0.9-0.6,1.4-1c0.1,0.1,0.2,0.2,0.2,0.3c0.1-0.5,0.3-1.1,0.4-1.7c0.2,0.3,0.3,0.5,0.5,0.8c0.7-0.5,0.7-0.5,0-1.2
		c0.1-0.9,0.7-1.3,1.5-1.7c0.5-0.2,0.8-0.9,1-1.4c0.4-0.7,0.7-1.3,1.7-1.2c0.2,0,0.5-0.5,0.8-0.9c0.1,0.1,0.2,0.3,0.4,0.7
		c0.3-0.7,0.5-1.2,0.8-1.9c-0.2,0-0.3,0.1-0.5,0.1c-0.1-0.1-0.1-0.1-0.2-0.2c2.6-2.1,5.3-4.3,8.1-6.6c-0.3,0.5-0.5,0.8-0.7,1
		c0,0,0.1,0.1,0.1,0.1c0.4-0.2,0.9-0.4,1.4-0.7c-0.2-0.2-0.3-0.4-0.7-0.8c0.5-0.2,0.8-0.3,1.2-0.5c0.7-0.4,1.5-0.8,1.9-1.4
		c0.6-1.2,1.8-1.3,2.7-2c0.5-0.4,1-0.8,1.6-1.1c1.3-0.8,2.5-1.7,3.8-2.4c0.8-0.5,1.7-0.8,2.5-1.3c0.7-0.4,1.2-0.9,1.9-1.5
		c0.7-0.3,1.4-0.6,2.3-1c0.2,0.1,0.5,0.2,0.8,0.4c0.1-0.5-0.6-1.7,0.8-1.1c0.1-0.7,0.9-0.5,1.3-1c0.5-0.6,1.8-0.9,2.6-0.7
		c1,0.2,1.3-0.4,1.9-0.8c0.6-0.4,1.1-1.2,2-0.8c0.1,0,0.4-0.2,0.5-0.3c0.9-1.2,2.2-1.2,3.6-1.5c0-0.1,0.2-0.3,0.3-0.7
		c0.5,0.9,0.6,0,1-0.1c0.8-0.4,1.7-0.6,2.5-0.9c0.2-0.1,0.4-0.1,0.5-0.1c1.2-0.4,2.3-0.8,3.4-1.2c0.1,0.2,0.1,0.4,0.2,0.6
		c0.1-0.1,0.4-0.2,0.4-0.3c0-1.3,1-0.7,1.5-0.7c0.4,0,0.9,0.5,1.4,0.8c0.2,0.1,0.4,0.1,0.7,0.2c-0.2-0.6-0.3-1-0.4-1.4
		c0-0.1,0-0.3,0-0.4c0.1-0.2,1.7-0.5,1.9-0.4c0.2,0.1,0.5,0.1,0.7,0c0.3-0.1,0.5-0.4,0.9-0.7c0.1,0.4,0.1,0.6,0.1,1
		c0.3-0.3,0.6-0.5,0.9-0.8c0.1-0.1,0.2-0.5,0.4-0.5c1.3-0.3,2.6-0.7,4-0.9c0.3-0.1,0.7,0.1,1,0.1c0.5,0.1,1,0.2,1.4-0.4
		c0.3-0.4,1-0.4,1.6-0.6c0.3-0.1,0.7,0,1,0c0.1,0.1,0.1,0.4,0.1,0.4c0.6-0.2,1.2-0.5,1.8-0.5c0.6,0,1.3,0.3,1.9,0.4
		c-0.2-0.3-0.4-0.7-0.7-1.1c0.6,0,1.1,0,1.6,0c0.6-0.1,1.2-0.2,1.8-0.3c0.2,0,0.4-0.2,0.6-0.2c1.2-0.1,2.4-0.1,3.6-0.2
		c0.4,0,0.7,0.1,1.1,0.1c0.3,0,0.6-0.1,0.9-0.3c1.4-0.1,2.7-0.3,4.2-0.4c0,0.1,0,0.3,0,0.4c1-0.2,2.1-0.4,3.1-0.6
		c0.1,0.5,0.1,0.7,0.1,1c0.2-0.2,0.4-0.4,0.7-0.5c0.4-0.1,0.8,0.1,1.3,0.1c0.2-0.3,0.4-0.9,1.1-0.3c0.1,0.1,1.7-0.4,1.9-0.5
		c0.1,0,0.1,0,0.2,0c1.3,0.1,2.5,0.3,3.8,0.4c1.4,0,2.7-0.2,4.1-0.1c1.2,0,2.4-0.1,3,0.9c0.7-0.2,1.3-0.5,1.9-0.4
		c1.8,0.2,3.5,0.6,5.3,0.4c0.7-0.1,1.4,0.4,2.1,0.6c0.6,0.2,1.3,0.5,2,0.2c0.9-0.5,1.9,0,2.4,1.3c0.2-1.2,0.8-1.1,1.6-0.8
		c-0.1,0.2-0.1,0.3-0.2,0.7c1.3-0.8,2.3-0.3,3.3,0.2c0.1,0,0.2,0.2,0.3,0.2c1.1-0.4,2.1,0.1,3.1,0.4c1.4,0.4,3,0,4.2,1.2
		c0.2,0.2,0.7,0.3,0.9,0.1c1-0.6,1.9,0,2.8,0.3c0.4,0.1,0.7,0.5,0.9,0.8c0.4,0.4,1.2-0.9,1.5,0.4c0.7-0.6,1.2-0.3,1.8,0.1
		c0.6,0.4,1.5,0.5,2.3,0.7c0.4,0.1,0.8,0.3,1.2,0.6c0.4,0.1,0.7,0.3,1.1,0.4c0.4,0.2,0.8,0.3,1.2,0.4c0.5,0.2,1.1,0.1,1.4,0.4
		c1.4,1.2,3.3,1.4,4.9,1.9c1.6,0.5,2.9,1.5,4.5,1.7c0,1.2,0.1,1.2,1.3,1.1c0.4,0,1,0,1.3,0.3c1.3,1.2,3.1,1.3,4.5,2.1
		c1.1,0.6,2.1,1.4,3.2,2.2c0,0.1-0.1,0.2-0.2,0.4c0.5,0.3,1.7-0.6,1.1,1.3c0.5-0.5,0.7-0.6,0.9-0.8c1,0.5,2,0.9,2.9,1.4
		c1.9,1.2,3.7,2.4,5.5,3.6c0.2,0.1,0.3,0.6,0.4,0.8c0.4,0.1,0.9,0.1,1.2,0.3c0.9,0.7,1.7,1.5,2.6,2.2c0.7,0.6,1.5,1.1,2.3,1.6
		c0.3,0.2,0.7,0.5,0.9,0.8c0.1,0.2,0,0.6-0.1,1.1c0.2,0,0.6,0,1,0c0.4-0.1-0.2,1.4,0.9,0.3c0.1,0.4,0.1,0.7,0.1,1
		c0.1-0.1,0.1-0.1,0.2-0.2c1,0.6,2.2,1.1,2.8,2.5c1-0.2,0.8,0.8,1.1,1.4c0.3-0.1,0.6-0.1,0.9-0.2c-0.1,0.1-0.1,0.2-0.2,0.2
		c0.4,0.4,0.8,0.8,1.2,1.2c0.5,0.4,1,0.8,1.4,1.3c1.3,1.3,2.8,2.5,3.9,4c0.9,1.2,2.4,1.9,2.8,3.5c0.1,0.2,0.6,0.4,0.9,0.6
		c0.3,0.6,0.6,1.4,1.1,2.2c0.5,0.7,0.7,1.9,1.8,1.3c0.1,0.8,0.2,1.5,0.3,2.3c0.9-0.4,1.4-0.1,1.7,0.7c0.3,0.8,0.4,1.7,0.6,2.6
		c0.2,0.9,0.7,1,1.4,0.6c-0.1,0.7-0.2,1.4-0.3,2.3c0.6-0.4,1.1-0.6,1.6-0.9c-0.1,0.3-0.1,0.5-0.2,0.7c-0.7,1.1,0.1,2,0.4,3
		c0,0.1,0.4,0.2,0.6,0.2c0.2,0,0.5,0,0.8-0.1c-0.2,1-0.1,1.8,0.8,2.4c0.1,0,0.1,0.2,0.1,0.3c-0.6,1.6,1,1.3,1.6,2
		c-0.1,0.3-0.3,0.7-0.4,1.1c0.4,0.1,0.6,0.1,0.9,0.2c0,0.6,0,1.3,0,2c0.2,0,0.5,0,0.7,0.1c0.2,0.6,0.3,1.2,0.6,1.7
		c0.2,0.3,0.5,0.9,0.7,0.9c1-0.1,0.6,0.5,0.6,1c0,0.3,0,0.8,0.2,1c0.5,0.6,1.2,1.1,1.8,1.7c-0.4,1-0.1,2.3,0.7,3.1
		c-0.2,0.1-0.4,0.2-0.6,0.3c0.2,0.6,0.3,1.2,1.2,0.9c0.2-0.1,0.5,0.2,0.8,0.3c0,0.1-0.1,0.2-0.1,0.3c-0.4-0.1-0.8-0.2-1.1-0.2
		c-0.1,0.5-0.3,1-0.2,1.5c0.3,1.1,0.7,2.3,1.2,3.3c0.2,0.3,0.8,0.5,1.3,0.8c-0.3,0.1-0.6,0.3-0.8,0.4c0.1,0.4,0.2,0.9,0.4,1.3
		c0.2,0.3,0.5,0.4,0.8,0.7c0.2,1.1,0.4,2.4,0.6,3.6c0.2,0.1,0.3,0.1,0.5,0.2c0.1-0.2,0.1-0.5,0.2-0.7c0,0,0.1,0.1,0.1,0.1
		c0.1,0.4,0.1,0.7,0.2,1.1c-0.4,0.4-0.8,0.8-1.2,1.1c0.4,0.3,1,0.6,1,0.9c-0.1,0.4-0.5,0.8-0.8,1.2c0.8,0.5,1.1,1.1,0.7,2
		c-0.1,0.1,0,0.4,0.1,0.5c0.4,0.8,0.9,1.5,1.3,2.3c-0.9,0.5-0.9,1-0.4,1.9c0.2,0.2,0,0.6,0.1,1c0,0.3,0.1,0.7,0.3,1
		c-0.1,0.4-0.7,0.8,0.2,1.1c0.2,0.1,0.3,0.6,0.2,0.9c-0.1,0.7-0.5,1.3,0.1,1.9c0.1,0.1-0.2,0.6-0.4,1c1.4,0.7,0.9,1.9,0.6,3.2
		c0.4,0.1,0.7,0.1,1,0.1c-0.9,2.7-0.9,2.7-0.1,2.9c-0.3,0.5-0.6,1.1-1,1.7c0.3,0.4,0.7,0.8,0.8,1c0,2.3,0,4.4,0,6.6
		c0,0.1,0.2,0.4,0.2,0.7c0,0.9-0.1,1.7-0.2,2.6c-0.1,1.1,0.5,2.3-0.4,3.5c-0.4,0.6-0.2,1.7-0.3,2.5c-0.2,1.3-0.5,2.6-0.7,3.9
		c-0.1,0.9-0.3,1.9-0.3,2.9c0,2.5-0.6,4.9-1.4,7.3c-0.1,0.4,0.1,0.8,0,1.2c-0.5,2.2-1,4.5-1.6,6.6c-0.7,2.3-1.7,4.6-2.5,6.9
		c-0.6,1.7-1,3.4-1.5,5.1c-0.2,0.7-0.6,1.3-0.9,1.9c-0.1,0.2-0.3,0.4-0.4,0.6c-0.5,1.2-0.8,2.4-1.3,3.6c-0.8,1.9-1.6,3.7-2.5,5.5
		c-0.1,0.3-0.6,0.5-0.8,0.8c-0.6,1-1.2,2-1.8,3.1c-1.9,3.4-3.4,7.1-6.2,10.1c-0.9,0.9-1.3,2.2-2,3.3c-0.6,0.9-1.1,1.9-1.8,2.7
		c-1.3,1.6-2.8,3-3.8,4.8c-1,1.9-2.9,3.1-3.9,4.9c-0.8,1.3-2.1,2.4-3.3,3.4c-1.8,1.6-3.4,3.2-5.2,4.8c-2,1.8-4,3.5-6.2,5.1
		c-1.8,1.4-3.7,2.8-5.6,4.1c-1,0.7-2,1.3-3,1.9c-0.3,0.2-0.7,0.4-0.7,0.7c-0.3,1-1.1,1.1-1.9,1.3c-0.5,0.1-0.9,0.6-1.3,0.9
		c-0.3,0.2-0.5,0.6-0.9,0.7c-1.2,0.3-2.2,1-3.1,1.9c-0.3,0.3-0.8,0.2-1.1,0.5c-0.9,0.6-1.6,1.3-2.8,1.5c-1.7,0.2-2.8,1.6-4.2,2.4
		c-1,0.6-2.1,1.2-3.2,1.6c-1.3,0.5-2.7,0.6-3.9,1.3c-1.1,0.7-2.4,1-3.5,1.7c-0.6,0.3-1,0.6-1.8,0.4c-0.5-0.1-1.2,0.3-1.7,0.4
		c-1,0.3-2.3,0.3-3.1,0.9c-1.1,0.7-2,0.2-3,0.2c-1,1.7-1.1,1.8-1.8,1.3c-1.2,0.3-2.2,0.9-3.2,0.8c-1.8-0.3-3.3,0.3-4.9,0.9
		c-0.6,0.2-1.5,0.5-2,0.2c-0.7-0.4-1.2,0-1.7,0.1c-0.9,0.2-1.7,0.4-2.2,0.6c-1-0.5-1.9-0.9-2.7-1.2c0.2-0.3,0.4-0.5,0.6-0.8
		c-1.3,0.4-2.8-0.4-4.3,0.5c0.5,0.4,0.8,0.6,1.2,0.9c-0.1,0.3-0.2,0.6-0.3,1c-0.3-0.3-0.6-0.6-0.8-0.9c-0.9-1.2-0.9-1.2-2.4-0.6
		c-0.2,0.1-0.3,0.1-0.5,0.1c0,0.2,0.1,0.5,0.1,0.6c-0.1,0.4,0.8,1,0,1.3c-0.7,0.3-1.5,0.1-1.8-0.6c-0.4-0.9-0.6-1.5-1.6-0.5
		c-0.4,0.4-1.3,0.3-2,0.2c-0.2,0-0.3-0.6-0.6-1.1c-0.1,0.1-0.3,0.2-0.6,0.4c0-0.1,0-0.1,0-0.2c-0.9-0.1-1.8-0.3-2.7-0.4
		c0-0.1,0-0.4-0.1-0.6c-1,0-2-0.2-2.9,0c-1,0.2-1.8,0.1-2.6-0.5c-0.7,1.1-1.5,0.1-2.3,0.1c-0.3,0-0.7-0.3-0.9-0.2
		c-1,0.6-1.9,0.9-3.1,0.6c-0.5-0.1-0.9-0.2-1.4-0.4c-0.8-0.4-1.7-0.4-2.6-0.3c-0.3,0-0.6,0.1-0.9,0.1c-0.7,0-1.5-0.1-2.2-0.2
		c-0.4-0.1-0.7-0.4-1.2-0.7c0.4-0.3,0.6-0.5,0.9-0.7c0-0.1,0-0.1-0.1-0.2c-0.4,0.1-0.8,0.1-1.1,0.2c-0.2,0.4-0.3,0.7-0.4,1
		c-0.3-0.2-0.6-0.4-0.8-0.6c-0.6-0.7-1.2-1.1-2.1-0.5c-0.2,0.1-0.6-0.1-0.9-0.1c-0.4-0.1-0.8-0.2-1.3-0.3c-0.1,1.2,0,2,1.1,2.5
		c0.4,0.2,0.6,0.8,0.9,1.3c0.8,0.4,1.6-1.7,2.6-0.1c-0.8,0.2-1.4,1.1-2.5,0.5c-0.7-0.4-1.5-0.7-2-0.9c-0.3-0.5-0.5-0.9-0.7-1.3
		c-0.1,0-0.2,0.1-0.3,0.1c-0.1,0.5-0.3,0.9-0.4,1.3c-1.4,0.4-2.2-0.6-3.1-1.3c-0.2-0.1-0.4-0.3-0.6-0.3c-0.9,0-1.7,0-2.6,0.1
		c-0.8,0.1-1.3-0.4-1.5-1c-0.3-1.2-1.4-1.3-2.3-1.9c-0.1-1.2-0.4-1.4-1.5-1c0.2,1.1,0.3,2.1,1.9,1.8c-0.4,0.7-1.7,1.1-2.8,0.7
		c-0.8-0.3-1.5-0.8-2.3-1.2c-0.2-0.1-0.5-0.1-0.8-0.2c-0.3,0-0.7,0-0.8-0.1c-0.7-1.2-2-1-3-1.4c-0.2-0.1-0.6-0.2-0.6-0.4
		c-0.3-0.7-0.2-0.7-0.8-0.4c-0.3-0.6-0.6-1.2-1-2.1c1.1,0.1,2.2,0.1,3.3,0.7c-0.1,0.3-0.2,0.6-0.3,0.8c0.9,0.6,1.7,0.2,2.2-0.5
		c-0.1-0.6-0.1-1.1-0.2-1.8c-0.4,0.2-0.9,0.5-1.4,0.7c0-0.1,0.1-0.2,0.1-0.3c-0.6-0.4-1.2-0.9-1.9-1.2c-0.7-0.3-1.5-0.3-2.6-0.6
		c0,0.4-0.1,1-0.1,1.8c0,0-0.2,0.1-0.5,0.2c-1.5,0.8-2.5,0.7-3.8-0.7c-0.2-0.2-0.4-0.4-0.6-0.4c-1-0.3-2-0.6-3-1
		c-0.6-0.2-1.2-0.6-1.8-0.9c-0.3-0.1-0.6-0.2-0.9-0.4c-0.2-0.1-0.5-0.2-0.7-0.3c-0.6-0.6-1.2-1.2-1.7-1.8c-0.1-0.1-0.1-0.5,0-0.7
		c0.2-0.3,0.4-0.6,0.7-0.9c-0.5-0.2-1.1-0.3-1.6-0.5c-0.8,1-2.5,0.4-3.5-0.7c-0.4-0.4-0.5-1-0.9-1.4c-0.4-0.5-1-1-1.5-1.5
		c-0.2-0.2-0.4-0.6-0.7-1c0,0-0.2-0.1-0.3,0c-1.2,1.1-2,0-2.9-0.5c-0.4-0.2-0.9-0.8-1.3-0.8c-1.2,0.1-1.1-1.1-1.6-1.6
		c-0.4-0.4-0.3-1.4-0.5-2.2c-0.4,0-0.7-0.1-0.9-0.1c-0.2-0.4-0.4-0.9-0.6-1.2c-0.7,0.2-1.2,0.4-1.7,0.5c-0.1,0-0.3-0.1-0.4-0.2
		c-0.1-0.1,0-0.4,0-0.5c0.1-0.2,0.3-0.3,0.5-0.4c-0.5-0.3-1.1-0.5-1.5-0.8c-0.2-0.1-0.3-0.4-0.4-0.6c-0.5-0.7-1-1.4-2.1-1.3
		c0.2-0.1,0.3-0.2,0.6-0.4c-0.7-0.3-1.7-0.2-1-1.4c-0.6,0-1-0.1-1.6-0.1c0.1-0.3,0.2-0.5,0.2-0.5c-0.6-0.4-1.3-0.9-1.9-1.3
		c0-0.1-0.1,0.1-0.2,0.4c-0.3-0.4-0.5-0.8-0.7-1c-0.7-0.1-1.4-0.2-2.2-0.4c0.4-0.3,0.5-0.4,0.7-0.5c-0.3-0.1-0.5-0.1-0.7-0.2
		c0.1-0.7,0.2-1.3,0.2-2c-0.6-0.2-1.2-0.3-1.9-0.5c-0.1,0.2-0.3,0.5-0.5,0.8c-0.1,0-0.1,0-0.2-0.1c0.2-0.5,0.4-0.9,0.6-1.5
		c-0.5-0.3-1-0.5-1.3-0.7c-0.1-0.6-0.2-1.1-0.4-1.6c-0.2-0.2-0.7-0.2-1.2-0.4c-0.3-0.2-0.7-0.6-1.1-0.9c-0.7-0.6-1.3-1.2-1.5-2.2
		c-0.1-0.5-0.8-1-1.3-1.5c0.1-0.2,0.3-0.4,0.4-0.6c-1.1-0.4-1.9-0.8-2.4-2c-0.3-0.9-1.5-1.3-1.4-2.5c-1.5-0.3-1.8-1.7-2.5-2.7
		c-0.1-0.2,0-0.5-0.2-0.6c-1.6-1.5-2.7-3.3-3.8-5.1c-0.5-0.8-0.9-1.7-1.3-2.6c-0.1-0.2-0.3-0.3-0.5-0.5c-0.2-0.2-0.3-0.5-0.4-0.7
		c-0.1-0.2-0.1-0.5-0.2-0.7c-0.1,0-0.2,0-0.3,0c0.1-0.2,0.3-0.4,0.4-0.6c-0.9-0.8-1.7-1.5-1.9-2.8c0-0.4-0.5-0.7-0.8-1.1
		c-0.4-0.7-0.7-1.4-1.1-2.1c-0.5-1-1.1-1.9-1.6-2.9c0.3,0,0.6,0,0.8-0.1c-0.5-0.6-1.1-1-1.5-1.6c-0.3-0.5-0.4-1.2-0.6-1.9
		c-1-0.4-1.8-2.7-1.4-4.4c-0.2,0-0.4-0.1-0.6-0.1c0.1-0.3,0.2-0.6,0.2-1c-0.3,0-0.6,0-0.9-0.1c-0.2-0.1-0.5-0.3-0.6-0.5
		c-0.2-1.2-0.3-2.5-0.5-3.7c-0.1-0.3-0.4-0.6-0.5-0.9c-0.3-0.7-0.5-1.4-0.7-2.1C92.4,176,92.6,175.6,92.8,175.2z M294.4,59.3
		c-0.4,0.2-0.8,0.4-1.2,0.7c-0.2,0.2-0.2,0.5-0.4,0.8c0.5,0.2,1.1,0.4,1.4,0.5c0.4-0.7,0.6-1.3,0.9-1.9
		C294.9,59.3,294.6,59.3,294.4,59.3c-0.1-0.3-0.1-0.6-0.1-0.7c-1-0.6-1.8-1.1-2.6-1.6c0-0.3,0-0.6,0.1-0.8c-0.6-0.3-1-0.5-1.4-0.8
		c-1.3-1-2.1-2.5-3.9-2.7c-0.4,0-0.7-0.4-1-0.6c-0.7-0.7-1.5-1.3-2.2-2c-1.1-1.1-3.1-1-3.7-2.7c0-0.1-0.2-0.1-0.3-0.2
		c-0.8-0.4-1.6-0.7-2.4-1.1c-0.3-0.1-0.6-0.4-0.9-0.4c-0.8,0-1.4-0.3-1.4-0.9c-1-0.5-1.9-1-2.8-1.2c-1-0.2-1-0.1-1.7-1.5
		c-0.4,0-0.8,0.1-1.1,0c-0.9-0.4-1.8-1-2.8-1.5c-0.9-0.4-1.9-0.7-2.8-1.1c-1.2-0.5-2.3-1-3.6-1.6c0,0,0-0.3,0-0.3
		c-0.5,0-0.9,0.1-1.2,0.1c-0.3-0.1-0.6-0.4-0.9-0.5c-1.5-0.6-3.1-1.1-4.6-1.7c-0.9-0.3-1.8-0.7-2.7-1c-1.4-0.4-2.8-0.7-4.2-1.1
		c-0.3-0.1-0.6-0.3-0.9-0.3c-1.2,0.1-2.2,0.1-3.1-0.9c-0.2-0.2-0.8-0.2-1.2-0.3c-0.6-0.1-1.3-0.2-1.9-0.3c-0.6-0.1-1.3-0.4-1.8-0.3
		c-0.8,0.1-1.4-0.1-2-0.4c-0.1-0.1-0.3,0-0.5-0.1c-1.5-0.1-3.1-0.3-4.6-0.4c-1.7-0.2-3.5-0.1-5.1-1c-0.3-0.2-0.8,0-1.2,0.1
		c-0.3,0-0.6,0.2-0.8,0.1c-0.3-0.1-0.6-0.4-0.9-0.6c-0.3,0.2-0.6,0.4-1.1,0.8c0.1-0.5,0.2-0.7,0.3-1.1c-0.6,0.4-1,0.8-1.4,0.8
		c-1.3,0.1-2.6,0.1-3.8-0.1c-0.7-0.1-1.4-0.3-2.1-0.2c-1.1,0.1-2.1,0.4-3,1.2c-0.2,0.2-0.7,0.1-1,0.1c-0.4,0-0.8-0.1-1.1-0.2
		c-0.4-0.1-0.7-0.4-1.1-0.6c-0.5,0.8-1.5,0.5-2.4,0.4c-0.5,0-1-0.1-1.4-0.1c-1.2,0.2-2.3-0.1-3.5,0.6c-0.7,0.4-2,0-3-0.1
		c-0.7-0.1-1.3,0.2-2,0.4c-1.4,0.5-2.9,0.7-4.4,0.9c-0.5,0.1-1.1-0.1-1.7-0.1c-0.2,0.7-1,0.9-1.8,0.8c-1.3-0.3-2.5-0.1-3.6,0.4
		c-0.9,0.4-1.8,0.9-2.9,0.7c-0.3-0.1-0.6,0.3-0.9,0.4c-0.5,0.2-1.1,0.3-1.6,0.4c-0.2,0-0.4-0.3-0.5-0.2c-1.1,0.8-2.2,1.7-3.7,1.9
		c-0.6,0.1-1.1,0.6-1.7,0.7c-1.1,0.1-2.1,0.4-3.1,1c-0.7,0.4-1.6,0.8-2.3,0.7c-0.8-0.1-1.1,0-1.6,0.5c-0.2,0.2-0.4,0.3-0.7,0.4
		c-1.3,0.2-2.7,0.5-3.6,1.6c-0.1,0.2-0.4,0.3-0.6,0.4c-0.9,0.2-1.7,0.5-2.3,1.4c-0.1,0.1-0.4,0.3-0.5,0.2c-1.3-0.4-1.8,0.8-2.8,1.2
		c-1.8-0.3-2.7,1.5-4.3,2c-0.1-0.2-0.3-0.5-0.5-0.9c0.2,1.9-1.3,2-2.2,2.6c-1,0.7-2.2,1.1-3.3,1.7c-1,0.6-2,1.4-3,2.2
		c0,0.2,0,0.5,0.1,0.9c-0.5,0-0.8-0.1-1,0c-1.1,0.7-2.2,1.2-2.9,2.3c-0.2,0.3-0.7,0.5-1.1,0.7c-0.1-0.1-0.2-0.1-0.3-0.2
		c0,0.4,0,0.8,0,1.1c-0.1-0.1-0.1-0.1-0.2-0.2c-0.9,1-1.9,2-2.9,3.1c0.1-0.5,0.2-0.7,0.3-1c-0.1-0.1-0.2-0.1-0.3-0.2
		c-0.5,0.7-0.9,1.4-1.4,2c-0.3,0.4-0.5,0.8-0.8,1.1c-0.5,0.4-1.1,0.8-1.7,1.2c-0.7,0.6-1.4,1.1-2.1,1.7c-0.4,0.4-0.9,0.9-1,1.4
		c-0.3,1.3-0.6,1.7-1.9,1.9c0,0.9-0.7,1.3-1.3,1.8c-2.1,2-3.8,4.4-5.5,6.7c-1.2,1.6-2.4,3.2-3.5,4.8c-0.3,0.5-0.5,1-0.8,1.5
		c-0.4,0.9-0.6,1.9-1.1,2.8c-0.2,0.4-0.7,0.7-1,1.2c-0.3,0.3-0.6,0.8-0.5,1.2c0.2,0.8-0.2,1.2-0.6,1.7c-0.3,0.4-0.5,0.9-0.7,1.3
		c-0.1,0.3-0.2,0.6-0.4,0.8c-0.5,0.5-0.5,1.1-0.4,1.6c0.2,0.8-0.1,1-0.7,1.4c-0.4,0.2-0.5,0.8-0.7,1.3c-0.2,0.5-0.1,1.1-0.3,1.6
		c-0.3,0.6-1.1,1.1-1.3,1.7c-0.6,1.7-1,3.5-1.5,5.2c-0.1,0.4-0.2,0.8-0.3,1.2c-0.3,1-0.7,2-0.9,3.1c-0.1,0.6,0.3,1.3,0.1,1.8
		c-0.2,0.7-0.8,1.3-1.2,2c-0.1,0.2-0.1,0.5,0,0.8c0,1.1,0.2,2.3-0.6,3.3c-0.1,0.2-0.1,0.5-0.2,0.7c-0.1,0.4-0.1,0.8-0.2,1.5
		c0.8,1.2,0.5,4-0.6,4.8c0,0.4,0.2,0.8,0.1,1.1c-0.6,2.3-1,4.6-0.4,7c0.2,0.6,0.1,1.4,0,2.1c-0.1,1.8-0.3,3.6-0.3,5.4
		c0,1.1-0.5,2.3,0,3.4c0.3,0.6,0.1,1.4,0.1,2.1c0,0.6-0.2,1.3-0.1,1.9c0.2,1.5,0.5,2.9,0.8,4.4c0.2,0.9,0.6,1.7,0.5,2.6
		c-0.2,1.9,0.6,3.5,0.9,5.2c0.1,0.4,0.7,0.9,0.6,1.3c-0.2,0.9,0.4,1.3,0.8,1.7c-0.1,1.4-0.3,2.7-0.5,4.1c0.3,0.7,0.7,1.5,1.2,2.4
		c0.5,0.9,1,1.7,0.8,2.8c-0.1,0.8,0.2,1.6,0.4,2.5c0.1,0.6,0.3,1.2,0.5,1.8c0,0.1-0.1,0.3-0.1,0.4c0.6,1.3,1.3,2.5,1.9,3.8
		c0.1,0.1,0,0.4,0,0.5c0.1,0.3,0.1,0.6,0.2,0.8c0.2,0.2,0.6,0.3,0.7,0.6c0.8,1.6,1.6,3.2,2.3,4.9c0.5,1.1,0.7,2.4,1.1,3.5
		c0,0.1,0.2,0.3,0.3,0.4c0.3,0.3,0.7,0.6,0.9,1c0.3,0.6,0.5,1.3,0.8,1.9c0.4,0.8,0.9,1.6,1.4,2.4c1.2,1.8,2.4,3.7,3.5,5.5
		c0.1,0.2,0.2,0.4,0.2,0.6c0.2,0.6,0.3,1.2,0.5,1.7c0.1,0.4,0.2,0.8,0.3,1.2c0.5,0.5,1.1,1.1,1.6,1.7c0.3,0.3,0.7,0.6,0.7,0.9
		c0.1,0.8,0.5,0.9,1.1,1.1c0.9,0.2,1.4,0.9,1.3,1.9c-0.1,1,0.2,1.4,1.2,1.3c0.1,0,0.2,0.1,0.5,0.4c-0.5,0-0.7,0-0.9,0
		c0,0.1-0.1,0.2-0.1,0.3c0.5,0.2,0.9,0.4,1.4,0.5c0.3,0.5,0.7,1,1.2,1.4c0.6,0.4,1,0.8,0.3,1.4c0.2,0.4,0.4,0.7,0.6,1
		c0.1,0.2,0.4,0.4,0.5,0.4c0.9-0.5,1.1,0.4,1.5,0.7c0.3,0.3,0.6,0.7,0.9,1c0.8,1,1.6,1.9,2.5,2.9c0.3,0.3,0.6,0.5,0.9,0.7
		c0.2,0.1,0.4,0.3,0.5,0.4c0.3,0.2,0.5,0.5,0.8,0.8c0.2,0.2,0.5,0.2,0.6,0.4c0.5,1,1,1.8,2.2,1.9c0.1,0,0.3,0.3,0.4,0.4
		c1,1,2,2.1,3.1,3.1c0.8,0.7,1.8,1.1,2.5,1.8c0.9,0.9,2.1,1.3,3.2,1.6c1.7,0.4,1.8,0.4,1.9,2.1c1.1,0.6,2.2,1.3,3.3,1.9
		c0.3,0.2,0.9,0.4,0.9,0.6c0.1,0.9,0.9,0.9,1.5,1.2c0.3,0.1,0.6,0.5,0.9,0.6c0.7,0.4,1.5,1.2,2.2,1.1c0.7-0.1,0.8,0.1,1.1,0.5
		c0.7,1.4,2.2,1.7,3.5,2.1c2,0.7,4,1.5,5.5,2.8c0.4,0,0.8-0.2,1.1-0.1c1.1,0.5,2.2,1,3.3,1.5c0.4,0.2,0.9,0.4,1.3,0.4
		c1.1,0.1,1.8,1.5,3,1.1c0,0,0.1,0,0.1,0c0.3,0.9,0.9,0.5,1.5,0.4c0.3,0,0.6-0.1,0.8,0c0.9,0.3,1.9,0.6,2.8,0.9
		c1.1,0.4,2.3,0.7,3.4,1.1c0.9,0.3,1.8,0.8,2.8,0.5c0.1,0,0.1,0.1,0.2,0.1c1.3,0.3,2.6,0.6,3.9,0.8c0.7,0.2,1.4,0.4,2,0.5
		c0.2,0,0.4,0,0.6,0c0,0.1,0,0.1,0,0.2c0.9,0.1,1.8,0.3,2.8,0.4c0,0.1,0,0.2,0,0.3c-0.9,0.1-1.9,0.3-2.8,0.3c-0.6,0-1.1-0.2-1.7-0.3
		c-0.3-0.1-0.5-0.3-0.8-0.3c-0.9-0.1-1.8-0.2-2.7-0.3c-0.6-0.1-1.3-0.4-1.9-0.3c-1.4,0.3-2.6-0.3-3.6-0.8c-1.7-0.9-3.4-1.1-5.2-1.2
		c-0.3,0-0.6-0.2-0.9-0.4c-0.7-0.4-1.5-0.8-2.2-1.2c-0.1-0.1-0.4-0.1-0.5,0c-0.6,0.5-1.1,0-1.7-0.2c-1.4-0.5-2.8-1.1-3.9-1.6
		c-0.3-0.4-0.4-0.7-0.6-0.7c-0.8-0.3-1.7-0.4-2.5-0.7c-0.6-0.2-1.2-0.8-1.8-1c-0.9-0.3-1.8-0.5-2.4-1.5c-0.1-0.2-0.5-0.2-0.8-0.3
		c-0.6-0.2-1.2-0.2-1.7-0.4c-1-0.5-2-1-2.9-1.5c-1.2-0.6-2.5-0.8-3.5-1.7c-1.1-0.9-2.3-1.6-3.5-2.3c-0.8-0.5-1.8-0.7-2.7-1.1
		c-0.6-0.8-1.2-1.7-1.6-2.2c-0.7-0.2-1.2-0.2-1.5-0.4c-0.9-0.7-1.8-1.5-2.6-2.2c-0.1-0.1-0.2,0-0.3-0.1c-0.4-0.2-0.8-0.5-1.1-0.8
		c-0.3-0.2-0.6-0.5-0.9-0.7c-0.6-0.4-1.4-0.8-1.9-1.3c-1.2-1.1-2.4-2.3-3.6-3.4c-0.4-0.3-0.9-0.6-1.1-1c-0.2-0.5-0.4-0.9-1.1-1.1
		c-0.7-0.2-1.4-0.6-1.8-1.2c-1.2-1.5-2.5-2.8-4-3.9c-0.3-0.2-0.5-0.6-0.8-0.9c-0.6-0.7-0.7-1.8-1.6-2.2c-0.2-0.1-0.2-0.5-0.3-0.7
		c0-0.1,0-0.4-0.1-0.4c-1.6-1-2.7-2.5-3.9-3.9c-0.6-0.8-1.4-1.4-2-2.2c-0.3-0.4-0.3-1-0.6-1.5c-0.6-1-1.3-1.9-2-2.9
		c-0.3-0.4-0.5-0.8-0.7-1.3c-0.3-0.7-0.6-1.5-1-2.1c-0.2-0.3-0.8-0.3-1.2-0.4c-0.1,0.4-0.1,0.7-0.2,1.1c0,0.1,0,0.3,0,0.4
		c-0.2,1.1-0.1,2.1,0.7,3c0.4,0.5,0.7,1.1,1,1.6c0.8,1.2,1.5,2.3,2.3,3.5c0.3,0.5,0.9,0.8,1.2,1.2c0.8,1.1,1.4,2.3,2.4,3.3
		c0.9,0.8,1.5,2,2.3,3c0.6,0.8,1.2,1.6,1.8,2.4c0.8,1,1,2.4,2.3,3c0.4,0.2,0.7,0.8,1.1,1.2c1.2,1.1,2.5,2.1,3.6,3.3
		c1.2,1.2,2.3,2.6,3.8,3c0.4,0.7,0.6,1.2,0.9,1.6c0.6,0.6,1.3,1.1,2.1,1.4c0.8,0.4,1.5,0.7,2,1.6c0.4,0.8,1.3,1.4,1.9,2.1
		c0.6,0.7,1.7,0.7,2.4,1.5c0.7,0.7,2,0.8,3.2,1.2c0.3,0.9,1.2,1.4,2.3,1.1c0.3,0.6,0.5,1.2,0.7,1.7c0.4,0.1,0.8,0.1,1.1,0.3
		c0.5,0.2,1,0.3,1.4,0.6c0.8,0.5,1.5,0.1,2.4-0.4c-0.3,0.9-0.6,1.6-0.8,2.2c1.2,0.1,3.7,1.5,3.8,2.1c1,0,1.9,0.3,2.2,1.4
		c0.1,0.2,0.6,0.2,0.9,0.3c0.2,0.1,0.5,0,0.8,0.1c0.4,0.1,0.8,0.2,1.3,0.3c0.1,0.4,0.3,0.9,0.5,1.4c0.1,0,0.2,0,0.4,0.1
		c0.1-0.4,0.3-0.8,0.5-1.3c0.3,0.2,0.6,0.4,0.9,0.6c-0.3,0.2-0.5,0.5-0.8,0.7c0,0.1,0.1,0.2,0.1,0.3c1-0.1,2-0.2,3-0.2
		c0,0.7,0.2,1.2,1.1,0.8c0.1,0,0.3,0.1,0.4,0.2c0.7,1.1,1.8,1.2,3,1c0.8-0.1,1.6,0,1.9,1c0,0,0.1,0,0.2,0.1c0.1-0.2,0.2-0.4,0.4-0.9
		c0.3,0.5,0.5,0.8,0.6,1.2c0.3-0.1,0.6-0.2,0.9-0.2c0.9,0.2,1.8,0.4,2.9,0.7c0.1,0.1,0.4,0.6,0.6,0.5c1.2-0.3,2,0.9,3.1,1
		c0,0.1,0,0.4,0,0.7c0.6-0.2,1.1-0.3,1.5-0.4c0.4,0.3,0.8,0.6,1.3,0.6c0.9,0.1,2-0.3,2.6,0.8c0.1,0.1,0.3,0.1,0.5,0.2
		c0.8,0.1,1.6,0.3,2.5,0.4c-0.5,0.2-1,0.4-1.4,0.6c0,0.1,0,0.1,0.1,0.2c0.5,0.1,0.9,0.1,1.4,0.2c-0.3,0.5-0.5,0.9-0.7,1.2
		c0.6,0.3,1,0.5,1.5,0.8c0.2-0.1,0.2-0.1,0.2,1c0.1,0.1,0.3,0.3,0.6,0.5c0.9-1.3,1.2-2.6,0.5-4.1c4.5,0.4,8.9,0.7,13,1.1
		c0.3,0.5,0.4,0.9,0.6,1.1c0.6,0.5,1.6,0.3,1.7,1.4c0,0,0.4,0,0.5,0c0-0.2-0.1-0.4-0.1-0.6c0.3-0.1,0.7-0.1,0.9-0.2
		c0.2,0.4,0.4,0.7,0.7,1.3c0.6-1,1.1-1.8,1.5-2.5c0.5-0.1,1.1-0.1,1.5-0.2c0.9-0.3,1.6,0,1.7,0.9c0.1,0.5,0,1.1,0,1.7
		c0.7,0.3,1.4,0.7,2.1,0c0.5-0.6,0.3-2-0.4-2.9c0.7,0.1,1.2,0.2,1.8,0.2c0.3,0,0.7,0.1,1-0.1c0.6-0.4,0.6-0.4,0.9,0.1
		c1.5-0.6,1.5-0.6,3.3-0.3c0.1,0,0.3,0,0.4,0.1c0.8,0,1.6,0,2.4,0c0.7,0,1.4-0.2,2.1-0.3c-0.5,0.4-1.1,0.8-1.6,1.3
		c0.2,0.2,0.4,0.4,0.4,0.5c0.4-0.3,0.6-0.6,0.9-0.7c0.5-0.3,0.5-0.6,0.3-1c0-0.2,0-0.6,0.1-0.6c0.5,0,1,0,1.5,0.1
		c0.2,0,0.5,0.2,0.6,0.1c0.6-0.4,1.1-0.6,1.8,0.1c0.2,0.2,0.9,0,1.3,0c0.3,0,0.5-0.2,0.8-0.2c0,0.1,0,0.1,0.1,0.2
		c-0.2,0.1-0.4,0.3-0.6,0.4c0,0.1,0,0.2,0,0.3c0.9,0,1.8-0.1,2.8-0.1c1.1,0,1.7-0.7,1.9-1.8c0.1,0,0.2,0.1,0.3,0.1
		c0.2,0.5,0.4,1.1,0.5,1.6c0.8-0.3,1.6-0.6,2.6-1c0.3,0.1,0.9,0.7,0.9-0.5c0-0.1,0.2-0.3,0.3-0.3c1-0.2,2-0.3,3-0.5
		c0.6-0.1,1.2-0.4,2.1-0.7c-0.5-0.2-0.8-0.3-1.2-0.4c0.9-0.4,1.6-0.9,2.4-0.1c-0.3,0.1-0.6,0.2-1,0.4c0,0.1,0,0.2,0,0.3
		c0.6,0,1.3,0.1,1.9,0.1c0-0.2,0-0.3,0.1-0.5c-0.4-0.1-0.7-0.2-1.1-0.3c-0.1-0.8,0.1-1.2,1.1-1.2c0.5,0,1-0.3,1.6-0.4c0,0,0,0,0,0.1
		c1.6-0.3,3.3-0.6,5-0.9c0-0.7,0.6-1.1,1.5-1.1c0.2,0,0.5-0.2,0.7-0.5c0.6-1,1.1-1.2,2.1-0.8c0.5-0.3,1.2-0.6,1.3-1
		c0.4-0.9,1.6-1,1.8-0.9c1.2,0.5,2.1-0.2,3.2-0.2c-0.7-0.6-0.6-1.2,0.4-2.8c0.3,0.2,0.7,0.3,1.1,0.5c0.1-0.3,0.1-0.5,0.2-0.8
		c0.3,0.4,0.6,0.7,0.9,1c0.5-0.2,1.2-0.5,1.7-0.8c0.6-0.4,1.3-0.9,1.4-1.4c0.2-0.8,0.6-1.2,1.1-1.7c0.2-0.2,0.5-0.3,0.7-0.4
		c1.3-0.7,2.6-1.4,4-2.2c0,0.4,0,0.6,0,0.8c0.3-0.7,0.9-1,1.5-1.2c0.8-0.2,0.9-0.7,0.7-1.4c0.3-0.1,0.5-0.1,0.7-0.3
		c1.4-1,2.7-1.9,4.1-2.9c0.5-0.3,1-0.7,1.4-1.1c0.4-0.4,0.8-0.8,0.9-1.3c0.1-0.5-0.1-1.1-0.2-1.7c-1.3,0.9-2.6,1.7-3.9,2.7
		c-1.4,1.1-3.2,1.9-4.2,3.6c-0.4,0.7-1.3,1.1-2.1,1.5c-0.7,0.3-1.5,0.3-1.8,1.2c-0.1,0.2-0.5,0.2-0.7,0.3c-0.3,0.1-0.7,0.2-1,0.4
		c-0.5,0.3-0.9,0.8-1.4,1.1c-1.2,0.7-2.7,1.1-3.7,1.9c-1.3,1.1-2.7,1.9-4.3,2.5c-0.5,0.2-1,0.8-1.4,0.7c-1.1-0.2-1.5,0.4-1.8,1.3
		c-0.6-0.1-1.3-0.1-2.1-0.2c-0.1,1.2-1.1,1.1-1.9,1c-0.8,0-1.2-0.1-1.2,0.9c0,0.2-0.4,0.5-0.7,0.6c-0.8,0.4-1.6,0.7-2.5,1
		c-0.5,0.2-1,0.5-1.4,0.4c-1.1-0.3-1.9,0.3-2.8,0.8c-0.7,0.4-1.3,0.9-2,1.1c-1.4,0.4-2.9,0.7-4.3,1.1c-1.1,0.3-2.1,0.2-2.9-0.8
		c-0.2-0.3-0.6-0.5-0.9-0.5c-1.6,0.1-3.2,0.4-4.8,0.6c-1.6,0.1-3.3,0.1-4.9,0.3c-1,0.1-1.9,0.4-2.8,0.6c-0.3-0.3-0.7-0.5-1-0.4
		c-1.8,0.5-3.5,1.1-5.5,0.7c-0.6-0.1-1.4,0.2-2.1,0.4c-0.1,0.1-0.1,0.3-0.2,0.4c-0.1-0.4-0.3-0.7-0.5-1.3c0.5,0.1,0.9,0.1,1.1,0.2
		c0.3-0.3,0.5-0.8,0.8-0.8c1.2-0.2,2.4-0.5,3.5-0.3c1.3,0.2,2.3,0.1,3.3-0.6c0.2-0.2,0.7-0.1,1,0c0.4,0.1,0.9,0.4,1.3,0.4
		c0.9-0.1,1.8-0.3,2.7-0.4c0.5-0.1,1.2-0.1,1.6-0.4c1.3-0.8,2.7-1.1,4.2-0.7c0.2,0.1,0.5,0,0.7,0c1.7-0.4,3.4-0.9,5.1-1.3
		c0.7-0.2,1.7-0.1,2.1-0.5c0.7-0.9,1.7-0.6,2.6-0.9c1.5-0.4,3.1-0.4,4.4-1.6c-0.1-0.3-0.2-0.6-0.2-0.8c0.7,0,1.4,0,2-0.1
		c0.6-0.1,1.1-0.3,1.7-0.5c0.5-0.1,0.9-0.2,1.4-0.3c0.1,0,0.1-0.1,0.2-0.2c-0.3-0.1-0.5-0.1-0.8-0.2c0.1-0.1,0.1-0.2,0.1-0.3
		c0.1-0.1,0.2-0.2,0.3-0.2c1,0.1,1.9-0.1,2.5-1c0.1-0.1,0.6,0.1,0.9,0.1c0.4,0,0.8,0,1.1-0.2c0.7-0.4,1.4-0.9,2.2-0.2
		c0.4-1.1,0.7-1.6,2.1-2.1c1.6-0.5,3.1-1.4,4.6-2.2c1-0.5,1.9-1,3.1-1.7c0.1-0.1,0.4-0.5,0.8-0.8c0.8-0.5,1.3-1.2,2.4-1.1
		c0.5,0,1.3-0.4,1.5-0.9c0.3-0.7,0.8-1.1,1.3-1.5c0.7-0.5,1.5-1,2.2-1.5c0.9-0.7,1.8-1.3,2.7-2c0.1,0.1,0.1,0.1,0.2,0.2
		c0-0.3,0.1-0.5,0.1-0.6c0.6-0.4,1-0.7,1.4-1c0.9-0.8,1.7-2,2.8-2.5c1.1-0.6,1.7-1.4,2.4-2.2c0.7-0.8,1.6-1.4,2.5-2.1
		c-0.3-0.2-0.6-0.3-0.8-0.5c-0.2-0.2-0.3-0.4-0.4-0.6c0.1-0.1,0.1-0.2,0.2-0.2c0.5,0.2,1,0.4,1.6,0.6c0.8-0.9,1.7-1.9,2.6-2.9
		c-0.8-1.2-0.7-1.8,0.2-2.1c0.2,0.4,0.4,0.7,0.5,1.1c0.1,0,0.3-0.1,0.4-0.1c-0.1-0.6-0.2-1.1-0.3-1.7c0.5,0,1,1.2,1.4,0.2
		c0.2-0.4-0.1-1.1-0.1-1.4c0.5,0,1.1-0.1,1.6-0.1c0-0.3,0-0.6,0-0.7c0.8-0.7,1.6-1.4,2.3-2c-0.5-0.7-0.9-1.3-1.3-1.9
		c0.1,0,0.2,0,0.3,0c0.1-0.5,0.1-0.9,0.2-1.5c0.9,0.3,1.8,0.6,2.9,0.9c-0.1-0.4-0.1-0.6-0.2-0.9c0.3,0.1,0.5,0.1,0.8,0.2
		c-0.4-0.9-0.8-0.7-1.4-0.4c-0.6,0.3-0.9,0.2-0.8-0.6c0.1-0.4,0-0.8,0-1c0.4-0.2,0.8-0.3,0.9-0.5c0.8-1.5,1.4-3,2.2-4.4
		c0.2-0.4,0.6-0.6,0.9-0.9c0.6-0.6,1.1-1.1,1.7-1.7c0.3-0.3,0.5-0.7,0.8-1.1c0.4-0.5,0.8-1,1.3-1.7c0.3,0,1-0.1,1.8-0.2
		c-0.6-0.7-1.1-1.1-1.6-1.7c0.6,0.1,1,0.3,1.3,0.3c0.2,0,0.6,0,0.7-0.1c0.4-0.6,0.7-1.2,1.1-1.8c0.4-0.6,0.8-1.2,1.2-1.9
		c0-0.3,0-0.6,0.2-0.9c1.1-2.4,2.2-4.8,3.3-7.3c0.7-1.6,1.2-3.3,1.8-4.9c0.5-1.4,1.1-2.7,1.5-4.1c0.7-2,1.3-4,1.8-6.1
		c0.7-2.5,1.5-5.1,1.9-7.6c0.3-1.8,1-3.7,0.5-5.6c-0.1-0.6-0.2-1.4,0.1-1.9c0.9-1.5,0.6-3.2,0.6-4.7c0-2.4,0.2-4.8-0.1-7.2
		c-0.2-1.6,0-3.2,0-4.8c0-0.4-0.1-0.8-0.1-1.1c-0.2-1.2-0.4-2.4-0.6-3.6c-0.1-0.3-0.1-0.7-0.1-1c-0.3,0.1-0.7,0.2-1.2,0.4
		c0.1-1.1,0.1-2.1,0.2-3.2c-0.9-0.5-1.2-1.5-0.6-2.4c0.1-0.1,0.1-0.4,0.1-0.5c0-0.3,0-0.5,0-1c-0.1-0.1-0.3-0.2-0.6-0.4
		c0.2-0.3,0.3-0.5,0.4-0.8c-1.7-0.4-0.2-2.1-1.1-2.6c0.3-0.4,0.6-0.8,0.8-1.1c-1.2-0.6-0.6-1.8-0.6-2.5c0-1.7-0.7-3.2-0.9-4.7
		c-0.2-1-0.4-2-0.4-2.9c0-1.3-0.5-2.2-1.4-2.9c-0.7-0.6-1.4-1.2-2.3-2c0.9-0.2,1.6-0.4,2.1-0.5c-0.2-0.6-0.4-1.2-0.6-1.8
		c-0.2-0.5-0.2-1.2-0.5-1.5c-1.1-1-0.8-2.2-1-3.4c-0.2-1-1.2-2.3-2-2.2c0-0.2,0.1-0.3,0.2-0.6c-0.8,0.2-1.6,0.8-2.1-0.3
		c-0.2-0.4-0.3-0.9-1-0.8c-0.2,0-0.5-0.5-0.7-0.8c0-0.1,0.3-0.5,0.5-0.5c0.5-0.2,1-0.2,1.4-0.3c-0.1-0.4-0.2-0.9-0.3-1.3
		c-0.5-0.5-1.1-1-1.6-1.6c-0.2-0.2-0.4-0.4-0.7-0.6c-0.1,0.1-0.2,0.2-0.2,0.2c0,0.4,0,0.7,0,0.9c-0.5-0.4-1.1-0.8-1.6-1.1
		c-0.7-0.4-1.3-0.7-1.5-1.7c0.8,0.4,1.4,0.9,2,1c0.4,0.1,0.9-0.2,1.3-0.4c0.1-0.1,0-0.7-0.2-1c-0.2-0.4-0.6-0.8-0.8-1.2
		c-0.4-0.7-1-0.8-1.6-0.3c-0.2,0.1-0.7,0.2-0.8,0c-0.3-0.4-0.5-0.9-0.7-1.3c0.1-0.3,0.2-0.6,0.1-0.8c-0.2-0.4-0.6-0.6-1-1
		c-0.2,0.4-0.5,0.8-0.8,1.3c0.7,0.2,1.2,0.4,1.7,0.6c-2.2,0.4-2.9-1.7-4.4-2.3c0.4-0.6,0.7-0.9,0.9-1.3c0.3-0.1,0.7-0.1,1-0.3
		c0.1,0,0-0.6-0.2-0.7c-0.6-0.6-1.3-1.1-1.9-1.6c0-0.5,1-1,0.2-1.3c0.1-0.6,0.2-1.1,0.4-1.6c-0.1,0-0.2-0.1-0.3-0.1
		c-0.2,0.3-0.5,0.7-0.8,1.2c-0.2-0.6-0.2-0.9-0.3-1.3c0.4-0.1,0.7-0.2,0.9-0.2c0-0.1,0-0.2,0-0.3c-0.7,0-1.3-0.1-2.3-0.1
		c0.4,0.3,0.6,0.4,1,0.7c-0.9,0.2-1.4,0.2-2.2,0.4c1.1,0.9,0.9,2.5,2.5,2.6c-1.3,0.7-1.6-0.9-2.4-0.9c-0.1-0.6-0.1-1.1-0.2-1.6
		c-0.1-0.4-0.3-0.8-0.4-1.2c-1.2,0.5-3.3-0.8-3.3-2.2c0,0,0-0.1,0-0.1c0.2-0.1,0.5-0.4,0.7-0.4c0.6,0.1,1.1,0.3,1.7,0.5
		c0-0.1,0.1-0.1,0.1-0.2c-0.3-0.4-0.7-0.9-1-1.3c0.9-0.4,1.7-0.8,2.4-1.1c-0.5-0.8-0.8-1.6-1.3-1.9c-1-0.5-1.5-2.2-3.3-1.4
		c0.3-0.6,0.5-0.8,0.7-1.2c-0.7-0.1-1.3-0.2-1.9-0.3c0.3-1.2-1-0.9-1.4-1.6c-1.1,1.3-1.1,1.3-2.3,0.9c-0.3-0.5-0.4-0.7-0.7-0.9
		c-0.8-0.7-1.7-1.3-2.5-1.9c-0.2-0.1-0.3-0.4-0.3-0.6c0-0.2,0.2-0.4,0.3-0.6c0.1,0.1,0.3,0.2,0.4,0.3c0.4,0.4,0.7,0.9,1.2,1.2
		C292.4,60,293.4,59.5,294.4,59.3z M320.8,197.8c0.2-0.6,0.5-1.3,0.8-2.1c-0.7-1.1-0.1-2.4-0.1-3.7c0-0.2,0.4-0.5,0.6-0.5
		c1.8-0.1,1.9-1.8,2.4-2.8c0.3-0.6,0.3-1.6,0.7-2.5c0.6-1.4,1.2-2.8,1.8-4.2c0.6-1.4,1-3,1.6-4.4c0.7-2,1.5-4,2.2-6
		c0.3-0.8,0.5-1.6,0.6-2.4c0.1-1.7,1.3-3.2,0.8-5c-0.1-0.2,0.2-0.6,0.3-0.8c0.3-0.7,0.8-1.3,0.9-2c0.3-1.8,0.5-3.7,0.8-5.6
		c0.1-0.6,0.4-1.1,0.4-1.7c0-1.2-0.1-2.3-0.1-3.5c0-1.8,0.2-3.6,0.2-5.4c0-1-0.4-1.9-0.7-2.9c0.2-0.1,0.5-0.3,0.9-0.6
		c-0.4-0.1-0.6-0.2-0.6-0.2c0-1.3,0-2.4,0-3.6c-0.4-0.4-1.5-0.7-0.5-1.6c-0.5-0.8-0.9-1.5-1.3-2.3c-0.2,0.2-0.5,0.3-0.5,0.5
		c-0.2,1.1-0.4,2.2-0.3,3.3c0.1,1.1,0.4,2.2,0.7,3.3c0,0.1-0.1,0.3-0.1,0.4c-0.1,1.3-0.2,2.7-0.3,4c-0.1,1.6,0.2,3.2-0.1,4.7
		c-0.4,1.7,0,3.4-0.6,5.1c-0.5,1.6-0.5,3.3-0.8,5c-0.1,0.5,0,1.1-0.1,1.6c0,0.3,0,0.6,0,0.9c-0.7-0.1-0.4,0.5-0.5,0.8
		c-0.4,1.8-0.9,3.6-1.3,5.4c-0.3,1-0.5,2-0.7,3.1c-0.2,0.7-0.4,1.4-0.6,2.1c-0.2,0.7-0.3,1.3-0.5,2c-0.4,1.3-0.9,2.5-1.3,3.8
		c-0.3,0.8-0.3,1.6-0.7,2.3c-0.7,1.3-1.3,2.6-1.5,4.1c0,0.2-0.1,0.5-0.2,0.6c-1.3,1.4-1.9,3.2-2.4,5c-0.1,0.3-0.2,0.5-0.3,0.7
		c-0.3,0.5-1.2,0.5-1,1.3c0.1,0.5,0.6,1,0.9,1.4c0,0,0.1,0.1,0.1,0.1c0,0-0.1,0.1-0.1,0.1c-0.4-0.4-0.8-0.7-1.2-1.1
		c-0.3,0.2-0.6,0.2-0.7,0.5c-0.3,0.5-0.6,1-0.6,1.6c0,0.5,0.6,0.6,1.1,0.6C319.2,197.3,319.9,197.5,320.8,197.8z M284.5,45.1
		c-1.1,0.1-1.8,0.9-1.3,1.8c0.4,0.7,1.2,1.1,1.8,1.6c0.4,0.3,1.1,0.2,1.4,0.5c0.6,0.7,1.1,1.5,2,2c1.2,0.8,2.3,1.7,3.4,2.6
		c1.1,0.9,2.2,1.7,3.2,2.7c1.3,1.2,2.4,2.4,3.6,3.7c1,1,2.5,1.5,3.3,2.9c0.7,1.2,1.8,2.1,2.6,3.1c0.4,0.5,0.7,1,1.1,1.5
		c0.7,0.9,1.6,1.8,2.4,2.6c0.6,0.7,1.1,1.2,1.9,1.4c0,0,0.1,0.1,0.1,0.1c-0.2,0.2-0.3,0.3-0.5,0.5c1.1,1.3,2.2,2.5,3.2,3.7
		c0.1,0.1,0.1,0.4,0,0.6c-0.2,0.9,0.8,1.2,1.1,1.8c0,0,0.9-0.2,0.9-0.4c0.1-0.9,0.1-1.7,0-2.6c0-0.3-0.1-0.7-0.2-1
		c-0.5-0.7-1-1.3-1.6-2.1c0,0.1-0.1,0.4-0.2,0.6c-0.1-0.1-0.1-0.2-0.2-0.2c0.2-0.9-0.4-2.1-0.8-2.3c-0.4-0.2-1-0.6-1-0.9
		c-0.1-0.6-0.5-0.8-0.9-1.2c-0.6-0.5-1.2-1-1.8-1.6c-0.6-0.7-1.2-1.5-1.7-2.2c-0.4-0.5-0.9-0.9-1-1.5c-0.2-0.9-0.8-1.2-1.4-1.4
		c-1.2-0.5-1.7-1.6-2.5-2.5c-0.2-0.2-0.1-0.8-0.3-1c-1-0.9-2-1.7-3.1-2.6c-2-1.6-3.7-3.6-5.9-5c-0.2-0.1-0.4-0.3-0.3-0.5
		c0.1-1.5-0.6-0.5-0.9-0.5C288.8,48,286.8,46.7,284.5,45.1z M138.4,51.3c0.8-0.6,1.7-1.2,2.5-1.9c1-0.9,2.6-1.1,3.2-2.4
		c0.1-0.1,0.3-0.2,0.5-0.2c0.8-0.2,1.7-0.3,2.3-1.1c0.3-0.4,1.1-0.5,1.7-0.8c0.5-0.2,1-0.4,1.4-0.8c0.7-0.6,1.2-1.5,2-1.9
		c0.5-0.2,0.8-0.4,1.1-0.9c0-0.1,0.1-0.2,0.2-0.3c0.2,0.1,0.4,0.3,0.8,0.5c0.1-0.4,0.1-0.7,0.1-0.9c0,0.1,0.1,0.2,0.1,0.3
		c1.1-0.4,2.1-0.8,3.2-1.3c0.6-0.3,1.2-0.9,1.8-0.9c1.3,0.1,1.2-0.4,0.8-1.3c0.3-0.1,0.6-0.3,0.8-0.4c-0.2-0.2-0.3-0.4-0.4-0.6
		c-0.2-0.6-0.7-0.6-1.2-0.4c-1.6,0.7-3.3,1.4-4.8,2.3c-0.8,0.4-1.4,1-2,1.5c-0.6,0.1-1.2,0.1-1.7,0.4c-0.7,0.3-1.4,0.9-2.1,1.2
		c-0.6,0.3-1.2,0.5-1.8,0.7c0-0.1-0.1-0.2-0.1-0.2c-0.1,0.4-0.2,0.8-0.2,0.9c-2.7,0.9-4.4,3-6.6,4.2c-2.3,1.2-3.9,3.2-6,4.7
		c0.2,0.1,0.3,0.2,0.4,0.3c0.2,0.2,0.5,0.4,0.7,0.7c-0.4,0.1-0.7,0.2-1.1,0.3c-0.4,0-0.8,0-1.6,0c0.4,0.9,0.7,1.5,1.1,2.3
		c0.4-0.6,0.8-1.1,1.1-1.7c0.6,0.3,1.2,0.5,1.8,0.8c0.1-0.5,0.3-1.1,0.5-1.7C137.8,52.5,138.6,52,138.4,51.3z M187.2,29.3
		c0.3,0.1,0.5,0.3,0.8,0.3c0.7-0.1,1.5-0.2,2.2-0.4c1.1-0.3,2.2-0.6,3.3-0.9c0.3-0.1,0.7-0.2,1-0.1c1.1,0.2,2.2,0.7,3.3-0.2
		c0.2-0.2,0.6-0.1,0.9-0.1c0.6,0,1.6,0.2,1.8-0.1c0.8-1.2,1.1-0.1,1.6,0.2c0.5-0.1,0.9-0.8,1.5-0.1c0,0,0.3-0.1,0.4-0.2
		c0.4-0.1,0.8-0.4,1.3-0.4c0.7-0.1,1.6,0.3,1.9-0.4c0.9,0.1,1.8,0.1,2.6,0.2c0-0.3,0-0.4,0-0.6c0.4,0.9,1.1,1.1,1.9,1
		c0.5,0,0.9-0.6,1.4-0.1c0.2-0.2,0.4-0.3,0.5-0.5c0.5-1.2-0.6-2.4-1.9-2.2c-0.4,0.1-0.8,0-1.1,0.1c-0.4,0.1-0.9,0.2-1.2,0.4
		c-0.6,0.7-1.1,0.8-1.6,0.1c-0.2-0.2-0.5-0.5-0.6-0.4c-1.1,0.6-2.3-0.1-3.6,0.3c-1.3,0.4-2.7,0.2-4.1,0.3c-1.5,0.1-3,0.2-4.4,0.4
		c-0.7,0.1-1.4,0.3-2,0.5c-1.4,0.2-2.7,0.5-4.1,0.7c-0.4,0.1-0.7,0.1-1.1,0.1c-0.4,0-0.8,0.1-1.2,0.3c-1.3,0.4-2.5,0.8-3.8,1.2
		c-0.5,0.2-1.1,0.4-1.6,0.3c-1.2-0.2-2.9,0.6-3.2,1.8c-0.1,0.3,0.2,0.8,0.4,1.1c0.1,0.1,0.6,0.1,0.8,0c0.9-0.7,1.8-1,2.6,0.1
		c0,0,0.1,0,0.2-0.1c0-0.4,0-0.7,0-1.2c1.2,0.3,2.2-1.2,3.3,0C185.9,30.1,186.6,29.7,187.2,29.3z M125.5,59.8
		c-0.7,0.2-1.3,0.3-1.9,1.1c-0.6,1-1.7,1.8-2.6,2.7c0.1,0.3-2.1,2.9-3,3c0.1,0.7-0.5,2.3-0.9,2.7c-0.7,0.6-1.2,1.4-1.8,2.1
		c-0.9,1-1.7,2-1.6,3.5c0,0.4-1,0.8-1.7,1.4c0.7,1.2-1.3,1.5-1.2,2.7c0.3,0.1,0.6,0.1,0.8,0.2c0.8,0.6,1.4,0.3,1.9-0.5
		c0.5-0.9,1.1-1.8,1.7-2.6c0.5-0.7,0.9-1.4,1.5-1.9c0.9-0.8,1-2.4,2.5-2.2c0.1-0.5,0.2-0.8,0.3-1.2c0-0.2,0.2-0.3,0.2-0.4
		c0.1-1.4,0.3-1.6,1.5-1.6c0.4-0.5,0.7-1,1.1-1.4c0.6-0.9,1.6-1.4,1.8-2.6c0-0.2,0.4-0.4,0.7-0.5c0.7-0.5,1.5-1,2.2-1.4
		c0.1,0,0.1-0.1,0.1-0.2c-0.5-0.7,0.3-0.8,0.5-1.1c0.4-0.6,0.8-1.2,1.2-1.8c0.5-0.3,1.3-0.7,1.8-1.2c0.5-0.5,0.9-1.3,1.3-1.9
		c-0.8-0.7-0.8,0.2-0.9,0.7c-0.9-1.5-1.7-1.6-2.6-0.6c0.5,0.5,1,1,1.5,1.5c0,0.1-0.1,0.2-0.1,0.3c-0.9-0.1-1.8-0.1-2.7-0.1
		c-0.2,0-0.6,0.1-0.7,0.3C125.8,59,125.7,59.4,125.5,59.8z M256.6,34.5c1.2,0.2,2.2,0.3,3.2,0.5c0.2,0,0.3,0.1,0.4,0.2
		c0.4,0.3,0.7,0.8,1.2,1c1.2,0.6,2.5,1,3.8,1.6c0.9,0.4,1.8,0.7,2.7,1.1c1.5,0.7,3,1.6,4.4,2.4c1.5,0.8,3,1.5,4.4,2.5
		c1.7,1.2,3.4,1.8,5.4,1.8c0.2,0,0.6-0.2,0.7-0.4c0.1-0.3,0.2-0.7,0.1-1c-0.7-1.2-2.2-1.5-3.6-0.8c-0.3,0.1-0.6,0.1-1,0.2
		c-0.1-0.1-0.1-0.2-0.2-0.3c0.5-0.5,1-0.9,1.7-1.5c-0.3,0-0.5,0-0.8,0c-0.8-0.1-1.7,0-1.9-1.1c0-0.2-0.4-0.4-0.6-0.5
		c-0.6-0.3-1.2-0.5-1.8-0.8c-1-0.6-1.8-1.8-2.9-1.3c-1.1-0.7-1.9-1.2-2.8-1.7c-0.3,0-0.7,0.1-1-0.1c-0.4-0.2-0.7-0.6-1.1-0.8
		c-0.6-0.2-1.3-0.3-2-0.5c-0.8-0.3-1.6-0.8-2.5-1.1c-0.5-0.2-1.3-0.4-1.4,0.7c-0.1-0.1-0.2-0.1-0.3-0.2c0.1-0.3,0.1-0.6,0.2-0.9
		C259.7,32.2,257.5,32.5,256.6,34.5z M95.3,148.7c0.6-0.3,1.1-0.7,1.6-0.6c0.9,0.1,1-0.3,1-1c-0.2-2.2-0.3-4.4-0.4-6.6
		c-0.1-0.9-0.2-1.8-0.3-2.7c0.2-0.1,0.4-0.3,0.5-0.4c-0.2-1-0.5-1.8-0.7-2.7c0.1,0,0.2,0.1,0.5,0.2c-0.1-0.5-0.2-1-0.2-1.4
		c0.1-1.2,0.3-2.3,0.4-3.5c0.1-1.8,0-1.7-1.6-2c-1-0.2-1.1,0.3-1.1,1c-0.1,1.2-0.2,2.4-0.3,3.7c1.5,0.8-0.6,1.3-0.5,2
		c0.2,0,0.4,0,0.6-0.1c0.1,0.9,0.3,1.8,0.4,2.6c0,0.2,0,0.5-0.1,0.6c-1,1.1-0.5,2.2-0.1,3.3c0.1,0.3,0,0.6,0,1
		c-0.1,0.7-0.5,1.5-0.4,2.2c0.2,1,0.7,2,1.1,3.1C94.7,147.4,95.3,148,95.3,148.7z M104.5,93c-0.8,0.7-1.7,1.4-2.5,2.2
		c-0.1,0.1-0.1,0.3-0.2,0.5c-0.4,1.1-0.8,2.1-1.2,3.2c-0.1,0.4-0.1,0.8-0.1,1.2c-0.1,0.7-0.1,1.7-0.5,1.9c-0.8,0.5-0.8,1.1-0.6,1.7
		c0.2,0.6,0.7,1.2,1.2,1.4c0.4,0.2,1.2-0.2,1.5-0.6c0.5-0.7,0.7-1.6,0.9-2.5c0.3-0.9,0.5-1.9,0.8-2.8c0-0.1,0.1-0.3,0.1-0.4
		c0.5-0.6,1.1-1.2,1.7-1.8c-0.1,0-0.2-0.1-0.3-0.1c0.1-1.2,0.1-2.4,0.2-3.5c0.5-0.7,1-1.3,1.3-2c0.5-1.2,1.5-2.1,1.5-3.5
		c0-0.7,0.7-1.4,1.1-2.2c-0.8-0.1-1.3-0.2-1.8-0.2c-1.6,0.2-1.2,1.9-2,2.7c0.5,1.3-0.7,2-1.1,3C104.1,91.6,103.5,92.3,104.5,93z
		 M239.3,29.7c0.6,0,1.1-0.1,1.5,0c1.2,0.3,2.3,1.3,3.7,1.1c0.1,0,0.3,0.1,0.4,0.2c0.5,0.3,1,0.6,1.6,0.7c0.6,0.2,1.3,0.2,2,0.3
		c0.3,0,0.7,0.1,0.9,0c0.6-0.3,1-0.2,1.3,0.3c0.4,0.7,0.8,0.7,1.5,0.4c0.3-0.1,1.1-0.1,1.1,0.1c0.4,1.1,1.4,0.8,2.2,0.9
		c0.5-1,0.1-1.7-0.9-1.9c-0.3-0.1-0.6-0.4-0.9-0.6c-0.3-0.3-0.5-0.6-0.8-0.9c-0.6,0.5-1.1,0.8-1.3,1c-0.4,0-0.8,0.1-1,0
		c-0.3-0.1-0.9-0.5-0.9-0.5c0.4-0.8-0.3-0.8-0.7-0.9c-0.5-0.1-0.9-0.1-1.4-0.2c0.2-0.1,0.4-0.2,0.9-0.4c-1.4-0.4-2.6-0.9-3.8-1.2
		c-1.2-0.3-2.5-0.4-3.8-0.8c-1.7-0.5-3.4-0.7-5.2-0.5c-0.5,0-1,0.3-1.6,0.4c-0.3,0.1-0.8,0-1,0.2c-0.2,0.2,0,0.6,0,0.8
		c0.8,0.1,1.6,0.1,2.1,0.4c1.2,0.6,1.7,0.5,2.1-0.6C238.1,28.7,238.8,29.3,239.3,29.7z M99,105.9c-0.1,0-0.2,0-0.3,0
		c-0.3,0.8-0.6,1.6-0.8,2.5c-0.2,0.6-0.2,1.3-0.2,1.9c0,0.2,0.1,0.4,0.1,0.6c0.1,0.2,0.2,0.4,0.3,0.6c-0.3,0-0.5,0.1-1,0.1
		c-0.1,0.8,0,1.9-0.4,2.6c-0.6,1-0.3,1.4,0.6,1.9c-0.4,0.2-0.8,0.4-0.9,0.5c0.4,0.5,0.8,0.9,1.1,1.3c-0.1,0.1-0.1,0.2-0.2,0.2
		c-0.3-0.1-0.7-0.1-1.2-0.2c0.2,1.3,0.3,2.6,0.5,3.9c0.6,0,1.1,0,1.6-0.1c0.3-0.1,0.7-0.5,0.7-0.5c-0.4-0.7,0.1-1.4,0.1-2
		c0.1-0.8-0.1-1.7,0-2.5c0.3-1.6,0.7-3.1,1.1-4.7c0.2-0.8,0.4-1.6,0.6-2.4c0.1-0.2,0.3-0.4,0.3-0.6c0.1-0.6-0.1-1.4,0.1-1.9
		c0.4-0.8,0-0.9-0.5-1.1c-0.6-0.2-1.2-0.4-1.8-0.5C98.8,105.4,98.9,105.7,99,105.9z M229.2,26.1c-0.9-0.3-1.6-0.8-2.4-0.8
		c-1,0-1.3,0.9-1.5,1.8c-0.3-0.7-0.6-1.4-0.9-2.1c-0.8-0.1-1.7,0-2.3,0.3c-0.1,0.1-0.3,0-0.5,0c-0.5-0.1-1.1-0.4-1.6-0.4
		c-1.3,0.2-2.7,0.5-4,0.8c-0.2,0-0.4,0-0.6,0c0,0.5,0,0.9,0,1.3c0.9,0.1,1.7,0.2,2.5,0.2c0.4,0,0.9,0,1.3,0c1.7-0.2,3.4,1,5.2,0.2
		c0.2-0.1,0.6,0,0.9,0.2c1.2,0.6,2.5,0.3,3.7,0.3c1,0,2.4-0.3,3.1,0.9c0.2-0.3,0.3-0.5,0.5-0.8c-0.2-0.3-0.4-0.5-0.5-0.9
		C231.6,25.4,230.3,25,229.2,26.1z M98.3,155.8c0.5-1,0.5-2,0.1-3.3c-0.4-1.3-0.9-2.2-2.6-2.4c0,0.8,0,1.5,0,2.1
		c0,0.7,0.2,1.4,0.3,2.1c0.1,0.5,0.1,0.9,0.1,1.4c0.2,0.1,0.4,0.1,0.5,0.2c-0.1,0.8-0.3,1.6-0.1,2.1c0.2,0.4,1.1,0.4,1.7,0.6
		c-0.6,0.7-1.2,1.4-1.9,2.1c0.5,0.2,1.1,0.4,1.6,0.7c-0.2,0.3-0.5,0.6-0.6,1c-0.1,0.3,0.2,0.6,0.3,1c0.3-0.2,0.5-0.3,0.8-0.5
		c0.2-0.1,0.4-0.3,0.5-0.4c0.4-0.4,1.2-0.8,1.3-1.2c0-0.6-0.5-1.2-0.8-1.8c-0.2-0.4-0.7-0.8-0.6-1c0.4-0.8-0.2-1.4-0.3-2.1
		C98.7,156.2,98.5,156,98.3,155.8z M109.6,194.4c0.3,1.3,0.6,2.5,1,3.7c0.6-0.2,0.9-0.2,1.2-0.3c0.3-0.1,0.5-0.2,0.8-0.3
		c-0.1-0.2-0.3-0.5-0.4-0.7c-0.1-0.2-0.4-0.5-0.3-0.7c0.5-1.1-0.1-1.9-0.6-2.8c-0.4-0.8-0.9-1.6-1.2-2.4c-0.1-0.3,0.1-0.6-0.4-0.5
		c-0.2,0-0.5-0.6-0.8-1c0.2-0.1,0.3-0.1,0.6-0.3c-0.7-0.8-1.4-1.5-2.1-2.3c-0.6,0.2-1.3,0.3-2,0.5c0.8,1.7,1.5,3.3,2.4,5.1
		c0.5-0.6,0.8-1,1.1-1.3c0.1,0,0.2,0.1,0.3,0.1c-0.2,0.7-0.3,1.5-0.5,2.2c-0.1,0.4-0.3,1-0.1,1.2
		C108.9,195.2,109.4,195.1,109.6,194.4z M172,30.7c-0.1,0.6-0.2,1.1-0.3,1.7c-0.2,0-0.6,0.1-0.8,0c-1-0.9-1.5-0.1-2.1,0.5
		c-0.9-0.7-1.5-0.5-2.2,0.7c-0.9-0.3-1.6-0.2-2.2,0.8c0.8,0.4,1.5,0.8,2.1,1.1c0.4-0.2,0.6-0.4,0.8-0.4c0.7-0.1,1.3-0.5,1.3-1.2
		c0-0.9,0.5-0.7,1-0.7c-0.1,0.9,0.4,1.5,0.9,1.2c0.5-0.2,0.8-0.7,1.2-1c0.2-0.1,0.4-0.2,0.6-0.2c0.2,1,0.8,0.3,1.1,0.2
		c0.4-0.1,0.8-0.5,1.2-0.5c1.7-0.1,2.5-0.5,2.7-2c0.1-0.3-0.5-1.1-0.7-1.1c-0.9,0.2-1.8,0.4-2.6,0.9C173.5,31.2,172.9,31.4,172,30.7
		z M322.6,93.2c0.2,0.6,0.3,1,0.4,1.3c0.1,0.6-0.1,1.1,0.1,1.7c0.3,1,0.7,2,1.1,3c0.5,1.5,0.9,3.1,1.6,4.5c0.3,0.7,0.5,1.7,1.7,1.7
		c0-0.3,0.1-0.5,0-0.6c-0.4-1.1-0.2-2.1-0.1-3.2c0.2-0.9,0.3-2-0.8-2.6c-0.4-0.2-0.9-0.3-1.5-0.5c0.1-0.4,0.2-0.8,0.3-1.2
		c-0.8-0.6-1.2-1.9-0.8-2.9C324,94,323.4,93.7,322.6,93.2z M309.1,208.9c-0.1,0-0.1,0-0.2-0.1c-0.2,0.8-0.4,1.7-0.6,2.6
		c0.5-0.2,1.4-0.3,1.4-0.5c0.3-1.5,1.6-2.1,2.5-3c0.4-0.4,0.7-0.8,0.3-1.4c-0.1-0.2-0.1-0.9,0.1-0.9c0.9-0.4,0.9-1,0.6-1.8
		c0.4,0.1,0.6,0.1,1,0.2c-0.3-0.6-0.4-1.4-1.1-0.9c-0.5,0.3-0.6,1-0.9,1.5c-0.7,1.1-0.8,2.7-2.2,3.3c-0.1,0,0,0.3-0.1,0.4
		C309.6,208.5,309.3,208.7,309.1,208.9z M318.1,81.6c-0.1,0-0.2,0.1-0.3,0.1c-0.2-0.3-0.3-0.5-0.5-0.8c-0.4-0.7-0.2-1.9-1.5-1.9
		c0,0-0.1-0.2-0.1-0.2c-0.1-0.6-0.1-0.6-0.7-0.3c-0.9,0.5-0.9,1.4-0.2,2c0.3,0.3,0.5,0.7,0.5,1.1c0.1,0.6,1,1.4,1.6,1.4
		C318.2,83.1,318.3,82.4,318.1,81.6z M101.9,178c1.7-1.6,1.7-1.8,0.8-3.7c0-0.1,0-0.2,0-0.3c-0.2-0.3-0.3-0.6-0.6-0.8
		c-0.8-0.7-1.1,0.4-1.8,0.5C100.8,175.2,101.3,176.6,101.9,178z M110.1,83c0.1-0.1,0.5-0.3,0.5-0.5c-0.1-0.9,0.6-1.2,1.1-1.6
		c0.3-0.2,0.5-0.4,0.8-0.6c-1-1-1-1-2.1-0.7c-0.8,0.2-1.3,0.6-1.2,1.6c0,0.2,0,0.4-0.1,0.6c-0.4,0.8-0.1,2,0.8,2.9
		C110,84,110,83.5,110.1,83z M161.4,37.4c1-0.1,1.8,0,2.2-0.9c0.1-0.1,0.4-0.1,0.5-0.3c0.2-0.4,0.4-0.9,0.3-1.2
		c-0.1-0.3-0.6-0.7-0.9-0.7c-0.5,0-1.1,0.2-1.5,0.6c-0.5,0.4-0.8,1-1.1,1.6C160.7,36.8,161.2,37.2,161.4,37.4z M317.4,84.2
		c0.7,1.3,1.4,2.4,2,3.6c0.3,0.6,0.7,0.6,1.2,0.3c0.6-0.3,0.8-0.7,0.6-1.3c-0.2-0.6-0.5-1.1-0.7-1.6C319.4,85,318.4,84.6,317.4,84.2
		z M313.2,202.2c1.7,1.2,2.8,0.4,3.9-0.6c-0.2-0.3-0.4-0.6-0.6-1c-0.3,0.1-0.6,0.2-0.8,0.3c-0.2-0.4-0.3-0.8-0.4-1.1
		c-0.1,0-0.2,0-0.3-0.1C314.4,200.5,313.8,201.3,313.2,202.2z M291.4,230.4c0.7,0.6,2.1,0.6,2.1,0.2c-0.1-1.1,0.8-0.6,1.3-1
		c-0.2-0.6-0.4-1.1-0.7-1.9C293.2,228.6,292.3,229.5,291.4,230.4z M311.1,213.8c0.4,0.4,0.7,0.8,1,1.1c0.7,0.6,1.2,0.4,1.6-0.5
		c0.2-0.5,0.5-1,0.8-1.4c0.5-0.6,0.4-0.9-0.3-1.2c-0.3,0.6-0.5,1.3-1,1.6C312.6,213.7,311.9,213.6,311.1,213.8z M224.6,261.5
		c0.2,0.5,0.3,1,0.6,1.2c0.2,0.1,0.8-0.2,1.1-0.5c0.1-0.1,0.1-0.6,0-0.9c-0.1-0.4-0.3-0.7-0.5-1.1c-0.1-0.2-0.2-0.4-0.3-0.5
		c-0.2,0-0.4,0.1-0.6,0.2c-0.4,0.4-0.7,0.8-1,1.2c-0.1,0.1-0.1,0.4-0.1,0.8C224.2,261.7,224.4,261.5,224.6,261.5z M160.5,255.3
		c0.2,0.6,0.3,1.1,0.6,1.8c0.3-0.4,0.5-0.7,0.7-0.9c0.5-0.4,1.1-0.6,1.8-1C162.5,254.1,161.9,254.2,160.5,255.3z M318.1,205.9
		c1,0.1,1.5,0.1,2.1,0.2c0.1-0.3,0.3-0.6,0.5-0.9c-0.4-0.4-0.9-0.8-1.6-1.4C318.7,204.5,318.4,205.2,318.1,205.9z M183.9,262
		c-0.2,0.3-0.4,0.6-0.5,0.7c0.8,0.4,1.5,0.8,2.3,1.1c0.5,0.2,1.2,0.2,1.7,0.3c0-0.2,0.1-0.3,0.1-0.5
		C186.3,263.1,185.1,262.6,183.9,262z M298.9,224.9c0-0.1-0.1-0.2-0.1-0.2c0.4-0.3,0.7-0.5,1.1-0.8c0.2-0.2,0.3-0.6,0.5-0.8
		c-0.3,0-0.6,0-0.8,0.1c-0.2,0-0.4,0.2-0.6,0.2c-0.9,0-1.2,0.6-1.6,1.4C298,224.9,298.5,224.9,298.9,224.9z M169,252.8
		c0.4,0,0.9,0,0.9,0.1c0.5,1.2,1.4,0.6,2.1,0.5C171.6,251.8,170.1,251.5,169,252.8z M336.7,126.3c1.7-0.2,1.8-0.3,1.5-1.8
		c-0.1-0.3,0.2-0.7,0.3-1c0.1-0.1,0.1-0.3,0.1-0.5c-0.1,0-0.1,0-0.2-0.1c-0.5,0.5-1,1.1-1.5,1.7
		C337.8,125.2,337.2,125.7,336.7,126.3z M100.8,165.5c-0.6,0.5-1,0.7-1.5,1.2c0.6,0.5,1,0.9,1.5,1.2c0.1,0,0.5-0.3,0.5-0.3
		C101.2,166.9,101,166.3,100.8,165.5z M320.2,89.8c0.2,0.3,0.4,0.7,0.6,1c0.2,0.3,0.6,0.7,0.6,1c-0.2,1,0.5,1.2,1.1,1.6
		c0-0.4,0-0.7-0.1-1c-0.3-0.6-0.7-1.1-0.8-1.6C321.3,90,321.2,89.5,320.2,89.8z M302.8,219.9c0,0.2,0,0.3,0,0.5
		c0.3,0.1,0.8,0.3,1,0.2c0.8-0.4,1.5-0.9,2.3-1.4c0-0.1-0.1-0.3-0.1-0.4C304.9,219.3,303.8,219.6,302.8,219.9z M113.7,199.2
		c-0.4-0.2-0.9-0.5-1.4-0.6c-0.3-0.1-0.6,0.1-0.9,0.1c0.1,0.4,0.1,0.8,0.3,1.1c0.1,0.2,0.6,0.3,0.8,0.2
		C112.9,199.8,113.3,199.5,113.7,199.2z M143.6,242.4c-1.1-0.1-1.8-0.2-2.6-0.3c0.4,1,1.1,1.4,1.9,1.4
		C143,243.5,143.2,242.9,143.6,242.4z M256.2,254.5c-0.2,0.7-0.5,1.2-0.6,1.8c0,0.1,0.8,0.5,0.9,0.4
		C257.4,255.9,257,255.3,256.2,254.5z M172.3,255.1c1.3,0.2,1.5-0.9,2.2-1.5c-0.7,0-1.3,0-1.9,0c0,0.3,0,0.5-0.1,0.7
		C172.5,254.5,172.4,254.8,172.3,255.1z M98.5,123.7c0.1-0.9-0.4-1.3-1-1.6c-0.2-0.1-0.7,0.3-0.7,0.4
		C96.8,123.6,97.6,123.5,98.5,123.7z M320.3,88.6c0.8,0.2,1.4,1.5,2.2,0.5c-0.3-0.4-0.5-0.7-0.8-1.2
		C321.3,88.1,320.8,88.4,320.3,88.6z M207,261c-0.1,0.1-0.2,0.2-0.3,0.3c0.4,0.4,0.8,0.9,1.3,1.3c0.1-0.1,0.2-0.1,0.2-0.2
		c0-0.4,0-0.8,0-1.2C207.8,261.1,207.4,261,207,261z M178.8,258c0.4-0.5,0.6-0.8,0.8-1.1c-0.6,0.4-1.3-1.2-1.7,0.1
		C177.8,257.2,178.4,257.6,178.8,258z M315.3,209.2c0.1,0.1,0.2,0.1,0.3,0.2c0.5-0.2,1-0.4,1.8-0.7c-0.5-0.2-1-0.6-1.2-0.5
		C315.8,208.4,315.6,208.9,315.3,209.2z M99.4,169.8c0.1,0.1,0.2,0.1,0.3,0.2c0.5-0.3,1-0.7,1.7-1.2c-0.5-0.1-1-0.4-1.1-0.3
		C99.9,168.9,99.7,169.4,99.4,169.8z M168.8,254.9c0.6-0.2,1.1-0.3,1.6-0.4c0.1,0,0.2-0.2,0.2-0.3c0-0.1-0.1-0.3-0.2-0.3
		c-0.5,0-1.1,0.1-1.6,0.1C168.8,254.3,168.8,254.6,168.8,254.9z M261.4,254.1c0-0.1-0.1-0.2-0.1-0.3c-0.4,0.3-0.9,0.5-1.2,0.9
		c-0.1,0.1,0.3,0.6,0.5,0.9C260.9,255,261.1,254.5,261.4,254.1z M99.4,164.6c-0.6,0.3-0.9,0.4-1.3,0.6c0.4,0.4,0.7,0.7,1.1,1.2
		C99.3,165.7,99.3,165.3,99.4,164.6z M237.2,265.1c0.2,0.4,0.3,0.8,0.6,0.8c0.2,0.1,0.6,0,0.9-0.1c0.1,0,0.1-0.3,0.2-0.4
		c-0.2,0-0.5-0.1-0.7-0.1C237.9,265.2,237.7,265.2,237.2,265.1z"/>
	<path d="M196.7,269c-0.5-0.5-1-0.8-1.2-1.2c-0.1-0.3,0-0.8,0.3-1.1c0.2-0.3,0.8-0.6,0.9,0.3c0,0.1,0.3,0.2,0.5,0.4
		c0.2,0.3,0.6,0.6,0.6,0.9C197.7,268.4,197.2,268.6,196.7,269z"/>
	<path d="M239.2,183.5c-0.4,0.1-1,0.2-1.6,0.3c-0.2,1.7-2.1,0.8-2.9,1.8c-0.6-0.3-1-1-1.7-0.1c-0.1,0.1-0.3,0.1-0.5,0.2
		c-1.2,0.4-2.5,0.9-3.8,1.3c-0.5,0.2-1.1,0.1-1.6,0.2c-0.3,0-0.5,0.1-0.8,0.1c-0.7,0.2-1.4,0.4-2.2,0.7c-0.7,1.2,0.8,1.8,1.1,2.9
		c0.1,0.3,0.3,0.6,0.2,0.9c-0.6,2.6-2.2,3.4-4.6,3.5c-1.1,0.1-2.1,0.1-3.1,0c-0.9-0.1-1.6-0.5-1.8-1.4c0-0.2-0.1-0.3-0.2-0.5
		c-0.9-0.9-1.9-1.9-2.9-2.8c-0.2-0.2-0.5-0.4-0.5-0.6c0.2-0.9-0.3-1.4-0.9-1.8c-0.5-0.4-1.2-0.6-1.7-1c-0.6-0.4-1.2-0.9-1.8-1.3
		c-0.7-0.5-0.7-1.4-1.4-1.8c-0.7-0.4-1.4-0.6-2.1-1c-1.2-0.6-2.4-1.1-3.5-1.8c-0.8-0.5-1.6-0.5-2.2,0.1c-0.3,0.3-0.1,1.1-0.1,1.6
		c0,1.1,0.1,2.1,0.2,3.2c0,0.4,0.2,0.9,0.5,1.2c0.7,0.7,1,1.4,0.9,2.3c0,0.2,0,0.4,0,0.5c0.7,0.8,1.5,1.6,2.2,2.5
		c0.4,0.5,0.6,1.2,0.9,1.8c0.2,0.4,0.3,0.8,0.3,1.1c-0.7,0.7-1.3,1.3-2,2c0.1,0.1,0.1,0.2,0.2,0.3c-0.4,0-0.8-0.2-1.2-0.1
		c-1.4,0.1-1.7,1.5-2.5,2.3c-0.9,1-1.4,2.4-2.7,2.8c-0.6,0.2-1.4-0.2-2.3-0.4c0.8-0.8,1.1-1.6,2.2-1.6c0.4,0,0.8-0.7,1.3-1.1
		c-0.3-0.6-0.5-1.1-0.7-1.7c-0.1,0-0.2-0.1-0.3-0.1c-0.4,0.9-0.8,1.7-1.3,2.6c-0.1-0.2-0.1-0.4-0.2-0.4c-0.3-0.2-0.8-0.2-0.8-0.4
		c-0.2-0.7-0.2-1.5-0.2-2.3c0-0.4-0.1-0.8-0.1-1.4c0.6-0.5,0.5-1.1-0.2-1.9c-0.4-0.4-0.3-1.3-0.4-2c0-0.3,0.1-0.6,0-0.9
		c-0.1-1.2-0.2-2.3-0.4-3.5c-0.2-0.9-0.6-1.8-0.7-2.6c-0.2-1-0.6-1.9-0.2-3c0.1-0.3-0.6-0.9-1-1.4c-0.1-0.8-0.2-1.7-0.3-2.6
		c-0.2-0.3-0.4-0.6-0.6-0.9c-0.2-0.4-0.4-0.9-0.6-1.3c-0.1-0.1-0.1-0.2-0.2-0.3c0.5-0.2,0.5-0.2,0-0.5c-0.1-0.1,0.1-0.7,0.1-1.2
		c-0.6-0.2-1.2-0.3-1.7-0.5c0.3-0.7,0.6-1.4,0.8-1.7c-0.4-0.9-1-1.5-1.1-2.3c-0.4-2.1-2-3.3-3.4-4.7c-0.1-0.1-0.3-0.2-0.4-0.3
		c0,0,0-0.1-0.1-0.3c0.3-0.3,1.5-0.4,0.4-1.2c0,0,0-0.1,0-0.1c-0.3-0.6,0.9-0.7,0.4-1.5c-0.1-0.2,0.5-0.9,0.9-1.5
		c0,0-0.1-0.2-0.1-0.2c1.3-1.5,2.6-2.8,3.9-4.3c-0.2,0-0.4-0.1-0.7-0.1c0.1-0.3,0.2-0.5,0.3-0.8c0.4,1.1,0.8,0.4,1.2,0.2
		c-0.4-0.6,1.4-0.7,0.4-1.5c0.3,0.1,0.6,0.2,1,0.4c0.1-0.6,0.1-1.2,0.3-1.7c0.2-0.3,0.6-0.6,1-0.8c0.4-0.1,0.8,0,1.5,0.1
		c-0.2,0.5-0.3,0.9-0.5,1.2c0.1,0.9,0.3,1.9,0.4,2.9c0.1,0.4,0,0.9,0.2,1.3c0.4,0.9,0.9,1.8,1.3,2.8c0.1,0.2-0.2,0.5-0.3,1
		c-0.5-0.9-0.8-1.6-1.2-2.4c-0.2,0.7-0.4,1.2-0.4,1.8c0,1.2-0.4,2.4,0.5,3.5c0.3,0.3,0.3,0.8,0.4,1.2c0.2,0.5,0.4,1,0.4,1.5
		c0,0.3-0.1,0.6-0.1,0.9c0.2,0.6,1.2,0.8,0.8,1.7c0,0.1,0.1,0.3,0.2,0.3c0.9,1,3.1,0.6,3.6-0.6c0.3,0.1,0.6,0.3,0.8,0.2
		c1.3-0.5,2.6-1.1,3.3-2.3c0.5-0.9,1-1.8,1.6-2.7c0.4-0.8,1.3-1.4,0.5-2.5c-0.1-0.1,0.3-0.7,0.5-1.1c-0.5-0.2-0.9-0.6-0.6-1.4
		c0.1-0.3-0.4-1.1-0.8-1.3c-1.1-0.6-1-1.3-0.3-2.4c1,0.2,2.2,0.2,3.2,0.6c1.7,0.7,3.4,1.5,3.9,3.6c0.1,0.5,0.6,0.8,0.9,1.3
		c0.6,1,0.8,2,0.2,3.2c-0.2,0.4-0.1,1.1-0.3,1.6c-0.3,0.9-0.7,1.7-1.1,2.5c-0.6,1-1.4,2-2.1,2.9c-0.4,0.5-0.8,1-1.4,1.2
		c-0.9,0.4-1.5,1-2,1.8c-0.3,0.4-0.7,0.7-1,1.1c-0.5,0.6-0.4,1.2,0.4,1.3c1.2,0.2,2.4,0.8,3.1,1.6c1,1.3,2.3,1.2,3.6,1.5
		c1.3,0.3,2.4,1.1,3.4,1.6c1,0.1,1.8,0,2.5,0.2c1.6,0.7,3.2,0.8,4.8,0c0.5-0.3,1.1-0.3,1.7-0.4c1.6-0.2,3-0.7,4.4-1.5
		c0.4-0.2,1-0.3,1.5-0.4c1-0.2,1.5-0.8,1.6-1.4c1-0.7,1.7-1.2,2.5-1.8c0.5-0.4,1-0.7,1.5-1.1c1.2-1.2,2.7-2.3,3.6-3.7
		c0.7-1.1,2.2-1.6,2.2-3.1c0-0.2,0.4-0.4,0.7-0.6c-0.1-0.2-0.3-0.5-0.4-0.8c0-0.1,0-0.1,0.1-0.2c0.6-0.4,0.6-1.1,0.8-1.8
		c0.4-1.6,0.1-3.1-0.3-4.6c-0.1-0.5-0.1-1-0.2-1.5c-0.3-1.3-0.6-2.7-1.1-3.9c-0.4-0.9-1.3-1.6-1.9-2.3c-0.3-0.4-0.6-0.8-1-1.2
		c-1.1-1.5-2.1-3.1-3.9-4c-1.5-0.8-3-1.7-4.5-2.7c-0.8-0.5-1.6-1.2-2.5-1.9c-0.5,0.7-1,1.3-1.5,1.9c-0.3,0.6-0.5,1.2-0.8,1.8
		c-0.3,0.6-0.6,1.2-0.9,1.7c-0.2,0.4-0.3,1-0.6,1c-1.3,0.2-1.5,1.3-2.2,2.1c-0.6,0.6-1.6,0.9-2.4,1.4c-0.5,0.3-1.1,0.7-1.6,1
		c-0.2,0.1-0.5,0.2-0.7,0.1c-1.2-0.7-2,0.4-3,0.4c-0.6,0-1.4,0.7-1.9-0.3c-0.1-0.1-0.6,0-1,0c-0.7,0-1.4,0.1-2,0
		c-0.7-0.1-1.4-0.3-2-0.6c-0.9-0.4-1.7-1-2.5-1.5c-0.3-0.2-0.6-0.7-0.9-0.7c-1.1,0.1-1.6-0.4-1.5-1.8c-0.3,0.4-0.4,0.6-0.5,0.8
		c-0.8-0.8-1.4-1.8-1.5-3c0-0.4,0.2-0.8,0.1-1.2c-0.1-0.3-0.5-0.5-0.7-0.7c-0.4-0.4-0.7-0.9-1-1.4c-0.2-0.3-0.3-0.6-0.5-1
		c0.2-0.2,0.4-0.4,0.6-0.6c-1-0.1-1.5-0.6-1.5-1.6c0-0.2-0.2-0.5-0.3-0.7c-0.2-0.5-0.4-0.9-0.7-1.5c-1.5,0.2-2.8-0.7-3.9-1.9
		c-0.1-0.1-0.2-0.2-0.2-0.2c-1.2,0.1-1.5-1.1-2.2-1.6c-0.6-0.4-1.3-0.7-1.9-1.1c-1.8-1.2-3.8-1.2-5.8-1.5c-1.7-0.2-3.5-0.6-5.2-1.4
		c-1.4-0.7-1.1-1.4-1.2-2.3c0-0.1,0-0.2,0-0.2c0.5-0.5,1.1-1.3,1.5-1.3c1.4,0.1,2.3-0.9,3.2-1.4c-0.2-0.9-0.6-1.7-0.6-2.5
		c0-1.3-0.5-2.4-1.2-3.5c-0.4-0.7-0.6-1.7-0.9-2.5c-0.1-0.4-0.4-0.7-0.5-1c-0.2-0.9-0.4-1.8-0.6-2.6c-0.1-0.4-0.2-0.8-0.3-1.2
		c-0.4-0.9-0.8-1.8-1.3-2.7c-1.9-3.1-2-3.1-4.2-4.9c-0.2-0.4-0.4-0.9-0.6-1.4c0.1,0,0.3-0.2,0.5-0.3c-0.3-1,0.6-1.5,1-1.5
		c1.7,0,3.2-1.3,5-0.6c0.5,0.2,1,0.3,1.4,0.5c1-1.9,2-3.7,2.9-5.5c0.2,0,0.5,0,0.9,0c-0.4-0.8,0-1.6,1-2.2c1.4-0.9,2.7-1.7,4.1-2.6
		c0.9-0.5,1.7-0.8,2.8-0.9c1-0.1,1.9-0.4,2.9,0.1c0.5-1,3-1.8,3.6-1.5c0.6-0.3,1-0.5,1.4-0.6c1.7-0.3,3.4-0.6,5.2-0.7
		c1.2-0.1,2.4-0.7,3.6,0c0.3,0.2,0.9,0,1.4,0.1c0.7,0.1,1.5,0,2,0.8c0.4,0.5,1.3,0.6,1.9,1c0.3,0.2,0.4,0.5,0.6,0.8
		c0.8-0.5,1.8-1,2.7-1.7c0.4-0.3,0.5-0.8,0.8-1.2c0.1-0.2,0.3-0.5,0.4-0.7c0.3-0.5,1.2-0.7,0.8-1.6c0.4-0.2,0.7-0.3,1.1-0.5
		c0,0-0.1-0.1-0.1-0.1c0.3-0.2,0.8-0.4,1-0.7c0.7-1,1.8-1,2.8-1.3c1.2-0.4,2.5-0.6,3.7-0.9c0,0.1-0.1,0.5,0,0.5
		c0.3,0.1,0.7,0.2,0.8,0.1c0.8-0.7,1.3-0.6,1.9,0.2c0.3,0.4,1.1,0.5,1.6,0.9c0.3,0.2,0.5,0.6,0.7,0.9c0.2,0.2,0.4,0.5,0.5,0.7
		c0.2,0.5,0.2,1.1,0.3,1.6c-0.4,0-0.8,0.1-1.2,0.1c-0.9-0.1-1.8-0.4-2.6-0.5c-0.8-0.1-1.1,0.3-1.2,1c-0.2,1.4-0.6,1.7-2,1.8
		c-0.6,0-1.1,0.3-1.7,0.5c-0.7,2.3-0.1,4.4,0.9,6.4c0.8,1.8,1.9,3.5,1.8,5.7c0,0.7,0.8,1.4,1.1,2.2c0.2,0.7,0.2,1.4,0.5,2.1
		c0.3,0.7,0.7,1.4,1.1,2.1c0.2,0.3,0.4,0.5,0.6,0.8c0.9,1.1,2,1.2,3.7,0.4c1.8-0.8,3.6-1.6,5.4-2.4c0.3-0.2,0.5-0.8,0.5-1.3
		c0.1-1.8,0.5-3.6,0.1-5.5c-0.2-0.9,0.2-2,0.3-3c-0.9-0.5-0.5-4.9,0.7-6.2c0.3,0.7,0.7,1.4,1,2.1c0.3,0.5,0.5,1.1,0.8,1.6
		c0.8,1.7,1.1,3.6,2.4,5.2c0.5,0.6,0.5,1.6,0.8,2.5c0.3,0.9,0.8,1.8,1.1,2.8c0.2,0.6,0.1,1.3,0.2,1.9c0.1,0.9-0.1,1.9,0.7,2.6
		c0.5,0.5,0.6,1-0.1,1.5c-0.1,0.1,0,0.5,0,1c-0.5,0.2-1.1,1.2-2.2,0.5c-0.1-0.1-0.5,0.2-0.8,0.3c-2.4,1-5.1,1.4-7.6,2.2
		c-0.7,0.2-1.3,0.7-2,1c-2.1,0.9-4.3,1.8-6.4,2.7c-1.2,0.5-2.5,0.9-3.7,1.3c-0.9,0.3-1.2,1.2-0.6,2c0.7,1.1,1.5,2.1,1.5,3.5
		c0,0.3,0,0.6,0,0.8c1,0.6,2,1.3,3,1.8c0.6,0.3,1.3,0.5,1.9,0.8c1.3,0.4,2.8,0.6,3.8,1.4c1.2,1,2.7,1.5,3.9,2.4
		c1,0.7,1.8,1.8,2.7,2.5c0.8,0.7,1.8,1.1,2.6,1.7c0.3,0.2,0.4,0.7,0.5,1.1c0.5,0,1.1-0.1,1.2,0.9c0,0.2,0.3,0.4,0.5,0.5
		c1.4,0.6,2.2,1.6,2.4,3.2c0,0.3,0.5,0.6,0.9,0.8c0.9,0.5,1,1,0.6,2.1c0.3-0.2,0.7-0.3,1.2-0.6c0.4,1.1,1.9,1.6,1.6,3.2
		c0,0.2,0,0.5,0.1,0.6c1.1,0.6,0.8,1.9,1.5,2.7c0.2,0.2,0,0.7,0.1,1.1c0.2,1.8,0.4,3.5,0.8,5.2c0.1,0.6,0.9,1,1.3,1.5
		c-1,0-1.1,0.3-1.1,1.4c0,0.7-0.2,1.4-0.4,2c-0.5,1.3-0.8,2.6-0.9,4c0,1-0.5,2-0.8,3c-0.1,0.5-0.1,1-0.3,1.5
		c-0.6,1.6-1.2,3.3-2.5,4.5c-0.3,0.3-0.2,1.1-0.5,1.5c-0.9,1.1-1.9,2.2-2.8,3.2c-0.2,0.2-0.4,0.4-0.5,0.7c-0.3,0.8-0.4,1.8-0.9,2.3
		c-0.5,0.4-1.5,0.3-2.3,0.4c-0.3,0-0.8,0-0.9,0.2C239.2,182.5,239.2,182.9,239.2,183.5z M203.1,111.4c0.1,0,0.1,0,0.2,0
		c0.1,0.3,0.2,0.7,0.4,0.9c0.2,0.3,0.5,0.6,0.8,0.7c0.9,0.2,1.9,0.5,2.7-0.5c0.1-0.1,0.5-0.1,0.7,0c1.5,0.3,3,0.6,4.5,0.9
		c0.5,0.1,1.2,0.3,1.3,0.6c0.2,0.6,0.6,0.6,1,0.7c0.6,0.2,1.2,0.2,1.8,0.3c0.8,0.2,1.3-0.2,1.6-0.9c0.6-1.2,1.3-2.4,1.9-3.6
		c-0.1-0.3-0.3-0.5-0.4-0.8c-0.2-0.9-0.3-1.9-0.6-2.8c-0.3-1-0.9-1.9-1.3-2.9c-0.4-1-0.7-2.1-1.2-3c-0.4-0.8-1.4-1.2-1.4-2.4
		c0-0.2-0.8-0.4-1.2-0.7c-0.1,0.4-0.1,0.7-0.2,1.1c0,0.1-0.1,0.2-0.1,0.3c-1,0.2-1.1-0.8-1.4-1.1c0.5-0.1,1-0.3,1.6-0.4
		c-1.1-1-2-1.9-3-2.7c-0.3-0.3-0.8-0.5-1.2-0.6c-0.8-0.3-1.8-0.3-2.4-0.8c-1.3-1.1-2.8-1.1-4.3-1.1c-1.4,0-2.8,0.1-4.2,0.2
		c-0.5,0-1,0.2-1.5,0.3c-0.9,0.2-1.8,0.5-2.6,0.7c-0.5,0.2-1.1,0.3-1.6,0.5c-0.8,0.3-1.4,1-2,1.2c-1.7,0.6-2.4,2.1-3.5,3.2
		c-0.3,0-0.5-0.1-0.5-0.1c-0.5,1-0.9,1.9-1.3,2.9c0,0-0.3,0.1-0.5,0.2c0.2,0.3,0.4,0.6,0.4,0.8c-0.2,0.7-0.6,1.4-0.9,2.1
		c-0.5,1.3-1.2,2.5-0.6,4c0.4,1,0.6,2.1,0.9,3.2c0,0.2,0.2,0.3,0.2,0.4c0.2,1.4,2.1,1.5,2.3,3.1c0.1,0.9,1.2,1.7,1.9,2.6
		c0.8,1,1.7,2,2.5,2.9c0.1,0.1,0.5,0.2,0.5,0.2c0.9-0.7,2.4-0.1,3.1-1.4c0.3-0.7,1.1-1.1,1.5-1.8c0.5-1.1,1.2-1.9,2.2-2.5
		c0.9-0.5,1.7-1,2.6-1.6c0.2-0.1,0.3-0.6,0.5-0.6c1.4,0,0.9-0.8,0.6-1.5C203.1,111.7,203.1,111.5,203.1,111.4z M240.6,175.2
		c0.9-0.2,1.5-0.3,2.1-0.4c1.9-0.2,2.3-0.9,2.8-2.6c0.2-0.6,0.5-1.2,0.8-1.7c0.2-0.4,0.6-0.8,0.6-1.2c-0.1-1.4,0.9-2.2,1.6-3.1
		c0.8-1.2,0.9-2.4,0.9-3.6c0-1.3,0-2.5,0.3-3.7c0.2-0.7,0.3-1.5,0.1-2.3c-0.2-0.7,0.4-1.3,0-2.2c-0.7-1.4-0.7-3.2-1-4.8
		c-0.1-0.4-0.3-0.7-0.4-1c-0.3-0.9-1.2-1.5-1-2.6c0.1-0.5,0.3-0.9,0.5-1.5c-1.4,0.2-2.1-0.5-2.6-1.5c-0.3-0.5-0.4-1.2-1.2-1.4
		c-0.3-0.1-0.6-0.6-0.7-0.9c-0.6-1.3-1.6-2.4-2.8-2.9c-0.8-0.4-1.4-0.7-1.8-1.4c-0.1-0.1-0.1-0.3-0.2-0.3c-1.7-0.9-2.8-2.7-4.8-3.3
		c-0.6-0.2-1.1-0.8-1.7-1.1c-0.9-0.4-1.9-0.6-2.8-1c-1.1-0.5-2-1.4-3.4-1.1c-0.1,0-0.3-0.1-0.4-0.2c-0.5-0.3-0.9-0.7-1.7-0.8
		c-2.1-0.2-4.1-0.9-6.2-1.4c-0.6-0.1-1.3,0-1.9-0.1c-1.6-0.4-3.1-0.8-4.7-0.3c-0.9,0.3-1.9,0.2-2.8,0.3c0,0-0.1-0.1-0.1-0.1
		c0.1-0.1,0.2-0.1,0.3-0.2c-0.5,0-1.2,0.4-1.5,0.2c-1.4-0.8-2.6,0.2-3.9,0.2c-0.3,0-0.6,0.7-0.8,1.1c-0.1,0.3,0,0.8,0,1.1
		c0.2,0.6,0.4,1.2,0.5,1.8c0.1,0.6-0.3,1.5,0,1.9c0.6,0.9,0.6,2.4,2.2,2.3c-0.1,0.4-0.2,0.7-0.3,1c0.9,0.1,1.7,0.3,2.5,0.4
		c1.4,0.2,2.8,0.3,4.1,0.4c0.6,0.1,1.3,0.2,1.9,0.1c0.6,0,1.3-0.4,1.9-0.3c2,0.3,4,0.7,6,1.1c0.9,0.2,1.7,0.4,2.6,0.7
		c2.2,0.7,4.5,1.2,6.6,2.5c1.2,0.7,2.1,1.9,3.6,2.2c1.3,0.3,1.7,2,3.2,2.2c0.1,0,0.1,0.2,0.2,0.3c0.6,0.8,1.2,1.6,1.9,2.2
		c0.7,0.7,1.7,1,2.2,1.8c0.8,1.2,1.3,2.5,1.9,3.8c0.2,0.3,0.3,0.7,0.4,1c0.1,0.6,0.2,1.3,0.3,1.9c0.2,1.1,0.8,2.3,0.5,3.2
		c-0.8,2,0.1,4-0.6,5.9c-0.4,1.1-0.4,2.4-1,3.3c-0.7,1-1.5,1.9-2,3.1c-0.2,0.4-1.1,0.6-1.1,1c-0.1,1.6-1.4,2.1-2.4,2.8
		c-0.7,0.5-1.3,1.1-2,1.5c-1.2,0.7-2.6,1.1-3.4,2.3c-0.2,0.3-0.8,0.5-1.2,0.7c-0.3,0.1-0.8-0.2-0.9,0c-1.4,1.2-3.1,1.6-4.7,2.4
		c-0.2,0.1-0.3,0.3-0.3,0.5c-0.1,0.3-0.1,0.6-0.1,1.2c1.3-0.1,2.6-0.1,3.9-0.2c0.1,0,0.3-0.2,0.4-0.3c0.4-1.1,1-1,1.8-0.4
		c0.2-0.3,0.4-0.6,0.5-0.7c0.6-0.2,1-0.3,1.4-0.3c1.5-0.3,2.1-1.9,3.6-2.3c1.2-0.3,2.1-1.5,3.3-2.1c1.1-0.5,1.7-1.3,2.3-2.1
		C241.4,175.9,241.1,175.7,240.6,175.2z M191.1,127.2c1-0.3,1.3-0.7,1-1.5c-0.1-0.1,0-0.4,0.1-0.5c0.6-0.6,0.3-0.9-0.3-1.1
		c-0.6-0.2-1.3-0.3-1.7-0.8c-0.9-1-1.8-1.8-3-2.5c-0.4-0.2-0.7-0.7-1.1-1.1c-0.7-0.7-0.8-2-1.9-2.5c-0.1,0-0.1-0.3-0.2-0.5
		c-0.1-0.3-0.1-0.5-0.3-0.8c-0.1-0.2-0.3-0.4-0.5-0.7c-0.3,0-0.6,0-1,0c-0.2-2-0.2-2-1.7-2.2c0.2-0.8,0.4-1.5,0.7-2.2
		c-0.3-0.1-0.6-0.3-0.8-0.4c0.1-0.6,0.2-1.1,0.3-1.6c-0.5,0.2-1.1,0.4-1.7,0.6c0.3,0.3,0.6,0.6,1,1c-0.3,0-0.6,0-0.8,0
		c-0.4,0.1-0.7,0.2-1.1,0.3c0.1,0.3,0.3,0.6,0.4,0.9c0.1,0.1,0.1,0.3,0.1,0.4c-0.3,0.7,0.1,1,0.6,1.3c0.3,0.2,0.6,0.6,0.6,1
		c0.1,0.5-0.1,1-0.1,1.6c0.1,0.8,0.2,1.7,0.3,2.6c0.4,0,0.6,0.4,0.7,1.1c0,0.7,0.4,1.4,0.7,2c0.1,0.4,0.4,0.7,0.5,1.1
		c0.2,0.6,0.2,1.4,0.6,1.9c0.7,0.8,1.1,1.7,0.8,2.7c1.4,0.3,1.4,0.3,2.2,1.5c0.1,0.2,0.6,0.4,0.7,0.3c0.5-0.4,1.1-0.2,1.3,0
		c0.8,0.8,1.5,1.7,2.3,2.5c0.2,0.2,0.4,0.3,0.6,0.5c0.3,0.2,0.6,0.4,0.8,0.6c0.6,0.7,1.3,0.4,1.9,0.2c0.3-0.1,0.7-0.9,0.6-1.2
		c-0.2-0.5-0.8-0.9-1.2-1.5c0.1-0.1,0.3-0.4,0.5-0.6c-0.1,0-0.2,0-0.3,0c0-0.7,0-1.4,0-2.2C192.2,127.4,191.8,127.3,191.1,127.2z
		 M199.8,192.2c-0.4-0.2-0.9-0.3-1-0.5c-0.2-0.7-0.2-1.5-0.5-2.1c-0.4-1.2-0.9-2.3-1.5-3.4c-0.2-0.3-0.7-0.3-1-0.6
		c-0.2-0.2-0.2-0.7-0.1-0.8c0.9-0.7,0.2-1.1-0.3-1.5c0.4-0.7-0.2-3.2-0.5-3.9c-0.4-0.9-0.5-1.9-0.7-2.8c0-0.1,0.3-0.3,0.3-0.3
		c-0.1-0.6-0.2-1.1-0.3-1.5c-0.2-0.1-0.6-0.1-0.8-0.3c-0.6-1-1.2-2-1.7-3c0-0.1-0.1-0.2,0-0.3c0.4-0.7,0.5-1.2-0.3-1.7
		c-0.1-0.1-0.1-0.3-0.1-0.4c-0.3,0.1-0.5,0.2-0.8,0.3c0.2-0.3,0.4-0.6,0.4-0.8c-0.2-1.1,0.7-2.4-0.5-3.4c-0.1-0.1,0.1-0.4,0-0.6
		c-0.1-0.7,0-1.5-0.3-1.9c-0.5-0.6-0.5-1.1-0.3-1.8c0.1-0.4,0.1-1-0.1-1.2c-0.4-0.2-1.2-0.5-1.5-0.3c-0.8,0.6-1.6,1.3-2.2,2.2
		c-0.4,0.6-0.5,1.4,0,2c0.1,0.1,0.7-0.3,1.1-0.4c0,0,0.1,0,0.3,0.1c-1.1,1.3-0.1,2.4,0.4,3.5c0.6,1.1,1,2.3,2.2,3.3
		c0.1,0.8-0.2,1.8,0.4,2.8c0.3,0.4,0.4,1,0.6,1.5c0.3,0.9,0.4,1.9,0.9,2.6c0.4,0.6,0.4,1.1,0.5,1.8c0.2,1.3,0.5,2.6,0.7,4
		c0.2,1.9,1.8,3.5,1.2,5.6c0,0.1,0.2,0.3,0.2,0.5c0.4,1.5,1.6,2.8,1,4.5c-0.1,0.2,0,0.5,0.1,0.7c0.7,1,0.6,2,0.2,3
		c-0.4,1,0.7,1.1,0.8,1.8c0.6-0.2,1.3-0.2,1.6-0.6c0.6-0.7,1.1-1.5,1.1-2.5c0-0.4,0.1-0.8,0.1-1.2c0.3-0.1,0.6-0.2,0.9-0.3
		c0-0.1,0-0.2,0-0.3c-0.3-0.1-0.6-0.3-1-0.4C199.5,193,199.7,192.6,199.8,192.2z M223.5,193.1c-0.3-0.6-0.4-1.1-0.7-1.4
		c-0.5-0.5-0.9-1.1-1.6-1.6c-1.3-0.8-2.4-1.9-3.7-2.8c-1-0.7-2-1.3-3-2c-0.4-0.3-0.7-0.7-1.1-1.1c-0.5,0-0.8-0.3-0.7-1.1
		c-1,0.6-1.7,0-2.3-0.5c-0.8-0.7-1.5-0.5-2.3-0.4c0.3,0.5,0.5,0.9,0.7,1.2c0.2,0.4,0.4,0.9,0.7,1.2c0.5,0.5,1.2,0.8,1.8,1.2
		c0.7,0.5,1.4,1.1,2,1.7c0.6,0.5,1,1.2,1.5,1.7c-0.1,0-0.3,0.1-0.3,0.1c0.4,0.3,1,0.5,1.3,0.8c0.8,0.9,1.5,1.9,2.3,2.7
		c0.3,0.4,0.9,0.6,1.4,0.6C220.8,193.4,222,193.2,223.5,193.1z M215.2,141.4c-0.7-1-1.7-1.2-2.8-1.1c-1,0.1-2.2,0.5-2.9-0.4
		c-0.7-0.8-1.2-0.4-1.8-0.3c0.2,1,0.3,1.9,0.4,2.4c0.4,0.6,0.6,1,0.8,1.4c0.1,0.2,0.3,0.6,0.5,0.6c1.1,0.2,2.1,0.5,3.2,0.6
		c0.6,0,1.2-0.2,1.7-0.4c0.2-0.3,0.3-0.7,0.5-0.7c1.1,0.1,1.4-1,2.4-1.6c-1.4-0.1-0.6-0.6-0.5-1.1
		C216.2,141.2,215.7,141.3,215.2,141.4z M239.5,109.7c0.6-0.4,1-0.8,1.5-1c1.1-0.5,1.9-2.3,1.3-3.3c-0.5-0.7-0.4-1.3-0.4-2
		c0-0.3,0-0.5-0.1-0.8c-0.3-0.8-1-0.8-1.6-0.4c-0.5,0.3-0.5,0.6-0.2,1.2c0.3,0.9,0.3,2,0.4,3c0,0.1-0.1,0.3-0.2,0.3
		c-0.6,0.4-1.3,0.7-1.9,1c-0.4,0.2-0.9,0.4-1.3,0.6c-1.1,0.5-2.2,1.1-3.4,1.5c-0.7,0.3-1.5,0.5-1.9,1.4c0.7,0,1.2,0,1.8,0
		c1,0.4,4.4-0.9,5.5-2.3C239.1,109.2,239.3,109.4,239.5,109.7z M205.4,121.1c-0.2,1,1,1.9-0.1,2.9c1.5,0.1,3.1,0.2,4.6,0.2
		c0-0.1,0-0.2,0-0.3c-0.2-0.2-0.5-0.4-0.8-0.7c0.5-0.6,1-1.1,1.6-1.7c-0.8-0.4-1.8-1.3-2.4-1.1c-0.8,0.2-1.7-0.1-2.5,0.4
		c0.1,0.2,0.1,0.3,0.2,0.6C205.8,121.3,205.6,121.2,205.4,121.1z M221.6,114.2c0.3,0.1,0.7,0.4,0.7,0.4c0.7-0.8,1.8-0.1,2.6-0.5
		c0.3-0.2,0.9,0.1,1.3,0c0.6-0.1,1.3-0.2,1.8-0.6c0.3-0.2,0.3-0.9,0.4-1.4c0,0-0.1-0.1-0.2-0.1c-0.3,0.1-0.5,0.2-0.8,0.2
		c-0.8,0.2-1.5-0.2-1.6-0.8c-0.1-0.7-0.4-1.3-0.7-1.9c0-0.1-0.4,0-0.4,0c-0.2,0.7-1.3,1.3-0.5,2.2c-0.5,0.3-1.2,0.6-1.3,1
		c-0.2,1.3-0.6,0.4-1,0.2C221.9,113.3,221.8,113.7,221.6,114.2z M205.8,147.4c0.7,1.2,2.3,1.2,2.3,2.7c0,0.1,0.4,0.1,0.5,0.2
		c0.5,0.3,1.1,0.7,1.7,1.1c0.3-0.3,1.1-0.6,0.9-1.5c0.3-0.1,0.6-0.3,0.9-0.4c0-0.1-0.1-0.3-0.1-0.4c-0.9,0.1-1.8,0.1-2.6,0.2
		c0-1.8-0.4-1.9-2-1c-0.1-0.4-0.1-0.7-0.2-1.1C206.8,147.3,206.4,147.4,205.8,147.4z M220.8,104.3c0.8,1.1,1.5,2.3,3.3,2.7
		c-0.4-1-0.5-1.9-1-2.6C222.7,103.8,221.4,103.8,220.8,104.3z M202,145.3c0.6,0,1.4,0,2.1,0c0-0.1,0-0.1,0.1-0.2
		c-0.4-0.2-0.9-0.4-1.2-0.5c0.3-0.5,0.5-0.9,0.8-1.3c-0.4,0-0.7,0.1-1,0.1c0-0.8-0.6-0.4-0.9-0.5c-0.4-0.1-0.8-0.1-1.3-0.2
		c-0.1,0.2-0.1,0.5-0.3,0.9c0.5-0.1,0.9-0.2,1.3-0.2c0,0.3-0.1,0.6-0.1,0.8c0.3,0,0.6,0.1,0.9,0.1c0,0.1,0,0.1,0,0.2
		c-0.3,0.1-0.5,0.1-0.8,0.2C201.8,144.9,201.9,145.1,202,145.3z M220.2,100.7c0,0.9,0,1.5,0,2.2c0.2,0,0.4,0,0.6,0.1
		c0.3,0.1,0.5,0.3,1,0.7c0.1-1,0.4-1.8,0.1-2.3C221.8,100.8,220.8,100.9,220.2,100.7z M196.9,130.9c0,0.2-0.1,0.5,0,0.7
		c0.1,0.4,0.3,0.8,0.5,1.1c0,0.1,0.6-0.1,0.6-0.1c0.1-0.4,0-0.9,0-1.4c0,0,0.2-0.1,0.4-0.1c0-0.1,0-0.2,0-0.2
		C197.7,130.8,197.2,130.8,196.9,130.9z M196.4,133.2c0,0.1,0,0.2,0,0.3c0.3,0.3,0.6,0.6,0.9,0.9c0.5-0.3,1.1-0.6,1.6-0.9
		C198,132.1,197.2,133.8,196.4,133.2z M196.5,126.1c0.9,0.2,1.7,0.6,2.5,0.3c0-0.1,0-0.2,0-0.4c-0.4,0-0.7,0-1.1,0
		c0.2-0.3,0.3-0.5,0.4-0.7c0-0.1-0.1-0.1-0.1-0.2C197.6,125.6,197.1,125.9,196.5,126.1z M222.5,108.2c0.5,0.3,0.9,0.7,1.4,1
		c0.1-0.2,0.4-0.6,0.4-0.7C224,107.9,223.5,107.5,222.5,108.2z M219,97.5c0.2-0.1,0.6-0.3,0.6-0.5c0-0.6,0.1-1.4-1-2
		C218.8,96,218.9,96.7,219,97.5z M199.2,136.3c0.3-0.2,0.7-0.3,0.7-0.4c0.1-0.6,0-1.2-0.1-2c-0.5,0.4-0.7,0.6-0.8,0.7
		C199.1,135.2,199.2,135.7,199.2,136.3z"/>
	<path d="M254.9,220.4c-0.7-0.2-1.3-0.5-1.9-0.7c-0.2-1.4-0.2-1.4-1.5-1.8c0.1-1.3-0.9-2-1.5-2.8c-0.3-0.5-0.9-0.9-1.1-1.4
		c-0.4-1.2-0.4-1.2-1-1.7c0.5-0.4,1.1-1-0.6-1c0.1-0.1,0.3-0.2,0.4-0.3c0.8-0.1,1.7-0.2,2.6-0.4c-0.3-0.2-0.4-0.4-0.5-0.4
		c1-0.6,2-1.3,3-1.9c1-0.7,2-1.5,3.1-1.9c1.5-0.4,2.4-1.8,4-2c1.4-0.2,2.5,0.1,3.7,0.7c1,0.6,2.1,1.1,2.5,2.3c0.1,0.2,0,0.4,0,0.6
		c0,0.3,0,0.5,0,0.8c0.2,1,0.4,2,0.6,2.9c0.1,0.2,0.2,0.6,0.4,0.6c0.6,0.1,1.3,0.1,1.9,0.2c1.2,0.2,2.1,0.9,2.7,2
		c0.4,0.6,0.7,1.2,1.2,1.8c0.9,1.3,0.7,4.5-0.3,5.6c-0.4,0.4-0.5,1.1-1,1.4c-1,0.8-2.2,1.4-3.2,2.2c-1.3,1-2.4,2.2-3.8,2.9
		c-1,0.5-2.1,1.4-3.5,1.1c-0.2-0.1-0.6,0.1-0.8,0c-0.4-0.2-1.2-0.6-1.1-0.7c0.3-0.9-0.5-1.2-0.9-1.6c-1-1.2-2-2.3-2.4-3.9
		c-0.1-0.2-0.2-0.4-0.4-0.6C254.6,222.1,254.3,221.4,254.9,220.4z M261.5,225.7c0.3-0.8,0.7-1.3,1.6-1.2c0.3,0,0.9-0.3,1-0.6
		c0.3-0.7,0.6-0.6,1.1-0.4c0.3-0.4,0.6-0.9,1-1c0.9-0.1,1.5-0.5,1.5-1.4c0.4,0.1,0.6,0.2,0.8,0.2c0.1-0.6,0-1,0.2-1.4
		c0.4-0.9,0.3-1.7,0-2.6c-0.5-1.5-2.4-2.3-3.9-1.7c-1.1,0.5-2.2,0.9-3.2,1.5c-0.7,0.4-1.3,0.9-2.1,1.5c-1-0.5-1.2,0.6-1.5,1.2
		c-0.4,0.7,0.6,2.1,1.8,2.8C259.6,223.3,260.1,224.3,261.5,225.7z M252.8,212.9c0.8,1.1,1.4,2.1,2.1,3c0.1,0.2,0.6,0.3,0.7,0.2
		c1-0.5,2.1-0.9,3-1.5c1.3-0.8,2.4-1.8,3.6-2.6c1.2-0.8,1.5-1.3,0.8-2.5c-0.6-1.1-1.8-1.5-2.7-0.9c-0.7,0.4-1.4,0.8-2.1,1.3
		c-0.5,0.3-1,0.8-1.5,1.1c0,0,0.1,0.1,0.1,0.1C255.6,211.6,254.3,212.2,252.8,212.9z"/>
	<path d="M276,210.9c0.2-0.4,0.3-0.7,0.5-1.1c-1-1-2.1-2.2-3.1-3.2c-0.3-0.3-0.8-0.5-1.2-0.9c-0.6-0.5-1.1-1.1-1.7-1.6
		c-1.4-1.4-2.8-2.8-4.2-4.2c-0.1-0.1-0.3-0.5-0.3-0.5c0.7-0.6,0.8-1.4,1.3-2.1c0.3-0.4,0.9-0.7,1.3-1.1c0.5-0.6,0.8-1.3,1.2-1.9
		c-0.1-0.1-0.2-0.2-0.2-0.3c-0.8,0-1.7,0-2.5-0.2c-0.3-0.1-0.6-0.4-0.8-0.6c-0.3-0.4-0.6-0.9-0.6-1.4c0-0.2,0.4-0.7,0.7-0.8
		c0.7-0.2,1.5-0.3,2-0.4c0.4-0.9,0.7-1.7,1.1-2.3c0.2-0.2,0.8-0.5,1-0.3c0.4,0.3,0.8,0.8,0.9,1.3c0.2,1,0.3,1.9,0.5,3.3
		c1-0.7,1.8-1.2,2.4-1.8c0.7-0.7,1.1-1.5,1.7-2.2c0.4-0.6,0.9-0.7,1.5-0.2c0.5,0.4,1.1,0.8,1.4,1.3c0.2,0.3,0.1,1.1-0.1,1.3
		c-1.3,1.4-2.8,2.8-4.1,4.2c-0.6,0.6-1.2,1.3-1.9,2c-0.4,0.3-0.8,0.6-1.2,0.9c-1.1,0.9-1.1,1.5,0,2.4c0.6,0.5,1.3,0.9,1.9,1.4
		c0.5,0.3,1.3-0.1,1.7-0.8c0.1-0.2,0.3-0.4,0.5-0.6c0.2-0.2,0.5-0.3,0.5-0.5c0.1-1.3,1.4-1.2,2.1-1.8c0.2-0.2,0.3-0.4,0.5-0.5
		c0.9-0.6,1.8-1.3,2.8-1.9c0.4-0.3,1.8,0.5,2,1c0.3,0.7-0.2,1.1-0.7,1.5c-1,0.9-1.8,1.9-2.7,2.8c-0.3,0.3-0.6,0.5-0.9,0.8
		c-0.6,0.6-1.2,1.3-1.8,2c-0.5,0.6-0.1,1.6,0.6,1.9c0.7,0.4,1.3,0.8,1.9,1.3c0.6,0.6,1,1.3,1.6,1.8c0.2,0.2,0.6,0.2,0.8,0.1
		c0.5-0.3,0.8-0.7,1.2-1c0.5-0.4,1-0.9,1.6-1.3c0.1-0.1,0.3-0.1,0.3-0.2c0.3-1.5,1.6-2.3,2.4-3.4c0.4-0.6,0.7-1.3,1.7-1.4
		c0.4,0,0.6-0.8,1-1.2c0.6-0.5,1.2-1,1.8,0c0.1,0.2,0.5,0.3,0.9,0.4c-0.2,0.5-0.3,1,0.9,0.9c-0.7,0.8-1.2,1.4-1.7,2
		c-0.8,0.9-1.5,1.8-2.3,2.6c-0.3,0.3-0.7,0.4-1,0.7c-1,1.2-2,2.4-3.1,3.6c-0.8,0.9-1.6,1.8-2.5,2.7c0,0-0.1,0-0.1,0.1
		c-0.7,1.9-1.7,0.8-2.5,0.2c-1.2-0.9-2.3-1.8-3.4-2.9c-0.6-0.6-0.9-0.4-1.3,0.1C276.2,211,276.1,211,276,210.9z"/>
	<path d="M216.4,231.2c-0.7-1.2,0.7-2.1,1-3.3c0-0.1,0.1-0.2,0.2-0.4c0.2-0.8,0.4-1.7,0.7-2.5c0.2-0.4,0.5-0.8,0.7-1.2
		c0.2-0.4,0.3-0.9,0.2-1.2c-0.3-1-0.3-1.8,0.2-2.7c0.5-1,0.9-2.2,0.9-3.3c0-0.7-0.2-1.3,0.2-1.9c0.5-0.7,0.8-1.7,1.4-2.2
		c0.6-0.5,1.5-0.7,2.3-0.9c0.3-0.1,0.9,0.1,1,0.3c0.2,0.5,0.5,1.1-0.2,1.6c-0.2,0.2-0.4,0.4-0.7,0.6c1.1,0.3,1.5,1.3,1.1,2.3
		c-0.2,0.4-0.3,0.8-0.5,1.1c-0.6,1,0.4,1.5,0.7,2.2c0.2,0.5,0.6,0.9,0.9,1.3c1.1,1.3,0.7,3.5,2.4,4.1c0.4,0.8,0.7,1.3,0.9,1.9
		c0.5,1.7,1.5,3.2,2.4,4.7c0.4,0.6,0.4,1.4,0.6,2.1c0.1,0.2,0,0.6,0.2,0.7c1,0.7,1.4,1.7,1.6,2.8c0.1,0.3,0,0.6,0.1,0.9
		c0.2,0.3,0.4,0.6,0.8,1.1c-0.3,0.2-0.7,0.6-1.1,0.6c-1.1,0-1.7-0.8-1.8-1.6c-0.7-0.4-1.3-0.5-1.6-0.9c-0.7-0.9-1.3-1.9-1.7-3
		c-0.4-1.1-1.1-0.9-1.9-0.9c-0.8,0-1.5,0.1-2.3,0.1c-0.8,0-1.7,0.1-2.5,0.2c-0.8,0-1.5,0.1-2.3,0.1c-0.8,0-1.3,0.4-1.5,1.1
		c-0.3,1.1-0.7,2.2-1.1,3.3c-0.3,1-2.7,1.6-3.5,0.7c-0.1-0.1-0.3-0.4-0.3-0.6c0.3-0.9,0.6-1.7,0.9-2.6c0.1-0.4,0.1-0.9,0.2-1.3
		c0.2-0.8,1.2-1.4,0.8-2.5C215.8,231.9,216.2,231.6,216.4,231.2z M221.2,227.6c-0.3,0.8-0.6,1.6-0.8,2.4c-0.1,0.2,0,0.7,0.2,0.8
		c0.5,0.3,1.2,0.6,1.7,0.6c1.5,0,3-0.3,4.7-0.4c-0.2-0.4-0.4-0.8-0.6-1.2c0.1-0.1,0.2-0.2,0.3-0.2c-0.6-1.1-1.1-2.2-1.8-3.6
		c0.1-0.8-0.1-1.1-1.1-1.5c-0.6,1.3-1.3,2.6-2,4C221.5,228,221.3,227.8,221.2,227.6z"/>
	<path d="M289.2,157.9c0.8-1.9,2.2-1.8,3.5-1.9c0.4,0,0.8-0.4,1.3-0.5c1-0.2,2-0.3,2.9-0.4c1-0.1,2-0.3,2.9-1c0.3-0.2,0.8,0,1.2-0.2
		c1.4-0.4,2.9-0.9,4.3-1.3c0.2-0.1,0.5-0.1,0.7-0.1c1.1,0,2.2,0,3.2-0.1c0.8,0,1.7-0.1,2.5-0.3c0.5-0.1,1.1-0.3,1.6-0.3
		c0.4,0,0.8,0.1,1.2,0.3c-1.1,0.2-0.9,0.8-0.7,1.4c0.6,1.5,0,2.5-1.5,2.6c-1,0.1-2,0.2-3,0.2c-1,0-1.4,0.7-1.6,1.4
		c-0.3,0.9-0.6,1.9-0.5,2.9c0.1,1.9-1.3,3.6-0.6,5.5c0.4,0.3,1.2,1,1.3,0.9c0.7-0.7,0.9,0.4,1.4,0.3c0,0,0.1,0,0.1,0.1
		c1.6,1,1.9,2,1.1,3.7c-0.3,0.7-1,0.9-1.6,0.5c-2-1.2-4.1-2.5-6.1-3.7c-0.9-0.5-1.8-0.8-2.7-1.3c-0.7-0.4-1.3-1-2-1.5
		c-0.7-0.5-1.4-1.1-2.2-1.5c-0.3-0.2-0.7,0-1,0c-0.3-0.3-0.6-0.7-1-1c-1.1-0.7-2.2-1.4-3.5-1.9c-1.2-0.5-2.3-1.5-3.3-2.4
		c-0.7-0.5-1.5-1.1-1.3-2.2c0-0.1-0.1-0.2-0.1-0.3c-0.2-0.2-0.7-0.5-0.6-0.6c0.1-0.5,0.4-1,0.7-1.3c0.2-0.2,1,0,1.1,0.3
		C287.8,155.4,288.4,156.6,289.2,157.9z M295.5,159.5c0.6,0.4,1.2,0.7,1.8,1.1c1.2,0.8,2.3,1.6,3.5,2.3c0.7,0.4,1.5,0.8,2.3,1.1
		c0.1,0,0.4-0.2,0.5-0.4c0.3-0.9,0.6-1.8,0.8-2.7c0.2-0.9,0.4-1.7,0.7-2.9c-0.2-0.5-0.6-0.8-1.5-0.4c-0.5,0.2-1,0.6-1.4,0.5
		c-2.2-0.2-4.2,0.9-6.3,1C295.7,159.1,295.7,159.3,295.5,159.5z"/>
	<path d="M201.2,227.3c-0.1,1.8-0.2,3.8,1.1,5.6c0.6,0.9,0.8,2.1,1,3.2c0.1,0.7,0,1.4-0.7,1.8c-0.5,0.2-2-0.5-2.2-1.1
		c-0.5-1.5-1.1-3.1-1.5-4.6c-0.1-0.2,0.2-0.6,0.2-0.6c-0.3-0.5-0.5-0.8-0.7-1.2c-0.2-0.7-0.4-1.5-0.6-2.2c-0.2-0.5-0.6-0.8-0.8-1.3
		c-0.5-1-1.3-1.4-2.4-1.5c-0.5-0.1-1-0.2-1.5-0.3c-0.8-0.1-1,0.2-0.9,0.9c0.1,0.5,0.1,1.1-0.1,1.6c-0.2,1-0.5,2-0.8,3
		c0,0.1,0,0.2-0.1,0.2c-1.1,0.6-1.1,1.9-1.7,2.8c-0.2,0.3-0.3,0.9-0.6,1c-0.4,0.2-1,0.3-1.3,0.1c-0.5-0.3-1-0.9-1-1.4
		c0-0.9,0.4-1.7,0.5-2.6c0.1-0.5,0-1-0.1-1.5c0.1-0.4,0.9-0.8-0.1-1.4c-0.1-0.1,0-0.6,0.1-0.9c0.1,0,0.2,0,0.3,0
		c0.1,0.2,0.1,0.4,0.2,0.7c1.1-0.9,0.5-2.2,0.9-3.2c0.1-0.4,0.2-0.8,0.4-1.2c0.1-0.4,0.3-0.9,0.4-1.3c0.1-0.4,0.3-0.8,0.4-1.2
		c0.1-0.2,0.2-0.4,0.2-0.5c-0.4-0.9,0.2-1.5,0.6-2.2c0.2-0.4,0.3-0.9,0.4-1.3c0.1-0.3,0.2-0.6,0.4-0.9c-0.2-0.2-0.4-0.5-0.5-0.6
		c0.3-0.5,0.5-0.8,0.7-1.1c0.3-0.7,1.7-1.2,2.3-0.8c0.5,0.3,1,0.8,1.6,1.2c0.1,0.1,0.3,0.2,0.5,0.1c1.3-0.6,2.6,0,3.8,0.3
		c1.5,0.4,2.9,1.1,4.3,1.6c1.7,0.6,2.6,1.7,2.9,3.4c0.1,0.7,0.3,1.4,0.2,2.1c-0.1,0.8-0.2,1.6-0.6,2.2c-0.5,0.7-1.2,1.2-1.9,1.8
		c-0.4,0.4-0.7,0.8-1.5,0.6C202.5,226.3,201.9,226.9,201.2,227.3z M193,220.8c0.6,1.4,0.7,1.5,2.1,1.8c0.8,0.1,1.7,0,2.3,0.4
		c1,0.5,2,0.6,3,0.7c1.1,0,1.9-0.4,2.5-1.3c0.2-0.3,0.4-0.5,0.5-0.8c0.2-0.3,0.4-0.6,0.4-0.9c-0.1-0.6-0.3-1.2-0.5-1.7
		c-0.6-0.1-1.2-0.2-1.8-0.4c-2-0.5-4-1.1-6-1.5c-0.4-0.1-0.9,0.1-1.3,0.3c-1.2,0.7-1.2,1.9-0.8,3.1
		C193.4,220.6,193.2,220.7,193,220.8z"/>
	<path d="M167.4,71.3c-0.2-0.1-0.4-0.2-0.5-0.2c-0.3,0.4-0.4,0.8-0.7,0.9c-1.2,0.7-2.4,1.5-3.6,2c-2,0.8-4.1,0.8-6.2-0.1
		c-1-0.4-1.8-1.1-2.7-1.6c-2.3-1.3-3.5-3.5-4.5-5.8c-0.5-1.2-1.1-2.5-1-4c0-0.3,0.1-0.5,0.2-0.7c0.8-1.4,1.5-2.9,2.6-4.2
		c0.9-1,1.9-2.1,2.9-2.8c1.2-0.9,2.5-2,4.4-1.4c1.1,0.3,2.4-0.2,3.5,0.1c1.6,0.4,3.3,1.1,4.7,2c0.7,0.4,1.2,1.4,1.7,2.2
		c0.7,1.3,1.5,2.7,2,4.1c0.3,0.7,0.1,1.5,0.2,2.3c0,0.5,0,0.9-0.1,1.4C170.2,67.8,168.9,69.6,167.4,71.3z M159.5,56.5
		c-0.5,0.6-1.3,0.4-1.8-0.4c-0.5,0.2-0.9,0.6-1.3,0.6c-2.3,0.3-2.9,2.3-4.1,3.7c-0.1,0.1,0.1,0.4,0.1,0.6c0.1,0.9,0.2,1.7,0.2,2.6
		c0,0.3-0.1,0.7,0,1c0.5,0.9,1.2,1.8,1.8,2.8c0,0-0.1,0.2-0.3,0.7c0.5-0.2,0.8-0.2,1.2-0.3c0.1,0.3,0.5,0.6,0.4,0.9
		c-0.1,0.8,0.4,0.9,1,0.9c0.2,0,0.4,0.2,0.6,0.3c1.6,1.2,3.2,1.2,5.1,0.7c1.5-0.4,2.7-0.8,3.6-2.3c0.8-1.5,1.1-3.1,0.7-4.7
		c-0.3-1.3-1.1-2.5-2-3.5c-0.8-1-1.9-1.7-3-2.5C161.1,57.1,160.3,56.9,159.5,56.5z"/>
	<path d="M133.3,183c0.6,0.5,1.4,1,1.9,1.7c0.2,0.2-0.2,1-0.4,1.5c-0.4,1-1.1,1.8-1.4,2.8c-0.2,0.7-0.1,1.6,0.3,2.3
		c0.6,1.1,1.3,2.2,2.2,3.2c0.3,0.4,1,0.4,1.6,0.5c0.4,0.1,0.8,0.1,1.2,0.3c0.9,0.3,2.3-0.6,2.4-1.6c0.1-1.2,0.3-2.3,0.4-3.5
		c0-0.1-0.1-0.2-0.2-0.4c-0.5-0.8-1-1.6-1.3-2.5c-0.4-1.1-0.4-2.3-1-3.3c-0.8-1.5-0.3-2.7,0.1-4.1c0.6-2.1,2.4-2.4,3.9-2.9
		c1.3-0.4,2.9-0.2,3.9,1.1c0.1,0.2,0.4,0.4,0.5,0.3c1.4-0.2,1.9,1.3,2.9,1.6c0.1,0.1,0.2,0.4,0.3,0.6c0.5,1.3,1.3,2.5,1.7,4
		c0.3,1.1,0.4,2,0.1,2.9c-0.3,1.1-0.7,2.2-1.2,3.3c-0.2,0.5-1.7,0.5-2.1,0.1c-0.3-0.4-0.6-0.7-0.8-1.2c-0.1-0.4-0.2-0.9,0-1.2
		c0.9-1.6,0.7-4.8-0.4-6.2c-1-1.3-2.8-1.8-4.2-1.4c-1.3,0.4-1.7,1.1-1.3,2.8c0.2,0.9,0.1,1.9,0.9,2.7c1,0.9,0.9,2.2,1.3,3.3
		c0.3,0.9,0.4,1.8,0.5,2.8c0,0.6-0.1,1.2-0.3,1.7c-0.8,1.6-1.4,3.4-3.5,3.9c-0.6,0.2-1.3,0.1-2,0.1c-0.4,0-0.8,0.1-1.2,0
		c-1.4-0.5-2.9-0.9-4.2-1.5c-0.6-0.3-1.1-1-1.5-1.6c-0.8-1.1-1.6-2.2-2.2-3.3c-0.4-0.6-0.2-1.3-0.2-2c0-0.9,1-1.7,0.2-2.7
		c-0.1-0.2,0.2-0.9,0.4-1.3c0.6-1.1,1.6-1.8,2.7-2.3C133.2,183.4,133.2,183.2,133.3,183z"/>
	<path d="M132.3,79.4c-0.5,1.5-0.8,2.6-1.2,3.7c-0.8-0.1-1.6-0.3-2.4-0.4c-1.5,1.3-3.1,2.6-4.7,4c-0.1-0.1-0.3-0.3-0.6-0.7
		c-0.1,0.5-0.1,0.8-0.2,1.2c1.8-0.2,1.3,1.4,1.9,2.2c0.4,0.5,0.5,1.2,1.4,1.2c0.2,0,0.4,0.3,0.6,0.4c2-0.9,3.5-2.3,4.8-4
		c1.3-1.7,2.9-3.1,4.9-4c0.5-0.2,0.9-0.6,1.1-0.7c0.7,0.2,1.2,0.4,1.7,0.5c1.6,0.1,2.8,0.8,3.5,2.3c0.2,0.4,0.4,0.7,0.6,1.1
		c0.2,0.4,0.6,0.8,0.6,1.2c0,1.4,0.2,2.9-0.2,4.2c-0.3,1.1-0.8,2.2-1.2,3.4c-0.1,0.4-0.5,0.6-0.8,0.9c-1.4,1.5-3,2.9-4.9,3
		c-1.6,0.1-3.5,0.7-5-0.6c-0.3-0.2-0.7-0.7-0.6-0.9c0.3-0.8,0-2,1.4-2.3c0.2,0,0.3-0.4,0.4-0.5c1.2,0.1,2.5,0.2,3.7,0.2
		c1.5,0,2.6-1,3.3-2.2c0.6-0.9,1.1-2.1,1.1-3.1c0-0.8-0.7-1.7-1.3-2.4c-0.5-0.6-1.4-0.9-2.3-0.5c-0.7,0.3-1.5,0.2-1.9,1
		c-0.2,0.3-0.7,0.8-1.3,0.2c0,0-0.8,0.4-0.9,0.7c0,0.7-0.3,0.9-0.9,1.2c-0.3,0.1-0.4,0.7-0.6,1c-0.6,0.8-1.3,1.5-2,2.3
		c-0.2,0.2-0.5,0.2-0.7,0.4c-0.6,0.6-1.1,0.8-1.4-0.1c-0.6,0.1-1.1,0.3-1.8,0.4c0.3,0.2,0.5,0.3,0.8,0.6c-2.6-0.3-4.4-1.2-5.5-3.6
		c-0.7-1.5-0.1-2.8,0.3-4c0.2-0.9,0.5-2.1,1.8-2.5c0.4-0.1,0.4-1.3,0.8-1.8c0.6-0.9,1.2-1.8,2.4-2.1c0.2,0,0.4-0.2,0.5-0.3
		c0.6-0.5,1.1-0.8,2-0.6C130.3,79.8,131.2,79.5,132.3,79.4z"/>
	<path d="M245.9,51.7c-0.3,0.9-0.6,1.7-1,2.6c-0.7,1.6-0.5,3.6-2.3,4.6c-1.3,0.8-2.5,1.9-3.9,2.4c-1.4,0.6-3,1-4.5,0.9
		c-1.3-0.1-2.6-0.9-4-1.3c-0.6-0.2-1.2-0.4-1.8-0.6c-0.9-0.4-1.7-0.9-2.5-1.5c-0.5-0.4-0.9-1.1-1.1-1.7c-0.5-1.4-1.7-2.6-0.7-4.3
		c0.4-0.7,0.2-1.8,0.3-2.8c0.1-0.4,0.3-0.7,0.6-1c0.2-0.2,0.6-0.3,1.2-0.6c-0.8-0.3-1.3-0.5-1.7-0.7c1-0.8,1.9-1.7,2.9-2.5
		c0.1-0.1,0.3-0.1,0.3-0.2c0.5-1.2,1.4-1.7,2.6-1.9c1.2-0.3,2.3-1.3,3.5-1.4c2.3-0.1,4.7-0.2,6.7,1.6c0.8,0.8,2.1,1.1,2.7,2.2
		c0.8,1.5,1.7,2.8,1.9,4.6c0,0.5,0.5,1,0.8,1.5C246.1,51.8,246,51.7,245.9,51.7z M227.8,51.5c0,1.1,0,2.1,0,3.1
		c0,0.4,0.1,0.7,0.2,1.1c0.1,0.4,0,0.8,0.2,1c0.9,0.8,1.9,1.7,3.2,1.5c0.8-0.1,1.4,0.3,1.9,0.8c0.9,0.9,3.6,0.9,4.5,0
		c0.7-0.8,1.5-1.6,2.1-2.5c0.5-0.6,1.2-1.4,1.1-2.1c-0.1-1.5,0.2-2.8,0.7-4.2c-1-0.2-1.1-1-1-1.8c0.1-1,0-2-1-2.5
		c-1.4-0.8-2.7-1.7-4.5-1.7c-2-0.1-3.7,0.4-4.9,2.1c-0.7,1-1.5,2-1.9,3.3c-0.2,0.6-0.8,1.2-1.2,1.8
		C227.4,51.4,227.6,51.5,227.8,51.5z"/>
	<path d="M208.3,57.6c-1.1,0.5-1.9,0.9-2.8,1.2c-0.4,0.1-1.1,0-1.5-0.2c-1-0.6-1.9-1.3-2.8-2c-1.5-1.1-3-2.2-4.5-3.3
		c-0.5-0.4-0.9-1.1-1.4-1.5c-0.3-0.3-1.1-0.5-1.3-0.3c-0.7,0.6-1.1,1.5-1.8,2.2c-0.8,0.7-0.6,1.7-0.3,2.3c0.6,1,0.5,2.1,0.9,3.1
		c0.2,0.4,0.2,0.8,0.2,1.3c-0.8,0.3-1.4,1.1-2.3,1.2c-0.7,0.1-1.3,0.2-1.3-1c0-1.6-0.5-3.1-0.7-4.7c0-0.2,0.1-0.5,0.1-0.9
		c-0.4,0.2-0.6,0.3-0.9,0.4c0-0.1-0.1-0.1-0.1-0.2c0.5-1.9-1.5-3.5-0.6-5.1c-0.4-0.9-0.6-1.6-1-2.4c0.4-0.1,0.7-0.2,1.1-0.4
		c-0.3-0.3-0.4-0.7-0.7-0.9c-1.2-1-0.8-2.3-0.5-3.4c0.2-0.8,0.9-1.2,1.9-1.3c0.7-0.1,1.6-0.5,1.6,0.5c0,1.3,1,2.2,0.9,3.5
		c-0.1,1.2,0.3,2.4,0.6,3.7c0.9-0.1,1.4-0.5,1.7-1.4c0.1-0.4,0.6-0.8,0.9-1.2c0.8-0.9,1.7-1.8,2.5-2.8c0.2-0.3,0.3-0.7,0.5-1
		c0.7-1.3,1.1-3,2.8-3.5c0.7-0.2,1.5-0.2,2.2-0.1c0.4,0.1,0.9,0.7,0.5,1.2c-1,1.3-2.1,2.6-3,3.9c-0.7,1-1.3,2-1.9,3
		c-0.1,0.1,0.5,0.6,0.9,1c-0.2,0.1-0.5,0.2-0.8,0.3c0.2,0.3,0.4,0.6,0.7,0.7c1.5,0.8,2.7,1.7,3.7,3.1c0.3,0.5,0.9,0.8,1.4,1
		c1.1,0.6,2.2,1.1,2.6,2.5c0,0.2,0.3,0.3,0.4,0.4c0.3,0.1,0.7,0,1,0.2C207.4,57,207.6,57.2,208.3,57.6z"/>
	<path d="M179.1,217.2c-0.3,0.1-0.5,0.1-0.8,0.2c0.2,0.5,0.4,1,0.5,1.5c-0.7,0.8-1.5,5.6-1,6.5c-0.6,0.2-0.8,0.4-0.7,1.2
		c0.1,1.3-0.2,2.6-0.4,3.9c0,0.2-0.3,0.4-0.5,0.6c-1.3-1-2.1-2.2-1.3-3.8c-0.6-0.4-1-0.9-0.4-1.6c0.1-0.2-0.2-0.9-0.5-1
		c-0.8-0.4-1.6-0.5-2.3-0.7c-0.3-0.3-0.5-0.7-0.9-0.9c-1.2-0.6-2.4-1.2-3.7-1.6c-1.1-0.3-2,0.3-2.9,0.9c-0.5,0.3-1,0.7-1.5,1.1
		c-0.8,0.5-1.3,0.5-2.4-0.1c0.4-1,0.7-2.1,1.1-3.1c0.1-0.2,0.4-0.6,0.6-0.5c0.8,0.1,1.3-0.3,1.5-1c0.4-1.1,1.5-1.3,2.2-2
		c1-0.9,1.8-2,3-2.7c1.6-0.9,2.5-2.4,4-3.4c0.5-0.3,1.1-0.6,1.8-0.9c-0.4-0.1-0.5-0.1-0.9-0.2c1.1-0.8,2.1-1.5,3.2-2.2
		c0.8-0.5,1.6,0.2,2.1,0.6c1.2,1.1,0.9,2.6,0.6,4c-0.4,1.5-0.6,3.1-0.9,4.6C178.6,216.5,178.9,216.8,179.1,217.2z M176.2,213
		c-1.5,0-1.5,0.9-1.7,1.6c-0.4,0.2-0.8,0.3-1.1,0.6c-1.2,0.8-2.5,1.5-3.6,2.5c-0.5,0.4-1.3,1.3-0.4,1.9c0.9,0.6,2,0.8,3,1.2
		c0.6,0.2,1.3,0.6,1.8,0.5c0.4-0.1,0.7-0.8,1-1.3c0.5-1.1,0.4-2.2,0.1-3.3c-0.2-0.5-0.1-1.2,0.1-1.8
		C175.6,214.3,175.9,213.8,176.2,213z"/>
	<path d="M294.9,187.9c0.9-0.7,1.4-0.4,2,0.1c0.9,0.8,2.1,0.5,2.6-0.5c0.2-0.3,0.4-0.7,0.4-1.1c0.1-0.6,0.3-1.3-0.5-1.7
		c-0.3-0.2-0.4-0.5-0.7-0.9c0.3-0.1,0.4-0.2,0.5-0.2c2.1,0.1,2.4-0.4,3-2.3c0.4-1.3,1.3-2.5,2.1-3.7c0.1-0.2,0.8-0.2,1.1-0.1
		c1,0.3,1.6,1.6,1.3,2.6c-0.3,1.1-0.7,2.2-1.5,3.1c-0.4,0.4-0.4,1.1-0.6,1.7c-0.3,0.8-0.7,1.6-1,2.3c-0.7,1.5-1.4,3-2,4.5
		c-0.4,1-1.5,2-2.2,1.9c-0.5-0.1-0.8-0.6-1.3-0.7c-2.6-0.8-4.9-2.1-7.3-3.4c-0.7-0.3-1.5-0.4-2.2-0.6c-0.7-0.2-1.4-0.4-1.5-1.3
		c0-0.1-0.2-0.3-0.3-0.3c-1.8,0.1-3-1.2-4.6-1.6c-0.8-0.2-1.5-1-2.1-1.6c-0.5-0.6,0-2.6,0.7-2.9c0.3-0.1,0.7-0.1,0.9,0
		c0.9,0.3,1.7,0.7,2.5,1c0.1,0,0.2,0.1,0.2,0.2c0.4,0.7,1.1,0.7,1.8,0.9c2.5,0.7,4.9,1.8,7.1,3.2C293.9,186.7,295,186.4,294.9,187.9
		z"/>
	<path d="M261.5,69.6c1.4,0.5,1.6,1,1,2.5c0.6,0.6,1.1,1.5,1.9,1.9c0.7,0.4,1.6,0.3,2.5,0.4c0,0.1,0,0.2,0,0.3
		c-0.3,0.1-0.7,0.3-1,0.4c1.4,1.1,2.7,2,3.9,3.1c0.7,0.7-0.5,1-0.5,1.6c0,0.3-0.4,0.5-0.7,0.8c-1.5-0.1-2.4-1.4-3.5-2.2
		c-1.6-1.1-3.3-2.2-4.9-3.3c-0.5-0.3-1-0.6-1.4-1c-0.9-0.7-1.9-1.5-2.8-2.2c-0.6-0.5-0.5-1.1,0-1.8c0.8-1.1,1.6-2.3,2.4-3.5
		c0.4-0.6,1-1,1.5-1.5c0.5-0.6,0.9-1.2,1.3-1.8c0.5-0.6,1-1.1,1.5-1.7c1.2-1.5,2.3-2.9,3.6-4.4c0.5-0.6,1.2-1.3,1.8-1.7
		c0.9-0.6,2.6,0,3,0.9c0.1,0.2,0,0.4-0.1,0.6c-1.1,1.4-1.7,3.2-3.5,4.1c-0.1,0-0.2,0.2-0.2,0.3c0.1,1.3-1.2,1.8-1.7,2.8
		c-0.4,0.8-1.1,1.4-1.5,2.1c-0.5,0.7-0.8,1.4-1.3,2.1c-0.1,0.2-0.3,0.2-0.5,0.4C262.1,69,261.9,69.2,261.5,69.6z"/>
	<path d="M159.3,197.7c-0.4-1.8-2-2.8-3.4-3.9c-0.6-0.4-1.2-0.8-0.9-1.6c0.3-0.7,1.6-1.1,2.3-0.9c1.4,0.4,2.1,1.7,3.2,2.6
		c0.8,0.6,1.2,1.7,2.3,2c0.2,0.1,0.5,0.3,0.7,0.5c1.1,1.3,2.2,2.7,3.2,4.1c0.3,0.4,0.5,0.8,0.7,1.3c0.3,0.9-0.2,1.5-1.1,1.4
		c-0.6-0.1-1.3-0.4-1.7,0.5c-0.4-0.2-0.7-0.4-1-0.6c0.6-1.2-0.3-2.8-1.6-3c-0.1,0-0.3,0-0.4,0c-0.9,0.7-1.8,1.4-2.7,2.2
		c-1,1-2,2.2-3,3.2c-1.8,1.8-3.5,3.7-5.4,5.3c-0.9,0.7-1.6,2-3,1.7c-0.6-0.1-1.1-0.8-1.4-1.4c-0.1-0.3,0.2-1,0.5-1.3
		c0.6-0.6,1.5-1,2-1.7c0.9-1.1,2.5-1.8,3-2.9c0.6-1.5,1.7-1.8,2.7-2.6c0.3-0.3,0.5-0.8,0.7-1.2c0.1-0.2,0.1-0.4,0.2-0.5
		c0.9-0.7,1.9-1.4,2.9-2.1C158.6,198.5,158.9,198.1,159.3,197.7z"/>
	<path d="M126.8,142.4c0.5-0.3,0.9-0.6,1.4-1c0.5-0.3,1.3-0.1,1.6,0.4c0.1,0.2,0.3,0.3,0.4,0.4c0.8,0.6,0.7,1.3,0.2,1.9
		c-0.3,0.4-0.9,0.5-1.4,0.7c-0.2,0.1-0.6-0.1-0.8,0c-1.3,0.3-1.2,0.3-0.5,1.3c0.4,0.5,0.6,1.1,0.7,1.7c0,0.1-0.3,0.4-0.5,0.6
		c-0.1,0.2-0.2,0.5-0.5,0.9c-1.2,0.4-2.4,0-2.9-1.3c-0.8,0.5-1.5,1-2.3,1.5c-1.4,0.8-1.5-1.1-2.2-1.1c0.1-0.6,0.1-1.1,0.3-1.5
		c0.1-0.3,0.3-0.5,0.4-0.8c0.1,0,0.2,0.1,0.2,0.1c0-0.4-0.1-0.7-0.1-1.2c-0.2,0-0.4,0.1-0.6,0.1c-1.5,0.2-1.5,0.2-2.7-0.4
		c-0.5-0.3-0.8-2.2-0.3-2.5c0.6-0.4,1.3-1.1,2.1-0.4c0.2-0.3,0.5-0.6,0.7-0.7c-0.4-0.8-0.8-1.7-1-2.5c-0.2-0.6,0.9-1.4,1.6-1.2
		c1,0.4,2.2,0.5,3,1.4c0.2,0.2,0.7,0.2,1.1,0.3c0-0.3,0-0.6,0.1-0.8c0.4-0.4,0.8-1,1.2-1.1c1.3-0.2,2.3,1,1.8,2.3
		c-0.2,0.6-0.7,1.1-1.1,1.6c-0.2,0.3-0.3,0.6-0.4,0.9C126.6,142.3,126.7,142.3,126.8,142.4z"/>
	<path d="M297.9,100.8c1.1-0.8,2.1-0.6,3,0.1c1.2,1,0,2.1,0.1,3.4c0.3-0.1,0.6-0.2,0.9-0.4c1.3-0.8,3.1-0.3,3.4,1.2
		c0.1,0.5-0.2,1.2-0.5,1.6c-0.9,1-1.3,2.1-1.4,3.4c-0.1,0.8-0.6,1.2-1.3,0.9c-0.4-0.2-0.9-0.3-1.5-0.5c-0.1,0.8-0.2,1.4-0.3,2.2
		c-0.9,0.3-1.7,1.7-3.1,0.5c-0.4-0.4-0.4-2.3,0.2-3.4c-0.6,0.2-1,0.2-1.4,0.4c-0.7,0.4-2.1,0.3-2.7-0.1c-0.6-0.5-0.2-2.5,0.8-2.7
		c0.6-0.1,1.3-0.3,1.8-0.5c-0.8-0.7-1.6-1.4-2.3-2c0-0.5,0.2-0.9,0.1-1.3c-0.2-0.8,0.2-1.2,0.7-1.5c0.5-0.3,1-0.4,1.4,0.3
		c0.2,0.2,1.2,0.3,1.2,0.2C297.2,101.9,298.5,101.6,297.9,100.8z"/>
	<path d="M199.2,254.3c0.6-0.1,1.3-0.4,1.9-0.4c1.1,0.1,2.1,0.1,3.2-0.2c1.6-0.3,3.4-0.2,4.9,0.8c0.3,0.2,0.7,0.8,1.3,0.2
		c0,0,0.4,0.2,0.6,0.5c-0.9,0.2-1.8,0.6-2.7,0.4c-0.8-0.1-1.5-0.8-2.4-1.4c-0.1,0.2-0.2,0.4-0.4,0.6c-0.2,0.2-0.6,0.4-0.8,0.4
		c-0.7,0-1.4-0.2-2.2-0.3c-1.1-0.2-2.2-0.4-3.3-0.6C199.3,254.4,199.3,254.3,199.2,254.3z"/>
	<path d="M258.7,165.2c0.9-1.1,2-1.1,3.1-0.6c0.3,0.1,0.6,0.2,0.8,0.4c0.6,0.5,1,0.9,0,1.5c-0.5,0.3-1,0.8-1.6,1.2
		C259.8,167.3,259,166.4,258.7,165.2z"/>
	<path d="M214.4,255.1c1.7,0,3.1,0,4.7,0c-0.6,1.1-1.4,0.4-2,0.5c-0.3,0.1-0.8-0.1-0.9,0.1C215.3,256.8,215,255.9,214.4,255.1z"/>
	<path d="M258,162.7c-0.7-0.4-1.3-0.7-1.9-1c0.3-0.3,0.6-0.8,0.9-0.8C257.8,161,258.4,161.4,258,162.7z"/>
	<path d="M211.8,255.2c0.7-0.1,1.2-0.2,1.7-0.2c0.3,0,0.6,0,0.8,0c-0.1,0.2-0.2,0.5-0.4,0.7c-0.8,0.6-1.6,0.6-2.2,0
		C211.6,255.5,211.8,255.2,211.8,255.2z"/>
	<path d="M262.8,170.3c-0.3-0.2-1-0.4-0.9-0.6c0-0.4-0.4-1.2,0.6-1.2c0.2,0.5,0.5,1,0.7,1.6C263,170.1,262.9,170.2,262.8,170.3z"/>
	<path d="M141.8,74.1c0.4,0,0.8-0.1,1.2,0c0.1,0,0.1,0.4,0.1,0.6c-0.4,0-0.9,0-1.3,0C141.8,74.4,141.8,74.2,141.8,74.1z"/>
	<path d="M140.3,74.7c-0.4-0.5-0.5-0.7-0.9-1.2c0.5-0.1,0.9-0.2,1.3-0.2C140.6,73.6,140.5,74,140.3,74.7z"/>
	<path d="M121.9,64.9c-0.3,0.4-0.5,0.8-0.8,1.3c-0.2-0.4-0.4-0.8-0.6-1.1C121,65.1,121.3,65,121.9,64.9z"/>
</g>
</svg>
