<?xml version="1.0" encoding="utf-8"?>
<!-- Generator: Adobe Illustrator 24.1.1, SVG Export Plug-In . SVG Version: 6.00 Build 0)  -->
<svg version="1.1" id="Vrstva_1" xmlns="http://www.w3.org/2000/svg" xmlns:xlink="http://www.w3.org/1999/xlink" x="0px" y="0px"
	 viewBox="0 0 608 943" style="enable-background:new 0 0 608 943;" xml:space="preserve">
<style type="text/css">
	.st0{fill:#FFFFFF;}
</style>
<g>
	<path class="st0" d="M-10-10c209,0,418,0,627,0c0,320,0,640,0,960c-209,0-418,0-627,0C-10,630-10,310-10-10z M6.9,470.1
		c0,141,0,282,0,423c0,23.2,18.5,41.9,41.3,41.9c160,0,320,0,480,0c10.7,0,21.3,0,32,0c8.4,0,16-2.6,22.8-7.4
		c14-9.9,18.2-23.7,18.2-40.3c-0.2-279-0.3-558,0.1-836.9c0-21.3-16-44.6-44.1-44.6C388,6,218.9,5.9,49.7,6
		C24.9,6,6.9,24.1,6.9,48.8C6.9,189.1,6.9,329.6,6.9,470.1z"/>
	<path d="M6.9,470.1c0-140.5,0-281,0-421.5c0-24.7,18-42.8,42.8-42.8c169.2,0,338.3,0.1,507.5-0.2c28.1,0,44.1,23.3,44.1,44.6
		c-0.4,279-0.3,558-0.1,836.9c0,16.6-4.2,30.5-18.2,40.3c-6.8,4.8-14.4,7.4-22.8,7.4c-10.7,0-21.3,0-32,0c-160,0-320,0-480,0
		c-22.8,0-41.3-18.8-41.3-41.9C6.9,752.1,6.9,611.1,6.9,470.1z M576.9,691.3c-2,0.1-2.5,0-2.9,0.2c-15.8,6.6-32.5,9.4-49.4,11.3
		c-23.1,2.5-46.2,2.4-69.3,0.3c-25.6-2.2-51-6.2-75.1-14.9c-35.3-12.7-69.9-27.2-101.3-48.5c-41.1-27.9-84.3-52.4-129.3-73.5
		c-29.2-13.7-58.2-28-91.1-30.4c-8.1-0.6-16.4-0.1-24.1-0.1c7.4,4.2,16.1,7.2,22.4,12.9c15.3,14,29.8,28.9,44,44
		c21,22.4,40.5,46.2,64.8,65.4s49.4,37.2,77.7,50c24.2,11,49.6,17.9,75.6,23.3c25.8,5.4,51.9,8.5,78.2,9.5
		c36,1.4,71.4-2.8,106.4-11.5c23.6-5.9,44.8-16.3,64.6-30.2C570.7,697.1,573.2,694.5,576.9,691.3z M29.4,532.7c4.8,0,9.6,0.1,14.4,0
		c32.8-0.6,64.6,5,95.8,14.9c26.5,8.4,51.8,19.9,76.6,32.3c42.3,21.2,84.4,42.9,126.6,64.2c33.5,16.9,68.8,28.2,105.8,34.4
		c33.2,5.6,66.3,4.6,99.1-3.9c5.7-1.5,11.2-3.6,17.2-5.5c-16.4-6.1-32.2-11.4-47.5-17.6c-29.4-12-55.8-29.3-81.6-47.5
		c-45.5-32.2-81.9-72.7-109.4-121.1c-16.7-29.5-26.8-61.1-27.4-95.3c0-1.8-0.7-3.6-1-5.3c-1.7,1.7-2.5,3.4-2.5,5.1
		c-0.1,12.8-1.4,25.8,0.2,38.4c4.7,37.1,18.8,70.9,38.9,102c18.9,29.3,41.4,55.9,65.6,80.8c11.9,12.2,26.6,21.9,40.3,32.4
		c7.1,5.5,14.7,10.4,22.1,15.5c-2.5,0.5-4.7,0.4-6.7-0.1c-16.6-3.8-33-8.5-47.8-16.9c-38.2-21.5-76.7-42.5-114-65.5
		c-41.4-25.5-86-41.9-133.4-50.7c-32.5-6-65.5-7.5-98.4-2.3C50.6,522.9,39.5,526.2,29.4,532.7z M460.6,245.5
		c-9.9,2.6-19.2,5-28.5,7.4c-23.9,6.1-47.7,12.3-71.6,18.3c-3.1,0.8-4.3,2-3.7,5.5c0.6,3.6,0.7,7.4,0.2,10.9
		c-0.6,4.1,1.1,5.7,4.7,6.5c9.5,1.9,18.8,4.1,28.3,5.8c28.4,4.9,55.7,0.4,82.1-10.2c27.3-11,48.1-30.4,66.2-52.9
		c7.5-9.3,14.3-19.2,17.9-30.9c1-3.2,1.1-5.7-2.3-7.6c-5.5-3-10.6-6.8-16.3-9.6c-19.1-9.2-39.6-13.3-60.6-15
		c-13.2-1.1-26.6-1.9-39.2,1.9c-15.7,4.8-31.3,10.5-45.9,17.8c-20.8,10.4-37.7,26-50.2,45.9c-0.8,1.2-1,3.6-0.3,4.7
		c3.3,4.9,7.1,9.6,11,14.7c32.9-13,66.1-26.1,99.7-39.4C455,228.5,457.7,236.8,460.6,245.5z M314.1,118.7
		c-2.2,36.3-4.4,72-6.6,107.3c7.4,2.5,14.1,4.8,21.4,7.4c3-5.3,6.2-10.9,9.5-16.4c11.6-19.6,18.4-40.7,20.4-63.2
		c1.9-21.9,0.5-43.6-7.8-64.4c-10-25.3-22.8-48.8-43.1-67.5c-7.3-6.7-9.2-6.7-16.7-0.2c-13.5,11.7-23.6,26-31.9,41.6
		c-8.2,15.5-14.9,31.7-18,49c-4.8,27.7-1,54.7,8.1,81.1c5,14.6,12.6,27.7,22.5,39.1c5.9-1.9,11.3-4,17-5.3c3.6-0.8,4.5-2.1,4.3-5.6
		c-1.7-25.3-3.3-50.5-4.8-75.8c-0.6-9.1-1.1-18.1-1.6-27.3C296,118.7,304.6,118.7,314.1,118.7z M261.4,239.9
		c-5.5-8.9-25.3-30.1-36.1-37.9c-27.5-20-57.9-32-92.4-30.8c-12.9,0.4-26,1.6-38.6,4.5c-12.7,2.9-25,7.7-37,13
		c-8.8,3.8-8.8,5.9-5.2,14.9c13.9,34.5,38.2,60.3,69.3,79.3c21.8,13.3,46.7,18.1,71.9,19.9c15.6,1.1,30.8-1.9,45.8-6
		c2.6-0.7,3.6-2,3.4-5c-0.3-5.6-0.2-11.3,0.3-16.9c0.3-3.2-0.3-4.9-3.6-5.7c-21.5-5.4-42.9-10.9-64.4-16.4
		c-11.9-3.1-23.8-6.2-36.2-9.5c2.9-8.9,5.7-17.3,8.5-26.1c34,13.4,67.4,26.6,100.7,39.8C252.6,251,257,245.5,261.4,239.9z
		 M244.9,305c-4.2,1.8-8.9,3.9-13.6,5.8c-34.5,13.3-60.3,36.7-78.1,68.6c-15.6,28-20.4,58.9-19.7,90.7c0.1,5.9,2,11.8,3,17.6
		c0.8,4.4,3.3,5.7,7.7,5.8c15.2,0.1,29.7-3.3,43.8-8.6c22.3-8.4,43.1-19.6,60.2-36.3c13.3-13,23-28.8,31.1-45.5
		c8.8-18,14-36.9,13.8-57.1c0-1.6-0.9-4.3-2.1-4.7c-6.8-2.4-13.8-4.3-21.3-6.5c-18.8,29.5-37.9,59.4-57.3,89.9
		c-7.7-5.7-14.9-10.9-22.3-16.3c23.2-28.1,45.9-55.5,68.4-82.6C253.9,318.7,249.6,312.1,244.9,305z M389.4,427.2
		c-5.3-8.3-10.3-16.1-15.3-23.9c-13.9-21.9-27.9-43.8-41.7-65.8c-2-3.3-3.6-3.6-7.1-2c-4.9,2.3-10.2,3.9-15.5,5.3
		c-2.7,0.7-3.4,1.7-3.2,4.4c1.7,17.4,3.6,34.8,10.4,51.1c9.7,23.7,23.2,44.9,43,61.5c19.9,16.6,42.9,27.8,67.7,34.8
		c8.2,2.3,17,2.7,25.5,3.7c3.1,0.3,5.4-1.2,5.9-4.7c1.3-9,3.8-18,4-27c0.8-38.9-6.7-75.4-32.2-106.4c-15.8-19.3-33.9-35.7-57-45.9
		c-6.6-2.9-13.5-5.1-19.5-7.4c-4.9,7.5-9.1,14-13.5,20.6c23.4,28.4,46.9,56.8,70.7,85.6C403.9,416.6,396.8,421.7,389.4,427.2z
		 M311.1,792.3c-12.7,32.6-24.9,64-37.2,95.8c26.4,0,51.8,0,77.1,0c0-8.1,0-15.7,0-24.2c-12.1,0-24,0-36.6,0
		c12.5-32.5,24.6-64,37.1-96.4c-22.8,0-44.7,0-66.7,0c-3.1,0-3.4,2.1-3.4,4.4c0.1,5.3,0.3,10.7,0.2,16c-0.1,3.2,1,4.5,4.3,4.5
		C294,792.2,302.2,792.3,311.1,792.3z M247.7,806.8c-0.5-3-0.6-5.7-1.3-8.2c-1.3-4.3-2.8-8.5-4.6-12.6c-13-29.3-51.2-28.3-67-7.7
		c-9.5,12.4-13.5,26.5-14.1,41.8c-0.7,18.6,3,36.1,14.2,51.4c10.9,14.8,27.9,19.3,44.8,12c11.2-4.8,17.9-14,23-24.5
		c2.1-4.3,3.5-9,5.7-14.7c-8.3,0-15.1,0.2-21.9-0.1c-4.7-0.2-7,0.8-7.9,6.1c-1.4,9-7.1,13.4-14.5,12.6c-5.6-0.6-8.9-4.3-11.2-8.9
		c-6.6-13-6.9-26.9-5.3-40.9c0.9-7.9,2.3-15.8,7.3-22.5c6.9-9.2,17.3-8.5,22,1.9c2,4.5,3.2,9.3,4.8,14.3
		C230.2,806.8,238.6,806.8,247.7,806.8z M380.8,876.5c0.8,0.9,1.4,1.7,2.1,2.4c14.1,13,30.2,15.3,47.7,8.5
		c17.4-6.8,25.5-26.5,18.3-43.7c-3.8-9.1-11-15.1-18.9-20.7c-6-4.2-12-9-16.9-14.4c-4.7-5.2-4-11.4,0.1-15.9
		c3.5-3.8,8.6-4.3,14.6-0.9c3.7,2.1,7,4.9,10.6,7.5c4.7-6.4,9.3-12.7,14.1-19.2c-14.4-9.4-28.5-16.6-46.4-11.2
		c-17.6,5.3-27.8,23.8-21.9,41.4c3.7,11,11.9,18,20.6,24.8c5.6,4.4,11,9.1,15.8,14.2c3.3,3.4,3.3,7.8,0.1,11.8
		c-3.2,3.9-7.7,5.1-12.5,2.7c-4.2-2.1-8.2-4.7-12.4-7.2C390.9,863.3,385.9,869.8,380.8,876.5z M227.3,747.5
		c-0.2-0.4-0.5-0.8-0.7-1.2c-6.8,1.3-14.2-2.3-20,2.6c-6.4-4.9-13.4-1.7-20.8-2.6c2,4.2,3.7,7.3,5,10.7c1.2,3.1,3.1,4.2,6.4,4
		c6-0.3,12,0,17.9-0.1c1.2,0,3-0.1,3.5-0.9C221.7,755.9,224.5,751.6,227.3,747.5z"/>
	<path class="st0" d="M576.9,691.3c-3.7,3.2-6.1,5.8-9,7.8c-19.7,13.9-40.9,24.3-64.6,30.2c-35,8.7-70.4,12.9-106.4,11.5
		c-26.3-1-52.4-4.1-78.2-9.5c-25.9-5.4-51.4-12.3-75.6-23.3c-28.3-12.9-53.4-30.8-77.7-50s-43.8-43-64.8-65.4
		c-14.2-15.1-28.7-30-44-44c-6.3-5.7-15-8.7-22.4-12.9c7.7,0,16-0.5,24.1,0.1c32.9,2.4,61.9,16.7,91.1,30.4
		c45,21.2,88.2,45.6,129.3,73.5c31.4,21.3,66,35.8,101.3,48.5c24.2,8.7,49.5,12.7,75.1,14.9c23.2,2,46.3,2.2,69.3-0.3
		c16.9-1.9,33.6-4.7,49.4-11.3C574.4,691.4,574.9,691.5,576.9,691.3z"/>
	<path class="st0" d="M29.4,532.7c10.1-6.6,21.2-9.8,32.6-11.6c32.9-5.2,65.9-3.7,98.4,2.3c47.4,8.7,92,25.1,133.4,50.7
		c37.3,23,75.8,44.1,114,65.5c14.9,8.3,31.2,13.1,47.8,16.9c2.1,0.5,4.3,0.5,6.7,0.1c-7.4-5.2-14.9-10-22.1-15.5
		c-13.7-10.5-28.3-20.2-40.3-32.4c-24.3-24.9-46.7-51.5-65.6-80.8c-20.1-31.2-34.3-65-38.9-102c-1.6-12.6-0.3-25.6-0.2-38.4
		c0-1.7,0.8-3.4,2.5-5.1c0.4,1.8,1,3.6,1,5.3c0.7,34.2,10.7,65.9,27.4,95.3c27.5,48.4,63.8,88.9,109.4,121.1
		c25.8,18.3,52.2,35.5,81.6,47.5c15.4,6.3,31.1,11.6,47.5,17.6c-6,2-11.5,4.1-17.2,5.5c-32.7,8.5-65.8,9.5-99.1,3.9
		c-36.9-6.2-72.3-17.5-105.8-34.4c-42.2-21.4-84.3-43-126.6-64.2c-24.8-12.4-50.1-23.9-76.6-32.3c-31.1-9.9-63-15.4-95.8-14.9
		C39,532.8,34.2,532.7,29.4,532.7z"/>
	<path class="st0" d="M460.6,245.5c-2.8-8.7-5.5-17-8.5-26.2c-33.5,13.3-66.7,26.4-99.7,39.4c-3.9-5.1-7.6-9.8-11-14.7
		c-0.7-1-0.4-3.5,0.3-4.7c12.5-19.9,29.4-35.4,50.2-45.9c14.6-7.3,30.2-13,45.9-17.8c12.6-3.9,26-3,39.2-1.9
		c21,1.8,41.5,5.8,60.6,15c5.6,2.7,10.8,6.5,16.3,9.6c3.4,1.9,3.3,4.4,2.3,7.6c-3.7,11.6-10.5,21.5-17.9,30.9
		c-18,22.6-38.9,41.9-66.2,52.9c-26.4,10.6-53.8,15.1-82.1,10.2c-9.5-1.6-18.9-3.9-28.3-5.8c-3.6-0.7-5.3-2.4-4.7-6.5
		c0.5-3.6,0.4-7.4-0.2-10.9s0.6-4.7,3.7-5.5c23.9-6,47.8-12.2,71.6-18.3C441.4,250.6,450.7,248.1,460.6,245.5z"/>
	<path class="st0" d="M314.1,118.7c-9.5,0-18.1,0-27.4,0c0.5,9.2,1.1,18.2,1.6,27.3c1.6,25.3,3.1,50.5,4.8,75.8
		c0.2,3.5-0.7,4.8-4.3,5.6c-5.6,1.2-11.1,3.4-17,5.3c-9.9-11.4-17.5-24.5-22.5-39.1c-9-26.4-12.9-53.5-8.1-81.1
		c3-17.3,9.8-33.5,18-49c8.3-15.6,18.4-30,31.9-41.6c7.6-6.5,9.4-6.6,16.7,0.2C328.2,40.7,341,64.2,351,89.5
		c8.2,20.7,9.6,42.5,7.8,64.4c-1.9,22.5-8.8,43.6-20.4,63.1c-3.3,5.5-6.4,11.1-9.5,16.4c-7.3-2.5-14.1-4.8-21.4-7.4
		C309.6,190.7,311.8,155,314.1,118.7z"/>
	<path class="st0" d="M261.4,239.9c-4.5,5.6-8.9,11.1-13.6,17c-33.2-13.1-66.7-26.3-100.7-39.8c-2.9,8.8-5.6,17.2-8.5,26.1
		c12.4,3.3,24.3,6.4,36.2,9.5c21.5,5.5,42.9,11,64.4,16.4c3.3,0.8,3.9,2.5,3.6,5.7c-0.5,5.6-0.6,11.3-0.3,16.9c0.2,3-0.9,4.3-3.4,5
		c-15,4.1-30.2,7.1-45.8,6c-25.3-1.8-50.2-6.6-71.9-19.9c-31.1-19-55.4-44.8-69.3-79.3c-3.6-9-3.5-11.1,5.2-14.9
		c11.9-5.2,24.3-10.1,37-13c12.6-2.9,25.7-4,38.6-4.5c34.5-1.2,64.9,10.8,92.4,30.8C236.2,209.8,255.9,231,261.4,239.9z"/>
	<path class="st0" d="M244.9,305c4.7,7.1,9.1,13.7,13.7,20.6c-22.5,27.1-45.2,54.6-68.4,82.6c7.4,5.4,14.5,10.6,22.3,16.3
		c19.4-30.4,38.5-60.4,57.3-89.9c7.5,2.2,14.5,4.1,21.3,6.5c1.1,0.4,2,3.1,2.1,4.7c0.2,20.2-5,39.1-13.8,57.1
		c-8.1,16.7-17.9,32.4-31.1,45.5c-17.1,16.8-37.9,27.9-60.2,36.3c-14.1,5.3-28.6,8.8-43.8,8.6c-4.4,0-6.9-1.3-7.7-5.8
		c-1-5.9-2.9-11.7-3-17.6c-0.7-31.8,4.1-62.6,19.7-90.7c17.8-31.9,43.6-55.4,78.1-68.6C236,308.9,240.7,306.8,244.9,305z"/>
	<path class="st0" d="M389.4,427.2c7.5-5.4,14.6-10.6,22.3-16.2c-23.8-28.8-47.2-57.2-70.7-85.6c4.3-6.7,8.6-13.1,13.5-20.6
		c6,2.2,12.9,4.4,19.5,7.4c23,10.2,41.2,26.6,57,45.9c25.4,31,33,67.6,32.2,106.4c-0.2,9-2.6,18-4,27c-0.5,3.5-2.9,5.1-5.9,4.7
		c-8.5-1-17.3-1.4-25.5-3.7c-24.8-7-47.8-18.2-67.7-34.8c-19.9-16.6-33.3-37.8-43-61.5c-6.7-16.4-8.7-33.7-10.4-51.1
		c-0.3-2.7,0.4-3.7,3.2-4.4c5.3-1.4,10.6-3,15.5-5.3c3.5-1.6,5.1-1.3,7.1,2c13.8,22,27.8,43.9,41.7,65.8
		C379.1,411.1,384.1,418.9,389.4,427.2z"/>
	<path class="st0" d="M311.1,792.3c-9,0-17.1-0.1-25.2,0c-3.3,0-4.4-1.3-4.3-4.5c0.1-5.3-0.1-10.7-0.2-16c0-2.3,0.2-4.4,3.4-4.4
		c22,0,43.9,0,66.7,0c-12.5,32.4-24.6,63.9-37.1,96.4c12.6,0,24.4,0,36.6,0c0,8.4,0,16.1,0,24.2c-25.3,0-50.7,0-77.1,0
		C286.3,856.3,298.5,824.9,311.1,792.3z"/>
	<path class="st0" d="M247.7,806.8c-9.1,0-17.6,0-25.9,0c-1.6-5-2.8-9.8-4.8-14.3c-4.7-10.4-15.1-11.2-22-1.9
		c-5,6.7-6.4,14.6-7.3,22.5c-1.6,14-1.3,28,5.3,40.9c2.3,4.6,5.6,8.3,11.2,8.9c7.4,0.8,13.1-3.7,14.5-12.6c0.8-5.3,3.2-6.3,7.9-6.1
		c6.8,0.3,13.6,0.1,21.9,0.1c-2.2,5.7-3.6,10.4-5.7,14.7c-5.1,10.5-11.8,19.7-23,24.5c-16.9,7.2-33.9,2.8-44.8-12
		c-11.2-15.3-14.9-32.7-14.2-51.4c0.6-15.3,4.6-29.4,14.1-41.8c15.8-20.6,54-21.6,67,7.7c1.8,4.1,3.3,8.3,4.6,12.6
		C247.2,801.1,247.3,803.8,247.7,806.8z"/>
	<path class="st0" d="M380.8,876.5c5.1-6.7,10.1-13.3,15.1-19.9c4.2,2.5,8.2,5.1,12.4,7.2c4.9,2.4,9.4,1.2,12.5-2.7
		c3.2-4,3.2-8.4-0.1-11.8c-4.9-5.1-10.3-9.9-15.8-14.2c-8.7-6.8-16.9-13.8-20.6-24.8c-5.9-17.6,4.2-36,21.9-41.4
		c17.9-5.4,32,1.8,46.4,11.2c-4.8,6.6-9.4,12.8-14.1,19.2c-3.7-2.6-7-5.4-10.6-7.5c-6-3.5-11-3-14.6,0.9c-4.1,4.5-4.8,10.7-0.1,15.9
		c4.9,5.5,10.8,10.2,16.9,14.4c7.9,5.5,15,11.6,18.9,20.7c7.2,17.2-0.8,36.9-18.3,43.7c-17.4,6.8-33.6,4.5-47.7-8.5
		C382.2,878.2,381.6,877.4,380.8,876.5z"/>
	<path class="st0" d="M227.3,747.5c-2.9,4.2-5.6,8.4-8.7,12.5c-0.6,0.8-2.3,0.9-3.5,0.9c-6,0.1-12-0.1-17.9,0.1
		c-3.3,0.2-5.2-0.9-6.4-4c-1.3-3.3-3-6.5-5-10.7c7.5,0.9,14.4-2.3,20.8,2.6c5.8-4.9,13.2-1.4,20-2.6
		C226.9,746.6,227.1,747,227.3,747.5z"/>
</g>
</svg>
