<?xml version="1.0" encoding="utf-8"?>
<!-- Generator: Adobe Illustrator 24.1.1, SVG Export Plug-In . SVG Version: 6.00 Build 0)  -->
<svg version="1.1" id="Vrstva_1" xmlns="http://www.w3.org/2000/svg" xmlns:xlink="http://www.w3.org/1999/xlink" x="0px" y="0px"
	 viewBox="0 0 608 943" style="enable-background:new 0 0 608 943;" xml:space="preserve">
<path d="M601.3,50.2c0-21.3-16-44.6-44.1-44.6C388,5.9,218.9,5.8,49.7,5.8C24.9,5.8,6.9,23.9,6.9,48.6c0,140.5,0,281,0,421.5
	c0,141,0,282,0,422.8c0,23.1,18.5,41.9,41.3,41.9c160,0,320,0,480,0c10.7,0,21.3,0,32,0c8.4,0,16-2.6,22.8-7.4
	c14-9.8,18.2-23.7,18.2-40.3C601,608.2,600.9,329.2,601.3,50.2z M391.9,193.4c14.6-7.3,30.2-13,45.9-17.8c12.6-3.8,26-3,39.2-1.9
	c21,1.7,41.5,5.8,60.6,15c5.7,2.8,10.8,6.6,16.3,9.6c3.4,1.9,3.3,4.4,2.3,7.6c-3.6,11.7-10.4,21.6-17.9,30.9
	c-18.1,22.5-38.9,41.9-66.2,52.9c-26.4,10.6-53.7,15.1-82.1,10.2c-9.5-1.7-18.8-3.9-28.3-5.8c-3.6-0.8-5.3-2.4-4.7-6.5
	c0.5-3.5,0.4-7.3-0.2-10.9c-0.6-3.5,0.6-4.7,3.7-5.5c23.9-6,47.7-12.2,71.6-18.3c9.3-2.4,18.6-4.8,28.5-7.4
	c-2.9-8.7-5.6-17-8.5-26.2c-33.6,13.3-66.8,26.4-99.7,39.4c-3.9-5.1-7.7-9.8-11-14.7c-0.7-1.1-0.5-3.5,0.3-4.7
	C354.2,219.4,371.1,203.8,391.9,193.4z M340.9,325.5c4.4-6.6,8.6-13.1,13.5-20.6c6,2.3,12.9,4.5,19.5,7.4
	c23.1,10.2,41.2,26.6,57,45.9c25.5,31,33,67.5,32.2,106.4c-0.2,9-2.7,18-4,27c-0.5,3.5-2.8,5-5.9,4.7c-8.5-1-17.3-1.4-25.5-3.7
	c-24.8-7-47.8-18.2-67.7-34.8c-19.8-16.6-33.3-37.8-43-61.5c-6.8-16.3-8.7-33.7-10.4-51.1c-0.2-2.7,0.5-3.7,3.2-4.4
	c5.3-1.4,10.6-3,15.5-5.3c3.5-1.6,5.1-1.3,7.1,2c13.8,22,27.8,43.9,41.7,65.8c5,7.8,10,15.6,15.3,23.9c7.4-5.5,14.5-10.6,22.2-16.1
	C387.8,382.3,364.3,353.9,340.9,325.5z M241.3,112.3c3.1-17.3,9.8-33.5,18-49c8.3-15.6,18.4-29.9,31.9-41.6
	c7.5-6.5,9.4-6.5,16.7,0.2C328.2,40.6,341,64.1,351,89.4c8.3,20.8,9.7,42.5,7.8,64.4c-2,22.5-8.8,43.6-20.4,63.2
	c-3.3,5.5-6.5,11.1-9.5,16.4c-7.3-2.6-14-4.9-21.4-7.4c2.2-35.3,4.4-71,6.6-107.3c-9.5,0-18.1,0-27.3-0.2c0.5,9.2,1,18.2,1.6,27.3
	c1.5,25.3,3.1,50.5,4.8,75.8c0.2,3.5-0.7,4.8-4.3,5.6c-5.7,1.3-11.1,3.4-17,5.3c-9.9-11.4-17.5-24.5-22.5-39.1
	C240.3,167,236.5,140,241.3,112.3z M212.4,424.7c19.4-30.5,38.5-60.4,57.3-89.9c7.5,2.2,14.5,4.1,21.3,6.5c1.2,0.4,2.1,3.1,2.1,4.7
	c0.2,20.2-5,39.1-13.8,57.1c-8.1,16.7-17.8,32.5-31.1,45.5c-17.1,16.7-37.9,27.9-60.2,36.3c-14.1,5.3-28.6,8.7-43.8,8.6
	c-4.4-0.1-6.9-1.4-7.7-5.8c-1-5.8-2.9-11.7-3-17.6c-0.7-31.8,4.1-62.7,19.7-90.7c17.8-31.9,43.6-55.3,78.1-68.6
	c4.7-1.9,9.4-4,13.6-5.8c4.7,7.1,9,13.7,13.6,20.8c-22.5,27.1-45.2,54.5-68.4,82.6C197.5,413.8,204.7,419,212.4,424.7z M57.3,188.7
	c12-5.3,24.3-10.1,37-13c12.6-2.9,25.7-4.1,38.6-4.5c34.5-1.2,64.9,10.8,92.4,30.8c10.8,7.8,30.6,29,36.1,37.9
	c-4.4,5.6-8.8,11.1-13.6,17.1c-33.3-13.2-66.7-26.4-100.7-39.8c-2.8,8.8-5.6,17.2-8.5,26.1c12.4,3.3,24.3,6.4,36.2,9.5
	c21.5,5.5,42.9,11,64.4,16.4c3.3,0.8,3.9,2.5,3.6,5.7c-0.5,5.6-0.6,11.3-0.3,16.9c0.2,3-0.8,4.3-3.4,5c-15,4.1-30.2,7.1-45.8,6
	c-25.2-1.8-50.1-6.6-71.9-19.9c-31.1-19-55.4-44.8-69.3-79.3C48.5,194.6,48.5,192.5,57.3,188.7z M62.3,521
	c32.9-5.2,65.9-3.7,98.4,2.3c47.4,8.8,92,25.2,133.4,50.7c37.3,23,75.8,44,114,65.5c14.8,8.4,31.2,13.1,47.8,16.9
	c2,0.5,4.2,0.6,6.7,0.1c-7.4-5.1-15-10-22.1-15.5c-13.7-10.5-28.4-20.2-40.3-32.4c-24.2-24.9-46.7-51.5-65.6-80.8
	c-20.1-31.1-34.2-64.9-38.9-102c-1.6-12.6-0.3-25.6-0.2-38.4c0-1.7,0.8-3.4,2.5-5.1c0.3,1.7,1,3.5,1,5.3
	c0.6,34.2,10.7,65.8,27.4,95.3c27.5,48.4,63.9,88.9,109.4,121.1c25.8,18.2,52.2,35.5,81.6,47.5c15.3,6.2,31.1,11.5,47.5,17.6
	c-6,1.9-11.5,4-17.2,5.5c-32.8,8.5-65.9,9.5-99.1,3.9c-37-6.2-72.3-17.5-105.8-34.4c-42.2-21.3-84.3-43-126.6-64.2
	c-24.8-12.4-50.1-23.9-76.6-32.3c-31.2-9.9-63-15.5-95.8-14.9c-4.8,0.1-9.6,0-14.4,0C39.5,526.2,50.6,522.9,62.3,521z M242.7,859
	c-5.1,10.5-11.8,19.7-23,24.5c-16.9,7.3-33.9,2.8-44.8-12c-11.2-15.3-14.9-32.8-14.2-51.4c0.6-15.3,4.6-29.4,14.1-41.8
	c15.8-20.6,54-21.6,67,7.7c1.8,4.1,3.3,8.3,4.6,12.6c0.7,2.5,0.8,5.2,1.3,8.2c-9.1,0-17.5,0-26,0c-1.6-5-2.8-9.8-4.8-14.3
	c-4.7-10.4-15.1-11.1-22-1.9c-5,6.7-6.4,14.6-7.3,22.5c-1.6,14-1.3,27.9,5.3,40.9c2.3,4.6,5.6,8.3,11.2,8.9
	c7.4,0.8,13.1-3.6,14.5-12.6c0.9-5.3,3.2-6.3,7.9-6.1c6.8,0.3,13.6,0.1,21.9,0.1C246.2,850,244.8,854.7,242.7,859z M185.8,746.3
	c7.4,0.9,14.4-2.3,20.8,2.6c5.8-4.9,13.2-1.3,20-2.6c0.2,0.4,0.5,0.8,0.7,1.2c-2.8,4.1-5.6,8.4-8.7,12.5c-0.5,0.8-2.3,0.9-3.5,0.9
	c-5.9,0.1-11.9-0.2-17.9,0.1c-3.3,0.2-5.2-0.9-6.4-4C189.5,753.6,187.8,750.5,185.8,746.3z M351,863.9c0,8.5,0,16.1,0,24.2
	c-25.3,0-50.7,0-77.1,0c12.3-31.8,24.5-63.2,37.2-95.8c-8.9,0-17.1-0.1-25.2,0.1c-3.3,0-4.4-1.3-4.3-4.5c0.1-5.3-0.1-10.7-0.2-16
	c0-2.3,0.3-4.4,3.4-4.4c22,0,43.9,0,66.7,0c-12.5,32.4-24.6,63.9-37.1,96.4C327,863.9,338.9,863.9,351,863.9z M413.1,808.6
	C418,814,424,818.8,430,823c7.9,5.6,15.1,11.6,18.9,20.7c7.2,17.2-0.9,36.9-18.3,43.7c-17.5,6.8-33.6,4.5-47.7-8.5
	c-0.7-0.7-1.3-1.5-2.1-2.4c5.1-6.7,10.1-13.2,15-19.9c4.2,2.5,8.2,5.1,12.4,7.2c4.8,2.4,9.3,1.2,12.5-2.7c3.2-4,3.2-8.4-0.1-11.8
	c-4.8-5.1-10.2-9.8-15.8-14.2c-8.7-6.8-16.9-13.8-20.6-24.8c-5.9-17.6,4.3-36.1,21.9-41.4c17.9-5.4,32,1.8,46.4,11.2
	c-4.8,6.5-9.4,12.8-14.1,19.2c-3.6-2.6-6.9-5.4-10.6-7.5c-6-3.4-11.1-2.9-14.6,0.9C409.1,797.2,408.4,803.4,413.1,808.6z
	 M568.1,699.1c-19.8,13.9-41,24.3-64.6,30.2c-35,8.7-70.4,12.9-106.4,11.5c-26.3-1-52.4-4.1-78.2-9.5c-26-5.4-51.4-12.3-75.6-23.3
	c-28.3-12.8-53.4-30.8-77.7-50c-24.3-19.2-43.8-43-64.8-65.4c-14.2-15.1-28.7-30-44-44c-6.3-5.7-15-8.7-22.4-12.9
	c7.7,0,16-0.5,24.1,0.1c32.9,2.4,61.9,16.7,91.1,30.4c45,21.1,88.2,45.6,129.3,73.5c31.4,21.3,66,35.8,101.3,48.5
	c24.1,8.7,49.5,12.7,75.1,14.9c23.1,2.1,46.2,2.2,69.3-0.3c16.9-1.9,33.6-4.7,49.4-11.3c0.4-0.2,0.9-0.1,2.9-0.2
	C573.2,694.5,570.7,697.1,568.1,699.1z"/>
</svg>
