<?xml version="1.0" encoding="utf-8"?>
<!-- Generator: Adobe Illustrator 24.1.1, SVG Export Plug-In . SVG Version: 6.00 Build 0)  -->
<svg version="1.1" xmlns="http://www.w3.org/2000/svg" xmlns:xlink="http://www.w3.org/1999/xlink" x="0px" y="0px"
	 viewBox="0 0 419.5 277.8" style="enable-background:new 0 0 419.5 277.8;" xml:space="preserve">
<style type="text/css">
	.st0{display:none;}
	.st1{display:inline;fill:#E30613;stroke:#FFFFFF;stroke-width:0.8504;stroke-miterlimit:10;}
	.st2{display:none;stroke:#FFFFFF;stroke-width:0.8504;stroke-miterlimit:10;}
	.st3{display:none;fill:#F9B233;stroke:#FFFFFF;stroke-width:0.8504;stroke-miterlimit:10;}
	.st4{fill:#FFFFFF;}
</style>
<g id="Vrstva_2" class="st0">
	<rect x="-19.2" y="-24.6" class="st1" width="564.6" height="343.1"/>
</g>
<g id="Vrstva_1">
	<path class="st2" d="M172.5,65.1"/>
	<path class="st3" d="M172.5,212"/>
	<g>
		<g>
			<path d="M108.3,7.7v147.5c0,28.7,12,55.7,33.7,76.2c21.7,20.4,50.3,31.6,80.7,31.6c34.4,0,68-15.7,89.9-41.9l0.1-0.2
				c15.7-18.9,24.4-42.2,24.4-65.7V7.7H108.3z M331.2,154.2c0,22.2-8.2,44.4-23.1,62.3l-0.1,0.2c-20.8,24.9-52.7,39.8-85.3,39.8
				c-28.8,0-56-10.6-76.5-29.9c-20.6-19.4-32-45-32-72.3v-140h217.1V154.2z"/>
			<path class="st4" d="M222.6,264.4c-30.7,0-59.7-11.3-81.6-31.9c-22-20.7-34.1-48.1-34.1-77.2V6.3h231.6v148.9
				c0,23.8-8.8,47.4-24.7,66.6C291.5,248.5,257.4,264.4,222.6,264.4z M109.7,9.1v146.1c0,28.3,11.8,55,33.3,75.1
				c21.4,20.1,49.7,31.2,79.7,31.2c34,0,67.2-15.5,88.8-41.4c15.7-18.8,24.2-41.8,24.2-64.9V9.1H109.7z M222.6,257.8
				c-29.2,0-56.7-10.8-77.5-30.3c-20.9-19.6-32.4-45.7-32.4-73.3V12.8h219.9v141.4c0,22.6-8.3,45-23.5,63.2
				C288,242.8,255.7,257.8,222.6,257.8z M115.5,15.7v138.5c0,26.8,11.2,52.1,31.5,71.2c20.3,19.1,47.1,29.6,75.6,29.6
				c32.2,0,63.7-14.7,84.2-39.2c14.8-17.8,22.9-39.7,23-61.6V15.7H115.5z"/>
		</g>
		<g>
			<path d="M114.1,154.2c0,27.2,11.4,52.9,32,72.3c20.6,19.3,47.7,29.9,76.5,29.9c32.6,0,64.5-14.9,85.3-39.8l0.1-0.2
				c14.9-18,23.1-40.1,23.1-62.3v-140H114.1V154.2z M137.7,207.7l27.9-124.6l27.9,124.6H137.7z M194.8,207.7l27.9-124.6l27.9,124.6
				H194.8z M252,207.7l27.9-124.6l27.9,124.6H252z M307,27c6.4,0,11.6,5.2,11.6,11.6s-5.2,11.6-11.6,11.6c-6.4,0-11.6-5.2-11.6-11.6
				S300.6,27,307,27z M265.4,27c6.4,0,11.6,5.2,11.6,11.6s-5.2,11.6-11.6,11.6s-11.6-5.2-11.6-11.6S259,27,265.4,27z M222.7,27
				c6.4,0,11.6,5.2,11.6,11.6s-5.2,11.6-11.6,11.6c-6.4,0-11.6-5.2-11.6-11.6S216.3,27,222.7,27z M182.6,27
				c6.4,0,11.6,5.2,11.6,11.6s-5.2,11.6-11.6,11.6c-6.4,0-11.6-5.2-11.6-11.6S176.2,27,182.6,27z M142.3,27
				c6.4,0,11.6,5.2,11.6,11.6s-5.2,11.6-11.6,11.6c-6.4,0-11.6-5.2-11.6-11.6S135.9,27,142.3,27z M115.2,64.3H330v2.8H115.2V64.3z"
				/>
			<path class="st4" d="M222.6,257.8c-29.2,0-56.7-10.8-77.5-30.3c-20.9-19.6-32.4-45.7-32.4-73.3V12.8h219.9v141.4
				c0,22.6-8.3,45-23.5,63.2C288,242.8,255.7,257.8,222.6,257.8z M115.5,68.5v85.7c0,26.8,11.2,52.1,31.5,71.2
				c20.3,19.1,47.1,29.6,75.6,29.6c32.2,0,63.7-14.7,84.2-39.2c14.8-17.8,22.9-39.7,23-61.6V68.5H115.5z M115.5,62.9h214.3V15.7
				H115.5V62.9z M309.5,209.1H135.9l29.7-132.4L194.1,204l28.5-127.3l28.6,127.7l28.6-127.7L309.5,209.1z M253.7,206.3H306
				L279.9,89.6L253.7,206.3z M196.5,206.3h52.3L222.7,89.6L196.5,206.3z M139.5,206.3h52.3L165.6,89.6L139.5,206.3z M307,51.5
				c-7.2,0-13-5.8-13-13c0-7.2,5.8-13,13-13c7.2,0,13,5.8,13,13C319.9,45.7,314.1,51.5,307,51.5z M307,28.4
				c-5.6,0-10.1,4.5-10.1,10.1c0,5.6,4.5,10.1,10.1,10.1c5.6,0,10.1-4.5,10.1-10.1C317.1,32.9,312.6,28.4,307,28.4z M265.4,51.5
				c-7.2,0-13-5.8-13-13c0-7.2,5.8-13,13-13c7.2,0,13,5.8,13,13C278.3,45.7,272.5,51.5,265.4,51.5z M265.4,28.4
				c-5.6,0-10.1,4.5-10.1,10.1c0,5.6,4.6,10.1,10.1,10.1c5.6,0,10.1-4.5,10.1-10.1C275.5,32.9,271,28.4,265.4,28.4z M222.7,51.5
				c-7.2,0-13-5.8-13-13c0-7.2,5.8-13,13-13c7.2,0,13,5.8,13,13C235.6,45.7,229.8,51.5,222.7,51.5z M222.7,28.4
				c-5.6,0-10.1,4.5-10.1,10.1c0,5.6,4.5,10.1,10.1,10.1s10.1-4.5,10.1-10.1C232.8,32.9,228.3,28.4,222.7,28.4z M182.6,51.5
				c-7.2,0-13-5.8-13-13c0-7.2,5.8-13,13-13c7.2,0,13,5.8,13,13C195.6,45.7,189.7,51.5,182.6,51.5z M182.6,28.4
				c-5.6,0-10.1,4.5-10.1,10.1c0,5.6,4.5,10.1,10.1,10.1c5.6,0,10.1-4.5,10.1-10.1C192.7,32.9,188.2,28.4,182.6,28.4z M142.3,51.5
				c-7.2,0-13-5.8-13-13c0-7.2,5.8-13,13-13c7.2,0,13,5.8,13,13C155.2,45.7,149.4,51.5,142.3,51.5z M142.3,28.4
				c-5.6,0-10.1,4.5-10.1,10.1c0,5.6,4.5,10.1,10.1,10.1c5.6,0,10.1-4.5,10.1-10.1C152.4,32.9,147.9,28.4,142.3,28.4z"/>
		</g>
		<rect x="115.2" y="64.3" width="214.7" height="2.8"/>
		<g>
			<polygon points="137.7,207.7 193.5,207.7 165.6,83.1 			"/>
			<path class="st4" d="M195.3,209.1h-59.3l29.7-132.4L195.3,209.1z M139.5,206.3h52.3L165.6,89.6L139.5,206.3z"/>
		</g>
		<g>
			<polygon points="194.8,207.7 250.6,207.7 222.7,83.1 			"/>
			<path class="st4" d="M252.3,209.1H193l29.7-132.4L252.3,209.1z M196.5,206.3h52.3L222.7,89.6L196.5,206.3z"/>
		</g>
		<g>
			<polygon points="252,207.7 307.8,207.7 279.9,83.1 			"/>
			<path class="st4" d="M309.5,209.1h-59.3l29.7-132.4L309.5,209.1z M253.7,206.3H306L279.9,89.6L253.7,206.3z"/>
		</g>
		<g>
			<path d="M142.3,50.1c6.4,0,11.6-5.2,11.6-11.6S148.6,27,142.3,27c-6.4,0-11.6,5.2-11.6,11.6S135.9,50.1,142.3,50.1z"/>
			<path class="st4" d="M142.3,51.5c-7.2,0-13-5.8-13-13c0-7.2,5.8-13,13-13c7.2,0,13,5.8,13,13C155.2,45.7,149.4,51.5,142.3,51.5z
				 M142.3,28.4c-5.6,0-10.1,4.5-10.1,10.1c0,5.6,4.5,10.1,10.1,10.1c5.6,0,10.1-4.5,10.1-10.1C152.4,32.9,147.9,28.4,142.3,28.4z"
				/>
		</g>
		<g>
			<path d="M182.6,50.1c6.4,0,11.6-5.2,11.6-11.6S189,27,182.6,27c-6.4,0-11.6,5.2-11.6,11.6S176.2,50.1,182.6,50.1z"/>
			<path class="st4" d="M182.6,51.5c-7.2,0-13-5.8-13-13c0-7.2,5.8-13,13-13c7.2,0,13,5.8,13,13C195.6,45.7,189.7,51.5,182.6,51.5z
				 M182.6,28.4c-5.6,0-10.1,4.5-10.1,10.1c0,5.6,4.5,10.1,10.1,10.1c5.6,0,10.1-4.5,10.1-10.1C192.7,32.9,188.2,28.4,182.6,28.4z"
				/>
		</g>
		<g>
			<path d="M222.7,50.1c6.4,0,11.6-5.2,11.6-11.6S229,27,222.7,27c-6.4,0-11.6,5.2-11.6,11.6S216.3,50.1,222.7,50.1z"/>
			<path class="st4" d="M222.7,51.5c-7.2,0-13-5.8-13-13c0-7.2,5.8-13,13-13c7.2,0,13,5.8,13,13C235.6,45.7,229.8,51.5,222.7,51.5z
				 M222.7,28.4c-5.6,0-10.1,4.5-10.1,10.1c0,5.6,4.5,10.1,10.1,10.1s10.1-4.5,10.1-10.1C232.8,32.9,228.3,28.4,222.7,28.4z"/>
		</g>
		<g>
			<path d="M265.4,50.1c6.4,0,11.6-5.2,11.6-11.6S271.7,27,265.4,27s-11.6,5.2-11.6,11.6S259,50.1,265.4,50.1z"/>
			<path class="st4" d="M265.4,51.5c-7.2,0-13-5.8-13-13c0-7.2,5.8-13,13-13c7.2,0,13,5.8,13,13C278.3,45.7,272.5,51.5,265.4,51.5z
				 M265.4,28.4c-5.6,0-10.1,4.5-10.1,10.1c0,5.6,4.6,10.1,10.1,10.1c5.6,0,10.1-4.5,10.1-10.1C275.5,32.9,271,28.4,265.4,28.4z"/>
		</g>
		<g>
			<path d="M307,50.1c6.4,0,11.6-5.2,11.6-11.6S313.4,27,307,27c-6.4,0-11.6,5.2-11.6,11.6S300.6,50.1,307,50.1z"/>
			<path class="st4" d="M307,51.5c-7.2,0-13-5.8-13-13c0-7.2,5.8-13,13-13c7.2,0,13,5.8,13,13C319.9,45.7,314.1,51.5,307,51.5z
				 M307,28.4c-5.6,0-10.1,4.5-10.1,10.1c0,5.6,4.5,10.1,10.1,10.1c5.6,0,10.1-4.5,10.1-10.1C317.1,32.9,312.6,28.4,307,28.4z"/>
		</g>
	</g>
</g>
</svg>
