<?xml version="1.0" encoding="utf-8"?>
<!-- Generator: Adobe Illustrator 24.1.1, SVG Export Plug-In . SVG Version: 6.00 Build 0)  -->
<svg version="1.1" id="Vrstva_1" xmlns="http://www.w3.org/2000/svg" xmlns:xlink="http://www.w3.org/1999/xlink" x="0px" y="0px"
	 viewBox="0 0 419.5 277.8" style="enable-background:new 0 0 419.5 277.8;" xml:space="preserve">
<style type="text/css">
	.st0{fill:#E6362C;}
	.st1{fill:#025B93;}
</style>
<g id="Vrstva_1_1_">
	<g>
		<path class="st0" d="M265.8,106.9v-2.7V45.5H161.1v58.9v2.7c1.2,24.8,20,45.5,44.4,49.1l5.2,0.5h2.7c25.8,0,48-19.1,51.8-44.6
			L265.8,106.9z M227.5,130.8L227.5,130.8L227.5,130.8h-26h-26l6.5-36.6l6.4-36.6l13.1,73.1l13.1-73.1l6.4,36.6L227.5,130.8
			l6.5-36.6l6.5-36.6l6.5,36.6l6.5,36.6H227.5z"/>
		<path class="st0" d="M266.1,15.7h-105v26.5h105V15.7z M170.2,36.3c-3.2,0-5.9-2.7-5.9-5.9c0-3.2,2.5-5.9,5.9-5.9
			c3.2,0,5.9,2.7,5.9,5.9C176,33.6,173.4,36.3,170.2,36.3z M191.6,36.3c-3.2,0-5.9-2.7-5.9-5.9c0-3.2,2.7-5.9,5.9-5.9
			c3.2,0,5.9,2.7,5.9,5.9C197.5,33.6,194.8,36.3,191.6,36.3z M213.3,36.3c-3.2,0-5.9-2.7-5.9-5.9c0-3.2,2.7-5.9,5.9-5.9
			c3.2,0,5.9,2.7,5.9,5.9C219.1,33.6,216.5,36.3,213.3,36.3z M234.9,36.3c-3.2,0-5.9-2.7-5.9-5.9c0-3.2,2.7-5.9,5.9-5.9
			s5.9,2.7,5.9,5.9C240.8,33.6,238.1,36.3,234.9,36.3z M256.5,36.3c-3.2,0-5.9-2.7-5.9-5.9c0-3.2,2.5-5.9,5.9-5.9
			c3.2,0,5.9,2.7,5.9,5.9C262.4,33.6,259.7,36.3,256.5,36.3z"/>
		<path class="st0" d="M272.1,119.4l1.2-5.9l0.7-6V7.8H153.4v99.6l0.7,6l1.2,5.9c6.5,25.5,29,43.9,55.4,45.3h6.2l6-0.7
			C246.7,160.3,266.1,142.7,272.1,119.4z M213.6,160.3c-30.7,0-55.9-25-55.9-55.9V12.3h111.7v92.1
			C269.5,135.1,244.3,160.3,213.6,160.3z"/>
	</g>
	<g>
		<path class="st1" d="M12.7,209.4l5.7-6.7c3.7,2.8,7.7,4.4,11.8,4.4c2.7,0,4.1-0.9,4.1-2.5v-0.1c0-1.5-1.2-2.4-6.1-3.5
			c-7.8-1.8-13.8-4-13.8-11.5v-0.1c0-6.7,5.4-11.7,14.2-11.7c6.3,0,11.1,1.7,15,4.8l-5.1,7.2c-3.3-2.4-7-3.7-10.3-3.7
			c-2.5,0-3.7,1.1-3.7,2.4v0.1c0,1.7,1.3,2.4,6.4,3.5c8.4,1.8,13.6,4.5,13.6,11.3v0.1c0,7.4-5.9,11.9-14.8,11.9
			C23.4,215.5,17.3,213.5,12.7,209.4z"/>
		<path class="st1" d="M57.4,187.1h-11v-8.9h32.1v8.9h-11v27.6H57.4L57.4,187.1L57.4,187.1z"/>
		<path class="st1" d="M91,178h9.8l15.6,36.9h-10.9l-2.7-6.5H88.7l-2.6,6.5H75.5L91,178z M99.9,200.5l-4-10.4l-4.1,10.4H99.9z"/>
		<path class="st1" d="M119.9,178.3h17.2c5.6,0,9.5,1.4,11.9,4c2.1,2.1,3.2,5,3.2,8.5v0.1c0,5.6-3,9.3-7.6,11.2l8.7,12.8h-11.7
			l-7.3-11.1h-4.4v11.1h-10.2V178.3z M136.7,195.9c3.4,0,5.4-1.7,5.4-4.4v-0.1c0-2.8-2.1-4.4-5.4-4.4h-6.6v8.7h6.6V195.9z"/>
		<path class="st1" d="M156.2,196.7L156.2,196.7c0-10.6,8.5-19.1,19.7-19.1c11.2,0,19.6,8.4,19.6,18.9v0.1c0,10.5-8.5,19-19.7,19
			C164.6,215.6,156.2,207.2,156.2,196.7z M185.3,196.7L185.3,196.7c0-5.4-3.8-9.9-9.5-9.9c-5.6,0-9.2,4.5-9.2,9.8v0.1
			c0,5.3,3.8,9.9,9.3,9.9C181.6,206.5,185.3,202,185.3,196.7z"/>
		<path class="st1" d="M200.9,178.3h18.8c4.6,0,7.8,1.2,9.9,3.3c1.4,1.4,2.4,3.4,2.4,5.9v0.1c0,4.3-2.4,6.7-5.7,8.2
			c4.5,1.4,7.2,4,7.2,9v0.1c0,6.3-5.1,10-13.8,10h-18.9v-36.6H200.9z M217.2,192.9c3.1,0,4.8-1.1,4.8-3.2v-0.1c0-2-1.5-3.2-4.6-3.2
			h-6.6v6.4h6.4V192.9z M218.6,206.7c3.1,0,4.8-1.2,4.8-3.3v-0.1c0-2-1.5-3.3-5-3.3h-7.7v6.7H218.6z"/>
		<path class="st1" d="M238.2,178.3h29.4v8.6h-19.4v5.6h17.6v8h-17.6v5.8h19.6v8.6h-29.7V178.3z M257.5,175.8h-8.9l-6.4-7.8h6.7
			l4.1,2.7l4.1-2.7h6.7L257.5,175.8z"/>
		<path class="st1" d="M273.2,178.3h10.2v27.6H301v8.9h-27.9V178.3z"/>
		<path class="st1" d="M302.5,209.4l5.7-6.7c3.7,2.8,7.7,4.4,11.8,4.4c2.7,0,4.1-0.9,4.1-2.5v-0.1c0-1.5-1.2-2.4-6.1-3.5
			c-7.8-1.8-13.8-4-13.8-11.5v-0.1c0-6.7,5.4-11.7,14.2-11.7c6.3,0,11.1,1.7,15,4.8l-5.1,7.2c-3.3-2.4-7-3.7-10.3-3.7
			c-2.5,0-3.7,1.1-3.7,2.4v0.1c0,1.7,1.3,2.4,6.4,3.5c8.4,1.8,13.6,4.5,13.6,11.3v0.1c0,7.4-5.9,11.9-14.8,11.9
			C313.2,215.5,307.1,213.5,302.5,209.4z"/>
		<path class="st1" d="M339.3,178.3h10.2v14.9l12.6-14.9h12.1L360.4,194l14.3,20.8h-12.2l-9.2-13.6l-3.7,4.1v9.5h-10.2v-36.5H339.3z
			"/>
		<g>
			<path class="st1" d="M386.3,201.2l-13.9-22.9H384l7.6,13.3l7.6-13.3h11.3l-13.9,22.7v13.8h-10.2V201.2z M393.2,167.3l9.5,2.8
				l-7.7,5.6h-7.3L393.2,167.3z"/>
		</g>
	</g>
	<g>
		<path class="st1" d="M14.3,254.5l18.3-20.6H14.9v-8.6h31.7v7.4l-18.3,20.7h18.3v8.6H14.3V254.5z"/>
		<path class="st1" d="M52,225.3h15.7c9.2,0,15.2,4.7,15.2,12.9v0.1c0,8.6-6.6,13.1-15.7,13.1h-5v10.4H52.1v-36.5H52z M66.9,243.5
			c3.7,0,5.8-1.9,5.8-4.7v-0.1c0-3.2-2.2-4.8-5.9-4.8H62v9.7H66.9z"/>
		<path class="st1" d="M87.1,225.3h17.2c5.6,0,9.5,1.4,11.9,4c2.1,2.1,3.2,5,3.2,8.5v0.1c0,5.6-3,9.3-7.6,11.2l8.7,12.8h-11.7
			l-7.3-11.1h-4.5v11.1H87v-36.6H87.1z M103.9,242.9c3.4,0,5.4-1.7,5.4-4.4v-0.1c0-2.8-2.1-4.4-5.4-4.4h-6.6v8.7h6.6V242.9z"/>
		<path class="st1" d="M136.7,225h9.8l15.5,36.9h-10.9l-2.7-6.5h-14.1l-2.6,6.5h-10.6L136.7,225z M145.6,247.5l-4-10.4l-4.1,10.4
			H145.6z"/>
		<path class="st1" d="M157.4,225.3h11.3l8.3,23.2l8.3-23.2h11.1l-14.9,36.9H172L157.4,225.3z"/>
		<path class="st1" d="M196.5,243.7L196.5,243.7c0-10.6,8.5-19.1,19.7-19.1s19.6,8.4,19.6,18.9v0.1c0,10.5-8.5,19-19.7,19
			C204.8,262.6,196.5,254.2,196.5,243.7z M225.4,243.7L225.4,243.7c0-5.4-3.8-9.9-9.5-9.9c-5.6,0-9.2,4.5-9.2,9.8v0.1
			c0,5.3,3.8,9.9,9.3,9.9C221.8,253.5,225.4,249,225.4,243.7z"/>
		<path class="st1" d="M241.1,225.3h14.1c13.1,0,20.7,7.6,20.7,18.1v0.1c0,10.5-7.7,18.4-20.8,18.4h-13.9V225.3z M255.3,252.9
			c6,0,10-3.3,10-9.2v-0.1c0-5.9-4-9.2-10-9.2h-4.1v18.5C251.2,252.9,255.3,252.9,255.3,252.9z"/>
		<path class="st1" d="M291.1,225h9.8l15.6,36.9h-10.9l-2.7-6.5h-14.1l-2.6,6.5h-10.6L291.1,225z M300,247.5l-4-10.4l-4.1,10.4H300z
			"/>
		<path class="st1" d="M317,256.4l6.5-6.1c1.8,2.1,3.4,3.4,5.7,3.4c2.6,0,4.1-1.8,4.1-5.1v-23.3h10v23.2c0,4.6-1.2,7.8-3.7,10.3
			c-2.4,2.4-5.9,3.7-10,3.7C323.4,262.5,319.5,259.9,317,256.4z"/>
	</g>
</g>
</svg>
