<?xml version="1.0" encoding="utf-8"?>
<!-- Generator: Adobe Illustrator 24.1.1, SVG Export Plug-In . SVG Version: 6.00 Build 0)  -->
<svg version="1.1" xmlns="http://www.w3.org/2000/svg" xmlns:xlink="http://www.w3.org/1999/xlink" x="0px" y="0px"
	 viewBox="0 0 419.2 276.9" style="enable-background:new 0 0 419.2 276.9;" xml:space="preserve">
<style type="text/css">
	.st0{fill:#000000;}
	.st1{fill:#000000;}
</style>
<g id="Vrstva_1">
</g>
<g id="Vrstva_2">
	<g id="Vrstva_1_1_">
		<g>
			<path class="st0" d="M265.6,111.2v-2.7V49.8H160.9v58.9v2.7c1.2,24.8,20,45.5,44.4,49.1l5.2,0.5h2.7c25.8,0,48-19.1,51.8-44.6
				L265.6,111.2z M227.3,135L227.3,135L227.3,135h-26h-26l6.5-36.6l6.4-36.6l13.1,73.1l13.1-73.1l6.4,36.6L227.3,135l6.5-36.6
				l6.5-36.6l6.5,36.6l6.5,36.6H227.3z"/>
			<path class="st0" d="M265.9,19.9h-105v26.5h105V19.9z M169.9,40.6c-3.2,0-5.9-2.7-5.9-5.9c0-3.2,2.5-5.9,5.9-5.9
				c3.2,0,5.9,2.7,5.9,5.9C175.8,37.9,173.1,40.6,169.9,40.6z M191.4,40.6c-3.2,0-5.9-2.7-5.9-5.9c0-3.2,2.7-5.9,5.9-5.9
				c3.2,0,5.9,2.7,5.9,5.9C197.3,37.9,194.6,40.6,191.4,40.6z M213.1,40.6c-3.2,0-5.9-2.7-5.9-5.9c0-3.2,2.7-5.9,5.9-5.9
				c3.2,0,5.9,2.7,5.9,5.9C218.9,37.9,216.2,40.6,213.1,40.6z M234.7,40.6c-3.2,0-5.9-2.7-5.9-5.9c0-3.2,2.7-5.9,5.9-5.9
				c3.2,0,5.9,2.7,5.9,5.9C240.6,37.9,237.9,40.6,234.7,40.6z M256.3,40.6c-3.2,0-5.9-2.7-5.9-5.9c0-3.2,2.5-5.9,5.9-5.9
				c3.2,0,5.9,2.7,5.9,5.9C262.2,37.9,259.5,40.6,256.3,40.6z"/>
			<path class="st0" d="M271.9,123.6l1.2-5.9l0.7-6V12.1H153.2v99.6l0.7,6l1.2,5.9c6.5,25.5,29,43.9,55.4,45.3h6.2l6-0.7
				C246.4,164.5,265.9,146.9,271.9,123.6z M213.4,164.5c-30.7,0-55.9-25-55.9-55.9V16.6h111.7v92.1
				C269.2,139.4,244.1,164.5,213.4,164.5z"/>
		</g>
		<g>
			<path class="st1" d="M12.4,213.7l5.7-6.7c3.7,2.8,7.7,4.4,11.8,4.4c2.7,0,4.1-0.9,4.1-2.5v-0.1c0-1.5-1.2-2.4-6.1-3.5
				c-7.8-1.8-13.8-4-13.8-11.5v-0.1c0-6.7,5.4-11.7,14.2-11.7c6.3,0,11.1,1.7,15,4.8l-5.1,7.2c-3.3-2.4-7-3.7-10.3-3.7
				c-2.5,0-3.7,1.1-3.7,2.4v0.1c0,1.7,1.3,2.4,6.4,3.5c8.4,1.8,13.6,4.5,13.6,11.3v0.1c0,7.4-5.9,11.9-14.8,11.9
				C23.2,219.7,17.1,217.7,12.4,213.7z"/>
			<path class="st1" d="M57.2,191.4h-11v-8.9h32.1v8.9h-11V219H57.2L57.2,191.4L57.2,191.4z"/>
			<path class="st1" d="M90.8,182.3h9.8l15.6,36.9h-10.9l-2.7-6.5H88.5l-2.6,6.5H75.3L90.8,182.3z M99.6,204.7l-4-10.4l-4.1,10.4
				H99.6z"/>
			<path class="st1" d="M119.7,182.5H137c5.6,0,9.5,1.4,11.9,4c2.1,2.1,3.2,5,3.2,8.5v0.1c0,5.6-3,9.3-7.6,11.2l8.7,12.8h-11.7
				l-7.3-11.1h-4.4v11.1h-10.2V182.5z M136.5,200.1c3.4,0,5.4-1.7,5.4-4.4v-0.1c0-2.8-2.1-4.4-5.4-4.4h-6.6v8.7h6.6V200.1z"/>
			<path class="st1" d="M156,200.9L156,200.9c0-10.6,8.5-19.1,19.7-19.1s19.6,8.4,19.6,18.9v0.1c0,10.5-8.5,19-19.7,19
				C164.4,219.8,156,211.5,156,200.9z M185,200.9L185,200.9c0-5.4-3.8-9.9-9.5-9.9c-5.6,0-9.2,4.5-9.2,9.8v0.1
				c0,5.3,3.8,9.9,9.3,9.9C181.4,210.7,185,206.3,185,200.9z"/>
			<path class="st1" d="M200.6,182.5h18.8c4.6,0,7.8,1.2,9.9,3.3c1.4,1.4,2.4,3.4,2.4,5.9v0.1c0,4.3-2.4,6.7-5.7,8.2
				c4.5,1.4,7.2,4,7.2,9v0.1c0,6.3-5.1,10-13.8,10h-18.9v-36.6H200.6z M216.9,197.2c3.1,0,4.8-1.1,4.8-3.2v-0.1c0-2-1.5-3.2-4.6-3.2
				h-6.6v6.4h6.4V197.2z M218.4,211c3.1,0,4.8-1.2,4.8-3.3v-0.1c0-2-1.5-3.3-5-3.3h-7.7v6.7H218.4z"/>
			<path class="st1" d="M238,182.5h29.4v8.6H248v5.6h17.6v8H248v5.8h19.6v8.6H238V182.5z M257.2,180h-8.9l-6.4-7.8h6.7l4.1,2.7
				l4.1-2.7h6.7L257.2,180z"/>
			<path class="st1" d="M272.9,182.5h10.2v27.6h17.7v8.9h-27.9V182.5z"/>
			<path class="st1" d="M302.2,213.7l5.7-6.7c3.7,2.8,7.7,4.4,11.8,4.4c2.7,0,4.1-0.9,4.1-2.5v-0.1c0-1.5-1.2-2.4-6.1-3.5
				c-7.8-1.8-13.8-4-13.8-11.5v-0.1c0-6.7,5.4-11.7,14.2-11.7c6.3,0,11.1,1.7,15,4.8L328,194c-3.3-2.4-7-3.7-10.3-3.7
				c-2.5,0-3.7,1.1-3.7,2.4v0.1c0,1.7,1.3,2.4,6.4,3.5c8.4,1.8,13.6,4.5,13.6,11.3v0.1c0,7.4-5.9,11.9-14.8,11.9
				C313,219.7,306.9,217.7,302.2,213.7z"/>
			<path class="st1" d="M339.1,182.5h10.2v14.9l12.6-14.9H374l-13.8,15.7l14.3,20.8h-12.2l-9.2-13.6l-3.7,4.1v9.5h-10.2v-36.5H339.1
				z"/>
			<g>
				<path class="st1" d="M386.1,205.4l-13.9-22.9h11.6l7.6,13.3l7.6-13.3h11.3l-13.9,22.7V219h-10.2V205.4z M393,171.5l9.5,2.8
					l-7.7,5.6h-7.3L393,171.5z"/>
			</g>
		</g>
		<g>
			<path class="st1" d="M14.1,258.7l18.3-20.6H14.7v-8.6h31.7v7.4L28,257.7h18.3v8.6H14.1V258.7z"/>
			<path class="st1" d="M51.8,229.5h15.7c9.2,0,15.2,4.7,15.2,12.9v0.1c0,8.6-6.6,13.1-15.7,13.1h-5V266H51.9v-36.5H51.8z
				 M66.7,247.7c3.7,0,5.8-1.9,5.8-4.7v-0.1c0-3.2-2.2-4.8-5.9-4.8h-4.7v9.7H66.7z"/>
			<path class="st1" d="M86.9,229.5h17.2c5.6,0,9.5,1.4,11.9,4c2.1,2.1,3.2,5,3.2,8.5v0.1c0,5.6-3,9.3-7.6,11.2l8.7,12.8h-11.7
				l-7.3-11.1h-4.5v11.1H86.8v-36.6H86.9z M103.6,247.1c3.4,0,5.4-1.7,5.4-4.4v-0.1c0-2.8-2.1-4.4-5.4-4.4H97v8.7h6.6V247.1z"/>
			<path class="st1" d="M136.5,229.3h9.8l15.5,36.9h-10.9l-2.7-6.5h-14.1l-2.6,6.5h-10.6L136.5,229.3z M145.4,251.7l-4-10.4
				l-4.1,10.4H145.4z"/>
			<path class="st1" d="M157.2,229.5h11.3l8.3,23.2l8.3-23.2h11.1l-14.9,36.9h-9.5L157.2,229.5z"/>
			<path class="st1" d="M196.3,248L196.3,248c0-10.6,8.5-19.1,19.7-19.1s19.6,8.4,19.6,18.9v0.1c0,10.5-8.5,19-19.7,19
				C204.5,266.9,196.3,258.5,196.3,248z M225.2,248L225.2,248c0-5.4-3.8-9.9-9.5-9.9c-5.6,0-9.2,4.5-9.2,9.8v0.1
				c0,5.3,3.8,9.9,9.3,9.9C221.6,257.8,225.2,253.3,225.2,248z"/>
			<path class="st1" d="M240.9,229.5H255c13.1,0,20.7,7.6,20.7,18.1v0.1c0,10.5-7.7,18.4-20.8,18.4h-13.9V229.5z M255.1,257.2
				c6,0,10-3.3,10-9.2v-0.1c0-5.9-4-9.2-10-9.2H251v18.5C251,257.2,255.1,257.2,255.1,257.2z"/>
			<path class="st1" d="M290.9,229.3h9.8l15.6,36.9h-10.9l-2.7-6.5h-14.1l-2.6,6.5h-10.6L290.9,229.3z M299.8,251.7l-4-10.4
				l-4.1,10.4H299.8z"/>
			<path class="st1" d="M316.8,260.6l6.5-6.1c1.8,2.1,3.4,3.4,5.7,3.4c2.6,0,4.1-1.8,4.1-5.1v-23.3h10v23.2c0,4.6-1.2,7.8-3.7,10.3
				c-2.4,2.4-5.9,3.7-10,3.7C323.2,266.7,319.3,264.1,316.8,260.6z"/>
		</g>
	</g>
</g>
</svg>
